G75*
%MOIN*%
%OFA0B0*%
%FSLAX25Y25*%
%IPPOS*%
%LPD*%
%AMOC8*
5,1,8,0,0,1.08239X$1,22.5*
%
%ADD10C,0.00000*%
%ADD11C,0.00600*%
%ADD12C,0.00700*%
%ADD13C,0.00500*%
%ADD14R,0.01000X0.02000*%
%ADD15R,0.00500X0.01500*%
%ADD16R,0.01000X0.01000*%
%ADD17C,0.01000*%
%ADD18C,0.00400*%
%ADD19C,0.03000*%
%ADD20R,0.02000X0.03000*%
%ADD21R,0.04000X0.03000*%
%ADD22R,0.01500X0.02000*%
%ADD23R,0.02000X0.01500*%
D10*
X0023800Y0001800D02*
X0023800Y0306761D01*
X0377501Y0306761D01*
X0377501Y0001800D01*
X0023800Y0001800D01*
D11*
X0069426Y0056800D02*
X0069428Y0056932D01*
X0069434Y0057063D01*
X0069444Y0057194D01*
X0069458Y0057325D01*
X0069476Y0057455D01*
X0069498Y0057585D01*
X0069523Y0057714D01*
X0069553Y0057842D01*
X0069587Y0057970D01*
X0069624Y0058096D01*
X0069665Y0058221D01*
X0069710Y0058344D01*
X0069759Y0058467D01*
X0069812Y0058587D01*
X0069868Y0058706D01*
X0069927Y0058824D01*
X0069990Y0058939D01*
X0070057Y0059052D01*
X0070127Y0059164D01*
X0070201Y0059273D01*
X0070277Y0059380D01*
X0070357Y0059484D01*
X0070440Y0059586D01*
X0070526Y0059686D01*
X0070615Y0059783D01*
X0070707Y0059877D01*
X0070802Y0059968D01*
X0070900Y0060057D01*
X0071000Y0060142D01*
X0071102Y0060224D01*
X0071208Y0060303D01*
X0071315Y0060379D01*
X0071425Y0060452D01*
X0071537Y0060521D01*
X0071651Y0060587D01*
X0071767Y0060649D01*
X0071884Y0060708D01*
X0072004Y0060763D01*
X0072125Y0060814D01*
X0072247Y0060862D01*
X0072371Y0060906D01*
X0072497Y0060947D01*
X0072623Y0060983D01*
X0072751Y0061016D01*
X0072879Y0061044D01*
X0073008Y0061069D01*
X0073138Y0061090D01*
X0073269Y0061107D01*
X0073400Y0061120D01*
X0073531Y0061129D01*
X0073662Y0061134D01*
X0073794Y0061135D01*
X0073925Y0061132D01*
X0074057Y0061125D01*
X0074188Y0061114D01*
X0074319Y0061099D01*
X0074449Y0061080D01*
X0074578Y0061057D01*
X0074707Y0061030D01*
X0074835Y0061000D01*
X0074962Y0060965D01*
X0075088Y0060927D01*
X0075213Y0060885D01*
X0075336Y0060839D01*
X0075458Y0060789D01*
X0075578Y0060736D01*
X0075697Y0060679D01*
X0075814Y0060618D01*
X0075928Y0060554D01*
X0076041Y0060487D01*
X0076152Y0060416D01*
X0076261Y0060342D01*
X0076367Y0060264D01*
X0076471Y0060183D01*
X0076573Y0060100D01*
X0076671Y0060013D01*
X0076768Y0059923D01*
X0076861Y0059830D01*
X0076952Y0059735D01*
X0077039Y0059637D01*
X0077124Y0059536D01*
X0077205Y0059432D01*
X0077283Y0059327D01*
X0077359Y0059219D01*
X0077430Y0059108D01*
X0077499Y0058996D01*
X0077564Y0058881D01*
X0077625Y0058765D01*
X0077683Y0058647D01*
X0077737Y0058527D01*
X0077788Y0058406D01*
X0077835Y0058283D01*
X0077878Y0058158D01*
X0077917Y0058033D01*
X0077953Y0057906D01*
X0077984Y0057778D01*
X0078012Y0057650D01*
X0078036Y0057520D01*
X0078056Y0057390D01*
X0078072Y0057260D01*
X0078084Y0057129D01*
X0078092Y0056997D01*
X0078096Y0056866D01*
X0078096Y0056734D01*
X0078092Y0056603D01*
X0078084Y0056471D01*
X0078072Y0056340D01*
X0078056Y0056210D01*
X0078036Y0056080D01*
X0078012Y0055950D01*
X0077984Y0055822D01*
X0077953Y0055694D01*
X0077917Y0055567D01*
X0077878Y0055442D01*
X0077835Y0055317D01*
X0077788Y0055194D01*
X0077737Y0055073D01*
X0077683Y0054953D01*
X0077625Y0054835D01*
X0077564Y0054719D01*
X0077499Y0054604D01*
X0077430Y0054492D01*
X0077359Y0054381D01*
X0077283Y0054273D01*
X0077205Y0054168D01*
X0077124Y0054064D01*
X0077039Y0053963D01*
X0076952Y0053865D01*
X0076861Y0053770D01*
X0076768Y0053677D01*
X0076671Y0053587D01*
X0076573Y0053500D01*
X0076471Y0053417D01*
X0076367Y0053336D01*
X0076261Y0053258D01*
X0076152Y0053184D01*
X0076041Y0053113D01*
X0075929Y0053046D01*
X0075814Y0052982D01*
X0075697Y0052921D01*
X0075578Y0052864D01*
X0075458Y0052811D01*
X0075336Y0052761D01*
X0075213Y0052715D01*
X0075088Y0052673D01*
X0074962Y0052635D01*
X0074835Y0052600D01*
X0074707Y0052570D01*
X0074578Y0052543D01*
X0074449Y0052520D01*
X0074319Y0052501D01*
X0074188Y0052486D01*
X0074057Y0052475D01*
X0073925Y0052468D01*
X0073794Y0052465D01*
X0073662Y0052466D01*
X0073531Y0052471D01*
X0073400Y0052480D01*
X0073269Y0052493D01*
X0073138Y0052510D01*
X0073008Y0052531D01*
X0072879Y0052556D01*
X0072751Y0052584D01*
X0072623Y0052617D01*
X0072497Y0052653D01*
X0072371Y0052694D01*
X0072247Y0052738D01*
X0072125Y0052786D01*
X0072004Y0052837D01*
X0071884Y0052892D01*
X0071767Y0052951D01*
X0071651Y0053013D01*
X0071537Y0053079D01*
X0071425Y0053148D01*
X0071315Y0053221D01*
X0071208Y0053297D01*
X0071102Y0053376D01*
X0071000Y0053458D01*
X0070900Y0053543D01*
X0070802Y0053632D01*
X0070707Y0053723D01*
X0070615Y0053817D01*
X0070526Y0053914D01*
X0070440Y0054014D01*
X0070357Y0054116D01*
X0070277Y0054220D01*
X0070201Y0054327D01*
X0070127Y0054436D01*
X0070057Y0054548D01*
X0069990Y0054661D01*
X0069927Y0054776D01*
X0069868Y0054894D01*
X0069812Y0055013D01*
X0069759Y0055133D01*
X0069710Y0055256D01*
X0069665Y0055379D01*
X0069624Y0055504D01*
X0069587Y0055630D01*
X0069553Y0055758D01*
X0069523Y0055886D01*
X0069498Y0056015D01*
X0069476Y0056145D01*
X0069458Y0056275D01*
X0069444Y0056406D01*
X0069434Y0056537D01*
X0069428Y0056668D01*
X0069426Y0056800D01*
X0104800Y0050800D02*
X0104800Y0049300D01*
X0105300Y0048800D01*
X0105300Y0034800D01*
X0104800Y0034300D01*
X0104800Y0032800D01*
X0104802Y0032740D01*
X0104807Y0032679D01*
X0104816Y0032620D01*
X0104829Y0032561D01*
X0104845Y0032502D01*
X0104865Y0032445D01*
X0104888Y0032390D01*
X0104915Y0032335D01*
X0104944Y0032283D01*
X0104977Y0032232D01*
X0105013Y0032183D01*
X0105051Y0032137D01*
X0105093Y0032093D01*
X0105137Y0032051D01*
X0105183Y0032013D01*
X0105232Y0031977D01*
X0105283Y0031944D01*
X0105335Y0031915D01*
X0105390Y0031888D01*
X0105445Y0031865D01*
X0105502Y0031845D01*
X0105561Y0031829D01*
X0105620Y0031816D01*
X0105679Y0031807D01*
X0105740Y0031802D01*
X0105800Y0031800D01*
X0111800Y0031800D01*
X0111860Y0031802D01*
X0111921Y0031807D01*
X0111980Y0031816D01*
X0112039Y0031829D01*
X0112098Y0031845D01*
X0112155Y0031865D01*
X0112210Y0031888D01*
X0112265Y0031915D01*
X0112317Y0031944D01*
X0112368Y0031977D01*
X0112417Y0032013D01*
X0112463Y0032051D01*
X0112507Y0032093D01*
X0112549Y0032137D01*
X0112587Y0032183D01*
X0112623Y0032232D01*
X0112656Y0032283D01*
X0112685Y0032335D01*
X0112712Y0032390D01*
X0112735Y0032445D01*
X0112755Y0032502D01*
X0112771Y0032561D01*
X0112784Y0032620D01*
X0112793Y0032679D01*
X0112798Y0032740D01*
X0112800Y0032800D01*
X0112800Y0034300D01*
X0112300Y0034800D01*
X0112300Y0048800D01*
X0112800Y0049300D01*
X0112800Y0050800D01*
X0112798Y0050860D01*
X0112793Y0050921D01*
X0112784Y0050980D01*
X0112771Y0051039D01*
X0112755Y0051098D01*
X0112735Y0051155D01*
X0112712Y0051210D01*
X0112685Y0051265D01*
X0112656Y0051317D01*
X0112623Y0051368D01*
X0112587Y0051417D01*
X0112549Y0051463D01*
X0112507Y0051507D01*
X0112463Y0051549D01*
X0112417Y0051587D01*
X0112368Y0051623D01*
X0112317Y0051656D01*
X0112265Y0051685D01*
X0112210Y0051712D01*
X0112155Y0051735D01*
X0112098Y0051755D01*
X0112039Y0051771D01*
X0111980Y0051784D01*
X0111921Y0051793D01*
X0111860Y0051798D01*
X0111800Y0051800D01*
X0105800Y0051800D01*
X0105740Y0051798D01*
X0105679Y0051793D01*
X0105620Y0051784D01*
X0105561Y0051771D01*
X0105502Y0051755D01*
X0105445Y0051735D01*
X0105390Y0051712D01*
X0105335Y0051685D01*
X0105283Y0051656D01*
X0105232Y0051623D01*
X0105183Y0051587D01*
X0105137Y0051549D01*
X0105093Y0051507D01*
X0105051Y0051463D01*
X0105013Y0051417D01*
X0104977Y0051368D01*
X0104944Y0051317D01*
X0104915Y0051265D01*
X0104888Y0051210D01*
X0104865Y0051155D01*
X0104845Y0051098D01*
X0104829Y0051039D01*
X0104816Y0050980D01*
X0104807Y0050921D01*
X0104802Y0050860D01*
X0104800Y0050800D01*
X0129800Y0082800D02*
X0131300Y0082800D01*
X0131800Y0083300D01*
X0145800Y0083300D01*
X0146300Y0082800D01*
X0147800Y0082800D01*
X0147860Y0082802D01*
X0147921Y0082807D01*
X0147980Y0082816D01*
X0148039Y0082829D01*
X0148098Y0082845D01*
X0148155Y0082865D01*
X0148210Y0082888D01*
X0148265Y0082915D01*
X0148317Y0082944D01*
X0148368Y0082977D01*
X0148417Y0083013D01*
X0148463Y0083051D01*
X0148507Y0083093D01*
X0148549Y0083137D01*
X0148587Y0083183D01*
X0148623Y0083232D01*
X0148656Y0083283D01*
X0148685Y0083335D01*
X0148712Y0083390D01*
X0148735Y0083445D01*
X0148755Y0083502D01*
X0148771Y0083561D01*
X0148784Y0083620D01*
X0148793Y0083679D01*
X0148798Y0083740D01*
X0148800Y0083800D01*
X0148800Y0089800D01*
X0148798Y0089860D01*
X0148793Y0089921D01*
X0148784Y0089980D01*
X0148771Y0090039D01*
X0148755Y0090098D01*
X0148735Y0090155D01*
X0148712Y0090210D01*
X0148685Y0090265D01*
X0148656Y0090317D01*
X0148623Y0090368D01*
X0148587Y0090417D01*
X0148549Y0090463D01*
X0148507Y0090507D01*
X0148463Y0090549D01*
X0148417Y0090587D01*
X0148368Y0090623D01*
X0148317Y0090656D01*
X0148265Y0090685D01*
X0148210Y0090712D01*
X0148155Y0090735D01*
X0148098Y0090755D01*
X0148039Y0090771D01*
X0147980Y0090784D01*
X0147921Y0090793D01*
X0147860Y0090798D01*
X0147800Y0090800D01*
X0146300Y0090800D01*
X0145800Y0090300D01*
X0131800Y0090300D01*
X0131300Y0090800D01*
X0129800Y0090800D01*
X0129740Y0090798D01*
X0129679Y0090793D01*
X0129620Y0090784D01*
X0129561Y0090771D01*
X0129502Y0090755D01*
X0129445Y0090735D01*
X0129390Y0090712D01*
X0129335Y0090685D01*
X0129283Y0090656D01*
X0129232Y0090623D01*
X0129183Y0090587D01*
X0129137Y0090549D01*
X0129093Y0090507D01*
X0129051Y0090463D01*
X0129013Y0090417D01*
X0128977Y0090368D01*
X0128944Y0090317D01*
X0128915Y0090265D01*
X0128888Y0090210D01*
X0128865Y0090155D01*
X0128845Y0090098D01*
X0128829Y0090039D01*
X0128816Y0089980D01*
X0128807Y0089921D01*
X0128802Y0089860D01*
X0128800Y0089800D01*
X0128800Y0083800D01*
X0128802Y0083740D01*
X0128807Y0083679D01*
X0128816Y0083620D01*
X0128829Y0083561D01*
X0128845Y0083502D01*
X0128865Y0083445D01*
X0128888Y0083390D01*
X0128915Y0083335D01*
X0128944Y0083283D01*
X0128977Y0083232D01*
X0129013Y0083183D01*
X0129051Y0083137D01*
X0129093Y0083093D01*
X0129137Y0083051D01*
X0129183Y0083013D01*
X0129232Y0082977D01*
X0129283Y0082944D01*
X0129335Y0082915D01*
X0129390Y0082888D01*
X0129445Y0082865D01*
X0129502Y0082845D01*
X0129561Y0082829D01*
X0129620Y0082816D01*
X0129679Y0082807D01*
X0129740Y0082802D01*
X0129800Y0082800D01*
X0148800Y0073300D02*
X0148800Y0065800D01*
X0148926Y0065798D01*
X0149051Y0065792D01*
X0149176Y0065782D01*
X0149301Y0065768D01*
X0149426Y0065751D01*
X0149550Y0065729D01*
X0149673Y0065704D01*
X0149795Y0065674D01*
X0149916Y0065641D01*
X0150036Y0065604D01*
X0150155Y0065564D01*
X0150272Y0065519D01*
X0150389Y0065471D01*
X0150503Y0065419D01*
X0150616Y0065364D01*
X0150727Y0065305D01*
X0150836Y0065243D01*
X0150943Y0065177D01*
X0151048Y0065108D01*
X0151151Y0065036D01*
X0151252Y0064961D01*
X0151350Y0064882D01*
X0151445Y0064800D01*
X0151538Y0064716D01*
X0151628Y0064628D01*
X0151716Y0064538D01*
X0151800Y0064445D01*
X0151882Y0064350D01*
X0151961Y0064252D01*
X0152036Y0064151D01*
X0152108Y0064048D01*
X0152177Y0063943D01*
X0152243Y0063836D01*
X0152305Y0063727D01*
X0152364Y0063616D01*
X0152419Y0063503D01*
X0152471Y0063389D01*
X0152519Y0063272D01*
X0152564Y0063155D01*
X0152604Y0063036D01*
X0152641Y0062916D01*
X0152674Y0062795D01*
X0152704Y0062673D01*
X0152729Y0062550D01*
X0152751Y0062426D01*
X0152768Y0062301D01*
X0152782Y0062176D01*
X0152792Y0062051D01*
X0152798Y0061926D01*
X0152800Y0061800D01*
X0152798Y0061674D01*
X0152792Y0061549D01*
X0152782Y0061424D01*
X0152768Y0061299D01*
X0152751Y0061174D01*
X0152729Y0061050D01*
X0152704Y0060927D01*
X0152674Y0060805D01*
X0152641Y0060684D01*
X0152604Y0060564D01*
X0152564Y0060445D01*
X0152519Y0060328D01*
X0152471Y0060211D01*
X0152419Y0060097D01*
X0152364Y0059984D01*
X0152305Y0059873D01*
X0152243Y0059764D01*
X0152177Y0059657D01*
X0152108Y0059552D01*
X0152036Y0059449D01*
X0151961Y0059348D01*
X0151882Y0059250D01*
X0151800Y0059155D01*
X0151716Y0059062D01*
X0151628Y0058972D01*
X0151538Y0058884D01*
X0151445Y0058800D01*
X0151350Y0058718D01*
X0151252Y0058639D01*
X0151151Y0058564D01*
X0151048Y0058492D01*
X0150943Y0058423D01*
X0150836Y0058357D01*
X0150727Y0058295D01*
X0150616Y0058236D01*
X0150503Y0058181D01*
X0150389Y0058129D01*
X0150272Y0058081D01*
X0150155Y0058036D01*
X0150036Y0057996D01*
X0149916Y0057959D01*
X0149795Y0057926D01*
X0149673Y0057896D01*
X0149550Y0057871D01*
X0149426Y0057849D01*
X0149301Y0057832D01*
X0149176Y0057818D01*
X0149051Y0057808D01*
X0148926Y0057802D01*
X0148800Y0057800D01*
X0148800Y0050300D01*
X0188800Y0050300D01*
X0188800Y0073300D01*
X0148800Y0073300D01*
X0168800Y0088800D02*
X0168800Y0094800D01*
X0168802Y0094860D01*
X0168807Y0094921D01*
X0168816Y0094980D01*
X0168829Y0095039D01*
X0168845Y0095098D01*
X0168865Y0095155D01*
X0168888Y0095210D01*
X0168915Y0095265D01*
X0168944Y0095317D01*
X0168977Y0095368D01*
X0169013Y0095417D01*
X0169051Y0095463D01*
X0169093Y0095507D01*
X0169137Y0095549D01*
X0169183Y0095587D01*
X0169232Y0095623D01*
X0169283Y0095656D01*
X0169335Y0095685D01*
X0169390Y0095712D01*
X0169445Y0095735D01*
X0169502Y0095755D01*
X0169561Y0095771D01*
X0169620Y0095784D01*
X0169679Y0095793D01*
X0169740Y0095798D01*
X0169800Y0095800D01*
X0171300Y0095800D01*
X0171800Y0095300D01*
X0185800Y0095300D01*
X0186300Y0095800D01*
X0187800Y0095800D01*
X0187860Y0095798D01*
X0187921Y0095793D01*
X0187980Y0095784D01*
X0188039Y0095771D01*
X0188098Y0095755D01*
X0188155Y0095735D01*
X0188210Y0095712D01*
X0188265Y0095685D01*
X0188317Y0095656D01*
X0188368Y0095623D01*
X0188417Y0095587D01*
X0188463Y0095549D01*
X0188507Y0095507D01*
X0188549Y0095463D01*
X0188587Y0095417D01*
X0188623Y0095368D01*
X0188656Y0095317D01*
X0188685Y0095265D01*
X0188712Y0095210D01*
X0188735Y0095155D01*
X0188755Y0095098D01*
X0188771Y0095039D01*
X0188784Y0094980D01*
X0188793Y0094921D01*
X0188798Y0094860D01*
X0188800Y0094800D01*
X0188800Y0088800D01*
X0188798Y0088740D01*
X0188793Y0088679D01*
X0188784Y0088620D01*
X0188771Y0088561D01*
X0188755Y0088502D01*
X0188735Y0088445D01*
X0188712Y0088390D01*
X0188685Y0088335D01*
X0188656Y0088283D01*
X0188623Y0088232D01*
X0188587Y0088183D01*
X0188549Y0088137D01*
X0188507Y0088093D01*
X0188463Y0088051D01*
X0188417Y0088013D01*
X0188368Y0087977D01*
X0188317Y0087944D01*
X0188265Y0087915D01*
X0188210Y0087888D01*
X0188155Y0087865D01*
X0188098Y0087845D01*
X0188039Y0087829D01*
X0187980Y0087816D01*
X0187921Y0087807D01*
X0187860Y0087802D01*
X0187800Y0087800D01*
X0186300Y0087800D01*
X0185800Y0088300D01*
X0171800Y0088300D01*
X0171300Y0087800D01*
X0169800Y0087800D01*
X0169740Y0087802D01*
X0169679Y0087807D01*
X0169620Y0087816D01*
X0169561Y0087829D01*
X0169502Y0087845D01*
X0169445Y0087865D01*
X0169390Y0087888D01*
X0169335Y0087915D01*
X0169283Y0087944D01*
X0169232Y0087977D01*
X0169183Y0088013D01*
X0169137Y0088051D01*
X0169093Y0088093D01*
X0169051Y0088137D01*
X0169013Y0088183D01*
X0168977Y0088232D01*
X0168944Y0088283D01*
X0168915Y0088335D01*
X0168888Y0088390D01*
X0168865Y0088445D01*
X0168845Y0088502D01*
X0168829Y0088561D01*
X0168816Y0088620D01*
X0168807Y0088679D01*
X0168802Y0088740D01*
X0168800Y0088800D01*
X0198800Y0103800D02*
X0198800Y0109800D01*
X0198802Y0109860D01*
X0198807Y0109921D01*
X0198816Y0109980D01*
X0198829Y0110039D01*
X0198845Y0110098D01*
X0198865Y0110155D01*
X0198888Y0110210D01*
X0198915Y0110265D01*
X0198944Y0110317D01*
X0198977Y0110368D01*
X0199013Y0110417D01*
X0199051Y0110463D01*
X0199093Y0110507D01*
X0199137Y0110549D01*
X0199183Y0110587D01*
X0199232Y0110623D01*
X0199283Y0110656D01*
X0199335Y0110685D01*
X0199390Y0110712D01*
X0199445Y0110735D01*
X0199502Y0110755D01*
X0199561Y0110771D01*
X0199620Y0110784D01*
X0199679Y0110793D01*
X0199740Y0110798D01*
X0199800Y0110800D01*
X0201300Y0110800D01*
X0201800Y0110300D01*
X0215800Y0110300D01*
X0216300Y0110800D01*
X0217800Y0110800D01*
X0217860Y0110798D01*
X0217921Y0110793D01*
X0217980Y0110784D01*
X0218039Y0110771D01*
X0218098Y0110755D01*
X0218155Y0110735D01*
X0218210Y0110712D01*
X0218265Y0110685D01*
X0218317Y0110656D01*
X0218368Y0110623D01*
X0218417Y0110587D01*
X0218463Y0110549D01*
X0218507Y0110507D01*
X0218549Y0110463D01*
X0218587Y0110417D01*
X0218623Y0110368D01*
X0218656Y0110317D01*
X0218685Y0110265D01*
X0218712Y0110210D01*
X0218735Y0110155D01*
X0218755Y0110098D01*
X0218771Y0110039D01*
X0218784Y0109980D01*
X0218793Y0109921D01*
X0218798Y0109860D01*
X0218800Y0109800D01*
X0218800Y0103800D01*
X0218798Y0103740D01*
X0218793Y0103679D01*
X0218784Y0103620D01*
X0218771Y0103561D01*
X0218755Y0103502D01*
X0218735Y0103445D01*
X0218712Y0103390D01*
X0218685Y0103335D01*
X0218656Y0103283D01*
X0218623Y0103232D01*
X0218587Y0103183D01*
X0218549Y0103137D01*
X0218507Y0103093D01*
X0218463Y0103051D01*
X0218417Y0103013D01*
X0218368Y0102977D01*
X0218317Y0102944D01*
X0218265Y0102915D01*
X0218210Y0102888D01*
X0218155Y0102865D01*
X0218098Y0102845D01*
X0218039Y0102829D01*
X0217980Y0102816D01*
X0217921Y0102807D01*
X0217860Y0102802D01*
X0217800Y0102800D01*
X0216300Y0102800D01*
X0215800Y0103300D01*
X0201800Y0103300D01*
X0201300Y0102800D01*
X0199800Y0102800D01*
X0199740Y0102802D01*
X0199679Y0102807D01*
X0199620Y0102816D01*
X0199561Y0102829D01*
X0199502Y0102845D01*
X0199445Y0102865D01*
X0199390Y0102888D01*
X0199335Y0102915D01*
X0199283Y0102944D01*
X0199232Y0102977D01*
X0199183Y0103013D01*
X0199137Y0103051D01*
X0199093Y0103093D01*
X0199051Y0103137D01*
X0199013Y0103183D01*
X0198977Y0103232D01*
X0198944Y0103283D01*
X0198915Y0103335D01*
X0198888Y0103390D01*
X0198865Y0103445D01*
X0198845Y0103502D01*
X0198829Y0103561D01*
X0198816Y0103620D01*
X0198807Y0103679D01*
X0198802Y0103740D01*
X0198800Y0103800D01*
X0213800Y0089800D02*
X0213800Y0083800D01*
X0213802Y0083740D01*
X0213807Y0083679D01*
X0213816Y0083620D01*
X0213829Y0083561D01*
X0213845Y0083502D01*
X0213865Y0083445D01*
X0213888Y0083390D01*
X0213915Y0083335D01*
X0213944Y0083283D01*
X0213977Y0083232D01*
X0214013Y0083183D01*
X0214051Y0083137D01*
X0214093Y0083093D01*
X0214137Y0083051D01*
X0214183Y0083013D01*
X0214232Y0082977D01*
X0214283Y0082944D01*
X0214335Y0082915D01*
X0214390Y0082888D01*
X0214445Y0082865D01*
X0214502Y0082845D01*
X0214561Y0082829D01*
X0214620Y0082816D01*
X0214679Y0082807D01*
X0214740Y0082802D01*
X0214800Y0082800D01*
X0216300Y0082800D01*
X0216800Y0083300D01*
X0230800Y0083300D01*
X0231300Y0082800D01*
X0232800Y0082800D01*
X0232860Y0082802D01*
X0232921Y0082807D01*
X0232980Y0082816D01*
X0233039Y0082829D01*
X0233098Y0082845D01*
X0233155Y0082865D01*
X0233210Y0082888D01*
X0233265Y0082915D01*
X0233317Y0082944D01*
X0233368Y0082977D01*
X0233417Y0083013D01*
X0233463Y0083051D01*
X0233507Y0083093D01*
X0233549Y0083137D01*
X0233587Y0083183D01*
X0233623Y0083232D01*
X0233656Y0083283D01*
X0233685Y0083335D01*
X0233712Y0083390D01*
X0233735Y0083445D01*
X0233755Y0083502D01*
X0233771Y0083561D01*
X0233784Y0083620D01*
X0233793Y0083679D01*
X0233798Y0083740D01*
X0233800Y0083800D01*
X0233800Y0089800D01*
X0233798Y0089860D01*
X0233793Y0089921D01*
X0233784Y0089980D01*
X0233771Y0090039D01*
X0233755Y0090098D01*
X0233735Y0090155D01*
X0233712Y0090210D01*
X0233685Y0090265D01*
X0233656Y0090317D01*
X0233623Y0090368D01*
X0233587Y0090417D01*
X0233549Y0090463D01*
X0233507Y0090507D01*
X0233463Y0090549D01*
X0233417Y0090587D01*
X0233368Y0090623D01*
X0233317Y0090656D01*
X0233265Y0090685D01*
X0233210Y0090712D01*
X0233155Y0090735D01*
X0233098Y0090755D01*
X0233039Y0090771D01*
X0232980Y0090784D01*
X0232921Y0090793D01*
X0232860Y0090798D01*
X0232800Y0090800D01*
X0231300Y0090800D01*
X0230800Y0090300D01*
X0216800Y0090300D01*
X0216300Y0090800D01*
X0214800Y0090800D01*
X0214740Y0090798D01*
X0214679Y0090793D01*
X0214620Y0090784D01*
X0214561Y0090771D01*
X0214502Y0090755D01*
X0214445Y0090735D01*
X0214390Y0090712D01*
X0214335Y0090685D01*
X0214283Y0090656D01*
X0214232Y0090623D01*
X0214183Y0090587D01*
X0214137Y0090549D01*
X0214093Y0090507D01*
X0214051Y0090463D01*
X0214013Y0090417D01*
X0213977Y0090368D01*
X0213944Y0090317D01*
X0213915Y0090265D01*
X0213888Y0090210D01*
X0213865Y0090155D01*
X0213845Y0090098D01*
X0213829Y0090039D01*
X0213816Y0089980D01*
X0213807Y0089921D01*
X0213802Y0089860D01*
X0213800Y0089800D01*
X0229800Y0117800D02*
X0231300Y0117800D01*
X0231800Y0118300D01*
X0245800Y0118300D01*
X0246300Y0117800D01*
X0247800Y0117800D01*
X0247860Y0117802D01*
X0247921Y0117807D01*
X0247980Y0117816D01*
X0248039Y0117829D01*
X0248098Y0117845D01*
X0248155Y0117865D01*
X0248210Y0117888D01*
X0248265Y0117915D01*
X0248317Y0117944D01*
X0248368Y0117977D01*
X0248417Y0118013D01*
X0248463Y0118051D01*
X0248507Y0118093D01*
X0248549Y0118137D01*
X0248587Y0118183D01*
X0248623Y0118232D01*
X0248656Y0118283D01*
X0248685Y0118335D01*
X0248712Y0118390D01*
X0248735Y0118445D01*
X0248755Y0118502D01*
X0248771Y0118561D01*
X0248784Y0118620D01*
X0248793Y0118679D01*
X0248798Y0118740D01*
X0248800Y0118800D01*
X0248800Y0124800D01*
X0248798Y0124860D01*
X0248793Y0124921D01*
X0248784Y0124980D01*
X0248771Y0125039D01*
X0248755Y0125098D01*
X0248735Y0125155D01*
X0248712Y0125210D01*
X0248685Y0125265D01*
X0248656Y0125317D01*
X0248623Y0125368D01*
X0248587Y0125417D01*
X0248549Y0125463D01*
X0248507Y0125507D01*
X0248463Y0125549D01*
X0248417Y0125587D01*
X0248368Y0125623D01*
X0248317Y0125656D01*
X0248265Y0125685D01*
X0248210Y0125712D01*
X0248155Y0125735D01*
X0248098Y0125755D01*
X0248039Y0125771D01*
X0247980Y0125784D01*
X0247921Y0125793D01*
X0247860Y0125798D01*
X0247800Y0125800D01*
X0246300Y0125800D01*
X0245800Y0125300D01*
X0231800Y0125300D01*
X0231300Y0125800D01*
X0229800Y0125800D01*
X0229740Y0125798D01*
X0229679Y0125793D01*
X0229620Y0125784D01*
X0229561Y0125771D01*
X0229502Y0125755D01*
X0229445Y0125735D01*
X0229390Y0125712D01*
X0229335Y0125685D01*
X0229283Y0125656D01*
X0229232Y0125623D01*
X0229183Y0125587D01*
X0229137Y0125549D01*
X0229093Y0125507D01*
X0229051Y0125463D01*
X0229013Y0125417D01*
X0228977Y0125368D01*
X0228944Y0125317D01*
X0228915Y0125265D01*
X0228888Y0125210D01*
X0228865Y0125155D01*
X0228845Y0125098D01*
X0228829Y0125039D01*
X0228816Y0124980D01*
X0228807Y0124921D01*
X0228802Y0124860D01*
X0228800Y0124800D01*
X0228800Y0118800D01*
X0228802Y0118740D01*
X0228807Y0118679D01*
X0228816Y0118620D01*
X0228829Y0118561D01*
X0228845Y0118502D01*
X0228865Y0118445D01*
X0228888Y0118390D01*
X0228915Y0118335D01*
X0228944Y0118283D01*
X0228977Y0118232D01*
X0229013Y0118183D01*
X0229051Y0118137D01*
X0229093Y0118093D01*
X0229137Y0118051D01*
X0229183Y0118013D01*
X0229232Y0117977D01*
X0229283Y0117944D01*
X0229335Y0117915D01*
X0229390Y0117888D01*
X0229445Y0117865D01*
X0229502Y0117845D01*
X0229561Y0117829D01*
X0229620Y0117816D01*
X0229679Y0117807D01*
X0229740Y0117802D01*
X0229800Y0117800D01*
X0254426Y0146800D02*
X0254428Y0146932D01*
X0254434Y0147063D01*
X0254444Y0147194D01*
X0254458Y0147325D01*
X0254476Y0147455D01*
X0254498Y0147585D01*
X0254523Y0147714D01*
X0254553Y0147842D01*
X0254587Y0147970D01*
X0254624Y0148096D01*
X0254665Y0148221D01*
X0254710Y0148344D01*
X0254759Y0148467D01*
X0254812Y0148587D01*
X0254868Y0148706D01*
X0254927Y0148824D01*
X0254990Y0148939D01*
X0255057Y0149052D01*
X0255127Y0149164D01*
X0255201Y0149273D01*
X0255277Y0149380D01*
X0255357Y0149484D01*
X0255440Y0149586D01*
X0255526Y0149686D01*
X0255615Y0149783D01*
X0255707Y0149877D01*
X0255802Y0149968D01*
X0255900Y0150057D01*
X0256000Y0150142D01*
X0256102Y0150224D01*
X0256208Y0150303D01*
X0256315Y0150379D01*
X0256425Y0150452D01*
X0256537Y0150521D01*
X0256651Y0150587D01*
X0256767Y0150649D01*
X0256884Y0150708D01*
X0257004Y0150763D01*
X0257125Y0150814D01*
X0257247Y0150862D01*
X0257371Y0150906D01*
X0257497Y0150947D01*
X0257623Y0150983D01*
X0257751Y0151016D01*
X0257879Y0151044D01*
X0258008Y0151069D01*
X0258138Y0151090D01*
X0258269Y0151107D01*
X0258400Y0151120D01*
X0258531Y0151129D01*
X0258662Y0151134D01*
X0258794Y0151135D01*
X0258925Y0151132D01*
X0259057Y0151125D01*
X0259188Y0151114D01*
X0259319Y0151099D01*
X0259449Y0151080D01*
X0259578Y0151057D01*
X0259707Y0151030D01*
X0259835Y0151000D01*
X0259962Y0150965D01*
X0260088Y0150927D01*
X0260213Y0150885D01*
X0260336Y0150839D01*
X0260458Y0150789D01*
X0260578Y0150736D01*
X0260697Y0150679D01*
X0260814Y0150618D01*
X0260928Y0150554D01*
X0261041Y0150487D01*
X0261152Y0150416D01*
X0261261Y0150342D01*
X0261367Y0150264D01*
X0261471Y0150183D01*
X0261573Y0150100D01*
X0261671Y0150013D01*
X0261768Y0149923D01*
X0261861Y0149830D01*
X0261952Y0149735D01*
X0262039Y0149637D01*
X0262124Y0149536D01*
X0262205Y0149432D01*
X0262283Y0149327D01*
X0262359Y0149219D01*
X0262430Y0149108D01*
X0262499Y0148996D01*
X0262564Y0148881D01*
X0262625Y0148765D01*
X0262683Y0148647D01*
X0262737Y0148527D01*
X0262788Y0148406D01*
X0262835Y0148283D01*
X0262878Y0148158D01*
X0262917Y0148033D01*
X0262953Y0147906D01*
X0262984Y0147778D01*
X0263012Y0147650D01*
X0263036Y0147520D01*
X0263056Y0147390D01*
X0263072Y0147260D01*
X0263084Y0147129D01*
X0263092Y0146997D01*
X0263096Y0146866D01*
X0263096Y0146734D01*
X0263092Y0146603D01*
X0263084Y0146471D01*
X0263072Y0146340D01*
X0263056Y0146210D01*
X0263036Y0146080D01*
X0263012Y0145950D01*
X0262984Y0145822D01*
X0262953Y0145694D01*
X0262917Y0145567D01*
X0262878Y0145442D01*
X0262835Y0145317D01*
X0262788Y0145194D01*
X0262737Y0145073D01*
X0262683Y0144953D01*
X0262625Y0144835D01*
X0262564Y0144719D01*
X0262499Y0144604D01*
X0262430Y0144492D01*
X0262359Y0144381D01*
X0262283Y0144273D01*
X0262205Y0144168D01*
X0262124Y0144064D01*
X0262039Y0143963D01*
X0261952Y0143865D01*
X0261861Y0143770D01*
X0261768Y0143677D01*
X0261671Y0143587D01*
X0261573Y0143500D01*
X0261471Y0143417D01*
X0261367Y0143336D01*
X0261261Y0143258D01*
X0261152Y0143184D01*
X0261041Y0143113D01*
X0260929Y0143046D01*
X0260814Y0142982D01*
X0260697Y0142921D01*
X0260578Y0142864D01*
X0260458Y0142811D01*
X0260336Y0142761D01*
X0260213Y0142715D01*
X0260088Y0142673D01*
X0259962Y0142635D01*
X0259835Y0142600D01*
X0259707Y0142570D01*
X0259578Y0142543D01*
X0259449Y0142520D01*
X0259319Y0142501D01*
X0259188Y0142486D01*
X0259057Y0142475D01*
X0258925Y0142468D01*
X0258794Y0142465D01*
X0258662Y0142466D01*
X0258531Y0142471D01*
X0258400Y0142480D01*
X0258269Y0142493D01*
X0258138Y0142510D01*
X0258008Y0142531D01*
X0257879Y0142556D01*
X0257751Y0142584D01*
X0257623Y0142617D01*
X0257497Y0142653D01*
X0257371Y0142694D01*
X0257247Y0142738D01*
X0257125Y0142786D01*
X0257004Y0142837D01*
X0256884Y0142892D01*
X0256767Y0142951D01*
X0256651Y0143013D01*
X0256537Y0143079D01*
X0256425Y0143148D01*
X0256315Y0143221D01*
X0256208Y0143297D01*
X0256102Y0143376D01*
X0256000Y0143458D01*
X0255900Y0143543D01*
X0255802Y0143632D01*
X0255707Y0143723D01*
X0255615Y0143817D01*
X0255526Y0143914D01*
X0255440Y0144014D01*
X0255357Y0144116D01*
X0255277Y0144220D01*
X0255201Y0144327D01*
X0255127Y0144436D01*
X0255057Y0144548D01*
X0254990Y0144661D01*
X0254927Y0144776D01*
X0254868Y0144894D01*
X0254812Y0145013D01*
X0254759Y0145133D01*
X0254710Y0145256D01*
X0254665Y0145379D01*
X0254624Y0145504D01*
X0254587Y0145630D01*
X0254553Y0145758D01*
X0254523Y0145886D01*
X0254498Y0146015D01*
X0254476Y0146145D01*
X0254458Y0146275D01*
X0254444Y0146406D01*
X0254434Y0146537D01*
X0254428Y0146668D01*
X0254426Y0146800D01*
X0233800Y0153800D02*
X0233800Y0159800D01*
X0233798Y0159860D01*
X0233793Y0159921D01*
X0233784Y0159980D01*
X0233771Y0160039D01*
X0233755Y0160098D01*
X0233735Y0160155D01*
X0233712Y0160210D01*
X0233685Y0160265D01*
X0233656Y0160317D01*
X0233623Y0160368D01*
X0233587Y0160417D01*
X0233549Y0160463D01*
X0233507Y0160507D01*
X0233463Y0160549D01*
X0233417Y0160587D01*
X0233368Y0160623D01*
X0233317Y0160656D01*
X0233265Y0160685D01*
X0233210Y0160712D01*
X0233155Y0160735D01*
X0233098Y0160755D01*
X0233039Y0160771D01*
X0232980Y0160784D01*
X0232921Y0160793D01*
X0232860Y0160798D01*
X0232800Y0160800D01*
X0231300Y0160800D01*
X0230800Y0160300D01*
X0216800Y0160300D01*
X0216300Y0160800D01*
X0214800Y0160800D01*
X0214740Y0160798D01*
X0214679Y0160793D01*
X0214620Y0160784D01*
X0214561Y0160771D01*
X0214502Y0160755D01*
X0214445Y0160735D01*
X0214390Y0160712D01*
X0214335Y0160685D01*
X0214283Y0160656D01*
X0214232Y0160623D01*
X0214183Y0160587D01*
X0214137Y0160549D01*
X0214093Y0160507D01*
X0214051Y0160463D01*
X0214013Y0160417D01*
X0213977Y0160368D01*
X0213944Y0160317D01*
X0213915Y0160265D01*
X0213888Y0160210D01*
X0213865Y0160155D01*
X0213845Y0160098D01*
X0213829Y0160039D01*
X0213816Y0159980D01*
X0213807Y0159921D01*
X0213802Y0159860D01*
X0213800Y0159800D01*
X0213800Y0153800D01*
X0213802Y0153740D01*
X0213807Y0153679D01*
X0213816Y0153620D01*
X0213829Y0153561D01*
X0213845Y0153502D01*
X0213865Y0153445D01*
X0213888Y0153390D01*
X0213915Y0153335D01*
X0213944Y0153283D01*
X0213977Y0153232D01*
X0214013Y0153183D01*
X0214051Y0153137D01*
X0214093Y0153093D01*
X0214137Y0153051D01*
X0214183Y0153013D01*
X0214232Y0152977D01*
X0214283Y0152944D01*
X0214335Y0152915D01*
X0214390Y0152888D01*
X0214445Y0152865D01*
X0214502Y0152845D01*
X0214561Y0152829D01*
X0214620Y0152816D01*
X0214679Y0152807D01*
X0214740Y0152802D01*
X0214800Y0152800D01*
X0216300Y0152800D01*
X0216800Y0153300D01*
X0230800Y0153300D01*
X0231300Y0152800D01*
X0232800Y0152800D01*
X0232860Y0152802D01*
X0232921Y0152807D01*
X0232980Y0152816D01*
X0233039Y0152829D01*
X0233098Y0152845D01*
X0233155Y0152865D01*
X0233210Y0152888D01*
X0233265Y0152915D01*
X0233317Y0152944D01*
X0233368Y0152977D01*
X0233417Y0153013D01*
X0233463Y0153051D01*
X0233507Y0153093D01*
X0233549Y0153137D01*
X0233587Y0153183D01*
X0233623Y0153232D01*
X0233656Y0153283D01*
X0233685Y0153335D01*
X0233712Y0153390D01*
X0233735Y0153445D01*
X0233755Y0153502D01*
X0233771Y0153561D01*
X0233784Y0153620D01*
X0233793Y0153679D01*
X0233798Y0153740D01*
X0233800Y0153800D01*
X0217800Y0177800D02*
X0216300Y0177800D01*
X0215800Y0178300D01*
X0201800Y0178300D01*
X0201300Y0177800D01*
X0199800Y0177800D01*
X0199740Y0177802D01*
X0199679Y0177807D01*
X0199620Y0177816D01*
X0199561Y0177829D01*
X0199502Y0177845D01*
X0199445Y0177865D01*
X0199390Y0177888D01*
X0199335Y0177915D01*
X0199283Y0177944D01*
X0199232Y0177977D01*
X0199183Y0178013D01*
X0199137Y0178051D01*
X0199093Y0178093D01*
X0199051Y0178137D01*
X0199013Y0178183D01*
X0198977Y0178232D01*
X0198944Y0178283D01*
X0198915Y0178335D01*
X0198888Y0178390D01*
X0198865Y0178445D01*
X0198845Y0178502D01*
X0198829Y0178561D01*
X0198816Y0178620D01*
X0198807Y0178679D01*
X0198802Y0178740D01*
X0198800Y0178800D01*
X0198800Y0184800D01*
X0198802Y0184860D01*
X0198807Y0184921D01*
X0198816Y0184980D01*
X0198829Y0185039D01*
X0198845Y0185098D01*
X0198865Y0185155D01*
X0198888Y0185210D01*
X0198915Y0185265D01*
X0198944Y0185317D01*
X0198977Y0185368D01*
X0199013Y0185417D01*
X0199051Y0185463D01*
X0199093Y0185507D01*
X0199137Y0185549D01*
X0199183Y0185587D01*
X0199232Y0185623D01*
X0199283Y0185656D01*
X0199335Y0185685D01*
X0199390Y0185712D01*
X0199445Y0185735D01*
X0199502Y0185755D01*
X0199561Y0185771D01*
X0199620Y0185784D01*
X0199679Y0185793D01*
X0199740Y0185798D01*
X0199800Y0185800D01*
X0201300Y0185800D01*
X0201800Y0185300D01*
X0215800Y0185300D01*
X0216300Y0185800D01*
X0217800Y0185800D01*
X0217860Y0185798D01*
X0217921Y0185793D01*
X0217980Y0185784D01*
X0218039Y0185771D01*
X0218098Y0185755D01*
X0218155Y0185735D01*
X0218210Y0185712D01*
X0218265Y0185685D01*
X0218317Y0185656D01*
X0218368Y0185623D01*
X0218417Y0185587D01*
X0218463Y0185549D01*
X0218507Y0185507D01*
X0218549Y0185463D01*
X0218587Y0185417D01*
X0218623Y0185368D01*
X0218656Y0185317D01*
X0218685Y0185265D01*
X0218712Y0185210D01*
X0218735Y0185155D01*
X0218755Y0185098D01*
X0218771Y0185039D01*
X0218784Y0184980D01*
X0218793Y0184921D01*
X0218798Y0184860D01*
X0218800Y0184800D01*
X0218800Y0178800D01*
X0218798Y0178740D01*
X0218793Y0178679D01*
X0218784Y0178620D01*
X0218771Y0178561D01*
X0218755Y0178502D01*
X0218735Y0178445D01*
X0218712Y0178390D01*
X0218685Y0178335D01*
X0218656Y0178283D01*
X0218623Y0178232D01*
X0218587Y0178183D01*
X0218549Y0178137D01*
X0218507Y0178093D01*
X0218463Y0178051D01*
X0218417Y0178013D01*
X0218368Y0177977D01*
X0218317Y0177944D01*
X0218265Y0177915D01*
X0218210Y0177888D01*
X0218155Y0177865D01*
X0218098Y0177845D01*
X0218039Y0177829D01*
X0217980Y0177816D01*
X0217921Y0177807D01*
X0217860Y0177802D01*
X0217800Y0177800D01*
X0243800Y0183800D02*
X0243800Y0189800D01*
X0243802Y0189860D01*
X0243807Y0189921D01*
X0243816Y0189980D01*
X0243829Y0190039D01*
X0243845Y0190098D01*
X0243865Y0190155D01*
X0243888Y0190210D01*
X0243915Y0190265D01*
X0243944Y0190317D01*
X0243977Y0190368D01*
X0244013Y0190417D01*
X0244051Y0190463D01*
X0244093Y0190507D01*
X0244137Y0190549D01*
X0244183Y0190587D01*
X0244232Y0190623D01*
X0244283Y0190656D01*
X0244335Y0190685D01*
X0244390Y0190712D01*
X0244445Y0190735D01*
X0244502Y0190755D01*
X0244561Y0190771D01*
X0244620Y0190784D01*
X0244679Y0190793D01*
X0244740Y0190798D01*
X0244800Y0190800D01*
X0246300Y0190800D01*
X0246800Y0190300D01*
X0260800Y0190300D01*
X0261300Y0190800D01*
X0262800Y0190800D01*
X0262860Y0190798D01*
X0262921Y0190793D01*
X0262980Y0190784D01*
X0263039Y0190771D01*
X0263098Y0190755D01*
X0263155Y0190735D01*
X0263210Y0190712D01*
X0263265Y0190685D01*
X0263317Y0190656D01*
X0263368Y0190623D01*
X0263417Y0190587D01*
X0263463Y0190549D01*
X0263507Y0190507D01*
X0263549Y0190463D01*
X0263587Y0190417D01*
X0263623Y0190368D01*
X0263656Y0190317D01*
X0263685Y0190265D01*
X0263712Y0190210D01*
X0263735Y0190155D01*
X0263755Y0190098D01*
X0263771Y0190039D01*
X0263784Y0189980D01*
X0263793Y0189921D01*
X0263798Y0189860D01*
X0263800Y0189800D01*
X0263800Y0183800D01*
X0263798Y0183740D01*
X0263793Y0183679D01*
X0263784Y0183620D01*
X0263771Y0183561D01*
X0263755Y0183502D01*
X0263735Y0183445D01*
X0263712Y0183390D01*
X0263685Y0183335D01*
X0263656Y0183283D01*
X0263623Y0183232D01*
X0263587Y0183183D01*
X0263549Y0183137D01*
X0263507Y0183093D01*
X0263463Y0183051D01*
X0263417Y0183013D01*
X0263368Y0182977D01*
X0263317Y0182944D01*
X0263265Y0182915D01*
X0263210Y0182888D01*
X0263155Y0182865D01*
X0263098Y0182845D01*
X0263039Y0182829D01*
X0262980Y0182816D01*
X0262921Y0182807D01*
X0262860Y0182802D01*
X0262800Y0182800D01*
X0261300Y0182800D01*
X0260800Y0183300D01*
X0246800Y0183300D01*
X0246300Y0182800D01*
X0244800Y0182800D01*
X0244740Y0182802D01*
X0244679Y0182807D01*
X0244620Y0182816D01*
X0244561Y0182829D01*
X0244502Y0182845D01*
X0244445Y0182865D01*
X0244390Y0182888D01*
X0244335Y0182915D01*
X0244283Y0182944D01*
X0244232Y0182977D01*
X0244183Y0183013D01*
X0244137Y0183051D01*
X0244093Y0183093D01*
X0244051Y0183137D01*
X0244013Y0183183D01*
X0243977Y0183232D01*
X0243944Y0183283D01*
X0243915Y0183335D01*
X0243888Y0183390D01*
X0243865Y0183445D01*
X0243845Y0183502D01*
X0243829Y0183561D01*
X0243816Y0183620D01*
X0243807Y0183679D01*
X0243802Y0183740D01*
X0243800Y0183800D01*
X0254426Y0206800D02*
X0254428Y0206932D01*
X0254434Y0207063D01*
X0254444Y0207194D01*
X0254458Y0207325D01*
X0254476Y0207455D01*
X0254498Y0207585D01*
X0254523Y0207714D01*
X0254553Y0207842D01*
X0254587Y0207970D01*
X0254624Y0208096D01*
X0254665Y0208221D01*
X0254710Y0208344D01*
X0254759Y0208467D01*
X0254812Y0208587D01*
X0254868Y0208706D01*
X0254927Y0208824D01*
X0254990Y0208939D01*
X0255057Y0209052D01*
X0255127Y0209164D01*
X0255201Y0209273D01*
X0255277Y0209380D01*
X0255357Y0209484D01*
X0255440Y0209586D01*
X0255526Y0209686D01*
X0255615Y0209783D01*
X0255707Y0209877D01*
X0255802Y0209968D01*
X0255900Y0210057D01*
X0256000Y0210142D01*
X0256102Y0210224D01*
X0256208Y0210303D01*
X0256315Y0210379D01*
X0256425Y0210452D01*
X0256537Y0210521D01*
X0256651Y0210587D01*
X0256767Y0210649D01*
X0256884Y0210708D01*
X0257004Y0210763D01*
X0257125Y0210814D01*
X0257247Y0210862D01*
X0257371Y0210906D01*
X0257497Y0210947D01*
X0257623Y0210983D01*
X0257751Y0211016D01*
X0257879Y0211044D01*
X0258008Y0211069D01*
X0258138Y0211090D01*
X0258269Y0211107D01*
X0258400Y0211120D01*
X0258531Y0211129D01*
X0258662Y0211134D01*
X0258794Y0211135D01*
X0258925Y0211132D01*
X0259057Y0211125D01*
X0259188Y0211114D01*
X0259319Y0211099D01*
X0259449Y0211080D01*
X0259578Y0211057D01*
X0259707Y0211030D01*
X0259835Y0211000D01*
X0259962Y0210965D01*
X0260088Y0210927D01*
X0260213Y0210885D01*
X0260336Y0210839D01*
X0260458Y0210789D01*
X0260578Y0210736D01*
X0260697Y0210679D01*
X0260814Y0210618D01*
X0260928Y0210554D01*
X0261041Y0210487D01*
X0261152Y0210416D01*
X0261261Y0210342D01*
X0261367Y0210264D01*
X0261471Y0210183D01*
X0261573Y0210100D01*
X0261671Y0210013D01*
X0261768Y0209923D01*
X0261861Y0209830D01*
X0261952Y0209735D01*
X0262039Y0209637D01*
X0262124Y0209536D01*
X0262205Y0209432D01*
X0262283Y0209327D01*
X0262359Y0209219D01*
X0262430Y0209108D01*
X0262499Y0208996D01*
X0262564Y0208881D01*
X0262625Y0208765D01*
X0262683Y0208647D01*
X0262737Y0208527D01*
X0262788Y0208406D01*
X0262835Y0208283D01*
X0262878Y0208158D01*
X0262917Y0208033D01*
X0262953Y0207906D01*
X0262984Y0207778D01*
X0263012Y0207650D01*
X0263036Y0207520D01*
X0263056Y0207390D01*
X0263072Y0207260D01*
X0263084Y0207129D01*
X0263092Y0206997D01*
X0263096Y0206866D01*
X0263096Y0206734D01*
X0263092Y0206603D01*
X0263084Y0206471D01*
X0263072Y0206340D01*
X0263056Y0206210D01*
X0263036Y0206080D01*
X0263012Y0205950D01*
X0262984Y0205822D01*
X0262953Y0205694D01*
X0262917Y0205567D01*
X0262878Y0205442D01*
X0262835Y0205317D01*
X0262788Y0205194D01*
X0262737Y0205073D01*
X0262683Y0204953D01*
X0262625Y0204835D01*
X0262564Y0204719D01*
X0262499Y0204604D01*
X0262430Y0204492D01*
X0262359Y0204381D01*
X0262283Y0204273D01*
X0262205Y0204168D01*
X0262124Y0204064D01*
X0262039Y0203963D01*
X0261952Y0203865D01*
X0261861Y0203770D01*
X0261768Y0203677D01*
X0261671Y0203587D01*
X0261573Y0203500D01*
X0261471Y0203417D01*
X0261367Y0203336D01*
X0261261Y0203258D01*
X0261152Y0203184D01*
X0261041Y0203113D01*
X0260929Y0203046D01*
X0260814Y0202982D01*
X0260697Y0202921D01*
X0260578Y0202864D01*
X0260458Y0202811D01*
X0260336Y0202761D01*
X0260213Y0202715D01*
X0260088Y0202673D01*
X0259962Y0202635D01*
X0259835Y0202600D01*
X0259707Y0202570D01*
X0259578Y0202543D01*
X0259449Y0202520D01*
X0259319Y0202501D01*
X0259188Y0202486D01*
X0259057Y0202475D01*
X0258925Y0202468D01*
X0258794Y0202465D01*
X0258662Y0202466D01*
X0258531Y0202471D01*
X0258400Y0202480D01*
X0258269Y0202493D01*
X0258138Y0202510D01*
X0258008Y0202531D01*
X0257879Y0202556D01*
X0257751Y0202584D01*
X0257623Y0202617D01*
X0257497Y0202653D01*
X0257371Y0202694D01*
X0257247Y0202738D01*
X0257125Y0202786D01*
X0257004Y0202837D01*
X0256884Y0202892D01*
X0256767Y0202951D01*
X0256651Y0203013D01*
X0256537Y0203079D01*
X0256425Y0203148D01*
X0256315Y0203221D01*
X0256208Y0203297D01*
X0256102Y0203376D01*
X0256000Y0203458D01*
X0255900Y0203543D01*
X0255802Y0203632D01*
X0255707Y0203723D01*
X0255615Y0203817D01*
X0255526Y0203914D01*
X0255440Y0204014D01*
X0255357Y0204116D01*
X0255277Y0204220D01*
X0255201Y0204327D01*
X0255127Y0204436D01*
X0255057Y0204548D01*
X0254990Y0204661D01*
X0254927Y0204776D01*
X0254868Y0204894D01*
X0254812Y0205013D01*
X0254759Y0205133D01*
X0254710Y0205256D01*
X0254665Y0205379D01*
X0254624Y0205504D01*
X0254587Y0205630D01*
X0254553Y0205758D01*
X0254523Y0205886D01*
X0254498Y0206015D01*
X0254476Y0206145D01*
X0254458Y0206275D01*
X0254444Y0206406D01*
X0254434Y0206537D01*
X0254428Y0206668D01*
X0254426Y0206800D01*
X0228800Y0223800D02*
X0228800Y0229800D01*
X0228798Y0229860D01*
X0228793Y0229921D01*
X0228784Y0229980D01*
X0228771Y0230039D01*
X0228755Y0230098D01*
X0228735Y0230155D01*
X0228712Y0230210D01*
X0228685Y0230265D01*
X0228656Y0230317D01*
X0228623Y0230368D01*
X0228587Y0230417D01*
X0228549Y0230463D01*
X0228507Y0230507D01*
X0228463Y0230549D01*
X0228417Y0230587D01*
X0228368Y0230623D01*
X0228317Y0230656D01*
X0228265Y0230685D01*
X0228210Y0230712D01*
X0228155Y0230735D01*
X0228098Y0230755D01*
X0228039Y0230771D01*
X0227980Y0230784D01*
X0227921Y0230793D01*
X0227860Y0230798D01*
X0227800Y0230800D01*
X0226300Y0230800D01*
X0225800Y0230300D01*
X0211800Y0230300D01*
X0211300Y0230800D01*
X0209800Y0230800D01*
X0209740Y0230798D01*
X0209679Y0230793D01*
X0209620Y0230784D01*
X0209561Y0230771D01*
X0209502Y0230755D01*
X0209445Y0230735D01*
X0209390Y0230712D01*
X0209335Y0230685D01*
X0209283Y0230656D01*
X0209232Y0230623D01*
X0209183Y0230587D01*
X0209137Y0230549D01*
X0209093Y0230507D01*
X0209051Y0230463D01*
X0209013Y0230417D01*
X0208977Y0230368D01*
X0208944Y0230317D01*
X0208915Y0230265D01*
X0208888Y0230210D01*
X0208865Y0230155D01*
X0208845Y0230098D01*
X0208829Y0230039D01*
X0208816Y0229980D01*
X0208807Y0229921D01*
X0208802Y0229860D01*
X0208800Y0229800D01*
X0208800Y0223800D01*
X0208802Y0223740D01*
X0208807Y0223679D01*
X0208816Y0223620D01*
X0208829Y0223561D01*
X0208845Y0223502D01*
X0208865Y0223445D01*
X0208888Y0223390D01*
X0208915Y0223335D01*
X0208944Y0223283D01*
X0208977Y0223232D01*
X0209013Y0223183D01*
X0209051Y0223137D01*
X0209093Y0223093D01*
X0209137Y0223051D01*
X0209183Y0223013D01*
X0209232Y0222977D01*
X0209283Y0222944D01*
X0209335Y0222915D01*
X0209390Y0222888D01*
X0209445Y0222865D01*
X0209502Y0222845D01*
X0209561Y0222829D01*
X0209620Y0222816D01*
X0209679Y0222807D01*
X0209740Y0222802D01*
X0209800Y0222800D01*
X0211300Y0222800D01*
X0211800Y0223300D01*
X0225800Y0223300D01*
X0226300Y0222800D01*
X0227800Y0222800D01*
X0227860Y0222802D01*
X0227921Y0222807D01*
X0227980Y0222816D01*
X0228039Y0222829D01*
X0228098Y0222845D01*
X0228155Y0222865D01*
X0228210Y0222888D01*
X0228265Y0222915D01*
X0228317Y0222944D01*
X0228368Y0222977D01*
X0228417Y0223013D01*
X0228463Y0223051D01*
X0228507Y0223093D01*
X0228549Y0223137D01*
X0228587Y0223183D01*
X0228623Y0223232D01*
X0228656Y0223283D01*
X0228685Y0223335D01*
X0228712Y0223390D01*
X0228735Y0223445D01*
X0228755Y0223502D01*
X0228771Y0223561D01*
X0228784Y0223620D01*
X0228793Y0223679D01*
X0228798Y0223740D01*
X0228800Y0223800D01*
X0217800Y0242800D02*
X0216300Y0242800D01*
X0215800Y0243300D01*
X0201800Y0243300D01*
X0201300Y0242800D01*
X0199800Y0242800D01*
X0199740Y0242802D01*
X0199679Y0242807D01*
X0199620Y0242816D01*
X0199561Y0242829D01*
X0199502Y0242845D01*
X0199445Y0242865D01*
X0199390Y0242888D01*
X0199335Y0242915D01*
X0199283Y0242944D01*
X0199232Y0242977D01*
X0199183Y0243013D01*
X0199137Y0243051D01*
X0199093Y0243093D01*
X0199051Y0243137D01*
X0199013Y0243183D01*
X0198977Y0243232D01*
X0198944Y0243283D01*
X0198915Y0243335D01*
X0198888Y0243390D01*
X0198865Y0243445D01*
X0198845Y0243502D01*
X0198829Y0243561D01*
X0198816Y0243620D01*
X0198807Y0243679D01*
X0198802Y0243740D01*
X0198800Y0243800D01*
X0198800Y0249800D01*
X0198802Y0249860D01*
X0198807Y0249921D01*
X0198816Y0249980D01*
X0198829Y0250039D01*
X0198845Y0250098D01*
X0198865Y0250155D01*
X0198888Y0250210D01*
X0198915Y0250265D01*
X0198944Y0250317D01*
X0198977Y0250368D01*
X0199013Y0250417D01*
X0199051Y0250463D01*
X0199093Y0250507D01*
X0199137Y0250549D01*
X0199183Y0250587D01*
X0199232Y0250623D01*
X0199283Y0250656D01*
X0199335Y0250685D01*
X0199390Y0250712D01*
X0199445Y0250735D01*
X0199502Y0250755D01*
X0199561Y0250771D01*
X0199620Y0250784D01*
X0199679Y0250793D01*
X0199740Y0250798D01*
X0199800Y0250800D01*
X0201300Y0250800D01*
X0201800Y0250300D01*
X0215800Y0250300D01*
X0216300Y0250800D01*
X0217800Y0250800D01*
X0217860Y0250798D01*
X0217921Y0250793D01*
X0217980Y0250784D01*
X0218039Y0250771D01*
X0218098Y0250755D01*
X0218155Y0250735D01*
X0218210Y0250712D01*
X0218265Y0250685D01*
X0218317Y0250656D01*
X0218368Y0250623D01*
X0218417Y0250587D01*
X0218463Y0250549D01*
X0218507Y0250507D01*
X0218549Y0250463D01*
X0218587Y0250417D01*
X0218623Y0250368D01*
X0218656Y0250317D01*
X0218685Y0250265D01*
X0218712Y0250210D01*
X0218735Y0250155D01*
X0218755Y0250098D01*
X0218771Y0250039D01*
X0218784Y0249980D01*
X0218793Y0249921D01*
X0218798Y0249860D01*
X0218800Y0249800D01*
X0218800Y0243800D01*
X0218798Y0243740D01*
X0218793Y0243679D01*
X0218784Y0243620D01*
X0218771Y0243561D01*
X0218755Y0243502D01*
X0218735Y0243445D01*
X0218712Y0243390D01*
X0218685Y0243335D01*
X0218656Y0243283D01*
X0218623Y0243232D01*
X0218587Y0243183D01*
X0218549Y0243137D01*
X0218507Y0243093D01*
X0218463Y0243051D01*
X0218417Y0243013D01*
X0218368Y0242977D01*
X0218317Y0242944D01*
X0218265Y0242915D01*
X0218210Y0242888D01*
X0218155Y0242865D01*
X0218098Y0242845D01*
X0218039Y0242829D01*
X0217980Y0242816D01*
X0217921Y0242807D01*
X0217860Y0242802D01*
X0217800Y0242800D01*
X0188800Y0250300D02*
X0188800Y0273300D01*
X0148800Y0273300D01*
X0148800Y0265800D01*
X0148926Y0265798D01*
X0149051Y0265792D01*
X0149176Y0265782D01*
X0149301Y0265768D01*
X0149426Y0265751D01*
X0149550Y0265729D01*
X0149673Y0265704D01*
X0149795Y0265674D01*
X0149916Y0265641D01*
X0150036Y0265604D01*
X0150155Y0265564D01*
X0150272Y0265519D01*
X0150389Y0265471D01*
X0150503Y0265419D01*
X0150616Y0265364D01*
X0150727Y0265305D01*
X0150836Y0265243D01*
X0150943Y0265177D01*
X0151048Y0265108D01*
X0151151Y0265036D01*
X0151252Y0264961D01*
X0151350Y0264882D01*
X0151445Y0264800D01*
X0151538Y0264716D01*
X0151628Y0264628D01*
X0151716Y0264538D01*
X0151800Y0264445D01*
X0151882Y0264350D01*
X0151961Y0264252D01*
X0152036Y0264151D01*
X0152108Y0264048D01*
X0152177Y0263943D01*
X0152243Y0263836D01*
X0152305Y0263727D01*
X0152364Y0263616D01*
X0152419Y0263503D01*
X0152471Y0263389D01*
X0152519Y0263272D01*
X0152564Y0263155D01*
X0152604Y0263036D01*
X0152641Y0262916D01*
X0152674Y0262795D01*
X0152704Y0262673D01*
X0152729Y0262550D01*
X0152751Y0262426D01*
X0152768Y0262301D01*
X0152782Y0262176D01*
X0152792Y0262051D01*
X0152798Y0261926D01*
X0152800Y0261800D01*
X0152798Y0261674D01*
X0152792Y0261549D01*
X0152782Y0261424D01*
X0152768Y0261299D01*
X0152751Y0261174D01*
X0152729Y0261050D01*
X0152704Y0260927D01*
X0152674Y0260805D01*
X0152641Y0260684D01*
X0152604Y0260564D01*
X0152564Y0260445D01*
X0152519Y0260328D01*
X0152471Y0260211D01*
X0152419Y0260097D01*
X0152364Y0259984D01*
X0152305Y0259873D01*
X0152243Y0259764D01*
X0152177Y0259657D01*
X0152108Y0259552D01*
X0152036Y0259449D01*
X0151961Y0259348D01*
X0151882Y0259250D01*
X0151800Y0259155D01*
X0151716Y0259062D01*
X0151628Y0258972D01*
X0151538Y0258884D01*
X0151445Y0258800D01*
X0151350Y0258718D01*
X0151252Y0258639D01*
X0151151Y0258564D01*
X0151048Y0258492D01*
X0150943Y0258423D01*
X0150836Y0258357D01*
X0150727Y0258295D01*
X0150616Y0258236D01*
X0150503Y0258181D01*
X0150389Y0258129D01*
X0150272Y0258081D01*
X0150155Y0258036D01*
X0150036Y0257996D01*
X0149916Y0257959D01*
X0149795Y0257926D01*
X0149673Y0257896D01*
X0149550Y0257871D01*
X0149426Y0257849D01*
X0149301Y0257832D01*
X0149176Y0257818D01*
X0149051Y0257808D01*
X0148926Y0257802D01*
X0148800Y0257800D01*
X0148800Y0250300D01*
X0188800Y0250300D01*
X0187800Y0230800D02*
X0186300Y0230800D01*
X0185800Y0230300D01*
X0171800Y0230300D01*
X0171300Y0230800D01*
X0169800Y0230800D01*
X0169740Y0230798D01*
X0169679Y0230793D01*
X0169620Y0230784D01*
X0169561Y0230771D01*
X0169502Y0230755D01*
X0169445Y0230735D01*
X0169390Y0230712D01*
X0169335Y0230685D01*
X0169283Y0230656D01*
X0169232Y0230623D01*
X0169183Y0230587D01*
X0169137Y0230549D01*
X0169093Y0230507D01*
X0169051Y0230463D01*
X0169013Y0230417D01*
X0168977Y0230368D01*
X0168944Y0230317D01*
X0168915Y0230265D01*
X0168888Y0230210D01*
X0168865Y0230155D01*
X0168845Y0230098D01*
X0168829Y0230039D01*
X0168816Y0229980D01*
X0168807Y0229921D01*
X0168802Y0229860D01*
X0168800Y0229800D01*
X0168800Y0223800D01*
X0168802Y0223740D01*
X0168807Y0223679D01*
X0168816Y0223620D01*
X0168829Y0223561D01*
X0168845Y0223502D01*
X0168865Y0223445D01*
X0168888Y0223390D01*
X0168915Y0223335D01*
X0168944Y0223283D01*
X0168977Y0223232D01*
X0169013Y0223183D01*
X0169051Y0223137D01*
X0169093Y0223093D01*
X0169137Y0223051D01*
X0169183Y0223013D01*
X0169232Y0222977D01*
X0169283Y0222944D01*
X0169335Y0222915D01*
X0169390Y0222888D01*
X0169445Y0222865D01*
X0169502Y0222845D01*
X0169561Y0222829D01*
X0169620Y0222816D01*
X0169679Y0222807D01*
X0169740Y0222802D01*
X0169800Y0222800D01*
X0171300Y0222800D01*
X0171800Y0223300D01*
X0185800Y0223300D01*
X0186300Y0222800D01*
X0187800Y0222800D01*
X0187860Y0222802D01*
X0187921Y0222807D01*
X0187980Y0222816D01*
X0188039Y0222829D01*
X0188098Y0222845D01*
X0188155Y0222865D01*
X0188210Y0222888D01*
X0188265Y0222915D01*
X0188317Y0222944D01*
X0188368Y0222977D01*
X0188417Y0223013D01*
X0188463Y0223051D01*
X0188507Y0223093D01*
X0188549Y0223137D01*
X0188587Y0223183D01*
X0188623Y0223232D01*
X0188656Y0223283D01*
X0188685Y0223335D01*
X0188712Y0223390D01*
X0188735Y0223445D01*
X0188755Y0223502D01*
X0188771Y0223561D01*
X0188784Y0223620D01*
X0188793Y0223679D01*
X0188798Y0223740D01*
X0188800Y0223800D01*
X0188800Y0229800D01*
X0188798Y0229860D01*
X0188793Y0229921D01*
X0188784Y0229980D01*
X0188771Y0230039D01*
X0188755Y0230098D01*
X0188735Y0230155D01*
X0188712Y0230210D01*
X0188685Y0230265D01*
X0188656Y0230317D01*
X0188623Y0230368D01*
X0188587Y0230417D01*
X0188549Y0230463D01*
X0188507Y0230507D01*
X0188463Y0230549D01*
X0188417Y0230587D01*
X0188368Y0230623D01*
X0188317Y0230656D01*
X0188265Y0230685D01*
X0188210Y0230712D01*
X0188155Y0230735D01*
X0188098Y0230755D01*
X0188039Y0230771D01*
X0187980Y0230784D01*
X0187921Y0230793D01*
X0187860Y0230798D01*
X0187800Y0230800D01*
X0188800Y0208300D02*
X0188800Y0185300D01*
X0148800Y0185300D01*
X0148800Y0192800D01*
X0148926Y0192802D01*
X0149051Y0192808D01*
X0149176Y0192818D01*
X0149301Y0192832D01*
X0149426Y0192849D01*
X0149550Y0192871D01*
X0149673Y0192896D01*
X0149795Y0192926D01*
X0149916Y0192959D01*
X0150036Y0192996D01*
X0150155Y0193036D01*
X0150272Y0193081D01*
X0150389Y0193129D01*
X0150503Y0193181D01*
X0150616Y0193236D01*
X0150727Y0193295D01*
X0150836Y0193357D01*
X0150943Y0193423D01*
X0151048Y0193492D01*
X0151151Y0193564D01*
X0151252Y0193639D01*
X0151350Y0193718D01*
X0151445Y0193800D01*
X0151538Y0193884D01*
X0151628Y0193972D01*
X0151716Y0194062D01*
X0151800Y0194155D01*
X0151882Y0194250D01*
X0151961Y0194348D01*
X0152036Y0194449D01*
X0152108Y0194552D01*
X0152177Y0194657D01*
X0152243Y0194764D01*
X0152305Y0194873D01*
X0152364Y0194984D01*
X0152419Y0195097D01*
X0152471Y0195211D01*
X0152519Y0195328D01*
X0152564Y0195445D01*
X0152604Y0195564D01*
X0152641Y0195684D01*
X0152674Y0195805D01*
X0152704Y0195927D01*
X0152729Y0196050D01*
X0152751Y0196174D01*
X0152768Y0196299D01*
X0152782Y0196424D01*
X0152792Y0196549D01*
X0152798Y0196674D01*
X0152800Y0196800D01*
X0152798Y0196926D01*
X0152792Y0197051D01*
X0152782Y0197176D01*
X0152768Y0197301D01*
X0152751Y0197426D01*
X0152729Y0197550D01*
X0152704Y0197673D01*
X0152674Y0197795D01*
X0152641Y0197916D01*
X0152604Y0198036D01*
X0152564Y0198155D01*
X0152519Y0198272D01*
X0152471Y0198389D01*
X0152419Y0198503D01*
X0152364Y0198616D01*
X0152305Y0198727D01*
X0152243Y0198836D01*
X0152177Y0198943D01*
X0152108Y0199048D01*
X0152036Y0199151D01*
X0151961Y0199252D01*
X0151882Y0199350D01*
X0151800Y0199445D01*
X0151716Y0199538D01*
X0151628Y0199628D01*
X0151538Y0199716D01*
X0151445Y0199800D01*
X0151350Y0199882D01*
X0151252Y0199961D01*
X0151151Y0200036D01*
X0151048Y0200108D01*
X0150943Y0200177D01*
X0150836Y0200243D01*
X0150727Y0200305D01*
X0150616Y0200364D01*
X0150503Y0200419D01*
X0150389Y0200471D01*
X0150272Y0200519D01*
X0150155Y0200564D01*
X0150036Y0200604D01*
X0149916Y0200641D01*
X0149795Y0200674D01*
X0149673Y0200704D01*
X0149550Y0200729D01*
X0149426Y0200751D01*
X0149301Y0200768D01*
X0149176Y0200782D01*
X0149051Y0200792D01*
X0148926Y0200798D01*
X0148800Y0200800D01*
X0148800Y0208300D01*
X0188800Y0208300D01*
X0148800Y0218800D02*
X0148800Y0224800D01*
X0148798Y0224860D01*
X0148793Y0224921D01*
X0148784Y0224980D01*
X0148771Y0225039D01*
X0148755Y0225098D01*
X0148735Y0225155D01*
X0148712Y0225210D01*
X0148685Y0225265D01*
X0148656Y0225317D01*
X0148623Y0225368D01*
X0148587Y0225417D01*
X0148549Y0225463D01*
X0148507Y0225507D01*
X0148463Y0225549D01*
X0148417Y0225587D01*
X0148368Y0225623D01*
X0148317Y0225656D01*
X0148265Y0225685D01*
X0148210Y0225712D01*
X0148155Y0225735D01*
X0148098Y0225755D01*
X0148039Y0225771D01*
X0147980Y0225784D01*
X0147921Y0225793D01*
X0147860Y0225798D01*
X0147800Y0225800D01*
X0146300Y0225800D01*
X0145800Y0225300D01*
X0131800Y0225300D01*
X0131300Y0225800D01*
X0129800Y0225800D01*
X0129740Y0225798D01*
X0129679Y0225793D01*
X0129620Y0225784D01*
X0129561Y0225771D01*
X0129502Y0225755D01*
X0129445Y0225735D01*
X0129390Y0225712D01*
X0129335Y0225685D01*
X0129283Y0225656D01*
X0129232Y0225623D01*
X0129183Y0225587D01*
X0129137Y0225549D01*
X0129093Y0225507D01*
X0129051Y0225463D01*
X0129013Y0225417D01*
X0128977Y0225368D01*
X0128944Y0225317D01*
X0128915Y0225265D01*
X0128888Y0225210D01*
X0128865Y0225155D01*
X0128845Y0225098D01*
X0128829Y0225039D01*
X0128816Y0224980D01*
X0128807Y0224921D01*
X0128802Y0224860D01*
X0128800Y0224800D01*
X0128800Y0218800D01*
X0128802Y0218740D01*
X0128807Y0218679D01*
X0128816Y0218620D01*
X0128829Y0218561D01*
X0128845Y0218502D01*
X0128865Y0218445D01*
X0128888Y0218390D01*
X0128915Y0218335D01*
X0128944Y0218283D01*
X0128977Y0218232D01*
X0129013Y0218183D01*
X0129051Y0218137D01*
X0129093Y0218093D01*
X0129137Y0218051D01*
X0129183Y0218013D01*
X0129232Y0217977D01*
X0129283Y0217944D01*
X0129335Y0217915D01*
X0129390Y0217888D01*
X0129445Y0217865D01*
X0129502Y0217845D01*
X0129561Y0217829D01*
X0129620Y0217816D01*
X0129679Y0217807D01*
X0129740Y0217802D01*
X0129800Y0217800D01*
X0131300Y0217800D01*
X0131800Y0218300D01*
X0145800Y0218300D01*
X0146300Y0217800D01*
X0147800Y0217800D01*
X0147860Y0217802D01*
X0147921Y0217807D01*
X0147980Y0217816D01*
X0148039Y0217829D01*
X0148098Y0217845D01*
X0148155Y0217865D01*
X0148210Y0217888D01*
X0148265Y0217915D01*
X0148317Y0217944D01*
X0148368Y0217977D01*
X0148417Y0218013D01*
X0148463Y0218051D01*
X0148507Y0218093D01*
X0148549Y0218137D01*
X0148587Y0218183D01*
X0148623Y0218232D01*
X0148656Y0218283D01*
X0148685Y0218335D01*
X0148712Y0218390D01*
X0148735Y0218445D01*
X0148755Y0218502D01*
X0148771Y0218561D01*
X0148784Y0218620D01*
X0148793Y0218679D01*
X0148798Y0218740D01*
X0148800Y0218800D01*
X0112800Y0222800D02*
X0112800Y0224300D01*
X0112300Y0224800D01*
X0112300Y0238800D01*
X0112800Y0239300D01*
X0112800Y0240800D01*
X0112798Y0240860D01*
X0112793Y0240921D01*
X0112784Y0240980D01*
X0112771Y0241039D01*
X0112755Y0241098D01*
X0112735Y0241155D01*
X0112712Y0241210D01*
X0112685Y0241265D01*
X0112656Y0241317D01*
X0112623Y0241368D01*
X0112587Y0241417D01*
X0112549Y0241463D01*
X0112507Y0241507D01*
X0112463Y0241549D01*
X0112417Y0241587D01*
X0112368Y0241623D01*
X0112317Y0241656D01*
X0112265Y0241685D01*
X0112210Y0241712D01*
X0112155Y0241735D01*
X0112098Y0241755D01*
X0112039Y0241771D01*
X0111980Y0241784D01*
X0111921Y0241793D01*
X0111860Y0241798D01*
X0111800Y0241800D01*
X0105800Y0241800D01*
X0105740Y0241798D01*
X0105679Y0241793D01*
X0105620Y0241784D01*
X0105561Y0241771D01*
X0105502Y0241755D01*
X0105445Y0241735D01*
X0105390Y0241712D01*
X0105335Y0241685D01*
X0105283Y0241656D01*
X0105232Y0241623D01*
X0105183Y0241587D01*
X0105137Y0241549D01*
X0105093Y0241507D01*
X0105051Y0241463D01*
X0105013Y0241417D01*
X0104977Y0241368D01*
X0104944Y0241317D01*
X0104915Y0241265D01*
X0104888Y0241210D01*
X0104865Y0241155D01*
X0104845Y0241098D01*
X0104829Y0241039D01*
X0104816Y0240980D01*
X0104807Y0240921D01*
X0104802Y0240860D01*
X0104800Y0240800D01*
X0104800Y0239300D01*
X0105300Y0238800D01*
X0105300Y0224800D01*
X0104800Y0224300D01*
X0104800Y0222800D01*
X0104802Y0222740D01*
X0104807Y0222679D01*
X0104816Y0222620D01*
X0104829Y0222561D01*
X0104845Y0222502D01*
X0104865Y0222445D01*
X0104888Y0222390D01*
X0104915Y0222335D01*
X0104944Y0222283D01*
X0104977Y0222232D01*
X0105013Y0222183D01*
X0105051Y0222137D01*
X0105093Y0222093D01*
X0105137Y0222051D01*
X0105183Y0222013D01*
X0105232Y0221977D01*
X0105283Y0221944D01*
X0105335Y0221915D01*
X0105390Y0221888D01*
X0105445Y0221865D01*
X0105502Y0221845D01*
X0105561Y0221829D01*
X0105620Y0221816D01*
X0105679Y0221807D01*
X0105740Y0221802D01*
X0105800Y0221800D01*
X0111800Y0221800D01*
X0111860Y0221802D01*
X0111921Y0221807D01*
X0111980Y0221816D01*
X0112039Y0221829D01*
X0112098Y0221845D01*
X0112155Y0221865D01*
X0112210Y0221888D01*
X0112265Y0221915D01*
X0112317Y0221944D01*
X0112368Y0221977D01*
X0112417Y0222013D01*
X0112463Y0222051D01*
X0112507Y0222093D01*
X0112549Y0222137D01*
X0112587Y0222183D01*
X0112623Y0222232D01*
X0112656Y0222283D01*
X0112685Y0222335D01*
X0112712Y0222390D01*
X0112735Y0222445D01*
X0112755Y0222502D01*
X0112771Y0222561D01*
X0112784Y0222620D01*
X0112793Y0222679D01*
X0112798Y0222740D01*
X0112800Y0222800D01*
X0069426Y0246800D02*
X0069428Y0246932D01*
X0069434Y0247063D01*
X0069444Y0247194D01*
X0069458Y0247325D01*
X0069476Y0247455D01*
X0069498Y0247585D01*
X0069523Y0247714D01*
X0069553Y0247842D01*
X0069587Y0247970D01*
X0069624Y0248096D01*
X0069665Y0248221D01*
X0069710Y0248344D01*
X0069759Y0248467D01*
X0069812Y0248587D01*
X0069868Y0248706D01*
X0069927Y0248824D01*
X0069990Y0248939D01*
X0070057Y0249052D01*
X0070127Y0249164D01*
X0070201Y0249273D01*
X0070277Y0249380D01*
X0070357Y0249484D01*
X0070440Y0249586D01*
X0070526Y0249686D01*
X0070615Y0249783D01*
X0070707Y0249877D01*
X0070802Y0249968D01*
X0070900Y0250057D01*
X0071000Y0250142D01*
X0071102Y0250224D01*
X0071208Y0250303D01*
X0071315Y0250379D01*
X0071425Y0250452D01*
X0071537Y0250521D01*
X0071651Y0250587D01*
X0071767Y0250649D01*
X0071884Y0250708D01*
X0072004Y0250763D01*
X0072125Y0250814D01*
X0072247Y0250862D01*
X0072371Y0250906D01*
X0072497Y0250947D01*
X0072623Y0250983D01*
X0072751Y0251016D01*
X0072879Y0251044D01*
X0073008Y0251069D01*
X0073138Y0251090D01*
X0073269Y0251107D01*
X0073400Y0251120D01*
X0073531Y0251129D01*
X0073662Y0251134D01*
X0073794Y0251135D01*
X0073925Y0251132D01*
X0074057Y0251125D01*
X0074188Y0251114D01*
X0074319Y0251099D01*
X0074449Y0251080D01*
X0074578Y0251057D01*
X0074707Y0251030D01*
X0074835Y0251000D01*
X0074962Y0250965D01*
X0075088Y0250927D01*
X0075213Y0250885D01*
X0075336Y0250839D01*
X0075458Y0250789D01*
X0075578Y0250736D01*
X0075697Y0250679D01*
X0075814Y0250618D01*
X0075928Y0250554D01*
X0076041Y0250487D01*
X0076152Y0250416D01*
X0076261Y0250342D01*
X0076367Y0250264D01*
X0076471Y0250183D01*
X0076573Y0250100D01*
X0076671Y0250013D01*
X0076768Y0249923D01*
X0076861Y0249830D01*
X0076952Y0249735D01*
X0077039Y0249637D01*
X0077124Y0249536D01*
X0077205Y0249432D01*
X0077283Y0249327D01*
X0077359Y0249219D01*
X0077430Y0249108D01*
X0077499Y0248996D01*
X0077564Y0248881D01*
X0077625Y0248765D01*
X0077683Y0248647D01*
X0077737Y0248527D01*
X0077788Y0248406D01*
X0077835Y0248283D01*
X0077878Y0248158D01*
X0077917Y0248033D01*
X0077953Y0247906D01*
X0077984Y0247778D01*
X0078012Y0247650D01*
X0078036Y0247520D01*
X0078056Y0247390D01*
X0078072Y0247260D01*
X0078084Y0247129D01*
X0078092Y0246997D01*
X0078096Y0246866D01*
X0078096Y0246734D01*
X0078092Y0246603D01*
X0078084Y0246471D01*
X0078072Y0246340D01*
X0078056Y0246210D01*
X0078036Y0246080D01*
X0078012Y0245950D01*
X0077984Y0245822D01*
X0077953Y0245694D01*
X0077917Y0245567D01*
X0077878Y0245442D01*
X0077835Y0245317D01*
X0077788Y0245194D01*
X0077737Y0245073D01*
X0077683Y0244953D01*
X0077625Y0244835D01*
X0077564Y0244719D01*
X0077499Y0244604D01*
X0077430Y0244492D01*
X0077359Y0244381D01*
X0077283Y0244273D01*
X0077205Y0244168D01*
X0077124Y0244064D01*
X0077039Y0243963D01*
X0076952Y0243865D01*
X0076861Y0243770D01*
X0076768Y0243677D01*
X0076671Y0243587D01*
X0076573Y0243500D01*
X0076471Y0243417D01*
X0076367Y0243336D01*
X0076261Y0243258D01*
X0076152Y0243184D01*
X0076041Y0243113D01*
X0075929Y0243046D01*
X0075814Y0242982D01*
X0075697Y0242921D01*
X0075578Y0242864D01*
X0075458Y0242811D01*
X0075336Y0242761D01*
X0075213Y0242715D01*
X0075088Y0242673D01*
X0074962Y0242635D01*
X0074835Y0242600D01*
X0074707Y0242570D01*
X0074578Y0242543D01*
X0074449Y0242520D01*
X0074319Y0242501D01*
X0074188Y0242486D01*
X0074057Y0242475D01*
X0073925Y0242468D01*
X0073794Y0242465D01*
X0073662Y0242466D01*
X0073531Y0242471D01*
X0073400Y0242480D01*
X0073269Y0242493D01*
X0073138Y0242510D01*
X0073008Y0242531D01*
X0072879Y0242556D01*
X0072751Y0242584D01*
X0072623Y0242617D01*
X0072497Y0242653D01*
X0072371Y0242694D01*
X0072247Y0242738D01*
X0072125Y0242786D01*
X0072004Y0242837D01*
X0071884Y0242892D01*
X0071767Y0242951D01*
X0071651Y0243013D01*
X0071537Y0243079D01*
X0071425Y0243148D01*
X0071315Y0243221D01*
X0071208Y0243297D01*
X0071102Y0243376D01*
X0071000Y0243458D01*
X0070900Y0243543D01*
X0070802Y0243632D01*
X0070707Y0243723D01*
X0070615Y0243817D01*
X0070526Y0243914D01*
X0070440Y0244014D01*
X0070357Y0244116D01*
X0070277Y0244220D01*
X0070201Y0244327D01*
X0070127Y0244436D01*
X0070057Y0244548D01*
X0069990Y0244661D01*
X0069927Y0244776D01*
X0069868Y0244894D01*
X0069812Y0245013D01*
X0069759Y0245133D01*
X0069710Y0245256D01*
X0069665Y0245379D01*
X0069624Y0245504D01*
X0069587Y0245630D01*
X0069553Y0245758D01*
X0069523Y0245886D01*
X0069498Y0246015D01*
X0069476Y0246145D01*
X0069458Y0246275D01*
X0069444Y0246406D01*
X0069434Y0246537D01*
X0069428Y0246668D01*
X0069426Y0246800D01*
X0055200Y0276800D02*
X0052500Y0276800D01*
X0052500Y0283300D01*
X0052500Y0286700D01*
X0047300Y0286700D01*
X0041300Y0286700D01*
X0036300Y0286700D01*
X0030300Y0286700D01*
X0025000Y0286700D01*
X0025000Y0283300D01*
X0025000Y0276800D01*
X0025000Y0206800D01*
X0025000Y0200300D01*
X0025000Y0196800D01*
X0030300Y0196800D01*
X0036300Y0196800D01*
X0041300Y0196800D01*
X0047300Y0196800D01*
X0052500Y0196800D01*
X0052500Y0200300D01*
X0052500Y0206800D01*
X0052500Y0276800D01*
X0055200Y0276800D02*
X0055200Y0206800D01*
X0052500Y0206800D01*
X0051300Y0211800D02*
X0048000Y0210100D01*
X0048000Y0213500D01*
X0051300Y0211800D01*
X0050300Y0211800D01*
X0046000Y0206203D02*
X0046000Y0202600D01*
X0046000Y0204402D02*
X0040595Y0204402D01*
X0042397Y0202600D01*
X0041300Y0200300D02*
X0041300Y0196800D01*
X0041300Y0200300D02*
X0036300Y0200300D01*
X0036300Y0196800D01*
X0030300Y0196800D02*
X0030300Y0200300D01*
X0025000Y0200300D01*
X0025000Y0206800D02*
X0001300Y0206800D01*
X0005000Y0231800D01*
X0001300Y0246800D01*
X0007500Y0264300D01*
X0001300Y0276800D01*
X0025000Y0276800D01*
X0025000Y0283300D02*
X0030300Y0283300D01*
X0030300Y0286700D01*
X0036300Y0286700D02*
X0036300Y0283300D01*
X0041300Y0283300D01*
X0041300Y0286700D01*
X0047300Y0286700D02*
X0047300Y0283300D01*
X0052500Y0283300D01*
X0128800Y0283800D02*
X0128800Y0289800D01*
X0128802Y0289860D01*
X0128807Y0289921D01*
X0128816Y0289980D01*
X0128829Y0290039D01*
X0128845Y0290098D01*
X0128865Y0290155D01*
X0128888Y0290210D01*
X0128915Y0290265D01*
X0128944Y0290317D01*
X0128977Y0290368D01*
X0129013Y0290417D01*
X0129051Y0290463D01*
X0129093Y0290507D01*
X0129137Y0290549D01*
X0129183Y0290587D01*
X0129232Y0290623D01*
X0129283Y0290656D01*
X0129335Y0290685D01*
X0129390Y0290712D01*
X0129445Y0290735D01*
X0129502Y0290755D01*
X0129561Y0290771D01*
X0129620Y0290784D01*
X0129679Y0290793D01*
X0129740Y0290798D01*
X0129800Y0290800D01*
X0131300Y0290800D01*
X0131800Y0290300D01*
X0145800Y0290300D01*
X0146300Y0290800D01*
X0147800Y0290800D01*
X0147860Y0290798D01*
X0147921Y0290793D01*
X0147980Y0290784D01*
X0148039Y0290771D01*
X0148098Y0290755D01*
X0148155Y0290735D01*
X0148210Y0290712D01*
X0148265Y0290685D01*
X0148317Y0290656D01*
X0148368Y0290623D01*
X0148417Y0290587D01*
X0148463Y0290549D01*
X0148507Y0290507D01*
X0148549Y0290463D01*
X0148587Y0290417D01*
X0148623Y0290368D01*
X0148656Y0290317D01*
X0148685Y0290265D01*
X0148712Y0290210D01*
X0148735Y0290155D01*
X0148755Y0290098D01*
X0148771Y0290039D01*
X0148784Y0289980D01*
X0148793Y0289921D01*
X0148798Y0289860D01*
X0148800Y0289800D01*
X0148800Y0283800D01*
X0148798Y0283740D01*
X0148793Y0283679D01*
X0148784Y0283620D01*
X0148771Y0283561D01*
X0148755Y0283502D01*
X0148735Y0283445D01*
X0148712Y0283390D01*
X0148685Y0283335D01*
X0148656Y0283283D01*
X0148623Y0283232D01*
X0148587Y0283183D01*
X0148549Y0283137D01*
X0148507Y0283093D01*
X0148463Y0283051D01*
X0148417Y0283013D01*
X0148368Y0282977D01*
X0148317Y0282944D01*
X0148265Y0282915D01*
X0148210Y0282888D01*
X0148155Y0282865D01*
X0148098Y0282845D01*
X0148039Y0282829D01*
X0147980Y0282816D01*
X0147921Y0282807D01*
X0147860Y0282802D01*
X0147800Y0282800D01*
X0146300Y0282800D01*
X0145800Y0283300D01*
X0131800Y0283300D01*
X0131300Y0282800D01*
X0129800Y0282800D01*
X0129740Y0282802D01*
X0129679Y0282807D01*
X0129620Y0282816D01*
X0129561Y0282829D01*
X0129502Y0282845D01*
X0129445Y0282865D01*
X0129390Y0282888D01*
X0129335Y0282915D01*
X0129283Y0282944D01*
X0129232Y0282977D01*
X0129183Y0283013D01*
X0129137Y0283051D01*
X0129093Y0283093D01*
X0129051Y0283137D01*
X0129013Y0283183D01*
X0128977Y0283232D01*
X0128944Y0283283D01*
X0128915Y0283335D01*
X0128888Y0283390D01*
X0128865Y0283445D01*
X0128845Y0283502D01*
X0128829Y0283561D01*
X0128816Y0283620D01*
X0128807Y0283679D01*
X0128802Y0283740D01*
X0128800Y0283800D01*
X0168800Y0288800D02*
X0168800Y0294800D01*
X0168802Y0294860D01*
X0168807Y0294921D01*
X0168816Y0294980D01*
X0168829Y0295039D01*
X0168845Y0295098D01*
X0168865Y0295155D01*
X0168888Y0295210D01*
X0168915Y0295265D01*
X0168944Y0295317D01*
X0168977Y0295368D01*
X0169013Y0295417D01*
X0169051Y0295463D01*
X0169093Y0295507D01*
X0169137Y0295549D01*
X0169183Y0295587D01*
X0169232Y0295623D01*
X0169283Y0295656D01*
X0169335Y0295685D01*
X0169390Y0295712D01*
X0169445Y0295735D01*
X0169502Y0295755D01*
X0169561Y0295771D01*
X0169620Y0295784D01*
X0169679Y0295793D01*
X0169740Y0295798D01*
X0169800Y0295800D01*
X0171300Y0295800D01*
X0171800Y0295300D01*
X0185800Y0295300D01*
X0186300Y0295800D01*
X0187800Y0295800D01*
X0187860Y0295798D01*
X0187921Y0295793D01*
X0187980Y0295784D01*
X0188039Y0295771D01*
X0188098Y0295755D01*
X0188155Y0295735D01*
X0188210Y0295712D01*
X0188265Y0295685D01*
X0188317Y0295656D01*
X0188368Y0295623D01*
X0188417Y0295587D01*
X0188463Y0295549D01*
X0188507Y0295507D01*
X0188549Y0295463D01*
X0188587Y0295417D01*
X0188623Y0295368D01*
X0188656Y0295317D01*
X0188685Y0295265D01*
X0188712Y0295210D01*
X0188735Y0295155D01*
X0188755Y0295098D01*
X0188771Y0295039D01*
X0188784Y0294980D01*
X0188793Y0294921D01*
X0188798Y0294860D01*
X0188800Y0294800D01*
X0188800Y0288800D01*
X0188798Y0288740D01*
X0188793Y0288679D01*
X0188784Y0288620D01*
X0188771Y0288561D01*
X0188755Y0288502D01*
X0188735Y0288445D01*
X0188712Y0288390D01*
X0188685Y0288335D01*
X0188656Y0288283D01*
X0188623Y0288232D01*
X0188587Y0288183D01*
X0188549Y0288137D01*
X0188507Y0288093D01*
X0188463Y0288051D01*
X0188417Y0288013D01*
X0188368Y0287977D01*
X0188317Y0287944D01*
X0188265Y0287915D01*
X0188210Y0287888D01*
X0188155Y0287865D01*
X0188098Y0287845D01*
X0188039Y0287829D01*
X0187980Y0287816D01*
X0187921Y0287807D01*
X0187860Y0287802D01*
X0187800Y0287800D01*
X0186300Y0287800D01*
X0185800Y0288300D01*
X0171800Y0288300D01*
X0171300Y0287800D01*
X0169800Y0287800D01*
X0169740Y0287802D01*
X0169679Y0287807D01*
X0169620Y0287816D01*
X0169561Y0287829D01*
X0169502Y0287845D01*
X0169445Y0287865D01*
X0169390Y0287888D01*
X0169335Y0287915D01*
X0169283Y0287944D01*
X0169232Y0287977D01*
X0169183Y0288013D01*
X0169137Y0288051D01*
X0169093Y0288093D01*
X0169051Y0288137D01*
X0169013Y0288183D01*
X0168977Y0288232D01*
X0168944Y0288283D01*
X0168915Y0288335D01*
X0168888Y0288390D01*
X0168865Y0288445D01*
X0168845Y0288502D01*
X0168829Y0288561D01*
X0168816Y0288620D01*
X0168807Y0288679D01*
X0168802Y0288740D01*
X0168800Y0288800D01*
X0213800Y0288800D02*
X0213800Y0294800D01*
X0213802Y0294860D01*
X0213807Y0294921D01*
X0213816Y0294980D01*
X0213829Y0295039D01*
X0213845Y0295098D01*
X0213865Y0295155D01*
X0213888Y0295210D01*
X0213915Y0295265D01*
X0213944Y0295317D01*
X0213977Y0295368D01*
X0214013Y0295417D01*
X0214051Y0295463D01*
X0214093Y0295507D01*
X0214137Y0295549D01*
X0214183Y0295587D01*
X0214232Y0295623D01*
X0214283Y0295656D01*
X0214335Y0295685D01*
X0214390Y0295712D01*
X0214445Y0295735D01*
X0214502Y0295755D01*
X0214561Y0295771D01*
X0214620Y0295784D01*
X0214679Y0295793D01*
X0214740Y0295798D01*
X0214800Y0295800D01*
X0216300Y0295800D01*
X0216800Y0295300D01*
X0230800Y0295300D01*
X0231300Y0295800D01*
X0232800Y0295800D01*
X0232860Y0295798D01*
X0232921Y0295793D01*
X0232980Y0295784D01*
X0233039Y0295771D01*
X0233098Y0295755D01*
X0233155Y0295735D01*
X0233210Y0295712D01*
X0233265Y0295685D01*
X0233317Y0295656D01*
X0233368Y0295623D01*
X0233417Y0295587D01*
X0233463Y0295549D01*
X0233507Y0295507D01*
X0233549Y0295463D01*
X0233587Y0295417D01*
X0233623Y0295368D01*
X0233656Y0295317D01*
X0233685Y0295265D01*
X0233712Y0295210D01*
X0233735Y0295155D01*
X0233755Y0295098D01*
X0233771Y0295039D01*
X0233784Y0294980D01*
X0233793Y0294921D01*
X0233798Y0294860D01*
X0233800Y0294800D01*
X0233800Y0288800D01*
X0233798Y0288740D01*
X0233793Y0288679D01*
X0233784Y0288620D01*
X0233771Y0288561D01*
X0233755Y0288502D01*
X0233735Y0288445D01*
X0233712Y0288390D01*
X0233685Y0288335D01*
X0233656Y0288283D01*
X0233623Y0288232D01*
X0233587Y0288183D01*
X0233549Y0288137D01*
X0233507Y0288093D01*
X0233463Y0288051D01*
X0233417Y0288013D01*
X0233368Y0287977D01*
X0233317Y0287944D01*
X0233265Y0287915D01*
X0233210Y0287888D01*
X0233155Y0287865D01*
X0233098Y0287845D01*
X0233039Y0287829D01*
X0232980Y0287816D01*
X0232921Y0287807D01*
X0232860Y0287802D01*
X0232800Y0287800D01*
X0231300Y0287800D01*
X0230800Y0288300D01*
X0216800Y0288300D01*
X0216300Y0287800D01*
X0214800Y0287800D01*
X0214740Y0287802D01*
X0214679Y0287807D01*
X0214620Y0287816D01*
X0214561Y0287829D01*
X0214502Y0287845D01*
X0214445Y0287865D01*
X0214390Y0287888D01*
X0214335Y0287915D01*
X0214283Y0287944D01*
X0214232Y0287977D01*
X0214183Y0288013D01*
X0214137Y0288051D01*
X0214093Y0288093D01*
X0214051Y0288137D01*
X0214013Y0288183D01*
X0213977Y0288232D01*
X0213944Y0288283D01*
X0213915Y0288335D01*
X0213888Y0288390D01*
X0213865Y0288445D01*
X0213845Y0288502D01*
X0213829Y0288561D01*
X0213816Y0288620D01*
X0213807Y0288679D01*
X0213802Y0288740D01*
X0213800Y0288800D01*
X0254426Y0276800D02*
X0254428Y0276932D01*
X0254434Y0277063D01*
X0254444Y0277194D01*
X0254458Y0277325D01*
X0254476Y0277455D01*
X0254498Y0277585D01*
X0254523Y0277714D01*
X0254553Y0277842D01*
X0254587Y0277970D01*
X0254624Y0278096D01*
X0254665Y0278221D01*
X0254710Y0278344D01*
X0254759Y0278467D01*
X0254812Y0278587D01*
X0254868Y0278706D01*
X0254927Y0278824D01*
X0254990Y0278939D01*
X0255057Y0279052D01*
X0255127Y0279164D01*
X0255201Y0279273D01*
X0255277Y0279380D01*
X0255357Y0279484D01*
X0255440Y0279586D01*
X0255526Y0279686D01*
X0255615Y0279783D01*
X0255707Y0279877D01*
X0255802Y0279968D01*
X0255900Y0280057D01*
X0256000Y0280142D01*
X0256102Y0280224D01*
X0256208Y0280303D01*
X0256315Y0280379D01*
X0256425Y0280452D01*
X0256537Y0280521D01*
X0256651Y0280587D01*
X0256767Y0280649D01*
X0256884Y0280708D01*
X0257004Y0280763D01*
X0257125Y0280814D01*
X0257247Y0280862D01*
X0257371Y0280906D01*
X0257497Y0280947D01*
X0257623Y0280983D01*
X0257751Y0281016D01*
X0257879Y0281044D01*
X0258008Y0281069D01*
X0258138Y0281090D01*
X0258269Y0281107D01*
X0258400Y0281120D01*
X0258531Y0281129D01*
X0258662Y0281134D01*
X0258794Y0281135D01*
X0258925Y0281132D01*
X0259057Y0281125D01*
X0259188Y0281114D01*
X0259319Y0281099D01*
X0259449Y0281080D01*
X0259578Y0281057D01*
X0259707Y0281030D01*
X0259835Y0281000D01*
X0259962Y0280965D01*
X0260088Y0280927D01*
X0260213Y0280885D01*
X0260336Y0280839D01*
X0260458Y0280789D01*
X0260578Y0280736D01*
X0260697Y0280679D01*
X0260814Y0280618D01*
X0260928Y0280554D01*
X0261041Y0280487D01*
X0261152Y0280416D01*
X0261261Y0280342D01*
X0261367Y0280264D01*
X0261471Y0280183D01*
X0261573Y0280100D01*
X0261671Y0280013D01*
X0261768Y0279923D01*
X0261861Y0279830D01*
X0261952Y0279735D01*
X0262039Y0279637D01*
X0262124Y0279536D01*
X0262205Y0279432D01*
X0262283Y0279327D01*
X0262359Y0279219D01*
X0262430Y0279108D01*
X0262499Y0278996D01*
X0262564Y0278881D01*
X0262625Y0278765D01*
X0262683Y0278647D01*
X0262737Y0278527D01*
X0262788Y0278406D01*
X0262835Y0278283D01*
X0262878Y0278158D01*
X0262917Y0278033D01*
X0262953Y0277906D01*
X0262984Y0277778D01*
X0263012Y0277650D01*
X0263036Y0277520D01*
X0263056Y0277390D01*
X0263072Y0277260D01*
X0263084Y0277129D01*
X0263092Y0276997D01*
X0263096Y0276866D01*
X0263096Y0276734D01*
X0263092Y0276603D01*
X0263084Y0276471D01*
X0263072Y0276340D01*
X0263056Y0276210D01*
X0263036Y0276080D01*
X0263012Y0275950D01*
X0262984Y0275822D01*
X0262953Y0275694D01*
X0262917Y0275567D01*
X0262878Y0275442D01*
X0262835Y0275317D01*
X0262788Y0275194D01*
X0262737Y0275073D01*
X0262683Y0274953D01*
X0262625Y0274835D01*
X0262564Y0274719D01*
X0262499Y0274604D01*
X0262430Y0274492D01*
X0262359Y0274381D01*
X0262283Y0274273D01*
X0262205Y0274168D01*
X0262124Y0274064D01*
X0262039Y0273963D01*
X0261952Y0273865D01*
X0261861Y0273770D01*
X0261768Y0273677D01*
X0261671Y0273587D01*
X0261573Y0273500D01*
X0261471Y0273417D01*
X0261367Y0273336D01*
X0261261Y0273258D01*
X0261152Y0273184D01*
X0261041Y0273113D01*
X0260929Y0273046D01*
X0260814Y0272982D01*
X0260697Y0272921D01*
X0260578Y0272864D01*
X0260458Y0272811D01*
X0260336Y0272761D01*
X0260213Y0272715D01*
X0260088Y0272673D01*
X0259962Y0272635D01*
X0259835Y0272600D01*
X0259707Y0272570D01*
X0259578Y0272543D01*
X0259449Y0272520D01*
X0259319Y0272501D01*
X0259188Y0272486D01*
X0259057Y0272475D01*
X0258925Y0272468D01*
X0258794Y0272465D01*
X0258662Y0272466D01*
X0258531Y0272471D01*
X0258400Y0272480D01*
X0258269Y0272493D01*
X0258138Y0272510D01*
X0258008Y0272531D01*
X0257879Y0272556D01*
X0257751Y0272584D01*
X0257623Y0272617D01*
X0257497Y0272653D01*
X0257371Y0272694D01*
X0257247Y0272738D01*
X0257125Y0272786D01*
X0257004Y0272837D01*
X0256884Y0272892D01*
X0256767Y0272951D01*
X0256651Y0273013D01*
X0256537Y0273079D01*
X0256425Y0273148D01*
X0256315Y0273221D01*
X0256208Y0273297D01*
X0256102Y0273376D01*
X0256000Y0273458D01*
X0255900Y0273543D01*
X0255802Y0273632D01*
X0255707Y0273723D01*
X0255615Y0273817D01*
X0255526Y0273914D01*
X0255440Y0274014D01*
X0255357Y0274116D01*
X0255277Y0274220D01*
X0255201Y0274327D01*
X0255127Y0274436D01*
X0255057Y0274548D01*
X0254990Y0274661D01*
X0254927Y0274776D01*
X0254868Y0274894D01*
X0254812Y0275013D01*
X0254759Y0275133D01*
X0254710Y0275256D01*
X0254665Y0275379D01*
X0254624Y0275504D01*
X0254587Y0275630D01*
X0254553Y0275758D01*
X0254523Y0275886D01*
X0254498Y0276015D01*
X0254476Y0276145D01*
X0254458Y0276275D01*
X0254444Y0276406D01*
X0254434Y0276537D01*
X0254428Y0276668D01*
X0254426Y0276800D01*
X0251300Y0255800D02*
X0249800Y0255800D01*
X0249740Y0255798D01*
X0249679Y0255793D01*
X0249620Y0255784D01*
X0249561Y0255771D01*
X0249502Y0255755D01*
X0249445Y0255735D01*
X0249390Y0255712D01*
X0249335Y0255685D01*
X0249283Y0255656D01*
X0249232Y0255623D01*
X0249183Y0255587D01*
X0249137Y0255549D01*
X0249093Y0255507D01*
X0249051Y0255463D01*
X0249013Y0255417D01*
X0248977Y0255368D01*
X0248944Y0255317D01*
X0248915Y0255265D01*
X0248888Y0255210D01*
X0248865Y0255155D01*
X0248845Y0255098D01*
X0248829Y0255039D01*
X0248816Y0254980D01*
X0248807Y0254921D01*
X0248802Y0254860D01*
X0248800Y0254800D01*
X0248800Y0248800D01*
X0248802Y0248740D01*
X0248807Y0248679D01*
X0248816Y0248620D01*
X0248829Y0248561D01*
X0248845Y0248502D01*
X0248865Y0248445D01*
X0248888Y0248390D01*
X0248915Y0248335D01*
X0248944Y0248283D01*
X0248977Y0248232D01*
X0249013Y0248183D01*
X0249051Y0248137D01*
X0249093Y0248093D01*
X0249137Y0248051D01*
X0249183Y0248013D01*
X0249232Y0247977D01*
X0249283Y0247944D01*
X0249335Y0247915D01*
X0249390Y0247888D01*
X0249445Y0247865D01*
X0249502Y0247845D01*
X0249561Y0247829D01*
X0249620Y0247816D01*
X0249679Y0247807D01*
X0249740Y0247802D01*
X0249800Y0247800D01*
X0251300Y0247800D01*
X0251800Y0248300D01*
X0265800Y0248300D01*
X0266300Y0247800D01*
X0267800Y0247800D01*
X0267860Y0247802D01*
X0267921Y0247807D01*
X0267980Y0247816D01*
X0268039Y0247829D01*
X0268098Y0247845D01*
X0268155Y0247865D01*
X0268210Y0247888D01*
X0268265Y0247915D01*
X0268317Y0247944D01*
X0268368Y0247977D01*
X0268417Y0248013D01*
X0268463Y0248051D01*
X0268507Y0248093D01*
X0268549Y0248137D01*
X0268587Y0248183D01*
X0268623Y0248232D01*
X0268656Y0248283D01*
X0268685Y0248335D01*
X0268712Y0248390D01*
X0268735Y0248445D01*
X0268755Y0248502D01*
X0268771Y0248561D01*
X0268784Y0248620D01*
X0268793Y0248679D01*
X0268798Y0248740D01*
X0268800Y0248800D01*
X0268800Y0254800D01*
X0268798Y0254860D01*
X0268793Y0254921D01*
X0268784Y0254980D01*
X0268771Y0255039D01*
X0268755Y0255098D01*
X0268735Y0255155D01*
X0268712Y0255210D01*
X0268685Y0255265D01*
X0268656Y0255317D01*
X0268623Y0255368D01*
X0268587Y0255417D01*
X0268549Y0255463D01*
X0268507Y0255507D01*
X0268463Y0255549D01*
X0268417Y0255587D01*
X0268368Y0255623D01*
X0268317Y0255656D01*
X0268265Y0255685D01*
X0268210Y0255712D01*
X0268155Y0255735D01*
X0268098Y0255755D01*
X0268039Y0255771D01*
X0267980Y0255784D01*
X0267921Y0255793D01*
X0267860Y0255798D01*
X0267800Y0255800D01*
X0266300Y0255800D01*
X0265800Y0255300D01*
X0251800Y0255300D01*
X0251300Y0255800D01*
X0288800Y0258800D02*
X0288800Y0264800D01*
X0288802Y0264860D01*
X0288807Y0264921D01*
X0288816Y0264980D01*
X0288829Y0265039D01*
X0288845Y0265098D01*
X0288865Y0265155D01*
X0288888Y0265210D01*
X0288915Y0265265D01*
X0288944Y0265317D01*
X0288977Y0265368D01*
X0289013Y0265417D01*
X0289051Y0265463D01*
X0289093Y0265507D01*
X0289137Y0265549D01*
X0289183Y0265587D01*
X0289232Y0265623D01*
X0289283Y0265656D01*
X0289335Y0265685D01*
X0289390Y0265712D01*
X0289445Y0265735D01*
X0289502Y0265755D01*
X0289561Y0265771D01*
X0289620Y0265784D01*
X0289679Y0265793D01*
X0289740Y0265798D01*
X0289800Y0265800D01*
X0291300Y0265800D01*
X0291800Y0265300D01*
X0305800Y0265300D01*
X0306300Y0265800D01*
X0307800Y0265800D01*
X0307860Y0265798D01*
X0307921Y0265793D01*
X0307980Y0265784D01*
X0308039Y0265771D01*
X0308098Y0265755D01*
X0308155Y0265735D01*
X0308210Y0265712D01*
X0308265Y0265685D01*
X0308317Y0265656D01*
X0308368Y0265623D01*
X0308417Y0265587D01*
X0308463Y0265549D01*
X0308507Y0265507D01*
X0308549Y0265463D01*
X0308587Y0265417D01*
X0308623Y0265368D01*
X0308656Y0265317D01*
X0308685Y0265265D01*
X0308712Y0265210D01*
X0308735Y0265155D01*
X0308755Y0265098D01*
X0308771Y0265039D01*
X0308784Y0264980D01*
X0308793Y0264921D01*
X0308798Y0264860D01*
X0308800Y0264800D01*
X0308800Y0258800D01*
X0308798Y0258740D01*
X0308793Y0258679D01*
X0308784Y0258620D01*
X0308771Y0258561D01*
X0308755Y0258502D01*
X0308735Y0258445D01*
X0308712Y0258390D01*
X0308685Y0258335D01*
X0308656Y0258283D01*
X0308623Y0258232D01*
X0308587Y0258183D01*
X0308549Y0258137D01*
X0308507Y0258093D01*
X0308463Y0258051D01*
X0308417Y0258013D01*
X0308368Y0257977D01*
X0308317Y0257944D01*
X0308265Y0257915D01*
X0308210Y0257888D01*
X0308155Y0257865D01*
X0308098Y0257845D01*
X0308039Y0257829D01*
X0307980Y0257816D01*
X0307921Y0257807D01*
X0307860Y0257802D01*
X0307800Y0257800D01*
X0306300Y0257800D01*
X0305800Y0258300D01*
X0291800Y0258300D01*
X0291300Y0257800D01*
X0289800Y0257800D01*
X0289740Y0257802D01*
X0289679Y0257807D01*
X0289620Y0257816D01*
X0289561Y0257829D01*
X0289502Y0257845D01*
X0289445Y0257865D01*
X0289390Y0257888D01*
X0289335Y0257915D01*
X0289283Y0257944D01*
X0289232Y0257977D01*
X0289183Y0258013D01*
X0289137Y0258051D01*
X0289093Y0258093D01*
X0289051Y0258137D01*
X0289013Y0258183D01*
X0288977Y0258232D01*
X0288944Y0258283D01*
X0288915Y0258335D01*
X0288888Y0258390D01*
X0288865Y0258445D01*
X0288845Y0258502D01*
X0288829Y0258561D01*
X0288816Y0258620D01*
X0288807Y0258679D01*
X0288802Y0258740D01*
X0288800Y0258800D01*
X0298800Y0254800D02*
X0298800Y0248800D01*
X0298802Y0248740D01*
X0298807Y0248679D01*
X0298816Y0248620D01*
X0298829Y0248561D01*
X0298845Y0248502D01*
X0298865Y0248445D01*
X0298888Y0248390D01*
X0298915Y0248335D01*
X0298944Y0248283D01*
X0298977Y0248232D01*
X0299013Y0248183D01*
X0299051Y0248137D01*
X0299093Y0248093D01*
X0299137Y0248051D01*
X0299183Y0248013D01*
X0299232Y0247977D01*
X0299283Y0247944D01*
X0299335Y0247915D01*
X0299390Y0247888D01*
X0299445Y0247865D01*
X0299502Y0247845D01*
X0299561Y0247829D01*
X0299620Y0247816D01*
X0299679Y0247807D01*
X0299740Y0247802D01*
X0299800Y0247800D01*
X0301300Y0247800D01*
X0301800Y0248300D01*
X0315800Y0248300D01*
X0316300Y0247800D01*
X0317800Y0247800D01*
X0317860Y0247802D01*
X0317921Y0247807D01*
X0317980Y0247816D01*
X0318039Y0247829D01*
X0318098Y0247845D01*
X0318155Y0247865D01*
X0318210Y0247888D01*
X0318265Y0247915D01*
X0318317Y0247944D01*
X0318368Y0247977D01*
X0318417Y0248013D01*
X0318463Y0248051D01*
X0318507Y0248093D01*
X0318549Y0248137D01*
X0318587Y0248183D01*
X0318623Y0248232D01*
X0318656Y0248283D01*
X0318685Y0248335D01*
X0318712Y0248390D01*
X0318735Y0248445D01*
X0318755Y0248502D01*
X0318771Y0248561D01*
X0318784Y0248620D01*
X0318793Y0248679D01*
X0318798Y0248740D01*
X0318800Y0248800D01*
X0318800Y0254800D01*
X0318798Y0254860D01*
X0318793Y0254921D01*
X0318784Y0254980D01*
X0318771Y0255039D01*
X0318755Y0255098D01*
X0318735Y0255155D01*
X0318712Y0255210D01*
X0318685Y0255265D01*
X0318656Y0255317D01*
X0318623Y0255368D01*
X0318587Y0255417D01*
X0318549Y0255463D01*
X0318507Y0255507D01*
X0318463Y0255549D01*
X0318417Y0255587D01*
X0318368Y0255623D01*
X0318317Y0255656D01*
X0318265Y0255685D01*
X0318210Y0255712D01*
X0318155Y0255735D01*
X0318098Y0255755D01*
X0318039Y0255771D01*
X0317980Y0255784D01*
X0317921Y0255793D01*
X0317860Y0255798D01*
X0317800Y0255800D01*
X0316300Y0255800D01*
X0315800Y0255300D01*
X0301800Y0255300D01*
X0301300Y0255800D01*
X0299800Y0255800D01*
X0299740Y0255798D01*
X0299679Y0255793D01*
X0299620Y0255784D01*
X0299561Y0255771D01*
X0299502Y0255755D01*
X0299445Y0255735D01*
X0299390Y0255712D01*
X0299335Y0255685D01*
X0299283Y0255656D01*
X0299232Y0255623D01*
X0299183Y0255587D01*
X0299137Y0255549D01*
X0299093Y0255507D01*
X0299051Y0255463D01*
X0299013Y0255417D01*
X0298977Y0255368D01*
X0298944Y0255317D01*
X0298915Y0255265D01*
X0298888Y0255210D01*
X0298865Y0255155D01*
X0298845Y0255098D01*
X0298829Y0255039D01*
X0298816Y0254980D01*
X0298807Y0254921D01*
X0298802Y0254860D01*
X0298800Y0254800D01*
X0341300Y0256800D02*
X0341300Y0246800D01*
X0341300Y0236800D01*
X0351300Y0236800D01*
X0351300Y0246800D01*
X0351300Y0256800D01*
X0351300Y0266800D01*
X0351300Y0276800D01*
X0341300Y0276800D01*
X0341300Y0266800D01*
X0341300Y0256800D01*
X0351300Y0256800D01*
X0351300Y0266800D02*
X0341300Y0266800D01*
X0341300Y0246800D02*
X0351300Y0246800D01*
X0351300Y0211800D02*
X0341300Y0211800D01*
X0341300Y0201800D01*
X0341300Y0191800D01*
X0341300Y0181800D01*
X0341300Y0171800D01*
X0351300Y0171800D01*
X0351300Y0181800D01*
X0351300Y0191800D01*
X0351300Y0201800D01*
X0351300Y0211800D01*
X0351300Y0201800D02*
X0341300Y0201800D01*
X0341300Y0191800D02*
X0351300Y0191800D01*
X0351300Y0181800D02*
X0341300Y0181800D01*
X0318800Y0179800D02*
X0318800Y0173800D01*
X0318798Y0173740D01*
X0318793Y0173679D01*
X0318784Y0173620D01*
X0318771Y0173561D01*
X0318755Y0173502D01*
X0318735Y0173445D01*
X0318712Y0173390D01*
X0318685Y0173335D01*
X0318656Y0173283D01*
X0318623Y0173232D01*
X0318587Y0173183D01*
X0318549Y0173137D01*
X0318507Y0173093D01*
X0318463Y0173051D01*
X0318417Y0173013D01*
X0318368Y0172977D01*
X0318317Y0172944D01*
X0318265Y0172915D01*
X0318210Y0172888D01*
X0318155Y0172865D01*
X0318098Y0172845D01*
X0318039Y0172829D01*
X0317980Y0172816D01*
X0317921Y0172807D01*
X0317860Y0172802D01*
X0317800Y0172800D01*
X0316300Y0172800D01*
X0315800Y0173300D01*
X0301800Y0173300D01*
X0301300Y0172800D01*
X0299800Y0172800D01*
X0299740Y0172802D01*
X0299679Y0172807D01*
X0299620Y0172816D01*
X0299561Y0172829D01*
X0299502Y0172845D01*
X0299445Y0172865D01*
X0299390Y0172888D01*
X0299335Y0172915D01*
X0299283Y0172944D01*
X0299232Y0172977D01*
X0299183Y0173013D01*
X0299137Y0173051D01*
X0299093Y0173093D01*
X0299051Y0173137D01*
X0299013Y0173183D01*
X0298977Y0173232D01*
X0298944Y0173283D01*
X0298915Y0173335D01*
X0298888Y0173390D01*
X0298865Y0173445D01*
X0298845Y0173502D01*
X0298829Y0173561D01*
X0298816Y0173620D01*
X0298807Y0173679D01*
X0298802Y0173740D01*
X0298800Y0173800D01*
X0298800Y0179800D01*
X0298802Y0179860D01*
X0298807Y0179921D01*
X0298816Y0179980D01*
X0298829Y0180039D01*
X0298845Y0180098D01*
X0298865Y0180155D01*
X0298888Y0180210D01*
X0298915Y0180265D01*
X0298944Y0180317D01*
X0298977Y0180368D01*
X0299013Y0180417D01*
X0299051Y0180463D01*
X0299093Y0180507D01*
X0299137Y0180549D01*
X0299183Y0180587D01*
X0299232Y0180623D01*
X0299283Y0180656D01*
X0299335Y0180685D01*
X0299390Y0180712D01*
X0299445Y0180735D01*
X0299502Y0180755D01*
X0299561Y0180771D01*
X0299620Y0180784D01*
X0299679Y0180793D01*
X0299740Y0180798D01*
X0299800Y0180800D01*
X0301300Y0180800D01*
X0301800Y0180300D01*
X0315800Y0180300D01*
X0316300Y0180800D01*
X0317800Y0180800D01*
X0317860Y0180798D01*
X0317921Y0180793D01*
X0317980Y0180784D01*
X0318039Y0180771D01*
X0318098Y0180755D01*
X0318155Y0180735D01*
X0318210Y0180712D01*
X0318265Y0180685D01*
X0318317Y0180656D01*
X0318368Y0180623D01*
X0318417Y0180587D01*
X0318463Y0180549D01*
X0318507Y0180507D01*
X0318549Y0180463D01*
X0318587Y0180417D01*
X0318623Y0180368D01*
X0318656Y0180317D01*
X0318685Y0180265D01*
X0318712Y0180210D01*
X0318735Y0180155D01*
X0318755Y0180098D01*
X0318771Y0180039D01*
X0318784Y0179980D01*
X0318793Y0179921D01*
X0318798Y0179860D01*
X0318800Y0179800D01*
X0317800Y0182800D02*
X0316300Y0182800D01*
X0315800Y0183300D01*
X0301800Y0183300D01*
X0301300Y0182800D01*
X0299800Y0182800D01*
X0299740Y0182802D01*
X0299679Y0182807D01*
X0299620Y0182816D01*
X0299561Y0182829D01*
X0299502Y0182845D01*
X0299445Y0182865D01*
X0299390Y0182888D01*
X0299335Y0182915D01*
X0299283Y0182944D01*
X0299232Y0182977D01*
X0299183Y0183013D01*
X0299137Y0183051D01*
X0299093Y0183093D01*
X0299051Y0183137D01*
X0299013Y0183183D01*
X0298977Y0183232D01*
X0298944Y0183283D01*
X0298915Y0183335D01*
X0298888Y0183390D01*
X0298865Y0183445D01*
X0298845Y0183502D01*
X0298829Y0183561D01*
X0298816Y0183620D01*
X0298807Y0183679D01*
X0298802Y0183740D01*
X0298800Y0183800D01*
X0298800Y0189800D01*
X0298802Y0189860D01*
X0298807Y0189921D01*
X0298816Y0189980D01*
X0298829Y0190039D01*
X0298845Y0190098D01*
X0298865Y0190155D01*
X0298888Y0190210D01*
X0298915Y0190265D01*
X0298944Y0190317D01*
X0298977Y0190368D01*
X0299013Y0190417D01*
X0299051Y0190463D01*
X0299093Y0190507D01*
X0299137Y0190549D01*
X0299183Y0190587D01*
X0299232Y0190623D01*
X0299283Y0190656D01*
X0299335Y0190685D01*
X0299390Y0190712D01*
X0299445Y0190735D01*
X0299502Y0190755D01*
X0299561Y0190771D01*
X0299620Y0190784D01*
X0299679Y0190793D01*
X0299740Y0190798D01*
X0299800Y0190800D01*
X0301300Y0190800D01*
X0301800Y0190300D01*
X0315800Y0190300D01*
X0316300Y0190800D01*
X0317800Y0190800D01*
X0317860Y0190798D01*
X0317921Y0190793D01*
X0317980Y0190784D01*
X0318039Y0190771D01*
X0318098Y0190755D01*
X0318155Y0190735D01*
X0318210Y0190712D01*
X0318265Y0190685D01*
X0318317Y0190656D01*
X0318368Y0190623D01*
X0318417Y0190587D01*
X0318463Y0190549D01*
X0318507Y0190507D01*
X0318549Y0190463D01*
X0318587Y0190417D01*
X0318623Y0190368D01*
X0318656Y0190317D01*
X0318685Y0190265D01*
X0318712Y0190210D01*
X0318735Y0190155D01*
X0318755Y0190098D01*
X0318771Y0190039D01*
X0318784Y0189980D01*
X0318793Y0189921D01*
X0318798Y0189860D01*
X0318800Y0189800D01*
X0318800Y0183800D01*
X0318798Y0183740D01*
X0318793Y0183679D01*
X0318784Y0183620D01*
X0318771Y0183561D01*
X0318755Y0183502D01*
X0318735Y0183445D01*
X0318712Y0183390D01*
X0318685Y0183335D01*
X0318656Y0183283D01*
X0318623Y0183232D01*
X0318587Y0183183D01*
X0318549Y0183137D01*
X0318507Y0183093D01*
X0318463Y0183051D01*
X0318417Y0183013D01*
X0318368Y0182977D01*
X0318317Y0182944D01*
X0318265Y0182915D01*
X0318210Y0182888D01*
X0318155Y0182865D01*
X0318098Y0182845D01*
X0318039Y0182829D01*
X0317980Y0182816D01*
X0317921Y0182807D01*
X0317860Y0182802D01*
X0317800Y0182800D01*
X0341300Y0141800D02*
X0351300Y0141800D01*
X0351300Y0131800D01*
X0351300Y0121800D01*
X0351300Y0111800D01*
X0351300Y0101800D01*
X0341300Y0101800D01*
X0341300Y0111800D01*
X0351300Y0111800D01*
X0341300Y0111800D02*
X0341300Y0121800D01*
X0351300Y0121800D01*
X0341300Y0121800D02*
X0341300Y0131800D01*
X0351300Y0131800D01*
X0341300Y0131800D02*
X0341300Y0141800D01*
X0317800Y0120800D02*
X0316300Y0120800D01*
X0315800Y0120300D01*
X0301800Y0120300D01*
X0301300Y0120800D01*
X0299800Y0120800D01*
X0299740Y0120798D01*
X0299679Y0120793D01*
X0299620Y0120784D01*
X0299561Y0120771D01*
X0299502Y0120755D01*
X0299445Y0120735D01*
X0299390Y0120712D01*
X0299335Y0120685D01*
X0299283Y0120656D01*
X0299232Y0120623D01*
X0299183Y0120587D01*
X0299137Y0120549D01*
X0299093Y0120507D01*
X0299051Y0120463D01*
X0299013Y0120417D01*
X0298977Y0120368D01*
X0298944Y0120317D01*
X0298915Y0120265D01*
X0298888Y0120210D01*
X0298865Y0120155D01*
X0298845Y0120098D01*
X0298829Y0120039D01*
X0298816Y0119980D01*
X0298807Y0119921D01*
X0298802Y0119860D01*
X0298800Y0119800D01*
X0298800Y0113800D01*
X0298802Y0113740D01*
X0298807Y0113679D01*
X0298816Y0113620D01*
X0298829Y0113561D01*
X0298845Y0113502D01*
X0298865Y0113445D01*
X0298888Y0113390D01*
X0298915Y0113335D01*
X0298944Y0113283D01*
X0298977Y0113232D01*
X0299013Y0113183D01*
X0299051Y0113137D01*
X0299093Y0113093D01*
X0299137Y0113051D01*
X0299183Y0113013D01*
X0299232Y0112977D01*
X0299283Y0112944D01*
X0299335Y0112915D01*
X0299390Y0112888D01*
X0299445Y0112865D01*
X0299502Y0112845D01*
X0299561Y0112829D01*
X0299620Y0112816D01*
X0299679Y0112807D01*
X0299740Y0112802D01*
X0299800Y0112800D01*
X0301300Y0112800D01*
X0301800Y0113300D01*
X0315800Y0113300D01*
X0316300Y0112800D01*
X0317800Y0112800D01*
X0317860Y0112802D01*
X0317921Y0112807D01*
X0317980Y0112816D01*
X0318039Y0112829D01*
X0318098Y0112845D01*
X0318155Y0112865D01*
X0318210Y0112888D01*
X0318265Y0112915D01*
X0318317Y0112944D01*
X0318368Y0112977D01*
X0318417Y0113013D01*
X0318463Y0113051D01*
X0318507Y0113093D01*
X0318549Y0113137D01*
X0318587Y0113183D01*
X0318623Y0113232D01*
X0318656Y0113283D01*
X0318685Y0113335D01*
X0318712Y0113390D01*
X0318735Y0113445D01*
X0318755Y0113502D01*
X0318771Y0113561D01*
X0318784Y0113620D01*
X0318793Y0113679D01*
X0318798Y0113740D01*
X0318800Y0113800D01*
X0318800Y0119800D01*
X0318798Y0119860D01*
X0318793Y0119921D01*
X0318784Y0119980D01*
X0318771Y0120039D01*
X0318755Y0120098D01*
X0318735Y0120155D01*
X0318712Y0120210D01*
X0318685Y0120265D01*
X0318656Y0120317D01*
X0318623Y0120368D01*
X0318587Y0120417D01*
X0318549Y0120463D01*
X0318507Y0120507D01*
X0318463Y0120549D01*
X0318417Y0120587D01*
X0318368Y0120623D01*
X0318317Y0120656D01*
X0318265Y0120685D01*
X0318210Y0120712D01*
X0318155Y0120735D01*
X0318098Y0120755D01*
X0318039Y0120771D01*
X0317980Y0120784D01*
X0317921Y0120793D01*
X0317860Y0120798D01*
X0317800Y0120800D01*
X0317800Y0110800D02*
X0316300Y0110800D01*
X0315800Y0110300D01*
X0301800Y0110300D01*
X0301300Y0110800D01*
X0299800Y0110800D01*
X0299740Y0110798D01*
X0299679Y0110793D01*
X0299620Y0110784D01*
X0299561Y0110771D01*
X0299502Y0110755D01*
X0299445Y0110735D01*
X0299390Y0110712D01*
X0299335Y0110685D01*
X0299283Y0110656D01*
X0299232Y0110623D01*
X0299183Y0110587D01*
X0299137Y0110549D01*
X0299093Y0110507D01*
X0299051Y0110463D01*
X0299013Y0110417D01*
X0298977Y0110368D01*
X0298944Y0110317D01*
X0298915Y0110265D01*
X0298888Y0110210D01*
X0298865Y0110155D01*
X0298845Y0110098D01*
X0298829Y0110039D01*
X0298816Y0109980D01*
X0298807Y0109921D01*
X0298802Y0109860D01*
X0298800Y0109800D01*
X0298800Y0103800D01*
X0298802Y0103740D01*
X0298807Y0103679D01*
X0298816Y0103620D01*
X0298829Y0103561D01*
X0298845Y0103502D01*
X0298865Y0103445D01*
X0298888Y0103390D01*
X0298915Y0103335D01*
X0298944Y0103283D01*
X0298977Y0103232D01*
X0299013Y0103183D01*
X0299051Y0103137D01*
X0299093Y0103093D01*
X0299137Y0103051D01*
X0299183Y0103013D01*
X0299232Y0102977D01*
X0299283Y0102944D01*
X0299335Y0102915D01*
X0299390Y0102888D01*
X0299445Y0102865D01*
X0299502Y0102845D01*
X0299561Y0102829D01*
X0299620Y0102816D01*
X0299679Y0102807D01*
X0299740Y0102802D01*
X0299800Y0102800D01*
X0301300Y0102800D01*
X0301800Y0103300D01*
X0315800Y0103300D01*
X0316300Y0102800D01*
X0317800Y0102800D01*
X0317860Y0102802D01*
X0317921Y0102807D01*
X0317980Y0102816D01*
X0318039Y0102829D01*
X0318098Y0102845D01*
X0318155Y0102865D01*
X0318210Y0102888D01*
X0318265Y0102915D01*
X0318317Y0102944D01*
X0318368Y0102977D01*
X0318417Y0103013D01*
X0318463Y0103051D01*
X0318507Y0103093D01*
X0318549Y0103137D01*
X0318587Y0103183D01*
X0318623Y0103232D01*
X0318656Y0103283D01*
X0318685Y0103335D01*
X0318712Y0103390D01*
X0318735Y0103445D01*
X0318755Y0103502D01*
X0318771Y0103561D01*
X0318784Y0103620D01*
X0318793Y0103679D01*
X0318798Y0103740D01*
X0318800Y0103800D01*
X0318800Y0109800D01*
X0318798Y0109860D01*
X0318793Y0109921D01*
X0318784Y0109980D01*
X0318771Y0110039D01*
X0318755Y0110098D01*
X0318735Y0110155D01*
X0318712Y0110210D01*
X0318685Y0110265D01*
X0318656Y0110317D01*
X0318623Y0110368D01*
X0318587Y0110417D01*
X0318549Y0110463D01*
X0318507Y0110507D01*
X0318463Y0110549D01*
X0318417Y0110587D01*
X0318368Y0110623D01*
X0318317Y0110656D01*
X0318265Y0110685D01*
X0318210Y0110712D01*
X0318155Y0110735D01*
X0318098Y0110755D01*
X0318039Y0110771D01*
X0317980Y0110784D01*
X0317921Y0110793D01*
X0317860Y0110798D01*
X0317800Y0110800D01*
X0341300Y0066800D02*
X0351300Y0066800D01*
X0351300Y0056800D01*
X0351300Y0046800D01*
X0351300Y0036800D01*
X0351300Y0026800D01*
X0341300Y0026800D01*
X0341300Y0036800D01*
X0351300Y0036800D01*
X0341300Y0036800D02*
X0341300Y0046800D01*
X0351300Y0046800D01*
X0341300Y0046800D02*
X0341300Y0056800D01*
X0351300Y0056800D01*
X0341300Y0056800D02*
X0341300Y0066800D01*
X0318800Y0049800D02*
X0318800Y0043800D01*
X0318798Y0043740D01*
X0318793Y0043679D01*
X0318784Y0043620D01*
X0318771Y0043561D01*
X0318755Y0043502D01*
X0318735Y0043445D01*
X0318712Y0043390D01*
X0318685Y0043335D01*
X0318656Y0043283D01*
X0318623Y0043232D01*
X0318587Y0043183D01*
X0318549Y0043137D01*
X0318507Y0043093D01*
X0318463Y0043051D01*
X0318417Y0043013D01*
X0318368Y0042977D01*
X0318317Y0042944D01*
X0318265Y0042915D01*
X0318210Y0042888D01*
X0318155Y0042865D01*
X0318098Y0042845D01*
X0318039Y0042829D01*
X0317980Y0042816D01*
X0317921Y0042807D01*
X0317860Y0042802D01*
X0317800Y0042800D01*
X0316300Y0042800D01*
X0315800Y0043300D01*
X0301800Y0043300D01*
X0301300Y0042800D01*
X0299800Y0042800D01*
X0299740Y0042802D01*
X0299679Y0042807D01*
X0299620Y0042816D01*
X0299561Y0042829D01*
X0299502Y0042845D01*
X0299445Y0042865D01*
X0299390Y0042888D01*
X0299335Y0042915D01*
X0299283Y0042944D01*
X0299232Y0042977D01*
X0299183Y0043013D01*
X0299137Y0043051D01*
X0299093Y0043093D01*
X0299051Y0043137D01*
X0299013Y0043183D01*
X0298977Y0043232D01*
X0298944Y0043283D01*
X0298915Y0043335D01*
X0298888Y0043390D01*
X0298865Y0043445D01*
X0298845Y0043502D01*
X0298829Y0043561D01*
X0298816Y0043620D01*
X0298807Y0043679D01*
X0298802Y0043740D01*
X0298800Y0043800D01*
X0298800Y0049800D01*
X0298802Y0049860D01*
X0298807Y0049921D01*
X0298816Y0049980D01*
X0298829Y0050039D01*
X0298845Y0050098D01*
X0298865Y0050155D01*
X0298888Y0050210D01*
X0298915Y0050265D01*
X0298944Y0050317D01*
X0298977Y0050368D01*
X0299013Y0050417D01*
X0299051Y0050463D01*
X0299093Y0050507D01*
X0299137Y0050549D01*
X0299183Y0050587D01*
X0299232Y0050623D01*
X0299283Y0050656D01*
X0299335Y0050685D01*
X0299390Y0050712D01*
X0299445Y0050735D01*
X0299502Y0050755D01*
X0299561Y0050771D01*
X0299620Y0050784D01*
X0299679Y0050793D01*
X0299740Y0050798D01*
X0299800Y0050800D01*
X0301300Y0050800D01*
X0301800Y0050300D01*
X0315800Y0050300D01*
X0316300Y0050800D01*
X0317800Y0050800D01*
X0317860Y0050798D01*
X0317921Y0050793D01*
X0317980Y0050784D01*
X0318039Y0050771D01*
X0318098Y0050755D01*
X0318155Y0050735D01*
X0318210Y0050712D01*
X0318265Y0050685D01*
X0318317Y0050656D01*
X0318368Y0050623D01*
X0318417Y0050587D01*
X0318463Y0050549D01*
X0318507Y0050507D01*
X0318549Y0050463D01*
X0318587Y0050417D01*
X0318623Y0050368D01*
X0318656Y0050317D01*
X0318685Y0050265D01*
X0318712Y0050210D01*
X0318735Y0050155D01*
X0318755Y0050098D01*
X0318771Y0050039D01*
X0318784Y0049980D01*
X0318793Y0049921D01*
X0318798Y0049860D01*
X0318800Y0049800D01*
X0317800Y0030800D02*
X0316300Y0030800D01*
X0315800Y0030300D01*
X0301800Y0030300D01*
X0301300Y0030800D01*
X0299800Y0030800D01*
X0299740Y0030798D01*
X0299679Y0030793D01*
X0299620Y0030784D01*
X0299561Y0030771D01*
X0299502Y0030755D01*
X0299445Y0030735D01*
X0299390Y0030712D01*
X0299335Y0030685D01*
X0299283Y0030656D01*
X0299232Y0030623D01*
X0299183Y0030587D01*
X0299137Y0030549D01*
X0299093Y0030507D01*
X0299051Y0030463D01*
X0299013Y0030417D01*
X0298977Y0030368D01*
X0298944Y0030317D01*
X0298915Y0030265D01*
X0298888Y0030210D01*
X0298865Y0030155D01*
X0298845Y0030098D01*
X0298829Y0030039D01*
X0298816Y0029980D01*
X0298807Y0029921D01*
X0298802Y0029860D01*
X0298800Y0029800D01*
X0298800Y0023800D01*
X0298802Y0023740D01*
X0298807Y0023679D01*
X0298816Y0023620D01*
X0298829Y0023561D01*
X0298845Y0023502D01*
X0298865Y0023445D01*
X0298888Y0023390D01*
X0298915Y0023335D01*
X0298944Y0023283D01*
X0298977Y0023232D01*
X0299013Y0023183D01*
X0299051Y0023137D01*
X0299093Y0023093D01*
X0299137Y0023051D01*
X0299183Y0023013D01*
X0299232Y0022977D01*
X0299283Y0022944D01*
X0299335Y0022915D01*
X0299390Y0022888D01*
X0299445Y0022865D01*
X0299502Y0022845D01*
X0299561Y0022829D01*
X0299620Y0022816D01*
X0299679Y0022807D01*
X0299740Y0022802D01*
X0299800Y0022800D01*
X0301300Y0022800D01*
X0301800Y0023300D01*
X0315800Y0023300D01*
X0316300Y0022800D01*
X0317800Y0022800D01*
X0317860Y0022802D01*
X0317921Y0022807D01*
X0317980Y0022816D01*
X0318039Y0022829D01*
X0318098Y0022845D01*
X0318155Y0022865D01*
X0318210Y0022888D01*
X0318265Y0022915D01*
X0318317Y0022944D01*
X0318368Y0022977D01*
X0318417Y0023013D01*
X0318463Y0023051D01*
X0318507Y0023093D01*
X0318549Y0023137D01*
X0318587Y0023183D01*
X0318623Y0023232D01*
X0318656Y0023283D01*
X0318685Y0023335D01*
X0318712Y0023390D01*
X0318735Y0023445D01*
X0318755Y0023502D01*
X0318771Y0023561D01*
X0318784Y0023620D01*
X0318793Y0023679D01*
X0318798Y0023740D01*
X0318800Y0023800D01*
X0318800Y0029800D01*
X0318798Y0029860D01*
X0318793Y0029921D01*
X0318784Y0029980D01*
X0318771Y0030039D01*
X0318755Y0030098D01*
X0318735Y0030155D01*
X0318712Y0030210D01*
X0318685Y0030265D01*
X0318656Y0030317D01*
X0318623Y0030368D01*
X0318587Y0030417D01*
X0318549Y0030463D01*
X0318507Y0030507D01*
X0318463Y0030549D01*
X0318417Y0030587D01*
X0318368Y0030623D01*
X0318317Y0030656D01*
X0318265Y0030685D01*
X0318210Y0030712D01*
X0318155Y0030735D01*
X0318098Y0030755D01*
X0318039Y0030771D01*
X0317980Y0030784D01*
X0317921Y0030793D01*
X0317860Y0030798D01*
X0317800Y0030800D01*
X0254426Y0066800D02*
X0254428Y0066932D01*
X0254434Y0067063D01*
X0254444Y0067194D01*
X0254458Y0067325D01*
X0254476Y0067455D01*
X0254498Y0067585D01*
X0254523Y0067714D01*
X0254553Y0067842D01*
X0254587Y0067970D01*
X0254624Y0068096D01*
X0254665Y0068221D01*
X0254710Y0068344D01*
X0254759Y0068467D01*
X0254812Y0068587D01*
X0254868Y0068706D01*
X0254927Y0068824D01*
X0254990Y0068939D01*
X0255057Y0069052D01*
X0255127Y0069164D01*
X0255201Y0069273D01*
X0255277Y0069380D01*
X0255357Y0069484D01*
X0255440Y0069586D01*
X0255526Y0069686D01*
X0255615Y0069783D01*
X0255707Y0069877D01*
X0255802Y0069968D01*
X0255900Y0070057D01*
X0256000Y0070142D01*
X0256102Y0070224D01*
X0256208Y0070303D01*
X0256315Y0070379D01*
X0256425Y0070452D01*
X0256537Y0070521D01*
X0256651Y0070587D01*
X0256767Y0070649D01*
X0256884Y0070708D01*
X0257004Y0070763D01*
X0257125Y0070814D01*
X0257247Y0070862D01*
X0257371Y0070906D01*
X0257497Y0070947D01*
X0257623Y0070983D01*
X0257751Y0071016D01*
X0257879Y0071044D01*
X0258008Y0071069D01*
X0258138Y0071090D01*
X0258269Y0071107D01*
X0258400Y0071120D01*
X0258531Y0071129D01*
X0258662Y0071134D01*
X0258794Y0071135D01*
X0258925Y0071132D01*
X0259057Y0071125D01*
X0259188Y0071114D01*
X0259319Y0071099D01*
X0259449Y0071080D01*
X0259578Y0071057D01*
X0259707Y0071030D01*
X0259835Y0071000D01*
X0259962Y0070965D01*
X0260088Y0070927D01*
X0260213Y0070885D01*
X0260336Y0070839D01*
X0260458Y0070789D01*
X0260578Y0070736D01*
X0260697Y0070679D01*
X0260814Y0070618D01*
X0260928Y0070554D01*
X0261041Y0070487D01*
X0261152Y0070416D01*
X0261261Y0070342D01*
X0261367Y0070264D01*
X0261471Y0070183D01*
X0261573Y0070100D01*
X0261671Y0070013D01*
X0261768Y0069923D01*
X0261861Y0069830D01*
X0261952Y0069735D01*
X0262039Y0069637D01*
X0262124Y0069536D01*
X0262205Y0069432D01*
X0262283Y0069327D01*
X0262359Y0069219D01*
X0262430Y0069108D01*
X0262499Y0068996D01*
X0262564Y0068881D01*
X0262625Y0068765D01*
X0262683Y0068647D01*
X0262737Y0068527D01*
X0262788Y0068406D01*
X0262835Y0068283D01*
X0262878Y0068158D01*
X0262917Y0068033D01*
X0262953Y0067906D01*
X0262984Y0067778D01*
X0263012Y0067650D01*
X0263036Y0067520D01*
X0263056Y0067390D01*
X0263072Y0067260D01*
X0263084Y0067129D01*
X0263092Y0066997D01*
X0263096Y0066866D01*
X0263096Y0066734D01*
X0263092Y0066603D01*
X0263084Y0066471D01*
X0263072Y0066340D01*
X0263056Y0066210D01*
X0263036Y0066080D01*
X0263012Y0065950D01*
X0262984Y0065822D01*
X0262953Y0065694D01*
X0262917Y0065567D01*
X0262878Y0065442D01*
X0262835Y0065317D01*
X0262788Y0065194D01*
X0262737Y0065073D01*
X0262683Y0064953D01*
X0262625Y0064835D01*
X0262564Y0064719D01*
X0262499Y0064604D01*
X0262430Y0064492D01*
X0262359Y0064381D01*
X0262283Y0064273D01*
X0262205Y0064168D01*
X0262124Y0064064D01*
X0262039Y0063963D01*
X0261952Y0063865D01*
X0261861Y0063770D01*
X0261768Y0063677D01*
X0261671Y0063587D01*
X0261573Y0063500D01*
X0261471Y0063417D01*
X0261367Y0063336D01*
X0261261Y0063258D01*
X0261152Y0063184D01*
X0261041Y0063113D01*
X0260929Y0063046D01*
X0260814Y0062982D01*
X0260697Y0062921D01*
X0260578Y0062864D01*
X0260458Y0062811D01*
X0260336Y0062761D01*
X0260213Y0062715D01*
X0260088Y0062673D01*
X0259962Y0062635D01*
X0259835Y0062600D01*
X0259707Y0062570D01*
X0259578Y0062543D01*
X0259449Y0062520D01*
X0259319Y0062501D01*
X0259188Y0062486D01*
X0259057Y0062475D01*
X0258925Y0062468D01*
X0258794Y0062465D01*
X0258662Y0062466D01*
X0258531Y0062471D01*
X0258400Y0062480D01*
X0258269Y0062493D01*
X0258138Y0062510D01*
X0258008Y0062531D01*
X0257879Y0062556D01*
X0257751Y0062584D01*
X0257623Y0062617D01*
X0257497Y0062653D01*
X0257371Y0062694D01*
X0257247Y0062738D01*
X0257125Y0062786D01*
X0257004Y0062837D01*
X0256884Y0062892D01*
X0256767Y0062951D01*
X0256651Y0063013D01*
X0256537Y0063079D01*
X0256425Y0063148D01*
X0256315Y0063221D01*
X0256208Y0063297D01*
X0256102Y0063376D01*
X0256000Y0063458D01*
X0255900Y0063543D01*
X0255802Y0063632D01*
X0255707Y0063723D01*
X0255615Y0063817D01*
X0255526Y0063914D01*
X0255440Y0064014D01*
X0255357Y0064116D01*
X0255277Y0064220D01*
X0255201Y0064327D01*
X0255127Y0064436D01*
X0255057Y0064548D01*
X0254990Y0064661D01*
X0254927Y0064776D01*
X0254868Y0064894D01*
X0254812Y0065013D01*
X0254759Y0065133D01*
X0254710Y0065256D01*
X0254665Y0065379D01*
X0254624Y0065504D01*
X0254587Y0065630D01*
X0254553Y0065758D01*
X0254523Y0065886D01*
X0254498Y0066015D01*
X0254476Y0066145D01*
X0254458Y0066275D01*
X0254444Y0066406D01*
X0254434Y0066537D01*
X0254428Y0066668D01*
X0254426Y0066800D01*
X0247800Y0045800D02*
X0246300Y0045800D01*
X0245800Y0045300D01*
X0231800Y0045300D01*
X0231300Y0045800D01*
X0229800Y0045800D01*
X0229740Y0045798D01*
X0229679Y0045793D01*
X0229620Y0045784D01*
X0229561Y0045771D01*
X0229502Y0045755D01*
X0229445Y0045735D01*
X0229390Y0045712D01*
X0229335Y0045685D01*
X0229283Y0045656D01*
X0229232Y0045623D01*
X0229183Y0045587D01*
X0229137Y0045549D01*
X0229093Y0045507D01*
X0229051Y0045463D01*
X0229013Y0045417D01*
X0228977Y0045368D01*
X0228944Y0045317D01*
X0228915Y0045265D01*
X0228888Y0045210D01*
X0228865Y0045155D01*
X0228845Y0045098D01*
X0228829Y0045039D01*
X0228816Y0044980D01*
X0228807Y0044921D01*
X0228802Y0044860D01*
X0228800Y0044800D01*
X0228800Y0038800D01*
X0228802Y0038740D01*
X0228807Y0038679D01*
X0228816Y0038620D01*
X0228829Y0038561D01*
X0228845Y0038502D01*
X0228865Y0038445D01*
X0228888Y0038390D01*
X0228915Y0038335D01*
X0228944Y0038283D01*
X0228977Y0038232D01*
X0229013Y0038183D01*
X0229051Y0038137D01*
X0229093Y0038093D01*
X0229137Y0038051D01*
X0229183Y0038013D01*
X0229232Y0037977D01*
X0229283Y0037944D01*
X0229335Y0037915D01*
X0229390Y0037888D01*
X0229445Y0037865D01*
X0229502Y0037845D01*
X0229561Y0037829D01*
X0229620Y0037816D01*
X0229679Y0037807D01*
X0229740Y0037802D01*
X0229800Y0037800D01*
X0231300Y0037800D01*
X0231800Y0038300D01*
X0245800Y0038300D01*
X0246300Y0037800D01*
X0247800Y0037800D01*
X0247860Y0037802D01*
X0247921Y0037807D01*
X0247980Y0037816D01*
X0248039Y0037829D01*
X0248098Y0037845D01*
X0248155Y0037865D01*
X0248210Y0037888D01*
X0248265Y0037915D01*
X0248317Y0037944D01*
X0248368Y0037977D01*
X0248417Y0038013D01*
X0248463Y0038051D01*
X0248507Y0038093D01*
X0248549Y0038137D01*
X0248587Y0038183D01*
X0248623Y0038232D01*
X0248656Y0038283D01*
X0248685Y0038335D01*
X0248712Y0038390D01*
X0248735Y0038445D01*
X0248755Y0038502D01*
X0248771Y0038561D01*
X0248784Y0038620D01*
X0248793Y0038679D01*
X0248798Y0038740D01*
X0248800Y0038800D01*
X0248800Y0044800D01*
X0248798Y0044860D01*
X0248793Y0044921D01*
X0248784Y0044980D01*
X0248771Y0045039D01*
X0248755Y0045098D01*
X0248735Y0045155D01*
X0248712Y0045210D01*
X0248685Y0045265D01*
X0248656Y0045317D01*
X0248623Y0045368D01*
X0248587Y0045417D01*
X0248549Y0045463D01*
X0248507Y0045507D01*
X0248463Y0045549D01*
X0248417Y0045587D01*
X0248368Y0045623D01*
X0248317Y0045656D01*
X0248265Y0045685D01*
X0248210Y0045712D01*
X0248155Y0045735D01*
X0248098Y0045755D01*
X0248039Y0045771D01*
X0247980Y0045784D01*
X0247921Y0045793D01*
X0247860Y0045798D01*
X0247800Y0045800D01*
X0218800Y0039800D02*
X0218800Y0033800D01*
X0218798Y0033740D01*
X0218793Y0033679D01*
X0218784Y0033620D01*
X0218771Y0033561D01*
X0218755Y0033502D01*
X0218735Y0033445D01*
X0218712Y0033390D01*
X0218685Y0033335D01*
X0218656Y0033283D01*
X0218623Y0033232D01*
X0218587Y0033183D01*
X0218549Y0033137D01*
X0218507Y0033093D01*
X0218463Y0033051D01*
X0218417Y0033013D01*
X0218368Y0032977D01*
X0218317Y0032944D01*
X0218265Y0032915D01*
X0218210Y0032888D01*
X0218155Y0032865D01*
X0218098Y0032845D01*
X0218039Y0032829D01*
X0217980Y0032816D01*
X0217921Y0032807D01*
X0217860Y0032802D01*
X0217800Y0032800D01*
X0216300Y0032800D01*
X0215800Y0033300D01*
X0201800Y0033300D01*
X0201300Y0032800D01*
X0199800Y0032800D01*
X0199740Y0032802D01*
X0199679Y0032807D01*
X0199620Y0032816D01*
X0199561Y0032829D01*
X0199502Y0032845D01*
X0199445Y0032865D01*
X0199390Y0032888D01*
X0199335Y0032915D01*
X0199283Y0032944D01*
X0199232Y0032977D01*
X0199183Y0033013D01*
X0199137Y0033051D01*
X0199093Y0033093D01*
X0199051Y0033137D01*
X0199013Y0033183D01*
X0198977Y0033232D01*
X0198944Y0033283D01*
X0198915Y0033335D01*
X0198888Y0033390D01*
X0198865Y0033445D01*
X0198845Y0033502D01*
X0198829Y0033561D01*
X0198816Y0033620D01*
X0198807Y0033679D01*
X0198802Y0033740D01*
X0198800Y0033800D01*
X0198800Y0039800D01*
X0198802Y0039860D01*
X0198807Y0039921D01*
X0198816Y0039980D01*
X0198829Y0040039D01*
X0198845Y0040098D01*
X0198865Y0040155D01*
X0198888Y0040210D01*
X0198915Y0040265D01*
X0198944Y0040317D01*
X0198977Y0040368D01*
X0199013Y0040417D01*
X0199051Y0040463D01*
X0199093Y0040507D01*
X0199137Y0040549D01*
X0199183Y0040587D01*
X0199232Y0040623D01*
X0199283Y0040656D01*
X0199335Y0040685D01*
X0199390Y0040712D01*
X0199445Y0040735D01*
X0199502Y0040755D01*
X0199561Y0040771D01*
X0199620Y0040784D01*
X0199679Y0040793D01*
X0199740Y0040798D01*
X0199800Y0040800D01*
X0201300Y0040800D01*
X0201800Y0040300D01*
X0215800Y0040300D01*
X0216300Y0040800D01*
X0217800Y0040800D01*
X0217860Y0040798D01*
X0217921Y0040793D01*
X0217980Y0040784D01*
X0218039Y0040771D01*
X0218098Y0040755D01*
X0218155Y0040735D01*
X0218210Y0040712D01*
X0218265Y0040685D01*
X0218317Y0040656D01*
X0218368Y0040623D01*
X0218417Y0040587D01*
X0218463Y0040549D01*
X0218507Y0040507D01*
X0218549Y0040463D01*
X0218587Y0040417D01*
X0218623Y0040368D01*
X0218656Y0040317D01*
X0218685Y0040265D01*
X0218712Y0040210D01*
X0218735Y0040155D01*
X0218755Y0040098D01*
X0218771Y0040039D01*
X0218784Y0039980D01*
X0218793Y0039921D01*
X0218798Y0039860D01*
X0218800Y0039800D01*
X0188800Y0120300D02*
X0148800Y0120300D01*
X0148800Y0127800D01*
X0148926Y0127802D01*
X0149051Y0127808D01*
X0149176Y0127818D01*
X0149301Y0127832D01*
X0149426Y0127849D01*
X0149550Y0127871D01*
X0149673Y0127896D01*
X0149795Y0127926D01*
X0149916Y0127959D01*
X0150036Y0127996D01*
X0150155Y0128036D01*
X0150272Y0128081D01*
X0150389Y0128129D01*
X0150503Y0128181D01*
X0150616Y0128236D01*
X0150727Y0128295D01*
X0150836Y0128357D01*
X0150943Y0128423D01*
X0151048Y0128492D01*
X0151151Y0128564D01*
X0151252Y0128639D01*
X0151350Y0128718D01*
X0151445Y0128800D01*
X0151538Y0128884D01*
X0151628Y0128972D01*
X0151716Y0129062D01*
X0151800Y0129155D01*
X0151882Y0129250D01*
X0151961Y0129348D01*
X0152036Y0129449D01*
X0152108Y0129552D01*
X0152177Y0129657D01*
X0152243Y0129764D01*
X0152305Y0129873D01*
X0152364Y0129984D01*
X0152419Y0130097D01*
X0152471Y0130211D01*
X0152519Y0130328D01*
X0152564Y0130445D01*
X0152604Y0130564D01*
X0152641Y0130684D01*
X0152674Y0130805D01*
X0152704Y0130927D01*
X0152729Y0131050D01*
X0152751Y0131174D01*
X0152768Y0131299D01*
X0152782Y0131424D01*
X0152792Y0131549D01*
X0152798Y0131674D01*
X0152800Y0131800D01*
X0152798Y0131926D01*
X0152792Y0132051D01*
X0152782Y0132176D01*
X0152768Y0132301D01*
X0152751Y0132426D01*
X0152729Y0132550D01*
X0152704Y0132673D01*
X0152674Y0132795D01*
X0152641Y0132916D01*
X0152604Y0133036D01*
X0152564Y0133155D01*
X0152519Y0133272D01*
X0152471Y0133389D01*
X0152419Y0133503D01*
X0152364Y0133616D01*
X0152305Y0133727D01*
X0152243Y0133836D01*
X0152177Y0133943D01*
X0152108Y0134048D01*
X0152036Y0134151D01*
X0151961Y0134252D01*
X0151882Y0134350D01*
X0151800Y0134445D01*
X0151716Y0134538D01*
X0151628Y0134628D01*
X0151538Y0134716D01*
X0151445Y0134800D01*
X0151350Y0134882D01*
X0151252Y0134961D01*
X0151151Y0135036D01*
X0151048Y0135108D01*
X0150943Y0135177D01*
X0150836Y0135243D01*
X0150727Y0135305D01*
X0150616Y0135364D01*
X0150503Y0135419D01*
X0150389Y0135471D01*
X0150272Y0135519D01*
X0150155Y0135564D01*
X0150036Y0135604D01*
X0149916Y0135641D01*
X0149795Y0135674D01*
X0149673Y0135704D01*
X0149550Y0135729D01*
X0149426Y0135751D01*
X0149301Y0135768D01*
X0149176Y0135782D01*
X0149051Y0135792D01*
X0148926Y0135798D01*
X0148800Y0135800D01*
X0148800Y0143300D01*
X0188800Y0143300D01*
X0188800Y0120300D01*
X0148800Y0153800D02*
X0148800Y0159800D01*
X0148798Y0159860D01*
X0148793Y0159921D01*
X0148784Y0159980D01*
X0148771Y0160039D01*
X0148755Y0160098D01*
X0148735Y0160155D01*
X0148712Y0160210D01*
X0148685Y0160265D01*
X0148656Y0160317D01*
X0148623Y0160368D01*
X0148587Y0160417D01*
X0148549Y0160463D01*
X0148507Y0160507D01*
X0148463Y0160549D01*
X0148417Y0160587D01*
X0148368Y0160623D01*
X0148317Y0160656D01*
X0148265Y0160685D01*
X0148210Y0160712D01*
X0148155Y0160735D01*
X0148098Y0160755D01*
X0148039Y0160771D01*
X0147980Y0160784D01*
X0147921Y0160793D01*
X0147860Y0160798D01*
X0147800Y0160800D01*
X0146300Y0160800D01*
X0145800Y0160300D01*
X0131800Y0160300D01*
X0131300Y0160800D01*
X0129800Y0160800D01*
X0129740Y0160798D01*
X0129679Y0160793D01*
X0129620Y0160784D01*
X0129561Y0160771D01*
X0129502Y0160755D01*
X0129445Y0160735D01*
X0129390Y0160712D01*
X0129335Y0160685D01*
X0129283Y0160656D01*
X0129232Y0160623D01*
X0129183Y0160587D01*
X0129137Y0160549D01*
X0129093Y0160507D01*
X0129051Y0160463D01*
X0129013Y0160417D01*
X0128977Y0160368D01*
X0128944Y0160317D01*
X0128915Y0160265D01*
X0128888Y0160210D01*
X0128865Y0160155D01*
X0128845Y0160098D01*
X0128829Y0160039D01*
X0128816Y0159980D01*
X0128807Y0159921D01*
X0128802Y0159860D01*
X0128800Y0159800D01*
X0128800Y0153800D01*
X0128802Y0153740D01*
X0128807Y0153679D01*
X0128816Y0153620D01*
X0128829Y0153561D01*
X0128845Y0153502D01*
X0128865Y0153445D01*
X0128888Y0153390D01*
X0128915Y0153335D01*
X0128944Y0153283D01*
X0128977Y0153232D01*
X0129013Y0153183D01*
X0129051Y0153137D01*
X0129093Y0153093D01*
X0129137Y0153051D01*
X0129183Y0153013D01*
X0129232Y0152977D01*
X0129283Y0152944D01*
X0129335Y0152915D01*
X0129390Y0152888D01*
X0129445Y0152865D01*
X0129502Y0152845D01*
X0129561Y0152829D01*
X0129620Y0152816D01*
X0129679Y0152807D01*
X0129740Y0152802D01*
X0129800Y0152800D01*
X0131300Y0152800D01*
X0131800Y0153300D01*
X0145800Y0153300D01*
X0146300Y0152800D01*
X0147800Y0152800D01*
X0147860Y0152802D01*
X0147921Y0152807D01*
X0147980Y0152816D01*
X0148039Y0152829D01*
X0148098Y0152845D01*
X0148155Y0152865D01*
X0148210Y0152888D01*
X0148265Y0152915D01*
X0148317Y0152944D01*
X0148368Y0152977D01*
X0148417Y0153013D01*
X0148463Y0153051D01*
X0148507Y0153093D01*
X0148549Y0153137D01*
X0148587Y0153183D01*
X0148623Y0153232D01*
X0148656Y0153283D01*
X0148685Y0153335D01*
X0148712Y0153390D01*
X0148735Y0153445D01*
X0148755Y0153502D01*
X0148771Y0153561D01*
X0148784Y0153620D01*
X0148793Y0153679D01*
X0148798Y0153740D01*
X0148800Y0153800D01*
X0168800Y0158800D02*
X0168800Y0164800D01*
X0168802Y0164860D01*
X0168807Y0164921D01*
X0168816Y0164980D01*
X0168829Y0165039D01*
X0168845Y0165098D01*
X0168865Y0165155D01*
X0168888Y0165210D01*
X0168915Y0165265D01*
X0168944Y0165317D01*
X0168977Y0165368D01*
X0169013Y0165417D01*
X0169051Y0165463D01*
X0169093Y0165507D01*
X0169137Y0165549D01*
X0169183Y0165587D01*
X0169232Y0165623D01*
X0169283Y0165656D01*
X0169335Y0165685D01*
X0169390Y0165712D01*
X0169445Y0165735D01*
X0169502Y0165755D01*
X0169561Y0165771D01*
X0169620Y0165784D01*
X0169679Y0165793D01*
X0169740Y0165798D01*
X0169800Y0165800D01*
X0171300Y0165800D01*
X0171800Y0165300D01*
X0185800Y0165300D01*
X0186300Y0165800D01*
X0187800Y0165800D01*
X0187860Y0165798D01*
X0187921Y0165793D01*
X0187980Y0165784D01*
X0188039Y0165771D01*
X0188098Y0165755D01*
X0188155Y0165735D01*
X0188210Y0165712D01*
X0188265Y0165685D01*
X0188317Y0165656D01*
X0188368Y0165623D01*
X0188417Y0165587D01*
X0188463Y0165549D01*
X0188507Y0165507D01*
X0188549Y0165463D01*
X0188587Y0165417D01*
X0188623Y0165368D01*
X0188656Y0165317D01*
X0188685Y0165265D01*
X0188712Y0165210D01*
X0188735Y0165155D01*
X0188755Y0165098D01*
X0188771Y0165039D01*
X0188784Y0164980D01*
X0188793Y0164921D01*
X0188798Y0164860D01*
X0188800Y0164800D01*
X0188800Y0158800D01*
X0188798Y0158740D01*
X0188793Y0158679D01*
X0188784Y0158620D01*
X0188771Y0158561D01*
X0188755Y0158502D01*
X0188735Y0158445D01*
X0188712Y0158390D01*
X0188685Y0158335D01*
X0188656Y0158283D01*
X0188623Y0158232D01*
X0188587Y0158183D01*
X0188549Y0158137D01*
X0188507Y0158093D01*
X0188463Y0158051D01*
X0188417Y0158013D01*
X0188368Y0157977D01*
X0188317Y0157944D01*
X0188265Y0157915D01*
X0188210Y0157888D01*
X0188155Y0157865D01*
X0188098Y0157845D01*
X0188039Y0157829D01*
X0187980Y0157816D01*
X0187921Y0157807D01*
X0187860Y0157802D01*
X0187800Y0157800D01*
X0186300Y0157800D01*
X0185800Y0158300D01*
X0171800Y0158300D01*
X0171300Y0157800D01*
X0169800Y0157800D01*
X0169740Y0157802D01*
X0169679Y0157807D01*
X0169620Y0157816D01*
X0169561Y0157829D01*
X0169502Y0157845D01*
X0169445Y0157865D01*
X0169390Y0157888D01*
X0169335Y0157915D01*
X0169283Y0157944D01*
X0169232Y0157977D01*
X0169183Y0158013D01*
X0169137Y0158051D01*
X0169093Y0158093D01*
X0169051Y0158137D01*
X0169013Y0158183D01*
X0168977Y0158232D01*
X0168944Y0158283D01*
X0168915Y0158335D01*
X0168888Y0158390D01*
X0168865Y0158445D01*
X0168845Y0158502D01*
X0168829Y0158561D01*
X0168816Y0158620D01*
X0168807Y0158679D01*
X0168802Y0158740D01*
X0168800Y0158800D01*
X0112800Y0159300D02*
X0112300Y0159800D01*
X0112300Y0173800D01*
X0112800Y0174300D01*
X0112800Y0175800D01*
X0112798Y0175860D01*
X0112793Y0175921D01*
X0112784Y0175980D01*
X0112771Y0176039D01*
X0112755Y0176098D01*
X0112735Y0176155D01*
X0112712Y0176210D01*
X0112685Y0176265D01*
X0112656Y0176317D01*
X0112623Y0176368D01*
X0112587Y0176417D01*
X0112549Y0176463D01*
X0112507Y0176507D01*
X0112463Y0176549D01*
X0112417Y0176587D01*
X0112368Y0176623D01*
X0112317Y0176656D01*
X0112265Y0176685D01*
X0112210Y0176712D01*
X0112155Y0176735D01*
X0112098Y0176755D01*
X0112039Y0176771D01*
X0111980Y0176784D01*
X0111921Y0176793D01*
X0111860Y0176798D01*
X0111800Y0176800D01*
X0105800Y0176800D01*
X0105740Y0176798D01*
X0105679Y0176793D01*
X0105620Y0176784D01*
X0105561Y0176771D01*
X0105502Y0176755D01*
X0105445Y0176735D01*
X0105390Y0176712D01*
X0105335Y0176685D01*
X0105283Y0176656D01*
X0105232Y0176623D01*
X0105183Y0176587D01*
X0105137Y0176549D01*
X0105093Y0176507D01*
X0105051Y0176463D01*
X0105013Y0176417D01*
X0104977Y0176368D01*
X0104944Y0176317D01*
X0104915Y0176265D01*
X0104888Y0176210D01*
X0104865Y0176155D01*
X0104845Y0176098D01*
X0104829Y0176039D01*
X0104816Y0175980D01*
X0104807Y0175921D01*
X0104802Y0175860D01*
X0104800Y0175800D01*
X0104800Y0174300D01*
X0105300Y0173800D01*
X0105300Y0159800D01*
X0104800Y0159300D01*
X0104800Y0157800D01*
X0104802Y0157740D01*
X0104807Y0157679D01*
X0104816Y0157620D01*
X0104829Y0157561D01*
X0104845Y0157502D01*
X0104865Y0157445D01*
X0104888Y0157390D01*
X0104915Y0157335D01*
X0104944Y0157283D01*
X0104977Y0157232D01*
X0105013Y0157183D01*
X0105051Y0157137D01*
X0105093Y0157093D01*
X0105137Y0157051D01*
X0105183Y0157013D01*
X0105232Y0156977D01*
X0105283Y0156944D01*
X0105335Y0156915D01*
X0105390Y0156888D01*
X0105445Y0156865D01*
X0105502Y0156845D01*
X0105561Y0156829D01*
X0105620Y0156816D01*
X0105679Y0156807D01*
X0105740Y0156802D01*
X0105800Y0156800D01*
X0111800Y0156800D01*
X0111860Y0156802D01*
X0111921Y0156807D01*
X0111980Y0156816D01*
X0112039Y0156829D01*
X0112098Y0156845D01*
X0112155Y0156865D01*
X0112210Y0156888D01*
X0112265Y0156915D01*
X0112317Y0156944D01*
X0112368Y0156977D01*
X0112417Y0157013D01*
X0112463Y0157051D01*
X0112507Y0157093D01*
X0112549Y0157137D01*
X0112587Y0157183D01*
X0112623Y0157232D01*
X0112656Y0157283D01*
X0112685Y0157335D01*
X0112712Y0157390D01*
X0112735Y0157445D01*
X0112755Y0157502D01*
X0112771Y0157561D01*
X0112784Y0157620D01*
X0112793Y0157679D01*
X0112798Y0157740D01*
X0112800Y0157800D01*
X0112800Y0159300D01*
X0069426Y0181800D02*
X0069428Y0181932D01*
X0069434Y0182063D01*
X0069444Y0182194D01*
X0069458Y0182325D01*
X0069476Y0182455D01*
X0069498Y0182585D01*
X0069523Y0182714D01*
X0069553Y0182842D01*
X0069587Y0182970D01*
X0069624Y0183096D01*
X0069665Y0183221D01*
X0069710Y0183344D01*
X0069759Y0183467D01*
X0069812Y0183587D01*
X0069868Y0183706D01*
X0069927Y0183824D01*
X0069990Y0183939D01*
X0070057Y0184052D01*
X0070127Y0184164D01*
X0070201Y0184273D01*
X0070277Y0184380D01*
X0070357Y0184484D01*
X0070440Y0184586D01*
X0070526Y0184686D01*
X0070615Y0184783D01*
X0070707Y0184877D01*
X0070802Y0184968D01*
X0070900Y0185057D01*
X0071000Y0185142D01*
X0071102Y0185224D01*
X0071208Y0185303D01*
X0071315Y0185379D01*
X0071425Y0185452D01*
X0071537Y0185521D01*
X0071651Y0185587D01*
X0071767Y0185649D01*
X0071884Y0185708D01*
X0072004Y0185763D01*
X0072125Y0185814D01*
X0072247Y0185862D01*
X0072371Y0185906D01*
X0072497Y0185947D01*
X0072623Y0185983D01*
X0072751Y0186016D01*
X0072879Y0186044D01*
X0073008Y0186069D01*
X0073138Y0186090D01*
X0073269Y0186107D01*
X0073400Y0186120D01*
X0073531Y0186129D01*
X0073662Y0186134D01*
X0073794Y0186135D01*
X0073925Y0186132D01*
X0074057Y0186125D01*
X0074188Y0186114D01*
X0074319Y0186099D01*
X0074449Y0186080D01*
X0074578Y0186057D01*
X0074707Y0186030D01*
X0074835Y0186000D01*
X0074962Y0185965D01*
X0075088Y0185927D01*
X0075213Y0185885D01*
X0075336Y0185839D01*
X0075458Y0185789D01*
X0075578Y0185736D01*
X0075697Y0185679D01*
X0075814Y0185618D01*
X0075928Y0185554D01*
X0076041Y0185487D01*
X0076152Y0185416D01*
X0076261Y0185342D01*
X0076367Y0185264D01*
X0076471Y0185183D01*
X0076573Y0185100D01*
X0076671Y0185013D01*
X0076768Y0184923D01*
X0076861Y0184830D01*
X0076952Y0184735D01*
X0077039Y0184637D01*
X0077124Y0184536D01*
X0077205Y0184432D01*
X0077283Y0184327D01*
X0077359Y0184219D01*
X0077430Y0184108D01*
X0077499Y0183996D01*
X0077564Y0183881D01*
X0077625Y0183765D01*
X0077683Y0183647D01*
X0077737Y0183527D01*
X0077788Y0183406D01*
X0077835Y0183283D01*
X0077878Y0183158D01*
X0077917Y0183033D01*
X0077953Y0182906D01*
X0077984Y0182778D01*
X0078012Y0182650D01*
X0078036Y0182520D01*
X0078056Y0182390D01*
X0078072Y0182260D01*
X0078084Y0182129D01*
X0078092Y0181997D01*
X0078096Y0181866D01*
X0078096Y0181734D01*
X0078092Y0181603D01*
X0078084Y0181471D01*
X0078072Y0181340D01*
X0078056Y0181210D01*
X0078036Y0181080D01*
X0078012Y0180950D01*
X0077984Y0180822D01*
X0077953Y0180694D01*
X0077917Y0180567D01*
X0077878Y0180442D01*
X0077835Y0180317D01*
X0077788Y0180194D01*
X0077737Y0180073D01*
X0077683Y0179953D01*
X0077625Y0179835D01*
X0077564Y0179719D01*
X0077499Y0179604D01*
X0077430Y0179492D01*
X0077359Y0179381D01*
X0077283Y0179273D01*
X0077205Y0179168D01*
X0077124Y0179064D01*
X0077039Y0178963D01*
X0076952Y0178865D01*
X0076861Y0178770D01*
X0076768Y0178677D01*
X0076671Y0178587D01*
X0076573Y0178500D01*
X0076471Y0178417D01*
X0076367Y0178336D01*
X0076261Y0178258D01*
X0076152Y0178184D01*
X0076041Y0178113D01*
X0075929Y0178046D01*
X0075814Y0177982D01*
X0075697Y0177921D01*
X0075578Y0177864D01*
X0075458Y0177811D01*
X0075336Y0177761D01*
X0075213Y0177715D01*
X0075088Y0177673D01*
X0074962Y0177635D01*
X0074835Y0177600D01*
X0074707Y0177570D01*
X0074578Y0177543D01*
X0074449Y0177520D01*
X0074319Y0177501D01*
X0074188Y0177486D01*
X0074057Y0177475D01*
X0073925Y0177468D01*
X0073794Y0177465D01*
X0073662Y0177466D01*
X0073531Y0177471D01*
X0073400Y0177480D01*
X0073269Y0177493D01*
X0073138Y0177510D01*
X0073008Y0177531D01*
X0072879Y0177556D01*
X0072751Y0177584D01*
X0072623Y0177617D01*
X0072497Y0177653D01*
X0072371Y0177694D01*
X0072247Y0177738D01*
X0072125Y0177786D01*
X0072004Y0177837D01*
X0071884Y0177892D01*
X0071767Y0177951D01*
X0071651Y0178013D01*
X0071537Y0178079D01*
X0071425Y0178148D01*
X0071315Y0178221D01*
X0071208Y0178297D01*
X0071102Y0178376D01*
X0071000Y0178458D01*
X0070900Y0178543D01*
X0070802Y0178632D01*
X0070707Y0178723D01*
X0070615Y0178817D01*
X0070526Y0178914D01*
X0070440Y0179014D01*
X0070357Y0179116D01*
X0070277Y0179220D01*
X0070201Y0179327D01*
X0070127Y0179436D01*
X0070057Y0179548D01*
X0069990Y0179661D01*
X0069927Y0179776D01*
X0069868Y0179894D01*
X0069812Y0180013D01*
X0069759Y0180133D01*
X0069710Y0180256D01*
X0069665Y0180379D01*
X0069624Y0180504D01*
X0069587Y0180630D01*
X0069553Y0180758D01*
X0069523Y0180886D01*
X0069498Y0181015D01*
X0069476Y0181145D01*
X0069458Y0181275D01*
X0069444Y0181406D01*
X0069434Y0181537D01*
X0069428Y0181668D01*
X0069426Y0181800D01*
X0047800Y0170800D02*
X0047800Y0169300D01*
X0047300Y0168800D01*
X0047300Y0154800D01*
X0047800Y0154300D01*
X0047800Y0152800D01*
X0047798Y0152740D01*
X0047793Y0152679D01*
X0047784Y0152620D01*
X0047771Y0152561D01*
X0047755Y0152502D01*
X0047735Y0152445D01*
X0047712Y0152390D01*
X0047685Y0152335D01*
X0047656Y0152283D01*
X0047623Y0152232D01*
X0047587Y0152183D01*
X0047549Y0152137D01*
X0047507Y0152093D01*
X0047463Y0152051D01*
X0047417Y0152013D01*
X0047368Y0151977D01*
X0047317Y0151944D01*
X0047265Y0151915D01*
X0047210Y0151888D01*
X0047155Y0151865D01*
X0047098Y0151845D01*
X0047039Y0151829D01*
X0046980Y0151816D01*
X0046921Y0151807D01*
X0046860Y0151802D01*
X0046800Y0151800D01*
X0040800Y0151800D01*
X0040740Y0151802D01*
X0040679Y0151807D01*
X0040620Y0151816D01*
X0040561Y0151829D01*
X0040502Y0151845D01*
X0040445Y0151865D01*
X0040390Y0151888D01*
X0040335Y0151915D01*
X0040283Y0151944D01*
X0040232Y0151977D01*
X0040183Y0152013D01*
X0040137Y0152051D01*
X0040093Y0152093D01*
X0040051Y0152137D01*
X0040013Y0152183D01*
X0039977Y0152232D01*
X0039944Y0152283D01*
X0039915Y0152335D01*
X0039888Y0152390D01*
X0039865Y0152445D01*
X0039845Y0152502D01*
X0039829Y0152561D01*
X0039816Y0152620D01*
X0039807Y0152679D01*
X0039802Y0152740D01*
X0039800Y0152800D01*
X0039800Y0154300D01*
X0040300Y0154800D01*
X0040300Y0168800D01*
X0039800Y0169300D01*
X0039800Y0170800D01*
X0039802Y0170860D01*
X0039807Y0170921D01*
X0039816Y0170980D01*
X0039829Y0171039D01*
X0039845Y0171098D01*
X0039865Y0171155D01*
X0039888Y0171210D01*
X0039915Y0171265D01*
X0039944Y0171317D01*
X0039977Y0171368D01*
X0040013Y0171417D01*
X0040051Y0171463D01*
X0040093Y0171507D01*
X0040137Y0171549D01*
X0040183Y0171587D01*
X0040232Y0171623D01*
X0040283Y0171656D01*
X0040335Y0171685D01*
X0040390Y0171712D01*
X0040445Y0171735D01*
X0040502Y0171755D01*
X0040561Y0171771D01*
X0040620Y0171784D01*
X0040679Y0171793D01*
X0040740Y0171798D01*
X0040800Y0171800D01*
X0046800Y0171800D01*
X0046860Y0171798D01*
X0046921Y0171793D01*
X0046980Y0171784D01*
X0047039Y0171771D01*
X0047098Y0171755D01*
X0047155Y0171735D01*
X0047210Y0171712D01*
X0047265Y0171685D01*
X0047317Y0171656D01*
X0047368Y0171623D01*
X0047417Y0171587D01*
X0047463Y0171549D01*
X0047507Y0171507D01*
X0047549Y0171463D01*
X0047587Y0171417D01*
X0047623Y0171368D01*
X0047656Y0171317D01*
X0047685Y0171265D01*
X0047712Y0171210D01*
X0047735Y0171155D01*
X0047755Y0171098D01*
X0047771Y0171039D01*
X0047784Y0170980D01*
X0047793Y0170921D01*
X0047798Y0170860D01*
X0047800Y0170800D01*
X0047300Y0196800D02*
X0047300Y0200300D01*
X0052500Y0200300D01*
X0069426Y0121800D02*
X0069428Y0121932D01*
X0069434Y0122063D01*
X0069444Y0122194D01*
X0069458Y0122325D01*
X0069476Y0122455D01*
X0069498Y0122585D01*
X0069523Y0122714D01*
X0069553Y0122842D01*
X0069587Y0122970D01*
X0069624Y0123096D01*
X0069665Y0123221D01*
X0069710Y0123344D01*
X0069759Y0123467D01*
X0069812Y0123587D01*
X0069868Y0123706D01*
X0069927Y0123824D01*
X0069990Y0123939D01*
X0070057Y0124052D01*
X0070127Y0124164D01*
X0070201Y0124273D01*
X0070277Y0124380D01*
X0070357Y0124484D01*
X0070440Y0124586D01*
X0070526Y0124686D01*
X0070615Y0124783D01*
X0070707Y0124877D01*
X0070802Y0124968D01*
X0070900Y0125057D01*
X0071000Y0125142D01*
X0071102Y0125224D01*
X0071208Y0125303D01*
X0071315Y0125379D01*
X0071425Y0125452D01*
X0071537Y0125521D01*
X0071651Y0125587D01*
X0071767Y0125649D01*
X0071884Y0125708D01*
X0072004Y0125763D01*
X0072125Y0125814D01*
X0072247Y0125862D01*
X0072371Y0125906D01*
X0072497Y0125947D01*
X0072623Y0125983D01*
X0072751Y0126016D01*
X0072879Y0126044D01*
X0073008Y0126069D01*
X0073138Y0126090D01*
X0073269Y0126107D01*
X0073400Y0126120D01*
X0073531Y0126129D01*
X0073662Y0126134D01*
X0073794Y0126135D01*
X0073925Y0126132D01*
X0074057Y0126125D01*
X0074188Y0126114D01*
X0074319Y0126099D01*
X0074449Y0126080D01*
X0074578Y0126057D01*
X0074707Y0126030D01*
X0074835Y0126000D01*
X0074962Y0125965D01*
X0075088Y0125927D01*
X0075213Y0125885D01*
X0075336Y0125839D01*
X0075458Y0125789D01*
X0075578Y0125736D01*
X0075697Y0125679D01*
X0075814Y0125618D01*
X0075928Y0125554D01*
X0076041Y0125487D01*
X0076152Y0125416D01*
X0076261Y0125342D01*
X0076367Y0125264D01*
X0076471Y0125183D01*
X0076573Y0125100D01*
X0076671Y0125013D01*
X0076768Y0124923D01*
X0076861Y0124830D01*
X0076952Y0124735D01*
X0077039Y0124637D01*
X0077124Y0124536D01*
X0077205Y0124432D01*
X0077283Y0124327D01*
X0077359Y0124219D01*
X0077430Y0124108D01*
X0077499Y0123996D01*
X0077564Y0123881D01*
X0077625Y0123765D01*
X0077683Y0123647D01*
X0077737Y0123527D01*
X0077788Y0123406D01*
X0077835Y0123283D01*
X0077878Y0123158D01*
X0077917Y0123033D01*
X0077953Y0122906D01*
X0077984Y0122778D01*
X0078012Y0122650D01*
X0078036Y0122520D01*
X0078056Y0122390D01*
X0078072Y0122260D01*
X0078084Y0122129D01*
X0078092Y0121997D01*
X0078096Y0121866D01*
X0078096Y0121734D01*
X0078092Y0121603D01*
X0078084Y0121471D01*
X0078072Y0121340D01*
X0078056Y0121210D01*
X0078036Y0121080D01*
X0078012Y0120950D01*
X0077984Y0120822D01*
X0077953Y0120694D01*
X0077917Y0120567D01*
X0077878Y0120442D01*
X0077835Y0120317D01*
X0077788Y0120194D01*
X0077737Y0120073D01*
X0077683Y0119953D01*
X0077625Y0119835D01*
X0077564Y0119719D01*
X0077499Y0119604D01*
X0077430Y0119492D01*
X0077359Y0119381D01*
X0077283Y0119273D01*
X0077205Y0119168D01*
X0077124Y0119064D01*
X0077039Y0118963D01*
X0076952Y0118865D01*
X0076861Y0118770D01*
X0076768Y0118677D01*
X0076671Y0118587D01*
X0076573Y0118500D01*
X0076471Y0118417D01*
X0076367Y0118336D01*
X0076261Y0118258D01*
X0076152Y0118184D01*
X0076041Y0118113D01*
X0075929Y0118046D01*
X0075814Y0117982D01*
X0075697Y0117921D01*
X0075578Y0117864D01*
X0075458Y0117811D01*
X0075336Y0117761D01*
X0075213Y0117715D01*
X0075088Y0117673D01*
X0074962Y0117635D01*
X0074835Y0117600D01*
X0074707Y0117570D01*
X0074578Y0117543D01*
X0074449Y0117520D01*
X0074319Y0117501D01*
X0074188Y0117486D01*
X0074057Y0117475D01*
X0073925Y0117468D01*
X0073794Y0117465D01*
X0073662Y0117466D01*
X0073531Y0117471D01*
X0073400Y0117480D01*
X0073269Y0117493D01*
X0073138Y0117510D01*
X0073008Y0117531D01*
X0072879Y0117556D01*
X0072751Y0117584D01*
X0072623Y0117617D01*
X0072497Y0117653D01*
X0072371Y0117694D01*
X0072247Y0117738D01*
X0072125Y0117786D01*
X0072004Y0117837D01*
X0071884Y0117892D01*
X0071767Y0117951D01*
X0071651Y0118013D01*
X0071537Y0118079D01*
X0071425Y0118148D01*
X0071315Y0118221D01*
X0071208Y0118297D01*
X0071102Y0118376D01*
X0071000Y0118458D01*
X0070900Y0118543D01*
X0070802Y0118632D01*
X0070707Y0118723D01*
X0070615Y0118817D01*
X0070526Y0118914D01*
X0070440Y0119014D01*
X0070357Y0119116D01*
X0070277Y0119220D01*
X0070201Y0119327D01*
X0070127Y0119436D01*
X0070057Y0119548D01*
X0069990Y0119661D01*
X0069927Y0119776D01*
X0069868Y0119894D01*
X0069812Y0120013D01*
X0069759Y0120133D01*
X0069710Y0120256D01*
X0069665Y0120379D01*
X0069624Y0120504D01*
X0069587Y0120630D01*
X0069553Y0120758D01*
X0069523Y0120886D01*
X0069498Y0121015D01*
X0069476Y0121145D01*
X0069458Y0121275D01*
X0069444Y0121406D01*
X0069434Y0121537D01*
X0069428Y0121668D01*
X0069426Y0121800D01*
X0104800Y0115800D02*
X0104800Y0114300D01*
X0105300Y0113800D01*
X0105300Y0099800D01*
X0104800Y0099300D01*
X0104800Y0097800D01*
X0104802Y0097740D01*
X0104807Y0097679D01*
X0104816Y0097620D01*
X0104829Y0097561D01*
X0104845Y0097502D01*
X0104865Y0097445D01*
X0104888Y0097390D01*
X0104915Y0097335D01*
X0104944Y0097283D01*
X0104977Y0097232D01*
X0105013Y0097183D01*
X0105051Y0097137D01*
X0105093Y0097093D01*
X0105137Y0097051D01*
X0105183Y0097013D01*
X0105232Y0096977D01*
X0105283Y0096944D01*
X0105335Y0096915D01*
X0105390Y0096888D01*
X0105445Y0096865D01*
X0105502Y0096845D01*
X0105561Y0096829D01*
X0105620Y0096816D01*
X0105679Y0096807D01*
X0105740Y0096802D01*
X0105800Y0096800D01*
X0111800Y0096800D01*
X0111860Y0096802D01*
X0111921Y0096807D01*
X0111980Y0096816D01*
X0112039Y0096829D01*
X0112098Y0096845D01*
X0112155Y0096865D01*
X0112210Y0096888D01*
X0112265Y0096915D01*
X0112317Y0096944D01*
X0112368Y0096977D01*
X0112417Y0097013D01*
X0112463Y0097051D01*
X0112507Y0097093D01*
X0112549Y0097137D01*
X0112587Y0097183D01*
X0112623Y0097232D01*
X0112656Y0097283D01*
X0112685Y0097335D01*
X0112712Y0097390D01*
X0112735Y0097445D01*
X0112755Y0097502D01*
X0112771Y0097561D01*
X0112784Y0097620D01*
X0112793Y0097679D01*
X0112798Y0097740D01*
X0112800Y0097800D01*
X0112800Y0099300D01*
X0112300Y0099800D01*
X0112300Y0113800D01*
X0112800Y0114300D01*
X0112800Y0115800D01*
X0112798Y0115860D01*
X0112793Y0115921D01*
X0112784Y0115980D01*
X0112771Y0116039D01*
X0112755Y0116098D01*
X0112735Y0116155D01*
X0112712Y0116210D01*
X0112685Y0116265D01*
X0112656Y0116317D01*
X0112623Y0116368D01*
X0112587Y0116417D01*
X0112549Y0116463D01*
X0112507Y0116507D01*
X0112463Y0116549D01*
X0112417Y0116587D01*
X0112368Y0116623D01*
X0112317Y0116656D01*
X0112265Y0116685D01*
X0112210Y0116712D01*
X0112155Y0116735D01*
X0112098Y0116755D01*
X0112039Y0116771D01*
X0111980Y0116784D01*
X0111921Y0116793D01*
X0111860Y0116798D01*
X0111800Y0116800D01*
X0105800Y0116800D01*
X0105740Y0116798D01*
X0105679Y0116793D01*
X0105620Y0116784D01*
X0105561Y0116771D01*
X0105502Y0116755D01*
X0105445Y0116735D01*
X0105390Y0116712D01*
X0105335Y0116685D01*
X0105283Y0116656D01*
X0105232Y0116623D01*
X0105183Y0116587D01*
X0105137Y0116549D01*
X0105093Y0116507D01*
X0105051Y0116463D01*
X0105013Y0116417D01*
X0104977Y0116368D01*
X0104944Y0116317D01*
X0104915Y0116265D01*
X0104888Y0116210D01*
X0104865Y0116155D01*
X0104845Y0116098D01*
X0104829Y0116039D01*
X0104816Y0115980D01*
X0104807Y0115921D01*
X0104802Y0115860D01*
X0104800Y0115800D01*
D12*
X0013499Y0209650D02*
X0009296Y0209650D01*
X0008245Y0210701D01*
X0008245Y0212803D01*
X0009296Y0213854D01*
X0009296Y0216095D02*
X0013499Y0216095D01*
X0014550Y0217146D01*
X0014550Y0219248D01*
X0013499Y0220299D01*
X0009296Y0220299D01*
X0008245Y0219248D01*
X0008245Y0217146D01*
X0009296Y0216095D01*
X0013499Y0213854D02*
X0014550Y0212803D01*
X0014550Y0210701D01*
X0013499Y0209650D01*
X0014550Y0222541D02*
X0008245Y0222541D01*
X0014550Y0226745D01*
X0008245Y0226745D01*
X0010346Y0228986D02*
X0008245Y0231088D01*
X0014550Y0231088D01*
X0014550Y0228986D02*
X0014550Y0233190D01*
D13*
X0017746Y0233320D02*
X0022250Y0233320D01*
X0022250Y0232570D02*
X0022250Y0234071D01*
X0021499Y0235639D02*
X0019998Y0235639D01*
X0019247Y0236390D01*
X0019247Y0237891D01*
X0019998Y0238641D01*
X0020749Y0238641D01*
X0020749Y0235639D01*
X0021499Y0235639D02*
X0022250Y0236390D01*
X0022250Y0237891D01*
X0017746Y0233320D02*
X0017746Y0232570D01*
X0019998Y0230968D02*
X0019247Y0230218D01*
X0019247Y0227966D01*
X0017746Y0227966D02*
X0022250Y0227966D01*
X0022250Y0230218D01*
X0021499Y0230968D01*
X0019998Y0230968D01*
X0019998Y0226364D02*
X0022250Y0226364D01*
X0022250Y0224112D01*
X0021499Y0223362D01*
X0020749Y0224112D01*
X0020749Y0226364D01*
X0019998Y0226364D02*
X0019247Y0225614D01*
X0019247Y0224112D01*
X0018497Y0221760D02*
X0017746Y0221010D01*
X0017746Y0219508D01*
X0018497Y0218758D01*
X0021499Y0218758D01*
X0022250Y0219508D01*
X0022250Y0221010D01*
X0021499Y0221760D01*
X0019998Y0217156D02*
X0019998Y0214154D01*
X0019998Y0212553D02*
X0018497Y0212553D01*
X0017746Y0211802D01*
X0017746Y0209550D01*
X0022250Y0209550D01*
X0020749Y0209550D02*
X0020749Y0211802D01*
X0019998Y0212553D01*
X0020749Y0211051D02*
X0022250Y0212553D01*
X0022250Y0244847D02*
X0022250Y0247849D01*
X0022250Y0246348D02*
X0017746Y0246348D01*
X0019247Y0244847D01*
X0019998Y0249451D02*
X0019998Y0252453D01*
X0020749Y0254055D02*
X0020749Y0256307D01*
X0019998Y0257057D01*
X0018497Y0257057D01*
X0017746Y0256307D01*
X0017746Y0254055D01*
X0022250Y0254055D01*
X0022250Y0251703D02*
X0017746Y0251703D01*
X0019998Y0249451D01*
X0143046Y0250550D02*
X0143046Y0252051D01*
X0143046Y0251301D02*
X0147550Y0251301D01*
X0147550Y0252051D02*
X0147550Y0250550D01*
X0146799Y0253619D02*
X0143797Y0253619D01*
X0143046Y0254370D01*
X0143046Y0255871D01*
X0143797Y0256622D01*
X0144547Y0258223D02*
X0143046Y0259724D01*
X0147550Y0259724D01*
X0147550Y0258223D02*
X0147550Y0261226D01*
X0146799Y0256622D02*
X0147550Y0255871D01*
X0147550Y0254370D01*
X0146799Y0253619D01*
X0147550Y0196226D02*
X0147550Y0193223D01*
X0144547Y0196226D01*
X0143797Y0196226D01*
X0143046Y0195475D01*
X0143046Y0193974D01*
X0143797Y0193223D01*
X0143797Y0191622D02*
X0143046Y0190871D01*
X0143046Y0189370D01*
X0143797Y0188619D01*
X0146799Y0188619D01*
X0147550Y0189370D01*
X0147550Y0190871D01*
X0146799Y0191622D01*
X0147550Y0187051D02*
X0147550Y0185550D01*
X0147550Y0186301D02*
X0143046Y0186301D01*
X0143046Y0187051D02*
X0143046Y0185550D01*
X0143797Y0131226D02*
X0144547Y0131226D01*
X0145298Y0130475D01*
X0146049Y0131226D01*
X0146799Y0131226D01*
X0147550Y0130475D01*
X0147550Y0128974D01*
X0146799Y0128223D01*
X0146799Y0126622D02*
X0147550Y0125871D01*
X0147550Y0124370D01*
X0146799Y0123619D01*
X0143797Y0123619D01*
X0143046Y0124370D01*
X0143046Y0125871D01*
X0143797Y0126622D01*
X0143797Y0128223D02*
X0143046Y0128974D01*
X0143046Y0130475D01*
X0143797Y0131226D01*
X0145298Y0130475D02*
X0145298Y0129724D01*
X0143046Y0122051D02*
X0143046Y0120550D01*
X0143046Y0121301D02*
X0147550Y0121301D01*
X0147550Y0122051D02*
X0147550Y0120550D01*
X0145298Y0061226D02*
X0145298Y0058223D01*
X0143046Y0060475D01*
X0147550Y0060475D01*
X0146799Y0056622D02*
X0147550Y0055871D01*
X0147550Y0054370D01*
X0146799Y0053619D01*
X0143797Y0053619D01*
X0143046Y0054370D01*
X0143046Y0055871D01*
X0143797Y0056622D01*
X0143046Y0052051D02*
X0143046Y0050550D01*
X0143046Y0051301D02*
X0147550Y0051301D01*
X0147550Y0052051D02*
X0147550Y0050550D01*
X0334050Y0069550D02*
X0334050Y0074054D01*
X0336302Y0074054D01*
X0337053Y0073303D01*
X0337053Y0071802D01*
X0336302Y0071051D01*
X0334050Y0071051D01*
X0338654Y0070301D02*
X0339405Y0069550D01*
X0340906Y0069550D01*
X0341656Y0070301D01*
X0341656Y0073303D01*
X0340906Y0074054D01*
X0339405Y0074054D01*
X0338654Y0073303D01*
X0338654Y0070301D01*
X0343258Y0074054D02*
X0346260Y0074054D01*
X0344759Y0074054D02*
X0344759Y0069550D01*
X0347862Y0071802D02*
X0350864Y0071802D01*
X0352466Y0074054D02*
X0354718Y0074054D01*
X0355468Y0073303D01*
X0355468Y0070301D01*
X0354718Y0069550D01*
X0352466Y0069550D01*
X0352466Y0074054D01*
X0353216Y0144550D02*
X0354718Y0144550D01*
X0355468Y0145301D01*
X0353216Y0144550D02*
X0352466Y0145301D01*
X0352466Y0148303D01*
X0353216Y0149054D01*
X0354718Y0149054D01*
X0355468Y0148303D01*
X0350864Y0146802D02*
X0347862Y0146802D01*
X0346260Y0149054D02*
X0343258Y0149054D01*
X0344759Y0149054D02*
X0344759Y0144550D01*
X0341656Y0145301D02*
X0341656Y0148303D01*
X0340906Y0149054D01*
X0339405Y0149054D01*
X0338654Y0148303D01*
X0338654Y0145301D01*
X0339405Y0144550D01*
X0340906Y0144550D01*
X0341656Y0145301D01*
X0337053Y0146802D02*
X0337053Y0148303D01*
X0336302Y0149054D01*
X0334050Y0149054D01*
X0334050Y0144550D01*
X0334050Y0146051D02*
X0336302Y0146051D01*
X0337053Y0146802D01*
X0339405Y0214550D02*
X0338654Y0215301D01*
X0338654Y0218303D01*
X0339405Y0219054D01*
X0340906Y0219054D01*
X0341656Y0218303D01*
X0341656Y0215301D01*
X0340906Y0214550D01*
X0339405Y0214550D01*
X0337053Y0216802D02*
X0336302Y0216051D01*
X0334050Y0216051D01*
X0334050Y0214550D02*
X0334050Y0219054D01*
X0336302Y0219054D01*
X0337053Y0218303D01*
X0337053Y0216802D01*
X0343258Y0219054D02*
X0346260Y0219054D01*
X0344759Y0219054D02*
X0344759Y0214550D01*
X0347862Y0216802D02*
X0350864Y0216802D01*
X0352466Y0216802D02*
X0354718Y0216802D01*
X0355468Y0216051D01*
X0355468Y0215301D01*
X0354718Y0214550D01*
X0352466Y0214550D01*
X0352466Y0219054D01*
X0354718Y0219054D01*
X0355468Y0218303D01*
X0355468Y0217553D01*
X0354718Y0216802D01*
X0355468Y0279550D02*
X0355468Y0282553D01*
X0353967Y0284054D01*
X0352466Y0282553D01*
X0352466Y0279550D01*
X0352466Y0281802D02*
X0355468Y0281802D01*
X0350864Y0281802D02*
X0347862Y0281802D01*
X0346260Y0284054D02*
X0343258Y0284054D01*
X0344759Y0284054D02*
X0344759Y0279550D01*
X0341656Y0280301D02*
X0341656Y0283303D01*
X0340906Y0284054D01*
X0339405Y0284054D01*
X0338654Y0283303D01*
X0338654Y0280301D01*
X0339405Y0279550D01*
X0340906Y0279550D01*
X0341656Y0280301D01*
X0337053Y0281802D02*
X0336302Y0281051D01*
X0334050Y0281051D01*
X0334050Y0279550D02*
X0334050Y0284054D01*
X0336302Y0284054D01*
X0337053Y0283303D01*
X0337053Y0281802D01*
D14*
X0049200Y0211800D03*
D15*
X0048450Y0212550D03*
X0048450Y0211050D03*
D16*
X0050000Y0211800D03*
D17*
X0065493Y0190658D02*
X0102107Y0190658D01*
X0102107Y0172942D01*
X0065493Y0172942D01*
X0065493Y0190658D01*
X0065493Y0237942D02*
X0065493Y0255658D01*
X0102107Y0255658D01*
X0102107Y0237942D01*
X0065493Y0237942D01*
X0065493Y0130658D02*
X0102107Y0130658D01*
X0102107Y0112942D01*
X0065493Y0112942D01*
X0065493Y0130658D01*
X0065493Y0065658D02*
X0102107Y0065658D01*
X0102107Y0047942D01*
X0065493Y0047942D01*
X0065493Y0065658D01*
X0250493Y0057942D02*
X0250493Y0075658D01*
X0287107Y0075658D01*
X0287107Y0057942D01*
X0250493Y0057942D01*
X0250493Y0137942D02*
X0250493Y0155658D01*
X0287107Y0155658D01*
X0287107Y0137942D01*
X0250493Y0137942D01*
X0250493Y0197942D02*
X0250493Y0215658D01*
X0287107Y0215658D01*
X0287107Y0197942D01*
X0250493Y0197942D01*
X0250493Y0267942D02*
X0250493Y0285658D01*
X0287107Y0285658D01*
X0287107Y0267942D01*
X0250493Y0267942D01*
D18*
X0250751Y0260603D02*
X0251335Y0260019D01*
X0251335Y0258851D01*
X0250751Y0258268D01*
X0249000Y0258268D01*
X0250168Y0258268D02*
X0251335Y0257100D01*
X0252591Y0257100D02*
X0254926Y0259435D01*
X0254926Y0260019D01*
X0254343Y0260603D01*
X0253175Y0260603D01*
X0252591Y0260019D01*
X0250751Y0260603D02*
X0249000Y0260603D01*
X0249000Y0257100D01*
X0252591Y0257100D02*
X0254926Y0257100D01*
X0256182Y0257100D02*
X0256182Y0259435D01*
X0257350Y0260603D01*
X0258517Y0259435D01*
X0258517Y0257100D01*
X0258517Y0258851D02*
X0256182Y0258851D01*
X0289000Y0267100D02*
X0289000Y0270603D01*
X0290751Y0270603D01*
X0291335Y0270019D01*
X0291335Y0268851D01*
X0290751Y0268268D01*
X0289000Y0268268D01*
X0290168Y0268268D02*
X0291335Y0267100D01*
X0292591Y0267684D02*
X0294926Y0270019D01*
X0294926Y0267684D01*
X0294343Y0267100D01*
X0293175Y0267100D01*
X0292591Y0267684D01*
X0292591Y0270019D01*
X0293175Y0270603D01*
X0294343Y0270603D01*
X0294926Y0270019D01*
X0296182Y0269435D02*
X0297350Y0270603D01*
X0298517Y0269435D01*
X0298517Y0267100D01*
X0298517Y0268851D02*
X0296182Y0268851D01*
X0296182Y0269435D02*
X0296182Y0267100D01*
X0299000Y0260603D02*
X0300751Y0260603D01*
X0301335Y0260019D01*
X0301335Y0258851D01*
X0300751Y0258268D01*
X0299000Y0258268D01*
X0300168Y0258268D02*
X0301335Y0257100D01*
X0302591Y0257100D02*
X0304926Y0257100D01*
X0303759Y0257100D02*
X0303759Y0260603D01*
X0302591Y0259435D01*
X0306182Y0259435D02*
X0306182Y0257100D01*
X0306182Y0258851D02*
X0308517Y0258851D01*
X0308517Y0259435D02*
X0308517Y0257100D01*
X0308517Y0259435D02*
X0307350Y0260603D01*
X0306182Y0259435D01*
X0299000Y0260603D02*
X0299000Y0257100D01*
X0263561Y0287433D02*
X0263561Y0290502D01*
X0262026Y0292037D01*
X0260491Y0290502D01*
X0260491Y0287433D01*
X0258957Y0287433D02*
X0255887Y0287433D01*
X0257422Y0287433D02*
X0257422Y0292037D01*
X0255887Y0290502D01*
X0254353Y0289735D02*
X0253585Y0288968D01*
X0251283Y0288968D01*
X0251283Y0287433D02*
X0251283Y0292037D01*
X0253585Y0292037D01*
X0254353Y0291270D01*
X0254353Y0289735D01*
X0260491Y0289735D02*
X0263561Y0289735D01*
X0223517Y0297100D02*
X0223517Y0299435D01*
X0222350Y0300603D01*
X0221182Y0299435D01*
X0221182Y0297100D01*
X0219926Y0297684D02*
X0219343Y0297100D01*
X0218175Y0297100D01*
X0217591Y0297684D01*
X0216335Y0297100D02*
X0215168Y0298268D01*
X0215751Y0298268D02*
X0214000Y0298268D01*
X0214000Y0297100D02*
X0214000Y0300603D01*
X0215751Y0300603D01*
X0216335Y0300019D01*
X0216335Y0298851D01*
X0215751Y0298268D01*
X0217591Y0300019D02*
X0218175Y0300603D01*
X0219343Y0300603D01*
X0219926Y0300019D01*
X0219926Y0299435D01*
X0219343Y0298851D01*
X0219926Y0298268D01*
X0219926Y0297684D01*
X0219343Y0298851D02*
X0218759Y0298851D01*
X0221182Y0298851D02*
X0223517Y0298851D01*
X0178517Y0298851D02*
X0176182Y0298851D01*
X0176182Y0299435D02*
X0176182Y0297100D01*
X0174343Y0297100D02*
X0174343Y0300603D01*
X0172591Y0298851D01*
X0174926Y0298851D01*
X0176182Y0299435D02*
X0177350Y0300603D01*
X0178517Y0299435D01*
X0178517Y0297100D01*
X0171335Y0297100D02*
X0170168Y0298268D01*
X0170751Y0298268D02*
X0169000Y0298268D01*
X0169000Y0297100D02*
X0169000Y0300603D01*
X0170751Y0300603D01*
X0171335Y0300019D01*
X0171335Y0298851D01*
X0170751Y0298268D01*
X0147744Y0280335D02*
X0147744Y0278000D01*
X0147744Y0279751D02*
X0145409Y0279751D01*
X0145409Y0280335D02*
X0146577Y0281503D01*
X0147744Y0280335D01*
X0145409Y0280335D02*
X0145409Y0278000D01*
X0144153Y0278584D02*
X0144153Y0279168D01*
X0143569Y0279751D01*
X0141818Y0279751D01*
X0141818Y0278584D01*
X0142402Y0278000D01*
X0143569Y0278000D01*
X0144153Y0278584D01*
X0142986Y0280919D02*
X0141818Y0279751D01*
X0140562Y0279751D02*
X0140562Y0280919D01*
X0139978Y0281503D01*
X0138227Y0281503D01*
X0138227Y0278000D01*
X0138227Y0279168D02*
X0139978Y0279168D01*
X0140562Y0279751D01*
X0139394Y0279168D02*
X0140562Y0278000D01*
X0142986Y0280919D02*
X0144153Y0281503D01*
X0169000Y0235603D02*
X0170751Y0235603D01*
X0171335Y0235019D01*
X0171335Y0233851D01*
X0170751Y0233268D01*
X0169000Y0233268D01*
X0170168Y0233268D02*
X0171335Y0232100D01*
X0172591Y0233851D02*
X0174926Y0233851D01*
X0176182Y0233851D02*
X0177934Y0233851D01*
X0178517Y0233268D01*
X0178517Y0232684D01*
X0177934Y0232100D01*
X0176182Y0232100D01*
X0176182Y0235603D01*
X0177934Y0235603D01*
X0178517Y0235019D01*
X0178517Y0234435D01*
X0177934Y0233851D01*
X0174343Y0232100D02*
X0174343Y0235603D01*
X0172591Y0233851D01*
X0169000Y0232100D02*
X0169000Y0235603D01*
X0147744Y0215919D02*
X0147160Y0216503D01*
X0145409Y0216503D01*
X0145409Y0213000D01*
X0147160Y0213000D01*
X0147744Y0213584D01*
X0147744Y0214168D01*
X0147160Y0214751D01*
X0145409Y0214751D01*
X0144153Y0214168D02*
X0143569Y0214751D01*
X0141818Y0214751D01*
X0141818Y0213584D01*
X0142402Y0213000D01*
X0143569Y0213000D01*
X0144153Y0213584D01*
X0144153Y0214168D01*
X0142986Y0215919D02*
X0141818Y0214751D01*
X0140562Y0214751D02*
X0139978Y0214168D01*
X0138227Y0214168D01*
X0139394Y0214168D02*
X0140562Y0213000D01*
X0140562Y0214751D02*
X0140562Y0215919D01*
X0139978Y0216503D01*
X0138227Y0216503D01*
X0138227Y0213000D01*
X0142986Y0215919D02*
X0144153Y0216503D01*
X0147160Y0214751D02*
X0147744Y0215335D01*
X0147744Y0215919D01*
X0103500Y0222000D02*
X0099997Y0222000D01*
X0099997Y0223751D01*
X0100581Y0224335D01*
X0101749Y0224335D01*
X0102332Y0223751D01*
X0102332Y0222000D01*
X0102332Y0223168D02*
X0103500Y0224335D01*
X0103500Y0225591D02*
X0102916Y0225591D01*
X0100581Y0227926D01*
X0099997Y0227926D01*
X0099997Y0225591D01*
X0101165Y0229182D02*
X0099997Y0230350D01*
X0101165Y0231517D01*
X0103500Y0231517D01*
X0101749Y0231517D02*
X0101749Y0229182D01*
X0101165Y0229182D02*
X0103500Y0229182D01*
X0078561Y0257433D02*
X0078561Y0260502D01*
X0077026Y0262037D01*
X0075491Y0260502D01*
X0075491Y0257433D01*
X0073957Y0257433D02*
X0070887Y0257433D01*
X0073957Y0260502D01*
X0073957Y0261270D01*
X0073189Y0262037D01*
X0071655Y0262037D01*
X0070887Y0261270D01*
X0069353Y0261270D02*
X0069353Y0259735D01*
X0068585Y0258968D01*
X0066283Y0258968D01*
X0066283Y0257433D02*
X0066283Y0262037D01*
X0068585Y0262037D01*
X0069353Y0261270D01*
X0075491Y0259735D02*
X0078561Y0259735D01*
X0077793Y0197037D02*
X0075491Y0197037D01*
X0075491Y0192433D01*
X0077793Y0192433D01*
X0078561Y0193200D01*
X0078561Y0193968D01*
X0077793Y0194735D01*
X0075491Y0194735D01*
X0073957Y0195502D02*
X0073957Y0196270D01*
X0073189Y0197037D01*
X0071655Y0197037D01*
X0070887Y0196270D01*
X0069353Y0196270D02*
X0069353Y0194735D01*
X0068585Y0193968D01*
X0066283Y0193968D01*
X0066283Y0192433D02*
X0066283Y0197037D01*
X0068585Y0197037D01*
X0069353Y0196270D01*
X0070887Y0192433D02*
X0073957Y0195502D01*
X0073957Y0192433D02*
X0070887Y0192433D01*
X0077793Y0194735D02*
X0078561Y0195502D01*
X0078561Y0196270D01*
X0077793Y0197037D01*
X0100581Y0166517D02*
X0101165Y0166517D01*
X0101749Y0165934D01*
X0101749Y0164182D01*
X0100581Y0162926D02*
X0102916Y0160591D01*
X0103500Y0160591D01*
X0103500Y0159335D02*
X0102332Y0158168D01*
X0102332Y0158751D02*
X0102332Y0157000D01*
X0103500Y0157000D02*
X0099997Y0157000D01*
X0099997Y0158751D01*
X0100581Y0159335D01*
X0101749Y0159335D01*
X0102332Y0158751D01*
X0099997Y0160591D02*
X0099997Y0162926D01*
X0100581Y0162926D01*
X0099997Y0164182D02*
X0099997Y0165934D01*
X0100581Y0166517D01*
X0101749Y0165934D02*
X0102332Y0166517D01*
X0102916Y0166517D01*
X0103500Y0165934D01*
X0103500Y0164182D01*
X0099997Y0164182D01*
X0081630Y0137037D02*
X0081630Y0132433D01*
X0080095Y0132433D02*
X0083165Y0132433D01*
X0080095Y0135502D02*
X0081630Y0137037D01*
X0078561Y0135502D02*
X0078561Y0132433D01*
X0078561Y0134735D02*
X0075491Y0134735D01*
X0075491Y0135502D02*
X0077026Y0137037D01*
X0078561Y0135502D01*
X0075491Y0135502D02*
X0075491Y0132433D01*
X0073957Y0132433D02*
X0070887Y0132433D01*
X0073957Y0135502D01*
X0073957Y0136270D01*
X0073189Y0137037D01*
X0071655Y0137037D01*
X0070887Y0136270D01*
X0069353Y0136270D02*
X0069353Y0134735D01*
X0068585Y0133968D01*
X0066283Y0133968D01*
X0066283Y0132433D02*
X0066283Y0137037D01*
X0068585Y0137037D01*
X0069353Y0136270D01*
X0038500Y0152000D02*
X0034997Y0152000D01*
X0034997Y0153751D01*
X0035581Y0154335D01*
X0036749Y0154335D01*
X0037332Y0153751D01*
X0037332Y0152000D01*
X0037332Y0153168D02*
X0038500Y0154335D01*
X0037916Y0155591D02*
X0038500Y0156175D01*
X0038500Y0157343D01*
X0037916Y0157926D01*
X0036749Y0157926D01*
X0036749Y0156759D01*
X0035581Y0155591D02*
X0037916Y0155591D01*
X0035581Y0155591D02*
X0034997Y0156175D01*
X0034997Y0157343D01*
X0035581Y0157926D01*
X0099997Y0105934D02*
X0099997Y0104766D01*
X0100581Y0104182D01*
X0102916Y0104182D01*
X0103500Y0104766D01*
X0103500Y0105934D01*
X0102916Y0106517D01*
X0100581Y0106517D02*
X0099997Y0105934D01*
X0099997Y0102926D02*
X0100581Y0102926D01*
X0102916Y0100591D01*
X0103500Y0100591D01*
X0103500Y0099335D02*
X0102332Y0098168D01*
X0102332Y0098751D02*
X0102332Y0097000D01*
X0103500Y0097000D02*
X0099997Y0097000D01*
X0099997Y0098751D01*
X0100581Y0099335D01*
X0101749Y0099335D01*
X0102332Y0098751D01*
X0099997Y0100591D02*
X0099997Y0102926D01*
X0081630Y0072037D02*
X0081630Y0067433D01*
X0080095Y0067433D02*
X0083165Y0067433D01*
X0080095Y0070502D02*
X0081630Y0072037D01*
X0078561Y0071270D02*
X0078561Y0070502D01*
X0077793Y0069735D01*
X0075491Y0069735D01*
X0073957Y0070502D02*
X0073957Y0071270D01*
X0073189Y0072037D01*
X0071655Y0072037D01*
X0070887Y0071270D01*
X0069353Y0071270D02*
X0069353Y0069735D01*
X0068585Y0068968D01*
X0066283Y0068968D01*
X0066283Y0067433D02*
X0066283Y0072037D01*
X0068585Y0072037D01*
X0069353Y0071270D01*
X0070887Y0067433D02*
X0073957Y0070502D01*
X0075491Y0072037D02*
X0075491Y0067433D01*
X0077793Y0067433D01*
X0078561Y0068200D01*
X0078561Y0068968D01*
X0077793Y0069735D01*
X0078561Y0071270D02*
X0077793Y0072037D01*
X0075491Y0072037D01*
X0073957Y0067433D02*
X0070887Y0067433D01*
X0099997Y0040934D02*
X0099997Y0039182D01*
X0103500Y0039182D01*
X0103500Y0040934D01*
X0102916Y0041517D01*
X0100581Y0041517D01*
X0099997Y0040934D01*
X0099997Y0037926D02*
X0100581Y0037926D01*
X0102916Y0035591D01*
X0103500Y0035591D01*
X0103500Y0034335D02*
X0102332Y0033168D01*
X0102332Y0033751D02*
X0102332Y0032000D01*
X0103500Y0032000D02*
X0099997Y0032000D01*
X0099997Y0033751D01*
X0100581Y0034335D01*
X0101749Y0034335D01*
X0102332Y0033751D01*
X0099997Y0035591D02*
X0099997Y0037926D01*
X0138227Y0078000D02*
X0138227Y0081503D01*
X0139978Y0081503D01*
X0140562Y0080919D01*
X0140562Y0079751D01*
X0139978Y0079168D01*
X0138227Y0079168D01*
X0139394Y0079168D02*
X0140562Y0078000D01*
X0141818Y0078584D02*
X0142402Y0078000D01*
X0143569Y0078000D01*
X0144153Y0078584D01*
X0144153Y0079168D01*
X0143569Y0079751D01*
X0141818Y0079751D01*
X0141818Y0078584D01*
X0141818Y0079751D02*
X0142986Y0080919D01*
X0144153Y0081503D01*
X0145409Y0081503D02*
X0145409Y0078000D01*
X0147160Y0078000D01*
X0147744Y0078584D01*
X0147744Y0080919D01*
X0147160Y0081503D01*
X0145409Y0081503D01*
X0169000Y0097100D02*
X0169000Y0100603D01*
X0170751Y0100603D01*
X0171335Y0100019D01*
X0171335Y0098851D01*
X0170751Y0098268D01*
X0169000Y0098268D01*
X0170168Y0098268D02*
X0171335Y0097100D01*
X0172591Y0098851D02*
X0174926Y0098851D01*
X0176182Y0098851D02*
X0177934Y0098851D01*
X0178517Y0098268D01*
X0178517Y0097684D01*
X0177934Y0097100D01*
X0176182Y0097100D01*
X0176182Y0100603D01*
X0177934Y0100603D01*
X0178517Y0100019D01*
X0178517Y0099435D01*
X0177934Y0098851D01*
X0179773Y0099435D02*
X0180941Y0100603D01*
X0180941Y0097100D01*
X0179773Y0097100D02*
X0182109Y0097100D01*
X0174343Y0097100D02*
X0174343Y0100603D01*
X0172591Y0098851D01*
X0208227Y0099168D02*
X0209978Y0099168D01*
X0210562Y0099751D01*
X0210562Y0100919D01*
X0209978Y0101503D01*
X0208227Y0101503D01*
X0208227Y0098000D01*
X0209394Y0099168D02*
X0210562Y0098000D01*
X0211818Y0098584D02*
X0212402Y0098000D01*
X0213569Y0098000D01*
X0214153Y0098584D01*
X0214153Y0099751D01*
X0213569Y0100335D01*
X0212986Y0100335D01*
X0211818Y0099751D01*
X0211818Y0101503D01*
X0214153Y0101503D01*
X0215409Y0100919D02*
X0215409Y0098584D01*
X0215993Y0098000D01*
X0217160Y0098000D01*
X0217744Y0098584D01*
X0217744Y0100919D02*
X0217160Y0101503D01*
X0215993Y0101503D01*
X0215409Y0100919D01*
X0215751Y0095603D02*
X0216335Y0095019D01*
X0216335Y0093851D01*
X0215751Y0093268D01*
X0214000Y0093268D01*
X0215168Y0093268D02*
X0216335Y0092100D01*
X0217591Y0092684D02*
X0218175Y0092100D01*
X0219343Y0092100D01*
X0219926Y0092684D01*
X0219926Y0093268D01*
X0219343Y0093851D01*
X0218759Y0093851D01*
X0219343Y0093851D02*
X0219926Y0094435D01*
X0219926Y0095019D01*
X0219343Y0095603D01*
X0218175Y0095603D01*
X0217591Y0095019D01*
X0215751Y0095603D02*
X0214000Y0095603D01*
X0214000Y0092100D01*
X0221182Y0092100D02*
X0222934Y0092100D01*
X0223517Y0092684D01*
X0223517Y0093268D01*
X0222934Y0093851D01*
X0221182Y0093851D01*
X0221182Y0092100D02*
X0221182Y0095603D01*
X0222934Y0095603D01*
X0223517Y0095019D01*
X0223517Y0094435D01*
X0222934Y0093851D01*
X0224773Y0094435D02*
X0225941Y0095603D01*
X0225941Y0092100D01*
X0224773Y0092100D02*
X0227109Y0092100D01*
X0234636Y0113000D02*
X0234636Y0116503D01*
X0236387Y0116503D01*
X0236971Y0115919D01*
X0236971Y0114751D01*
X0236387Y0114168D01*
X0234636Y0114168D01*
X0235803Y0114168D02*
X0236971Y0113000D01*
X0238227Y0113000D02*
X0240562Y0115335D01*
X0240562Y0115919D01*
X0239978Y0116503D01*
X0238811Y0116503D01*
X0238227Y0115919D01*
X0238227Y0113000D02*
X0240562Y0113000D01*
X0241818Y0113000D02*
X0241818Y0115335D01*
X0242986Y0116503D01*
X0244153Y0115335D01*
X0244153Y0113000D01*
X0245409Y0113000D02*
X0247744Y0113000D01*
X0246577Y0113000D02*
X0246577Y0116503D01*
X0245409Y0115335D01*
X0244153Y0114751D02*
X0241818Y0114751D01*
X0251283Y0082037D02*
X0253585Y0082037D01*
X0254353Y0081270D01*
X0254353Y0079735D01*
X0253585Y0078968D01*
X0251283Y0078968D01*
X0251283Y0077433D02*
X0251283Y0082037D01*
X0255887Y0080502D02*
X0257422Y0082037D01*
X0257422Y0077433D01*
X0255887Y0077433D02*
X0258957Y0077433D01*
X0260491Y0077433D02*
X0262793Y0077433D01*
X0263561Y0078200D01*
X0263561Y0078968D01*
X0262793Y0079735D01*
X0260491Y0079735D01*
X0260491Y0077433D02*
X0260491Y0082037D01*
X0262793Y0082037D01*
X0263561Y0081270D01*
X0263561Y0080502D01*
X0262793Y0079735D01*
X0265095Y0080502D02*
X0266630Y0082037D01*
X0266630Y0077433D01*
X0265095Y0077433D02*
X0268165Y0077433D01*
X0299000Y0055603D02*
X0300751Y0055603D01*
X0301335Y0055019D01*
X0301335Y0053851D01*
X0300751Y0053268D01*
X0299000Y0053268D01*
X0300168Y0053268D02*
X0301335Y0052100D01*
X0302591Y0052100D02*
X0304926Y0052100D01*
X0303759Y0052100D02*
X0303759Y0055603D01*
X0302591Y0054435D01*
X0306182Y0053851D02*
X0307934Y0053851D01*
X0308517Y0053268D01*
X0308517Y0052684D01*
X0307934Y0052100D01*
X0306182Y0052100D01*
X0306182Y0055603D01*
X0307934Y0055603D01*
X0308517Y0055019D01*
X0308517Y0054435D01*
X0307934Y0053851D01*
X0309773Y0054435D02*
X0310941Y0055603D01*
X0310941Y0052100D01*
X0309773Y0052100D02*
X0312109Y0052100D01*
X0299000Y0052100D02*
X0299000Y0055603D01*
X0299000Y0035603D02*
X0300751Y0035603D01*
X0301335Y0035019D01*
X0301335Y0033851D01*
X0300751Y0033268D01*
X0299000Y0033268D01*
X0300168Y0033268D02*
X0301335Y0032100D01*
X0302591Y0032684D02*
X0304926Y0035019D01*
X0304926Y0032684D01*
X0304343Y0032100D01*
X0303175Y0032100D01*
X0302591Y0032684D01*
X0302591Y0035019D01*
X0303175Y0035603D01*
X0304343Y0035603D01*
X0304926Y0035019D01*
X0306182Y0035603D02*
X0307934Y0035603D01*
X0308517Y0035019D01*
X0308517Y0032684D01*
X0307934Y0032100D01*
X0306182Y0032100D01*
X0306182Y0035603D01*
X0299000Y0035603D02*
X0299000Y0032100D01*
X0242109Y0047100D02*
X0239773Y0047100D01*
X0240941Y0047100D02*
X0240941Y0050603D01*
X0239773Y0049435D01*
X0238517Y0049435D02*
X0237934Y0048851D01*
X0236182Y0048851D01*
X0234926Y0049435D02*
X0234926Y0050019D01*
X0234343Y0050603D01*
X0233175Y0050603D01*
X0232591Y0050019D01*
X0231335Y0050019D02*
X0231335Y0048851D01*
X0230751Y0048268D01*
X0229000Y0048268D01*
X0230168Y0048268D02*
X0231335Y0047100D01*
X0232591Y0047100D02*
X0234926Y0049435D01*
X0236182Y0050603D02*
X0236182Y0047100D01*
X0237934Y0047100D01*
X0238517Y0047684D01*
X0238517Y0048268D01*
X0237934Y0048851D01*
X0238517Y0049435D02*
X0238517Y0050019D01*
X0237934Y0050603D01*
X0236182Y0050603D01*
X0234926Y0047100D02*
X0232591Y0047100D01*
X0231335Y0050019D02*
X0230751Y0050603D01*
X0229000Y0050603D01*
X0229000Y0047100D01*
X0217160Y0031503D02*
X0215409Y0031503D01*
X0215409Y0028000D01*
X0217160Y0028000D01*
X0217744Y0028584D01*
X0217744Y0030919D01*
X0217160Y0031503D01*
X0214153Y0031503D02*
X0211818Y0031503D01*
X0211818Y0029751D01*
X0212986Y0030335D01*
X0213569Y0030335D01*
X0214153Y0029751D01*
X0214153Y0028584D01*
X0213569Y0028000D01*
X0212402Y0028000D01*
X0211818Y0028584D01*
X0210562Y0028000D02*
X0209394Y0029168D01*
X0209978Y0029168D02*
X0208227Y0029168D01*
X0208227Y0028000D02*
X0208227Y0031503D01*
X0209978Y0031503D01*
X0210562Y0030919D01*
X0210562Y0029751D01*
X0209978Y0029168D01*
X0299000Y0112100D02*
X0299000Y0115603D01*
X0300751Y0115603D01*
X0301335Y0115019D01*
X0301335Y0113851D01*
X0300751Y0113268D01*
X0299000Y0113268D01*
X0300168Y0113268D02*
X0301335Y0112100D01*
X0302591Y0112684D02*
X0304926Y0115019D01*
X0304926Y0112684D01*
X0304343Y0112100D01*
X0303175Y0112100D01*
X0302591Y0112684D01*
X0302591Y0115019D01*
X0303175Y0115603D01*
X0304343Y0115603D01*
X0304926Y0115019D01*
X0306182Y0115019D02*
X0306182Y0112684D01*
X0306766Y0112100D01*
X0307934Y0112100D01*
X0308517Y0112684D01*
X0308517Y0115019D02*
X0307934Y0115603D01*
X0306766Y0115603D01*
X0306182Y0115019D01*
X0306182Y0122100D02*
X0306182Y0124435D01*
X0307350Y0125603D01*
X0308517Y0124435D01*
X0308517Y0122100D01*
X0309773Y0122100D02*
X0312109Y0122100D01*
X0310941Y0122100D02*
X0310941Y0125603D01*
X0309773Y0124435D01*
X0308517Y0123851D02*
X0306182Y0123851D01*
X0304926Y0122100D02*
X0302591Y0122100D01*
X0303759Y0122100D02*
X0303759Y0125603D01*
X0302591Y0124435D01*
X0301335Y0123851D02*
X0300751Y0123268D01*
X0299000Y0123268D01*
X0300168Y0123268D02*
X0301335Y0122100D01*
X0301335Y0123851D02*
X0301335Y0125019D01*
X0300751Y0125603D01*
X0299000Y0125603D01*
X0299000Y0122100D01*
X0268165Y0157433D02*
X0265095Y0157433D01*
X0263561Y0157433D02*
X0263561Y0160502D01*
X0262026Y0162037D01*
X0260491Y0160502D01*
X0260491Y0157433D01*
X0258957Y0157433D02*
X0255887Y0157433D01*
X0257422Y0157433D02*
X0257422Y0162037D01*
X0255887Y0160502D01*
X0254353Y0159735D02*
X0253585Y0158968D01*
X0251283Y0158968D01*
X0251283Y0157433D02*
X0251283Y0162037D01*
X0253585Y0162037D01*
X0254353Y0161270D01*
X0254353Y0159735D01*
X0260491Y0159735D02*
X0263561Y0159735D01*
X0265095Y0160502D02*
X0266630Y0162037D01*
X0266630Y0157433D01*
X0299000Y0182100D02*
X0299000Y0185603D01*
X0300751Y0185603D01*
X0301335Y0185019D01*
X0301335Y0183851D01*
X0300751Y0183268D01*
X0299000Y0183268D01*
X0300168Y0183268D02*
X0301335Y0182100D01*
X0302591Y0182684D02*
X0304926Y0185019D01*
X0304926Y0182684D01*
X0304343Y0182100D01*
X0303175Y0182100D01*
X0302591Y0182684D01*
X0302591Y0185019D01*
X0303175Y0185603D01*
X0304343Y0185603D01*
X0304926Y0185019D01*
X0306182Y0185603D02*
X0306182Y0182100D01*
X0307934Y0182100D01*
X0308517Y0182684D01*
X0308517Y0183268D01*
X0307934Y0183851D01*
X0306182Y0183851D01*
X0307934Y0183851D02*
X0308517Y0184435D01*
X0308517Y0185019D01*
X0307934Y0185603D01*
X0306182Y0185603D01*
X0306182Y0192100D02*
X0307934Y0192100D01*
X0308517Y0192684D01*
X0308517Y0193268D01*
X0307934Y0193851D01*
X0306182Y0193851D01*
X0306182Y0192100D02*
X0306182Y0195603D01*
X0307934Y0195603D01*
X0308517Y0195019D01*
X0308517Y0194435D01*
X0307934Y0193851D01*
X0304926Y0192100D02*
X0302591Y0192100D01*
X0303759Y0192100D02*
X0303759Y0195603D01*
X0302591Y0194435D01*
X0301335Y0195019D02*
X0301335Y0193851D01*
X0300751Y0193268D01*
X0299000Y0193268D01*
X0300168Y0193268D02*
X0301335Y0192100D01*
X0299000Y0192100D02*
X0299000Y0195603D01*
X0300751Y0195603D01*
X0301335Y0195019D01*
X0263561Y0218200D02*
X0262793Y0217433D01*
X0260491Y0217433D01*
X0260491Y0222037D01*
X0262793Y0222037D01*
X0263561Y0221270D01*
X0263561Y0220502D01*
X0262793Y0219735D01*
X0260491Y0219735D01*
X0262793Y0219735D02*
X0263561Y0218968D01*
X0263561Y0218200D01*
X0258957Y0217433D02*
X0255887Y0217433D01*
X0257422Y0217433D02*
X0257422Y0222037D01*
X0255887Y0220502D01*
X0254353Y0219735D02*
X0253585Y0218968D01*
X0251283Y0218968D01*
X0251283Y0217433D02*
X0251283Y0222037D01*
X0253585Y0222037D01*
X0254353Y0221270D01*
X0254353Y0219735D01*
X0252934Y0195603D02*
X0251182Y0195603D01*
X0251182Y0192100D01*
X0252934Y0192100D01*
X0253517Y0192684D01*
X0253517Y0193268D01*
X0252934Y0193851D01*
X0251182Y0193851D01*
X0249926Y0194435D02*
X0247591Y0192100D01*
X0249926Y0192100D01*
X0249926Y0194435D02*
X0249926Y0195019D01*
X0249343Y0195603D01*
X0248175Y0195603D01*
X0247591Y0195019D01*
X0246335Y0195019D02*
X0246335Y0193851D01*
X0245751Y0193268D01*
X0244000Y0193268D01*
X0245168Y0193268D02*
X0246335Y0192100D01*
X0244000Y0192100D02*
X0244000Y0195603D01*
X0245751Y0195603D01*
X0246335Y0195019D01*
X0252934Y0195603D02*
X0253517Y0195019D01*
X0253517Y0194435D01*
X0252934Y0193851D01*
X0225941Y0165603D02*
X0225941Y0162100D01*
X0224773Y0162100D02*
X0227109Y0162100D01*
X0224773Y0164435D02*
X0225941Y0165603D01*
X0223517Y0164435D02*
X0223517Y0162100D01*
X0223517Y0163851D02*
X0221182Y0163851D01*
X0221182Y0164435D02*
X0222350Y0165603D01*
X0223517Y0164435D01*
X0221182Y0164435D02*
X0221182Y0162100D01*
X0219926Y0162684D02*
X0219343Y0162100D01*
X0218175Y0162100D01*
X0217591Y0162684D01*
X0216335Y0162100D02*
X0215168Y0163268D01*
X0215751Y0163268D02*
X0214000Y0163268D01*
X0214000Y0162100D02*
X0214000Y0165603D01*
X0215751Y0165603D01*
X0216335Y0165019D01*
X0216335Y0163851D01*
X0215751Y0163268D01*
X0217591Y0165019D02*
X0218175Y0165603D01*
X0219343Y0165603D01*
X0219926Y0165019D01*
X0219926Y0164435D01*
X0219343Y0163851D01*
X0219926Y0163268D01*
X0219926Y0162684D01*
X0219343Y0163851D02*
X0218759Y0163851D01*
X0217160Y0173000D02*
X0215409Y0173000D01*
X0215409Y0176503D01*
X0217160Y0176503D01*
X0217744Y0175919D01*
X0217744Y0175335D01*
X0217160Y0174751D01*
X0215409Y0174751D01*
X0214153Y0174751D02*
X0214153Y0173584D01*
X0213569Y0173000D01*
X0212402Y0173000D01*
X0211818Y0173584D01*
X0211818Y0174751D02*
X0212986Y0175335D01*
X0213569Y0175335D01*
X0214153Y0174751D01*
X0214153Y0176503D02*
X0211818Y0176503D01*
X0211818Y0174751D01*
X0210562Y0174751D02*
X0209978Y0174168D01*
X0208227Y0174168D01*
X0209394Y0174168D02*
X0210562Y0173000D01*
X0210562Y0174751D02*
X0210562Y0175919D01*
X0209978Y0176503D01*
X0208227Y0176503D01*
X0208227Y0173000D01*
X0217160Y0173000D02*
X0217744Y0173584D01*
X0217744Y0174168D01*
X0217160Y0174751D01*
X0182109Y0167100D02*
X0179773Y0167100D01*
X0180941Y0167100D02*
X0180941Y0170603D01*
X0179773Y0169435D01*
X0178517Y0169435D02*
X0177350Y0170603D01*
X0176182Y0169435D01*
X0176182Y0167100D01*
X0176182Y0168851D02*
X0178517Y0168851D01*
X0178517Y0169435D02*
X0178517Y0167100D01*
X0174926Y0168851D02*
X0172591Y0168851D01*
X0174343Y0170603D01*
X0174343Y0167100D01*
X0171335Y0167100D02*
X0170168Y0168268D01*
X0170751Y0168268D02*
X0169000Y0168268D01*
X0169000Y0167100D02*
X0169000Y0170603D01*
X0170751Y0170603D01*
X0171335Y0170019D01*
X0171335Y0168851D01*
X0170751Y0168268D01*
X0147744Y0150919D02*
X0147160Y0151503D01*
X0145993Y0151503D01*
X0145409Y0150919D01*
X0145409Y0148584D01*
X0145993Y0148000D01*
X0147160Y0148000D01*
X0147744Y0148584D01*
X0144153Y0148584D02*
X0143569Y0148000D01*
X0142402Y0148000D01*
X0141818Y0148584D01*
X0141818Y0149751D01*
X0143569Y0149751D01*
X0144153Y0149168D01*
X0144153Y0148584D01*
X0142986Y0150919D02*
X0141818Y0149751D01*
X0140562Y0149751D02*
X0139978Y0149168D01*
X0138227Y0149168D01*
X0139394Y0149168D02*
X0140562Y0148000D01*
X0140562Y0149751D02*
X0140562Y0150919D01*
X0139978Y0151503D01*
X0138227Y0151503D01*
X0138227Y0148000D01*
X0142986Y0150919D02*
X0144153Y0151503D01*
X0209000Y0232100D02*
X0209000Y0235603D01*
X0210751Y0235603D01*
X0211335Y0235019D01*
X0211335Y0233851D01*
X0210751Y0233268D01*
X0209000Y0233268D01*
X0210168Y0233268D02*
X0211335Y0232100D01*
X0212591Y0232684D02*
X0213175Y0232100D01*
X0214343Y0232100D01*
X0214926Y0232684D01*
X0214926Y0233268D01*
X0214343Y0233851D01*
X0213759Y0233851D01*
X0214343Y0233851D02*
X0214926Y0234435D01*
X0214926Y0235019D01*
X0214343Y0235603D01*
X0213175Y0235603D01*
X0212591Y0235019D01*
X0212402Y0238000D02*
X0211818Y0238584D01*
X0212402Y0238000D02*
X0213569Y0238000D01*
X0214153Y0238584D01*
X0214153Y0239751D01*
X0213569Y0240335D01*
X0212986Y0240335D01*
X0211818Y0239751D01*
X0211818Y0241503D01*
X0214153Y0241503D01*
X0215409Y0240335D02*
X0216577Y0241503D01*
X0217744Y0240335D01*
X0217744Y0238000D01*
X0217744Y0239751D02*
X0215409Y0239751D01*
X0215409Y0240335D02*
X0215409Y0238000D01*
X0216182Y0235603D02*
X0217934Y0235603D01*
X0218517Y0235019D01*
X0218517Y0234435D01*
X0217934Y0233851D01*
X0216182Y0233851D01*
X0216182Y0232100D02*
X0217934Y0232100D01*
X0218517Y0232684D01*
X0218517Y0233268D01*
X0217934Y0233851D01*
X0216182Y0232100D02*
X0216182Y0235603D01*
X0210562Y0238000D02*
X0209394Y0239168D01*
X0209978Y0239168D02*
X0208227Y0239168D01*
X0208227Y0238000D02*
X0208227Y0241503D01*
X0209978Y0241503D01*
X0210562Y0240919D01*
X0210562Y0239751D01*
X0209978Y0239168D01*
D19*
X0353800Y0241800D02*
X0376300Y0241800D01*
X0376300Y0251800D02*
X0353800Y0251800D01*
X0353800Y0261800D02*
X0376300Y0261800D01*
X0376300Y0271800D02*
X0353800Y0271800D01*
X0353800Y0206800D02*
X0376300Y0206800D01*
X0376300Y0196800D02*
X0353800Y0196800D01*
X0353800Y0186800D02*
X0376300Y0186800D01*
X0376300Y0176800D02*
X0353800Y0176800D01*
X0353800Y0136800D02*
X0376300Y0136800D01*
X0376300Y0126800D02*
X0353800Y0126800D01*
X0353800Y0116800D02*
X0376300Y0116800D01*
X0376300Y0106800D02*
X0353800Y0106800D01*
X0353800Y0061800D02*
X0376300Y0061800D01*
X0376300Y0051800D02*
X0353800Y0051800D01*
X0353800Y0041800D02*
X0376300Y0041800D01*
X0376300Y0031800D02*
X0353800Y0031800D01*
D20*
X0352300Y0031800D03*
X0352300Y0041800D03*
X0352300Y0051800D03*
X0352300Y0061800D03*
X0352300Y0106800D03*
X0352300Y0116800D03*
X0352300Y0126800D03*
X0352300Y0136800D03*
X0352300Y0176800D03*
X0352300Y0186800D03*
X0352300Y0196800D03*
X0352300Y0206800D03*
X0352300Y0241800D03*
X0352300Y0251800D03*
X0352300Y0261800D03*
X0352300Y0271800D03*
D21*
X0339300Y0271800D03*
X0339300Y0261800D03*
X0339300Y0251800D03*
X0339300Y0241800D03*
X0339300Y0206800D03*
X0339300Y0196800D03*
X0339300Y0186800D03*
X0339300Y0176800D03*
X0339300Y0136800D03*
X0339300Y0126800D03*
X0339300Y0116800D03*
X0339300Y0106800D03*
X0339300Y0061800D03*
X0339300Y0051800D03*
X0339300Y0041800D03*
X0339300Y0031800D03*
D22*
X0319550Y0026800D03*
X0298050Y0026800D03*
X0298050Y0046800D03*
X0319550Y0046800D03*
X0249550Y0041800D03*
X0228050Y0041800D03*
X0219550Y0036800D03*
X0198050Y0036800D03*
X0213050Y0086800D03*
X0219550Y0106800D03*
X0228050Y0121800D03*
X0249550Y0121800D03*
X0234550Y0086800D03*
X0198050Y0106800D03*
X0189550Y0091800D03*
X0168050Y0091800D03*
X0149550Y0086800D03*
X0128050Y0086800D03*
X0128050Y0156800D03*
X0149550Y0156800D03*
X0168050Y0161800D03*
X0189550Y0161800D03*
X0198050Y0181800D03*
X0219550Y0181800D03*
X0243050Y0186800D03*
X0264550Y0186800D03*
X0298050Y0186800D03*
X0298050Y0176800D03*
X0319550Y0176800D03*
X0319550Y0186800D03*
X0319550Y0251800D03*
X0309550Y0261800D03*
X0298050Y0251800D03*
X0288050Y0261800D03*
X0269550Y0251800D03*
X0248050Y0251800D03*
X0219550Y0246800D03*
X0198050Y0246800D03*
X0189550Y0226800D03*
X0208050Y0226800D03*
X0229550Y0226800D03*
X0168050Y0226800D03*
X0149550Y0221800D03*
X0128050Y0221800D03*
X0128050Y0286800D03*
X0149550Y0286800D03*
X0168050Y0291800D03*
X0189550Y0291800D03*
X0213050Y0291800D03*
X0234550Y0291800D03*
X0234550Y0156800D03*
X0213050Y0156800D03*
X0298050Y0116800D03*
X0298050Y0106800D03*
X0319550Y0106800D03*
X0319550Y0116800D03*
D23*
X0108800Y0117550D03*
X0108800Y0096050D03*
X0108800Y0052550D03*
X0108800Y0031050D03*
X0043800Y0151050D03*
X0043800Y0172550D03*
X0108800Y0177550D03*
X0108800Y0156050D03*
X0108800Y0221050D03*
X0108800Y0242550D03*
M02*
