G75*
%MOIN*%
%OFA0B0*%
%FSLAX25Y25*%
%IPPOS*%
%LPD*%
%AMOC8*
5,1,8,0,0,1.08239X$1,22.5*
%
%ADD10C,0.05600*%
%ADD11OC8,0.05600*%
%ADD12C,0.05200*%
%ADD13C,0.04400*%
%ADD14C,0.06000*%
%ADD15OC8,0.05200*%
%ADD16C,0.03200*%
%ADD17C,0.01600*%
D10*
X0043800Y0211800D03*
D11*
X0043800Y0221800D03*
X0033800Y0221800D03*
X0033800Y0211800D03*
X0033800Y0231800D03*
X0033800Y0241800D03*
X0033800Y0251800D03*
X0033800Y0261800D03*
X0043800Y0261800D03*
X0043800Y0251800D03*
X0043800Y0241800D03*
X0043800Y0231800D03*
X0043800Y0271800D03*
X0033800Y0271800D03*
D12*
X0153800Y0274200D02*
X0153800Y0279400D01*
X0163800Y0279400D02*
X0163800Y0274200D01*
X0173800Y0274200D02*
X0173800Y0279400D01*
X0183800Y0279400D02*
X0183800Y0274200D01*
X0183800Y0249400D02*
X0183800Y0244200D01*
X0173800Y0244200D02*
X0173800Y0249400D01*
X0163800Y0249400D02*
X0163800Y0244200D01*
X0153800Y0244200D02*
X0153800Y0249400D01*
X0153800Y0214400D02*
X0153800Y0209200D01*
X0163800Y0209200D02*
X0163800Y0214400D01*
X0173800Y0214400D02*
X0173800Y0209200D01*
X0183800Y0209200D02*
X0183800Y0214400D01*
X0183800Y0184400D02*
X0183800Y0179200D01*
X0173800Y0179200D02*
X0173800Y0184400D01*
X0163800Y0184400D02*
X0163800Y0179200D01*
X0153800Y0179200D02*
X0153800Y0184400D01*
X0153800Y0149400D02*
X0153800Y0144200D01*
X0163800Y0144200D02*
X0163800Y0149400D01*
X0173800Y0149400D02*
X0173800Y0144200D01*
X0183800Y0144200D02*
X0183800Y0149400D01*
X0183800Y0119400D02*
X0183800Y0114200D01*
X0173800Y0114200D02*
X0173800Y0119400D01*
X0163800Y0119400D02*
X0163800Y0114200D01*
X0153800Y0114200D02*
X0153800Y0119400D01*
X0153800Y0079400D02*
X0153800Y0074200D01*
X0163800Y0074200D02*
X0163800Y0079400D01*
X0173800Y0079400D02*
X0173800Y0074200D01*
X0183800Y0074200D02*
X0183800Y0079400D01*
X0183800Y0049400D02*
X0183800Y0044200D01*
X0173800Y0044200D02*
X0173800Y0049400D01*
X0163800Y0049400D02*
X0163800Y0044200D01*
X0153800Y0044200D02*
X0153800Y0049400D01*
D13*
X0093800Y0056800D03*
X0083800Y0056800D03*
X0073800Y0056800D03*
X0073800Y0121800D03*
X0083800Y0121800D03*
X0093800Y0121800D03*
X0093800Y0181800D03*
X0083800Y0181800D03*
X0073800Y0181800D03*
X0073800Y0246800D03*
X0083800Y0246800D03*
X0093800Y0246800D03*
X0258800Y0276800D03*
X0268800Y0276800D03*
X0278800Y0276800D03*
X0278800Y0206800D03*
X0268800Y0206800D03*
X0258800Y0206800D03*
X0258800Y0146800D03*
X0268800Y0146800D03*
X0278800Y0146800D03*
X0278800Y0066800D03*
X0268800Y0066800D03*
X0258800Y0066800D03*
D14*
X0330800Y0061800D02*
X0336800Y0061800D01*
X0336800Y0051800D02*
X0330800Y0051800D01*
X0330800Y0041800D02*
X0336800Y0041800D01*
X0336800Y0031800D02*
X0330800Y0031800D01*
X0330800Y0106800D02*
X0336800Y0106800D01*
X0336800Y0116800D02*
X0330800Y0116800D01*
X0330800Y0126800D02*
X0336800Y0126800D01*
X0336800Y0136800D02*
X0330800Y0136800D01*
X0330800Y0176800D02*
X0336800Y0176800D01*
X0336800Y0186800D02*
X0330800Y0186800D01*
X0330800Y0196800D02*
X0336800Y0196800D01*
X0336800Y0206800D02*
X0330800Y0206800D01*
X0330800Y0241800D02*
X0336800Y0241800D01*
X0336800Y0251800D02*
X0330800Y0251800D01*
X0330800Y0261800D02*
X0336800Y0261800D01*
X0336800Y0271800D02*
X0330800Y0271800D01*
D15*
X0313800Y0261800D03*
X0323800Y0251800D03*
X0293800Y0251800D03*
X0283800Y0261800D03*
X0273800Y0251800D03*
X0243800Y0251800D03*
X0223800Y0246800D03*
X0233800Y0226800D03*
X0203800Y0226800D03*
X0193800Y0226800D03*
X0193800Y0246800D03*
X0163800Y0226800D03*
X0153800Y0221800D03*
X0123800Y0221800D03*
X0108800Y0216800D03*
X0108800Y0246800D03*
X0123800Y0286800D03*
X0153800Y0286800D03*
X0163800Y0291800D03*
X0193800Y0291800D03*
X0208800Y0291800D03*
X0238800Y0291800D03*
X0238800Y0186800D03*
X0223800Y0181800D03*
X0208800Y0156800D03*
X0193800Y0161800D03*
X0193800Y0181800D03*
X0163800Y0161800D03*
X0153800Y0156800D03*
X0123800Y0156800D03*
X0108800Y0151800D03*
X0108800Y0181800D03*
X0043800Y0176800D03*
X0043800Y0146800D03*
X0108800Y0121800D03*
X0108800Y0091800D03*
X0123800Y0086800D03*
X0153800Y0086800D03*
X0163800Y0091800D03*
X0193800Y0091800D03*
X0208800Y0086800D03*
X0193800Y0106800D03*
X0223800Y0106800D03*
X0223800Y0121800D03*
X0253800Y0121800D03*
X0238800Y0086800D03*
X0223800Y0041800D03*
X0223800Y0036800D03*
X0193800Y0036800D03*
X0253800Y0041800D03*
X0293800Y0046800D03*
X0293800Y0026800D03*
X0323800Y0026800D03*
X0323800Y0046800D03*
X0323800Y0106800D03*
X0323800Y0116800D03*
X0293800Y0116800D03*
X0293800Y0106800D03*
X0238800Y0156800D03*
X0268800Y0186800D03*
X0293800Y0186800D03*
X0293800Y0176800D03*
X0323800Y0176800D03*
X0323800Y0186800D03*
X0108800Y0056800D03*
X0108800Y0026800D03*
D16*
X0043800Y0011800D02*
X0043800Y0146800D01*
X0043800Y0176800D02*
X0033800Y0176800D01*
X0033800Y0211800D01*
X0033800Y0176800D01*
X0043800Y0176800D01*
X0043800Y0176800D01*
X0043800Y0211800D01*
X0033800Y0211800D01*
X0043800Y0211800D01*
X0043800Y0211800D01*
X0043800Y0211800D01*
X0043800Y0206400D01*
X0043375Y0206400D01*
X0042535Y0206533D01*
X0041727Y0206796D01*
X0040970Y0207182D01*
X0040282Y0207681D01*
X0039681Y0208282D01*
X0039182Y0208970D01*
X0038987Y0209351D01*
X0036037Y0206400D01*
X0033800Y0206400D01*
X0033800Y0211800D01*
X0033800Y0211800D01*
X0033800Y0211800D01*
X0043800Y0211800D01*
X0043800Y0209703D02*
X0043800Y0209703D01*
X0043800Y0206505D02*
X0043800Y0206505D01*
X0042714Y0206505D02*
X0036141Y0206505D01*
X0033800Y0206505D02*
X0033800Y0206505D01*
X0033800Y0209703D02*
X0033800Y0209703D01*
X0033800Y0203306D02*
X0043800Y0203306D01*
X0043800Y0200108D02*
X0033800Y0200108D01*
X0033800Y0196909D02*
X0043800Y0196909D01*
X0043800Y0193711D02*
X0033800Y0193711D01*
X0033800Y0190512D02*
X0043800Y0190512D01*
X0043800Y0187314D02*
X0033800Y0187314D01*
X0033800Y0184115D02*
X0043800Y0184115D01*
X0043800Y0182000D02*
X0041646Y0182000D01*
X0038600Y0178954D01*
X0038600Y0176800D01*
X0043800Y0176800D01*
X0043800Y0182000D01*
X0043800Y0180917D02*
X0043800Y0180917D01*
X0043800Y0177718D02*
X0043800Y0177718D01*
X0043800Y0176800D02*
X0043800Y0176800D01*
X0040563Y0180917D02*
X0033800Y0180917D01*
X0033800Y0177718D02*
X0038600Y0177718D01*
X0033800Y0221800D02*
X0043800Y0221800D01*
X0043800Y0231800D02*
X0033800Y0231800D01*
X0033800Y0241800D02*
X0043800Y0241800D01*
X0043800Y0251800D02*
X0033800Y0251800D01*
X0033800Y0261800D02*
X0043800Y0261800D01*
X0063800Y0261800D01*
X0063800Y0286800D01*
X0123800Y0286800D01*
X0043800Y0271800D02*
X0033800Y0271800D01*
X0323800Y0251800D02*
X0333800Y0251800D01*
X0333800Y0261800D01*
X0333800Y0271800D02*
X0368800Y0271800D01*
X0368800Y0206800D01*
X0333800Y0206800D01*
X0333800Y0196800D02*
X0333800Y0186800D01*
X0323800Y0186800D01*
X0368800Y0206800D02*
X0368800Y0136800D01*
X0333800Y0136800D01*
X0333800Y0126800D02*
X0333800Y0116800D01*
X0323800Y0116800D01*
X0368800Y0136800D02*
X0368800Y0061800D01*
X0333800Y0061800D01*
X0333800Y0051800D02*
X0333800Y0041800D01*
X0328800Y0041800D01*
X0323800Y0046800D01*
X0368800Y0061800D02*
X0368800Y0011800D01*
X0223800Y0011800D01*
X0223800Y0031800D01*
X0223800Y0036800D01*
X0223800Y0011800D02*
X0043800Y0011800D01*
D17*
X0023800Y0001800D02*
X0378800Y0001800D01*
X0023800Y0001800D01*
X0023800Y0306800D01*
X0226238Y0306800D01*
X0225628Y0306547D01*
X0220628Y0301547D01*
X0219053Y0299972D01*
X0218200Y0297914D01*
X0218200Y0287400D01*
X0214865Y0287400D01*
X0216200Y0288735D01*
X0216200Y0294865D01*
X0211865Y0299200D01*
X0205735Y0299200D01*
X0203935Y0297400D01*
X0198665Y0297400D01*
X0196865Y0299200D01*
X0190735Y0299200D01*
X0188935Y0297400D01*
X0172686Y0297400D01*
X0170628Y0296547D01*
X0170073Y0295992D01*
X0166865Y0299200D01*
X0160735Y0299200D01*
X0156400Y0294865D01*
X0156400Y0294200D01*
X0150735Y0294200D01*
X0146400Y0289865D01*
X0146400Y0283735D01*
X0147239Y0282896D01*
X0146400Y0280872D01*
X0146400Y0272728D01*
X0147527Y0270008D01*
X0149608Y0267927D01*
X0152328Y0266800D01*
X0155272Y0266800D01*
X0157992Y0267927D01*
X0158200Y0268135D01*
X0158200Y0260686D01*
X0158459Y0260060D01*
X0156972Y0261547D01*
X0154914Y0262400D01*
X0072686Y0262400D01*
X0070628Y0261547D01*
X0070200Y0261120D01*
X0070200Y0280400D01*
X0119735Y0280400D01*
X0120735Y0279400D01*
X0126865Y0279400D01*
X0131200Y0283735D01*
X0131200Y0289865D01*
X0126865Y0294200D01*
X0120735Y0294200D01*
X0119735Y0293200D01*
X0062527Y0293200D01*
X0060175Y0292226D01*
X0058374Y0290425D01*
X0057400Y0288073D01*
X0057400Y0268200D01*
X0050948Y0268200D01*
X0051400Y0268652D01*
X0051400Y0274948D01*
X0046948Y0279400D01*
X0040652Y0279400D01*
X0039452Y0278200D01*
X0038148Y0278200D01*
X0036948Y0279400D01*
X0030652Y0279400D01*
X0026200Y0274948D01*
X0026200Y0268652D01*
X0028052Y0266800D01*
X0026200Y0264948D01*
X0026200Y0258652D01*
X0028052Y0256800D01*
X0026200Y0254948D01*
X0026200Y0248652D01*
X0028052Y0246800D01*
X0026200Y0244948D01*
X0026200Y0238652D01*
X0028052Y0236800D01*
X0026200Y0234948D01*
X0026200Y0228652D01*
X0028052Y0226800D01*
X0026200Y0224948D01*
X0026200Y0218652D01*
X0028052Y0216800D01*
X0026200Y0214948D01*
X0026200Y0208652D01*
X0027400Y0207452D01*
X0027400Y0175527D01*
X0028374Y0173175D01*
X0030175Y0171374D01*
X0032527Y0170400D01*
X0039735Y0170400D01*
X0040735Y0169400D01*
X0046865Y0169400D01*
X0048200Y0170735D01*
X0048200Y0055686D01*
X0049053Y0053628D01*
X0050628Y0052053D01*
X0052686Y0051200D01*
X0069501Y0051200D01*
X0069835Y0050866D01*
X0072408Y0049800D01*
X0075192Y0049800D01*
X0077765Y0050866D01*
X0078200Y0051301D01*
X0078200Y0035686D01*
X0079053Y0033628D01*
X0080628Y0032053D01*
X0082686Y0031200D01*
X0164914Y0031200D01*
X0166972Y0032053D01*
X0168547Y0033628D01*
X0169400Y0035686D01*
X0169400Y0038135D01*
X0169608Y0037927D01*
X0172328Y0036800D01*
X0175272Y0036800D01*
X0177992Y0037927D01*
X0178200Y0038135D01*
X0178200Y0035686D01*
X0179053Y0033628D01*
X0180628Y0032053D01*
X0182686Y0031200D01*
X0188935Y0031200D01*
X0190735Y0029400D01*
X0196865Y0029400D01*
X0201200Y0033735D01*
X0201200Y0039865D01*
X0196865Y0044200D01*
X0191200Y0044200D01*
X0191200Y0050872D01*
X0190073Y0053592D01*
X0187992Y0055673D01*
X0185272Y0056800D01*
X0182328Y0056800D01*
X0179608Y0055673D01*
X0179400Y0055465D01*
X0179400Y0062914D01*
X0178547Y0064972D01*
X0176972Y0066547D01*
X0175817Y0067026D01*
X0177992Y0067927D01*
X0178800Y0068735D01*
X0179608Y0067927D01*
X0182328Y0066800D01*
X0185272Y0066800D01*
X0187992Y0067927D01*
X0190073Y0070008D01*
X0190567Y0071200D01*
X0203200Y0071200D01*
X0203200Y0050686D01*
X0204053Y0048628D01*
X0205628Y0047053D01*
X0207686Y0046200D01*
X0247735Y0046200D01*
X0246400Y0044865D01*
X0246400Y0038735D01*
X0250735Y0034400D01*
X0256865Y0034400D01*
X0258665Y0036200D01*
X0279914Y0036200D01*
X0281972Y0037053D01*
X0286120Y0041200D01*
X0288935Y0041200D01*
X0290735Y0039400D01*
X0296865Y0039400D01*
X0301200Y0043735D01*
X0301200Y0049865D01*
X0296865Y0054200D01*
X0290735Y0054200D01*
X0288935Y0052400D01*
X0282686Y0052400D01*
X0280628Y0051547D01*
X0279053Y0049972D01*
X0276480Y0047400D01*
X0259400Y0047400D01*
X0259400Y0052914D01*
X0258547Y0054972D01*
X0256972Y0056547D01*
X0254914Y0057400D01*
X0214400Y0057400D01*
X0214400Y0077914D01*
X0213547Y0079972D01*
X0212992Y0080527D01*
X0216200Y0083735D01*
X0216200Y0089865D01*
X0214865Y0091200D01*
X0232735Y0091200D01*
X0231400Y0089865D01*
X0231400Y0083735D01*
X0235735Y0079400D01*
X0241865Y0079400D01*
X0243665Y0081200D01*
X0263200Y0081200D01*
X0263200Y0071099D01*
X0262866Y0070765D01*
X0262137Y0069006D01*
X0261907Y0069350D01*
X0261350Y0069907D01*
X0260695Y0070345D01*
X0259967Y0070646D01*
X0259194Y0070800D01*
X0258800Y0070800D01*
X0258800Y0066800D01*
X0258800Y0056800D01*
X0303800Y0056800D01*
X0303800Y0036800D01*
X0283800Y0036800D01*
X0283800Y0031800D01*
X0223800Y0031800D01*
X0223800Y0032400D02*
X0225623Y0032400D01*
X0228200Y0034977D01*
X0228200Y0036800D01*
X0228200Y0038623D01*
X0227523Y0039300D01*
X0228200Y0039977D01*
X0228200Y0041800D01*
X0228200Y0043623D01*
X0225623Y0046200D01*
X0223800Y0046200D01*
X0223800Y0041800D01*
X0223800Y0036800D01*
X0228200Y0036800D01*
X0223800Y0036800D01*
X0223800Y0036800D01*
X0223800Y0036800D01*
X0223800Y0041800D01*
X0223800Y0041800D01*
X0228200Y0041800D01*
X0223800Y0041800D01*
X0223800Y0041800D01*
X0223800Y0041800D01*
X0219400Y0041800D01*
X0219400Y0043623D01*
X0221977Y0046200D01*
X0223800Y0046200D01*
X0223800Y0041800D01*
X0223800Y0041800D01*
X0219400Y0041800D01*
X0219400Y0039977D01*
X0220077Y0039300D01*
X0219400Y0038623D01*
X0219400Y0036800D01*
X0223800Y0036800D01*
X0223800Y0036800D01*
X0223800Y0032400D01*
X0223800Y0036800D01*
X0223800Y0036800D01*
X0223800Y0041200D01*
X0223800Y0041800D01*
X0223800Y0041763D02*
X0223800Y0041763D01*
X0223800Y0043361D02*
X0223800Y0043361D01*
X0223800Y0044960D02*
X0223800Y0044960D01*
X0226863Y0044960D02*
X0246495Y0044960D01*
X0246400Y0043361D02*
X0228200Y0043361D01*
X0228200Y0041763D02*
X0246400Y0041763D01*
X0246400Y0040164D02*
X0228200Y0040164D01*
X0228200Y0038566D02*
X0246569Y0038566D01*
X0248168Y0036967D02*
X0228200Y0036967D01*
X0228200Y0035369D02*
X0249766Y0035369D01*
X0253800Y0041800D02*
X0278800Y0041800D01*
X0283800Y0046800D01*
X0293800Y0046800D01*
X0299711Y0051354D02*
X0305700Y0051354D01*
X0305700Y0052952D02*
X0298113Y0052952D01*
X0301200Y0049755D02*
X0305700Y0049755D01*
X0305700Y0048157D02*
X0301200Y0048157D01*
X0301200Y0046558D02*
X0305700Y0046558D01*
X0305700Y0044960D02*
X0301200Y0044960D01*
X0300826Y0043361D02*
X0305700Y0043361D01*
X0305700Y0041763D02*
X0299228Y0041763D01*
X0297629Y0040164D02*
X0305700Y0040164D01*
X0305700Y0038566D02*
X0283485Y0038566D01*
X0285084Y0040164D02*
X0289971Y0040164D01*
X0290735Y0034200D02*
X0286400Y0029865D01*
X0286400Y0023735D01*
X0288200Y0021935D01*
X0288200Y0020686D01*
X0289053Y0018628D01*
X0290628Y0017053D01*
X0292686Y0016200D01*
X0312414Y0016200D01*
X0314472Y0017053D01*
X0316047Y0018628D01*
X0316900Y0020686D01*
X0316900Y0023235D01*
X0320735Y0019400D01*
X0326865Y0019400D01*
X0331200Y0023735D01*
X0331200Y0024000D01*
X0338352Y0024000D01*
X0341218Y0025187D01*
X0343413Y0027382D01*
X0344600Y0030248D01*
X0344600Y0033352D01*
X0343413Y0036218D01*
X0342831Y0036800D01*
X0343413Y0037382D01*
X0344600Y0040248D01*
X0344600Y0043352D01*
X0343413Y0046218D01*
X0342831Y0046800D01*
X0343413Y0047382D01*
X0344600Y0050248D01*
X0344600Y0053352D01*
X0343413Y0056218D01*
X0341218Y0058413D01*
X0340491Y0058714D01*
X0340905Y0059284D01*
X0341248Y0059957D01*
X0341482Y0060676D01*
X0341600Y0061422D01*
X0341600Y0061600D01*
X0334000Y0061600D01*
X0334000Y0062000D01*
X0333600Y0062000D01*
X0333600Y0066600D01*
X0330422Y0066600D01*
X0329676Y0066482D01*
X0328957Y0066248D01*
X0328284Y0065905D01*
X0327673Y0065461D01*
X0327139Y0064927D01*
X0326695Y0064316D01*
X0326352Y0063643D01*
X0326118Y0062924D01*
X0326000Y0062178D01*
X0326000Y0062000D01*
X0333600Y0062000D01*
X0333600Y0061600D01*
X0326000Y0061600D01*
X0326000Y0061422D01*
X0326118Y0060676D01*
X0326352Y0059957D01*
X0326695Y0059284D01*
X0327109Y0058714D01*
X0326382Y0058413D01*
X0324187Y0056218D01*
X0323351Y0054200D01*
X0320735Y0054200D01*
X0316900Y0050365D01*
X0316900Y0067914D01*
X0316047Y0069972D01*
X0314472Y0071547D01*
X0312414Y0072400D01*
X0283099Y0072400D01*
X0282765Y0072734D01*
X0280192Y0073800D01*
X0277408Y0073800D01*
X0274835Y0072734D01*
X0274400Y0072299D01*
X0274400Y0087914D01*
X0273547Y0089972D01*
X0271972Y0091547D01*
X0269914Y0092400D01*
X0267320Y0092400D01*
X0268547Y0093628D01*
X0269400Y0095686D01*
X0269400Y0111200D01*
X0287735Y0111200D01*
X0286400Y0109865D01*
X0286400Y0103735D01*
X0290735Y0099400D01*
X0296865Y0099400D01*
X0298665Y0101200D01*
X0304914Y0101200D01*
X0306972Y0102053D01*
X0308547Y0103628D01*
X0309400Y0105686D01*
X0309400Y0147914D01*
X0308547Y0149972D01*
X0306972Y0151547D01*
X0304914Y0152400D01*
X0283099Y0152400D01*
X0282765Y0152734D01*
X0280192Y0153800D01*
X0277408Y0153800D01*
X0274835Y0152734D01*
X0274400Y0152299D01*
X0274400Y0157914D01*
X0273547Y0159972D01*
X0271972Y0161547D01*
X0269914Y0162400D01*
X0243665Y0162400D01*
X0241865Y0164200D01*
X0235735Y0164200D01*
X0231400Y0159865D01*
X0231400Y0153735D01*
X0235735Y0149400D01*
X0241865Y0149400D01*
X0243665Y0151200D01*
X0263200Y0151200D01*
X0263200Y0151099D01*
X0262866Y0150765D01*
X0262137Y0149006D01*
X0261907Y0149350D01*
X0261350Y0149907D01*
X0260695Y0150345D01*
X0259967Y0150646D01*
X0259194Y0150800D01*
X0258800Y0150800D01*
X0258800Y0146800D01*
X0258800Y0121800D01*
X0253800Y0121800D01*
X0253800Y0106800D01*
X0223800Y0106800D01*
X0228200Y0106800D01*
X0228200Y0108623D01*
X0225623Y0111200D01*
X0223800Y0111200D01*
X0223800Y0106800D01*
X0223800Y0106800D01*
X0223800Y0106800D01*
X0228200Y0106800D01*
X0228200Y0104977D01*
X0225623Y0102400D01*
X0223800Y0102400D01*
X0223800Y0106800D01*
X0223800Y0106800D01*
X0223800Y0106800D01*
X0219400Y0106800D01*
X0219400Y0108623D01*
X0221977Y0111200D01*
X0223800Y0111200D01*
X0223800Y0106800D01*
X0223800Y0102400D01*
X0221977Y0102400D01*
X0219400Y0104977D01*
X0219400Y0106800D01*
X0223800Y0106800D01*
X0223800Y0107302D02*
X0223800Y0107302D01*
X0223800Y0108900D02*
X0223800Y0108900D01*
X0223800Y0110499D02*
X0223800Y0110499D01*
X0226324Y0110499D02*
X0258200Y0110499D01*
X0258200Y0112097D02*
X0214400Y0112097D01*
X0214400Y0110499D02*
X0221276Y0110499D01*
X0219678Y0108900D02*
X0214400Y0108900D01*
X0214400Y0107302D02*
X0219400Y0107302D01*
X0219400Y0105703D02*
X0214400Y0105703D01*
X0214400Y0104105D02*
X0220273Y0104105D01*
X0221871Y0102506D02*
X0214400Y0102506D01*
X0214400Y0102400D02*
X0214400Y0116200D01*
X0218935Y0116200D01*
X0220735Y0114400D01*
X0226865Y0114400D01*
X0231200Y0118735D01*
X0231200Y0124865D01*
X0226865Y0129200D01*
X0220735Y0129200D01*
X0218935Y0127400D01*
X0214400Y0127400D01*
X0214400Y0147914D01*
X0213547Y0149972D01*
X0212992Y0150527D01*
X0216200Y0153735D01*
X0216200Y0159865D01*
X0211865Y0164200D01*
X0205735Y0164200D01*
X0203935Y0162400D01*
X0201200Y0162400D01*
X0201200Y0164865D01*
X0196865Y0169200D01*
X0190735Y0169200D01*
X0186400Y0164865D01*
X0186400Y0162400D01*
X0172686Y0162400D01*
X0171200Y0161784D01*
X0171200Y0164865D01*
X0167992Y0168073D01*
X0168547Y0168628D01*
X0169400Y0170686D01*
X0169400Y0173135D01*
X0169608Y0172927D01*
X0172328Y0171800D01*
X0175272Y0171800D01*
X0177992Y0172927D01*
X0178800Y0173735D01*
X0179608Y0172927D01*
X0182328Y0171800D01*
X0185272Y0171800D01*
X0187992Y0172927D01*
X0190073Y0175008D01*
X0190089Y0175046D01*
X0190735Y0174400D01*
X0196865Y0174400D01*
X0201200Y0178735D01*
X0201200Y0184865D01*
X0196865Y0189200D01*
X0190735Y0189200D01*
X0190089Y0188554D01*
X0190073Y0188592D01*
X0187992Y0190673D01*
X0185272Y0191800D01*
X0182328Y0191800D01*
X0179608Y0190673D01*
X0179400Y0190465D01*
X0179400Y0192914D01*
X0178547Y0194972D01*
X0176972Y0196547D01*
X0174914Y0197400D01*
X0169400Y0197400D01*
X0169400Y0203135D01*
X0169608Y0202927D01*
X0172328Y0201800D01*
X0175272Y0201800D01*
X0177992Y0202927D01*
X0178800Y0203735D01*
X0179608Y0202927D01*
X0182328Y0201800D01*
X0185272Y0201800D01*
X0187992Y0202927D01*
X0190073Y0205008D01*
X0190567Y0206200D01*
X0203200Y0206200D01*
X0203200Y0195686D01*
X0204053Y0193628D01*
X0205628Y0192053D01*
X0207686Y0191200D01*
X0262735Y0191200D01*
X0261400Y0189865D01*
X0261400Y0183735D01*
X0265735Y0179400D01*
X0271865Y0179400D01*
X0273665Y0181200D01*
X0287735Y0181200D01*
X0286400Y0179865D01*
X0286400Y0173735D01*
X0290735Y0169400D01*
X0296865Y0169400D01*
X0298665Y0171200D01*
X0304914Y0171200D01*
X0306972Y0172053D01*
X0308547Y0173628D01*
X0309400Y0175686D01*
X0309400Y0207914D01*
X0308547Y0209972D01*
X0306972Y0211547D01*
X0304914Y0212400D01*
X0283099Y0212400D01*
X0282765Y0212734D01*
X0280192Y0213800D01*
X0277408Y0213800D01*
X0274835Y0212734D01*
X0274400Y0212299D01*
X0274400Y0227914D01*
X0273547Y0229972D01*
X0271972Y0231547D01*
X0269914Y0232400D01*
X0238665Y0232400D01*
X0236865Y0234200D01*
X0230735Y0234200D01*
X0226400Y0229865D01*
X0226400Y0223735D01*
X0230735Y0219400D01*
X0236865Y0219400D01*
X0238665Y0221200D01*
X0263200Y0221200D01*
X0263200Y0211099D01*
X0262866Y0210765D01*
X0262137Y0209006D01*
X0261907Y0209350D01*
X0261350Y0209907D01*
X0260695Y0210345D01*
X0259967Y0210646D01*
X0259194Y0210800D01*
X0258800Y0210800D01*
X0258800Y0206800D01*
X0223800Y0206800D01*
X0223800Y0246800D01*
X0243800Y0246800D01*
X0243800Y0251800D01*
X0248200Y0251800D01*
X0248200Y0253623D01*
X0245623Y0256200D01*
X0243800Y0256200D01*
X0243800Y0251800D01*
X0243800Y0251800D01*
X0243800Y0251800D01*
X0248200Y0251800D01*
X0248200Y0249977D01*
X0245623Y0247400D01*
X0243800Y0247400D01*
X0243800Y0251800D01*
X0243800Y0251800D01*
X0243800Y0251800D01*
X0239400Y0251800D01*
X0239400Y0253623D01*
X0241977Y0256200D01*
X0243800Y0256200D01*
X0243800Y0251800D01*
X0243800Y0247400D01*
X0241977Y0247400D01*
X0239400Y0249977D01*
X0239400Y0251800D01*
X0243800Y0251800D01*
X0243800Y0251168D02*
X0243800Y0251168D01*
X0243800Y0252766D02*
X0243800Y0252766D01*
X0243800Y0254365D02*
X0243800Y0254365D01*
X0243800Y0255963D02*
X0243800Y0255963D01*
X0245859Y0255963D02*
X0267498Y0255963D01*
X0266400Y0254865D02*
X0270735Y0259200D01*
X0273816Y0259200D01*
X0273200Y0260686D01*
X0273200Y0271301D01*
X0272765Y0270866D01*
X0270192Y0269800D01*
X0267408Y0269800D01*
X0264835Y0270866D01*
X0262866Y0272835D01*
X0262137Y0274594D01*
X0261907Y0274250D01*
X0261350Y0273693D01*
X0260695Y0273255D01*
X0259967Y0272954D01*
X0259194Y0272800D01*
X0258800Y0272800D01*
X0258800Y0276800D01*
X0258800Y0266800D01*
X0223800Y0266800D01*
X0223800Y0246800D01*
X0228200Y0246800D01*
X0228200Y0248623D01*
X0225623Y0251200D01*
X0223800Y0251200D01*
X0223800Y0246800D01*
X0223800Y0246800D01*
X0223800Y0246800D01*
X0228200Y0246800D01*
X0228200Y0244977D01*
X0225623Y0242400D01*
X0223800Y0242400D01*
X0223800Y0246800D01*
X0223800Y0246800D01*
X0223800Y0246800D01*
X0219400Y0246800D01*
X0219400Y0248623D01*
X0221977Y0251200D01*
X0223800Y0251200D01*
X0223800Y0246800D01*
X0223800Y0242400D01*
X0221977Y0242400D01*
X0219400Y0244977D01*
X0219400Y0246800D01*
X0223800Y0246800D01*
X0223800Y0246372D02*
X0223800Y0246372D01*
X0223800Y0244774D02*
X0223800Y0244774D01*
X0223800Y0243175D02*
X0223800Y0243175D01*
X0226398Y0243175D02*
X0323000Y0243175D01*
X0323000Y0243352D02*
X0323000Y0240248D01*
X0324187Y0237382D01*
X0326382Y0235187D01*
X0329248Y0234000D01*
X0338352Y0234000D01*
X0341218Y0235187D01*
X0343413Y0237382D01*
X0344600Y0240248D01*
X0344600Y0243352D01*
X0343413Y0246218D01*
X0342831Y0246800D01*
X0343413Y0247382D01*
X0344600Y0250248D01*
X0344600Y0253352D01*
X0343413Y0256218D01*
X0342831Y0256800D01*
X0343413Y0257382D01*
X0344600Y0260248D01*
X0344600Y0263352D01*
X0343413Y0266218D01*
X0341218Y0268413D01*
X0340491Y0268714D01*
X0340905Y0269284D01*
X0341248Y0269957D01*
X0341482Y0270676D01*
X0341600Y0271422D01*
X0341600Y0271600D01*
X0334000Y0271600D01*
X0334000Y0272000D01*
X0333600Y0272000D01*
X0333600Y0276600D01*
X0330422Y0276600D01*
X0329676Y0276482D01*
X0328957Y0276248D01*
X0328284Y0275905D01*
X0327673Y0275461D01*
X0327139Y0274927D01*
X0326695Y0274316D01*
X0326352Y0273643D01*
X0326118Y0272924D01*
X0326000Y0272178D01*
X0326000Y0272000D01*
X0333600Y0272000D01*
X0333600Y0271600D01*
X0326000Y0271600D01*
X0326000Y0271422D01*
X0326118Y0270676D01*
X0326352Y0269957D01*
X0326695Y0269284D01*
X0327109Y0268714D01*
X0326382Y0268413D01*
X0324187Y0266218D01*
X0323000Y0263352D01*
X0323000Y0260248D01*
X0323434Y0259200D01*
X0321200Y0259200D01*
X0321200Y0264865D01*
X0316865Y0269200D01*
X0310735Y0269200D01*
X0306400Y0264865D01*
X0306400Y0258735D01*
X0310735Y0254400D01*
X0316400Y0254400D01*
X0316400Y0248735D01*
X0320735Y0244400D01*
X0323434Y0244400D01*
X0323000Y0243352D01*
X0323000Y0241577D02*
X0199042Y0241577D01*
X0200640Y0243175D02*
X0221202Y0243175D01*
X0219604Y0244774D02*
X0201200Y0244774D01*
X0201200Y0243735D02*
X0201200Y0249865D01*
X0196865Y0254200D01*
X0190735Y0254200D01*
X0190089Y0253554D01*
X0190073Y0253592D01*
X0187992Y0255673D01*
X0185272Y0256800D01*
X0182328Y0256800D01*
X0179608Y0255673D01*
X0179400Y0255465D01*
X0179400Y0262914D01*
X0178547Y0264972D01*
X0176972Y0266547D01*
X0175817Y0267026D01*
X0177992Y0267927D01*
X0178800Y0268735D01*
X0179608Y0267927D01*
X0182328Y0266800D01*
X0185272Y0266800D01*
X0187992Y0267927D01*
X0190073Y0270008D01*
X0191200Y0272728D01*
X0191200Y0276200D01*
X0224914Y0276200D01*
X0226972Y0277053D01*
X0228547Y0278628D01*
X0229400Y0280686D01*
X0229400Y0294480D01*
X0231120Y0296200D01*
X0232735Y0296200D01*
X0231400Y0294865D01*
X0231400Y0288735D01*
X0233200Y0286935D01*
X0233200Y0283186D01*
X0234053Y0281128D01*
X0235628Y0279553D01*
X0237686Y0278700D01*
X0255259Y0278700D01*
X0255255Y0278695D01*
X0254954Y0277967D01*
X0254800Y0277194D01*
X0254800Y0276800D01*
X0258800Y0276800D01*
X0258800Y0276800D01*
X0258800Y0276800D01*
X0258800Y0272800D01*
X0258406Y0272800D01*
X0257633Y0272954D01*
X0256905Y0273255D01*
X0256250Y0273693D01*
X0255693Y0274250D01*
X0255255Y0274905D01*
X0254954Y0275633D01*
X0254800Y0276406D01*
X0254800Y0276800D01*
X0258800Y0276800D01*
X0258800Y0276744D02*
X0258800Y0276744D01*
X0258800Y0275145D02*
X0258800Y0275145D01*
X0258800Y0273547D02*
X0258800Y0273547D01*
X0261131Y0273547D02*
X0262571Y0273547D01*
X0263752Y0271948D02*
X0190877Y0271948D01*
X0191200Y0273547D02*
X0256469Y0273547D01*
X0255156Y0275145D02*
X0191200Y0275145D01*
X0190215Y0270350D02*
X0266080Y0270350D01*
X0271520Y0270350D02*
X0273200Y0270350D01*
X0273200Y0268751D02*
X0188817Y0268751D01*
X0186124Y0267153D02*
X0273200Y0267153D01*
X0273200Y0265554D02*
X0177965Y0265554D01*
X0178968Y0263956D02*
X0273200Y0263956D01*
X0273200Y0262357D02*
X0179400Y0262357D01*
X0179400Y0260759D02*
X0273200Y0260759D01*
X0270695Y0259160D02*
X0179400Y0259160D01*
X0179400Y0257562D02*
X0269097Y0257562D01*
X0266400Y0254865D02*
X0266400Y0248735D01*
X0270735Y0244400D01*
X0276865Y0244400D01*
X0278665Y0246200D01*
X0288935Y0246200D01*
X0290735Y0244400D01*
X0296865Y0244400D01*
X0301200Y0248735D01*
X0301200Y0254865D01*
X0299400Y0256665D01*
X0299400Y0297914D01*
X0298547Y0299972D01*
X0293547Y0304972D01*
X0291972Y0306547D01*
X0291362Y0306800D01*
X0378800Y0306800D01*
X0378800Y0001800D01*
X0378800Y0003399D02*
X0023800Y0003399D01*
X0023800Y0004997D02*
X0378800Y0004997D01*
X0378800Y0006596D02*
X0023800Y0006596D01*
X0023800Y0008194D02*
X0378800Y0008194D01*
X0378800Y0009793D02*
X0023800Y0009793D01*
X0023800Y0011391D02*
X0378800Y0011391D01*
X0378800Y0012990D02*
X0023800Y0012990D01*
X0023800Y0014588D02*
X0378800Y0014588D01*
X0378800Y0016187D02*
X0023800Y0016187D01*
X0023800Y0017785D02*
X0289895Y0017785D01*
X0288739Y0019384D02*
X0023800Y0019384D01*
X0023800Y0020982D02*
X0288200Y0020982D01*
X0287554Y0022581D02*
X0110803Y0022581D01*
X0110623Y0022400D02*
X0113200Y0024977D01*
X0113200Y0026800D01*
X0113200Y0028623D01*
X0110623Y0031200D01*
X0108800Y0031200D01*
X0108800Y0026800D01*
X0108800Y0026800D01*
X0113200Y0026800D01*
X0108800Y0026800D01*
X0108800Y0026800D01*
X0108800Y0026800D01*
X0104400Y0026800D01*
X0104400Y0028623D01*
X0106977Y0031200D01*
X0108800Y0031200D01*
X0108800Y0026800D01*
X0108800Y0022400D01*
X0110623Y0022400D01*
X0108800Y0022400D02*
X0108800Y0026800D01*
X0108800Y0026800D01*
X0104400Y0026800D01*
X0104400Y0024977D01*
X0106977Y0022400D01*
X0108800Y0022400D01*
X0108800Y0022581D02*
X0108800Y0022581D01*
X0108800Y0024179D02*
X0108800Y0024179D01*
X0108800Y0025778D02*
X0108800Y0025778D01*
X0108800Y0027376D02*
X0108800Y0027376D01*
X0108800Y0028975D02*
X0108800Y0028975D01*
X0108800Y0030573D02*
X0108800Y0030573D01*
X0111249Y0030573D02*
X0189562Y0030573D01*
X0193800Y0036800D02*
X0183800Y0036800D01*
X0183800Y0046800D01*
X0191200Y0046558D02*
X0206821Y0046558D01*
X0204524Y0048157D02*
X0191200Y0048157D01*
X0191200Y0049755D02*
X0203586Y0049755D01*
X0203200Y0051354D02*
X0191000Y0051354D01*
X0190338Y0052952D02*
X0203200Y0052952D01*
X0203200Y0054551D02*
X0189114Y0054551D01*
X0186843Y0056149D02*
X0203200Y0056149D01*
X0203200Y0057748D02*
X0179400Y0057748D01*
X0179400Y0059346D02*
X0203200Y0059346D01*
X0203200Y0060945D02*
X0179400Y0060945D01*
X0179400Y0062543D02*
X0203200Y0062543D01*
X0203200Y0064142D02*
X0178891Y0064142D01*
X0177779Y0065740D02*
X0203200Y0065740D01*
X0203200Y0067339D02*
X0186573Y0067339D01*
X0189003Y0068937D02*
X0203200Y0068937D01*
X0203200Y0070536D02*
X0190292Y0070536D01*
X0183800Y0076800D02*
X0208800Y0076800D01*
X0208800Y0051800D01*
X0253800Y0051800D01*
X0253800Y0041800D01*
X0257834Y0035369D02*
X0305700Y0035369D01*
X0305700Y0036967D02*
X0281766Y0036967D01*
X0288707Y0032172D02*
X0199637Y0032172D01*
X0201200Y0033770D02*
X0220607Y0033770D01*
X0219400Y0034977D02*
X0221977Y0032400D01*
X0223800Y0032400D01*
X0223800Y0033770D02*
X0223800Y0033770D01*
X0223800Y0035369D02*
X0223800Y0035369D01*
X0223800Y0036800D02*
X0219400Y0036800D01*
X0219400Y0034977D01*
X0219400Y0035369D02*
X0201200Y0035369D01*
X0201200Y0036967D02*
X0219400Y0036967D01*
X0219400Y0038566D02*
X0201200Y0038566D01*
X0200901Y0040164D02*
X0219400Y0040164D01*
X0219400Y0041763D02*
X0199302Y0041763D01*
X0197704Y0043361D02*
X0219400Y0043361D01*
X0220737Y0044960D02*
X0191200Y0044960D01*
X0178200Y0036967D02*
X0175676Y0036967D01*
X0178331Y0035369D02*
X0169269Y0035369D01*
X0169400Y0036967D02*
X0171924Y0036967D01*
X0168606Y0033770D02*
X0178994Y0033770D01*
X0180509Y0032172D02*
X0167091Y0032172D01*
X0163800Y0036800D02*
X0163800Y0046800D01*
X0173800Y0046800D02*
X0173800Y0061800D01*
X0163800Y0061800D01*
X0163800Y0076800D01*
X0163800Y0091800D01*
X0159246Y0097711D02*
X0059400Y0097711D01*
X0059400Y0099309D02*
X0203200Y0099309D01*
X0203200Y0097711D02*
X0198354Y0097711D01*
X0196865Y0099200D02*
X0190735Y0099200D01*
X0188935Y0097400D01*
X0172686Y0097400D01*
X0170628Y0096547D01*
X0170073Y0095992D01*
X0166865Y0099200D01*
X0160735Y0099200D01*
X0156400Y0094865D01*
X0156400Y0094200D01*
X0150735Y0094200D01*
X0146400Y0089865D01*
X0146400Y0083735D01*
X0147239Y0082896D01*
X0146400Y0080872D01*
X0146400Y0072728D01*
X0146536Y0072400D01*
X0072686Y0072400D01*
X0070628Y0071547D01*
X0069053Y0069972D01*
X0068200Y0067914D01*
X0068200Y0065686D01*
X0068200Y0062400D01*
X0059400Y0062400D01*
X0059400Y0128280D01*
X0060628Y0127053D01*
X0062686Y0126200D01*
X0068200Y0126200D01*
X0068200Y0126099D01*
X0067866Y0125765D01*
X0066800Y0123192D01*
X0066800Y0120408D01*
X0067866Y0117835D01*
X0069835Y0115866D01*
X0072408Y0114800D01*
X0075192Y0114800D01*
X0077765Y0115866D01*
X0078200Y0116301D01*
X0078200Y0105686D01*
X0079053Y0103628D01*
X0080628Y0102053D01*
X0082686Y0101200D01*
X0164914Y0101200D01*
X0166972Y0102053D01*
X0168547Y0103628D01*
X0169400Y0105686D01*
X0169400Y0108135D01*
X0169608Y0107927D01*
X0172328Y0106800D01*
X0175272Y0106800D01*
X0177992Y0107927D01*
X0178200Y0108135D01*
X0178200Y0105686D01*
X0179053Y0103628D01*
X0180628Y0102053D01*
X0182686Y0101200D01*
X0188935Y0101200D01*
X0190735Y0099400D01*
X0196865Y0099400D01*
X0201200Y0103735D01*
X0201200Y0109865D01*
X0196865Y0114200D01*
X0191200Y0114200D01*
X0191200Y0120872D01*
X0190073Y0123592D01*
X0187992Y0125673D01*
X0185272Y0126800D01*
X0182328Y0126800D01*
X0179608Y0125673D01*
X0179400Y0125465D01*
X0179400Y0127914D01*
X0178547Y0129972D01*
X0176972Y0131547D01*
X0174914Y0132400D01*
X0169400Y0132400D01*
X0169400Y0138135D01*
X0169608Y0137927D01*
X0172328Y0136800D01*
X0175272Y0136800D01*
X0177992Y0137927D01*
X0178800Y0138735D01*
X0179608Y0137927D01*
X0182328Y0136800D01*
X0185272Y0136800D01*
X0187992Y0137927D01*
X0190073Y0140008D01*
X0190567Y0141200D01*
X0203200Y0141200D01*
X0203200Y0095686D01*
X0204053Y0093628D01*
X0204608Y0093073D01*
X0203935Y0092400D01*
X0201200Y0092400D01*
X0201200Y0094865D01*
X0196865Y0099200D01*
X0198373Y0100908D02*
X0203200Y0100908D01*
X0203200Y0102506D02*
X0199971Y0102506D01*
X0201200Y0104105D02*
X0203200Y0104105D01*
X0203200Y0105703D02*
X0201200Y0105703D01*
X0201200Y0107302D02*
X0203200Y0107302D01*
X0203200Y0108900D02*
X0201200Y0108900D01*
X0200566Y0110499D02*
X0203200Y0110499D01*
X0203200Y0112097D02*
X0198968Y0112097D01*
X0197369Y0113696D02*
X0203200Y0113696D01*
X0203200Y0115294D02*
X0191200Y0115294D01*
X0191200Y0116893D02*
X0203200Y0116893D01*
X0203200Y0118491D02*
X0191200Y0118491D01*
X0191200Y0120090D02*
X0203200Y0120090D01*
X0203200Y0121688D02*
X0190862Y0121688D01*
X0190200Y0123287D02*
X0203200Y0123287D01*
X0203200Y0124885D02*
X0188780Y0124885D01*
X0186035Y0126484D02*
X0203200Y0126484D01*
X0203200Y0128082D02*
X0179330Y0128082D01*
X0179400Y0126484D02*
X0181565Y0126484D01*
X0178668Y0129681D02*
X0203200Y0129681D01*
X0203200Y0131279D02*
X0177240Y0131279D01*
X0173800Y0126800D02*
X0173800Y0116800D01*
X0163800Y0116800D02*
X0163800Y0106800D01*
X0083800Y0106800D01*
X0083800Y0121800D01*
X0078200Y0115294D02*
X0076386Y0115294D01*
X0078200Y0113696D02*
X0059400Y0113696D01*
X0059400Y0115294D02*
X0071214Y0115294D01*
X0068808Y0116893D02*
X0059400Y0116893D01*
X0059400Y0118491D02*
X0067594Y0118491D01*
X0066932Y0120090D02*
X0059400Y0120090D01*
X0059400Y0121688D02*
X0066800Y0121688D01*
X0066839Y0123287D02*
X0059400Y0123287D01*
X0059400Y0124885D02*
X0067501Y0124885D01*
X0062001Y0126484D02*
X0059400Y0126484D01*
X0059400Y0128082D02*
X0059598Y0128082D01*
X0063800Y0131800D02*
X0073800Y0131800D01*
X0153800Y0131800D01*
X0153800Y0116800D01*
X0163800Y0126800D02*
X0173800Y0126800D01*
X0169400Y0132878D02*
X0203200Y0132878D01*
X0203200Y0134476D02*
X0169400Y0134476D01*
X0169400Y0136075D02*
X0203200Y0136075D01*
X0203200Y0137673D02*
X0187381Y0137673D01*
X0189337Y0139272D02*
X0203200Y0139272D01*
X0203200Y0140870D02*
X0190431Y0140870D01*
X0183800Y0146800D02*
X0208800Y0146800D01*
X0208800Y0121800D01*
X0208800Y0096800D01*
X0263800Y0096800D01*
X0263800Y0116800D01*
X0293800Y0116800D01*
X0288935Y0122400D02*
X0262686Y0122400D01*
X0260628Y0121547D01*
X0259053Y0119972D01*
X0258200Y0117914D01*
X0258200Y0102400D01*
X0214400Y0102400D01*
X0223800Y0102506D02*
X0223800Y0102506D01*
X0223800Y0104105D02*
X0223800Y0104105D01*
X0223800Y0105703D02*
X0223800Y0105703D01*
X0225729Y0102506D02*
X0258200Y0102506D01*
X0258200Y0104105D02*
X0227327Y0104105D01*
X0228200Y0105703D02*
X0258200Y0105703D01*
X0258200Y0107302D02*
X0228200Y0107302D01*
X0227922Y0108900D02*
X0258200Y0108900D01*
X0258200Y0113696D02*
X0214400Y0113696D01*
X0214400Y0115294D02*
X0219841Y0115294D01*
X0223800Y0121800D02*
X0208800Y0121800D01*
X0214400Y0128082D02*
X0219617Y0128082D01*
X0214400Y0129681D02*
X0298200Y0129681D01*
X0298200Y0131279D02*
X0214400Y0131279D01*
X0214400Y0132878D02*
X0298200Y0132878D01*
X0298200Y0134476D02*
X0214400Y0134476D01*
X0214400Y0136075D02*
X0298200Y0136075D01*
X0298200Y0137673D02*
X0214400Y0137673D01*
X0214400Y0139272D02*
X0298200Y0139272D01*
X0298200Y0140870D02*
X0282770Y0140870D01*
X0282765Y0140866D02*
X0283099Y0141200D01*
X0298200Y0141200D01*
X0298200Y0122865D01*
X0296865Y0124200D01*
X0290735Y0124200D01*
X0288935Y0122400D01*
X0289822Y0123287D02*
X0258200Y0123287D01*
X0258200Y0123623D02*
X0258200Y0121800D01*
X0253800Y0121800D01*
X0253800Y0121800D01*
X0253800Y0121800D01*
X0253800Y0126200D01*
X0255623Y0126200D01*
X0258200Y0123623D01*
X0256937Y0124885D02*
X0298200Y0124885D01*
X0298200Y0123287D02*
X0297778Y0123287D01*
X0298200Y0126484D02*
X0229581Y0126484D01*
X0227983Y0128082D02*
X0298200Y0128082D01*
X0309400Y0128082D02*
X0323000Y0128082D01*
X0323000Y0128352D02*
X0323000Y0125248D01*
X0323434Y0124200D01*
X0320735Y0124200D01*
X0316400Y0119865D01*
X0316400Y0113735D01*
X0318335Y0111800D01*
X0316400Y0109865D01*
X0316400Y0103735D01*
X0320735Y0099400D01*
X0326865Y0099400D01*
X0327280Y0099815D01*
X0329248Y0099000D01*
X0338352Y0099000D01*
X0341218Y0100187D01*
X0343413Y0102382D01*
X0344600Y0105248D01*
X0344600Y0108352D01*
X0343413Y0111218D01*
X0342831Y0111800D01*
X0343413Y0112382D01*
X0344600Y0115248D01*
X0344600Y0118352D01*
X0343413Y0121218D01*
X0342831Y0121800D01*
X0343413Y0122382D01*
X0344600Y0125248D01*
X0344600Y0128352D01*
X0343413Y0131218D01*
X0341218Y0133413D01*
X0340491Y0133714D01*
X0340905Y0134284D01*
X0341248Y0134957D01*
X0341482Y0135676D01*
X0341600Y0136422D01*
X0341600Y0136600D01*
X0334000Y0136600D01*
X0334000Y0137000D01*
X0333600Y0137000D01*
X0333600Y0141600D01*
X0330422Y0141600D01*
X0329676Y0141482D01*
X0328957Y0141248D01*
X0328284Y0140905D01*
X0327673Y0140461D01*
X0327139Y0139927D01*
X0326695Y0139316D01*
X0326352Y0138643D01*
X0326118Y0137924D01*
X0326000Y0137178D01*
X0326000Y0137000D01*
X0333600Y0137000D01*
X0333600Y0136600D01*
X0326000Y0136600D01*
X0326000Y0136422D01*
X0326118Y0135676D01*
X0326352Y0134957D01*
X0326695Y0134284D01*
X0327109Y0133714D01*
X0326382Y0133413D01*
X0324187Y0131218D01*
X0323000Y0128352D01*
X0323551Y0129681D02*
X0309400Y0129681D01*
X0309400Y0131279D02*
X0324249Y0131279D01*
X0325847Y0132878D02*
X0309400Y0132878D01*
X0309400Y0134476D02*
X0326597Y0134476D01*
X0326055Y0136075D02*
X0309400Y0136075D01*
X0309400Y0137673D02*
X0326079Y0137673D01*
X0326672Y0139272D02*
X0309400Y0139272D01*
X0309400Y0140870D02*
X0328236Y0140870D01*
X0333600Y0140870D02*
X0334000Y0140870D01*
X0334000Y0141600D02*
X0334000Y0137000D01*
X0341600Y0137000D01*
X0341600Y0137178D01*
X0341482Y0137924D01*
X0341248Y0138643D01*
X0340905Y0139316D01*
X0340461Y0139927D01*
X0339927Y0140461D01*
X0339316Y0140905D01*
X0338643Y0141248D01*
X0337924Y0141482D01*
X0337178Y0141600D01*
X0334000Y0141600D01*
X0334000Y0139272D02*
X0333600Y0139272D01*
X0333600Y0137673D02*
X0334000Y0137673D01*
X0339364Y0140870D02*
X0378800Y0140870D01*
X0378800Y0139272D02*
X0340928Y0139272D01*
X0341521Y0137673D02*
X0378800Y0137673D01*
X0378800Y0136075D02*
X0341545Y0136075D01*
X0341003Y0134476D02*
X0378800Y0134476D01*
X0378800Y0132878D02*
X0341753Y0132878D01*
X0343351Y0131279D02*
X0378800Y0131279D01*
X0378800Y0129681D02*
X0344049Y0129681D01*
X0344600Y0128082D02*
X0378800Y0128082D01*
X0378800Y0126484D02*
X0344600Y0126484D01*
X0344450Y0124885D02*
X0378800Y0124885D01*
X0378800Y0123287D02*
X0343787Y0123287D01*
X0342943Y0121688D02*
X0378800Y0121688D01*
X0378800Y0120090D02*
X0343880Y0120090D01*
X0344542Y0118491D02*
X0378800Y0118491D01*
X0378800Y0116893D02*
X0344600Y0116893D01*
X0344600Y0115294D02*
X0378800Y0115294D01*
X0378800Y0113696D02*
X0343957Y0113696D01*
X0343128Y0112097D02*
X0378800Y0112097D01*
X0378800Y0110499D02*
X0343711Y0110499D01*
X0344373Y0108900D02*
X0378800Y0108900D01*
X0378800Y0107302D02*
X0344600Y0107302D01*
X0344600Y0105703D02*
X0378800Y0105703D01*
X0378800Y0104105D02*
X0344126Y0104105D01*
X0343464Y0102506D02*
X0378800Y0102506D01*
X0378800Y0100908D02*
X0341939Y0100908D01*
X0339098Y0099309D02*
X0378800Y0099309D01*
X0378800Y0097711D02*
X0269400Y0097711D01*
X0269400Y0099309D02*
X0328502Y0099309D01*
X0319227Y0100908D02*
X0298373Y0100908D01*
X0293800Y0106800D02*
X0303800Y0106800D01*
X0303800Y0146800D01*
X0278800Y0146800D01*
X0273800Y0141901D02*
X0274835Y0140866D01*
X0277408Y0139800D01*
X0280192Y0139800D01*
X0282765Y0140866D01*
X0274830Y0140870D02*
X0272770Y0140870D01*
X0272765Y0140866D02*
X0273800Y0141901D01*
X0272765Y0140866D02*
X0270192Y0139800D01*
X0267408Y0139800D01*
X0264835Y0140866D01*
X0262866Y0142835D01*
X0262137Y0144594D01*
X0261907Y0144250D01*
X0261350Y0143693D01*
X0260695Y0143255D01*
X0259967Y0142954D01*
X0259194Y0142800D01*
X0258800Y0142800D01*
X0258800Y0146800D01*
X0258800Y0146800D01*
X0258800Y0146800D01*
X0258800Y0146800D01*
X0254800Y0146800D01*
X0254800Y0147194D01*
X0254954Y0147967D01*
X0255255Y0148695D01*
X0255693Y0149350D01*
X0256250Y0149907D01*
X0256905Y0150345D01*
X0257633Y0150646D01*
X0258406Y0150800D01*
X0258800Y0150800D01*
X0258800Y0146800D01*
X0258800Y0142800D01*
X0258406Y0142800D01*
X0257633Y0142954D01*
X0256905Y0143255D01*
X0256250Y0143693D01*
X0255693Y0144250D01*
X0255255Y0144905D01*
X0254954Y0145633D01*
X0254800Y0146406D01*
X0254800Y0146800D01*
X0258800Y0146800D01*
X0258800Y0147265D02*
X0258800Y0147265D01*
X0258800Y0148863D02*
X0258800Y0148863D01*
X0258800Y0150462D02*
X0258800Y0150462D01*
X0257187Y0150462D02*
X0242927Y0150462D01*
X0238800Y0156800D02*
X0268800Y0156800D01*
X0268800Y0146800D01*
X0263232Y0142469D02*
X0214400Y0142469D01*
X0214400Y0144068D02*
X0255876Y0144068D01*
X0254947Y0145666D02*
X0214400Y0145666D01*
X0214400Y0147265D02*
X0254814Y0147265D01*
X0255368Y0148863D02*
X0214007Y0148863D01*
X0213058Y0150462D02*
X0234673Y0150462D01*
X0233075Y0152060D02*
X0214525Y0152060D01*
X0216124Y0153659D02*
X0231476Y0153659D01*
X0231400Y0155257D02*
X0216200Y0155257D01*
X0216200Y0156856D02*
X0231400Y0156856D01*
X0231400Y0158454D02*
X0216200Y0158454D01*
X0216013Y0160053D02*
X0231587Y0160053D01*
X0233186Y0161651D02*
X0214414Y0161651D01*
X0212816Y0163250D02*
X0234784Y0163250D01*
X0242816Y0163250D02*
X0378800Y0163250D01*
X0378800Y0164848D02*
X0201200Y0164848D01*
X0201200Y0163250D02*
X0204784Y0163250D01*
X0199618Y0166447D02*
X0378800Y0166447D01*
X0378800Y0168045D02*
X0198020Y0168045D01*
X0196904Y0174439D02*
X0286400Y0174439D01*
X0286400Y0176038D02*
X0198503Y0176038D01*
X0200101Y0177636D02*
X0221741Y0177636D01*
X0221977Y0177400D02*
X0223800Y0177400D01*
X0225623Y0177400D01*
X0228200Y0179977D01*
X0228200Y0181800D01*
X0228200Y0183623D01*
X0225623Y0186200D01*
X0223800Y0186200D01*
X0223800Y0181800D01*
X0238800Y0181800D01*
X0238800Y0186800D01*
X0243200Y0186800D01*
X0243200Y0188623D01*
X0240623Y0191200D01*
X0238800Y0191200D01*
X0238800Y0186800D01*
X0238800Y0186800D01*
X0238800Y0186800D01*
X0243200Y0186800D01*
X0243200Y0184977D01*
X0240623Y0182400D01*
X0238800Y0182400D01*
X0238800Y0186800D01*
X0238800Y0186800D01*
X0238800Y0186800D01*
X0234400Y0186800D01*
X0234400Y0188623D01*
X0236977Y0191200D01*
X0238800Y0191200D01*
X0238800Y0186800D01*
X0238800Y0182400D01*
X0236977Y0182400D01*
X0234400Y0184977D01*
X0234400Y0186800D01*
X0238800Y0186800D01*
X0238800Y0187227D02*
X0238800Y0187227D01*
X0238800Y0185629D02*
X0238800Y0185629D01*
X0238800Y0184030D02*
X0238800Y0184030D01*
X0238800Y0182432D02*
X0238800Y0182432D01*
X0240654Y0182432D02*
X0262703Y0182432D01*
X0261400Y0184030D02*
X0242253Y0184030D01*
X0243200Y0185629D02*
X0261400Y0185629D01*
X0261400Y0187227D02*
X0243200Y0187227D01*
X0242997Y0188826D02*
X0261400Y0188826D01*
X0261959Y0190424D02*
X0241398Y0190424D01*
X0238800Y0190424D02*
X0238800Y0190424D01*
X0238800Y0188826D02*
X0238800Y0188826D01*
X0236202Y0190424D02*
X0188241Y0190424D01*
X0189839Y0188826D02*
X0190361Y0188826D01*
X0197239Y0188826D02*
X0234603Y0188826D01*
X0234400Y0187227D02*
X0198838Y0187227D01*
X0200436Y0185629D02*
X0221406Y0185629D01*
X0221977Y0186200D02*
X0219400Y0183623D01*
X0219400Y0181800D01*
X0223800Y0181800D01*
X0228200Y0181800D01*
X0223800Y0181800D01*
X0223800Y0181800D01*
X0223800Y0181800D01*
X0223800Y0177400D01*
X0223800Y0181800D01*
X0223800Y0181800D01*
X0223800Y0181800D01*
X0223800Y0186200D01*
X0221977Y0186200D01*
X0223800Y0185629D02*
X0223800Y0185629D01*
X0223800Y0184030D02*
X0223800Y0184030D01*
X0223800Y0182432D02*
X0223800Y0182432D01*
X0223800Y0181800D02*
X0219400Y0181800D01*
X0219400Y0179977D01*
X0221977Y0177400D01*
X0223800Y0177636D02*
X0223800Y0177636D01*
X0223800Y0179235D02*
X0223800Y0179235D01*
X0223800Y0180833D02*
X0223800Y0180833D01*
X0225859Y0177636D02*
X0286400Y0177636D01*
X0286400Y0179235D02*
X0227457Y0179235D01*
X0228200Y0180833D02*
X0264302Y0180833D01*
X0268800Y0186800D02*
X0268800Y0196800D01*
X0208800Y0196800D01*
X0208800Y0211800D01*
X0183800Y0211800D01*
X0190567Y0217400D02*
X0190073Y0218592D01*
X0187992Y0220673D01*
X0186720Y0221200D01*
X0188935Y0221200D01*
X0190735Y0219400D01*
X0196865Y0219400D01*
X0198665Y0221200D01*
X0198935Y0221200D01*
X0200735Y0219400D01*
X0206865Y0219400D01*
X0211200Y0223735D01*
X0211200Y0229865D01*
X0206865Y0234200D01*
X0200735Y0234200D01*
X0198935Y0232400D01*
X0198665Y0232400D01*
X0196865Y0234200D01*
X0190735Y0234200D01*
X0188935Y0232400D01*
X0172686Y0232400D01*
X0170628Y0231547D01*
X0170073Y0230992D01*
X0167992Y0233073D01*
X0168547Y0233628D01*
X0169400Y0235686D01*
X0169400Y0238135D01*
X0169608Y0237927D01*
X0172328Y0236800D01*
X0175272Y0236800D01*
X0177992Y0237927D01*
X0178800Y0238735D01*
X0179608Y0237927D01*
X0182328Y0236800D01*
X0185272Y0236800D01*
X0187992Y0237927D01*
X0190073Y0240008D01*
X0190089Y0240046D01*
X0190735Y0239400D01*
X0196865Y0239400D01*
X0201200Y0243735D01*
X0201200Y0246372D02*
X0219400Y0246372D01*
X0219400Y0247971D02*
X0201200Y0247971D01*
X0201200Y0249569D02*
X0220347Y0249569D01*
X0221945Y0251168D02*
X0199897Y0251168D01*
X0198299Y0252766D02*
X0239400Y0252766D01*
X0239400Y0251168D02*
X0225655Y0251168D01*
X0223800Y0251168D02*
X0223800Y0251168D01*
X0223800Y0249569D02*
X0223800Y0249569D01*
X0223800Y0247971D02*
X0223800Y0247971D01*
X0227253Y0249569D02*
X0239808Y0249569D01*
X0241407Y0247971D02*
X0228200Y0247971D01*
X0228200Y0246372D02*
X0268763Y0246372D01*
X0270361Y0244774D02*
X0227996Y0244774D01*
X0230119Y0233584D02*
X0207481Y0233584D01*
X0209080Y0231986D02*
X0228520Y0231986D01*
X0226922Y0230387D02*
X0210678Y0230387D01*
X0211200Y0228789D02*
X0226400Y0228789D01*
X0226400Y0227190D02*
X0211200Y0227190D01*
X0211200Y0225592D02*
X0226400Y0225592D01*
X0226400Y0223993D02*
X0211200Y0223993D01*
X0209860Y0222395D02*
X0227740Y0222395D01*
X0229339Y0220796D02*
X0208261Y0220796D01*
X0209914Y0217400D02*
X0190567Y0217400D01*
X0190485Y0217599D02*
X0263200Y0217599D01*
X0263200Y0216001D02*
X0212519Y0216001D01*
X0211972Y0216547D02*
X0209914Y0217400D01*
X0211972Y0216547D02*
X0213547Y0214972D01*
X0214400Y0212914D01*
X0214400Y0202400D01*
X0263301Y0202400D01*
X0262866Y0202835D01*
X0262137Y0204594D01*
X0261907Y0204250D01*
X0261350Y0203693D01*
X0260695Y0203255D01*
X0259967Y0202954D01*
X0259194Y0202800D01*
X0258800Y0202800D01*
X0258800Y0206800D01*
X0258800Y0206800D01*
X0258800Y0206800D01*
X0258800Y0206800D01*
X0254800Y0206800D01*
X0254800Y0207194D01*
X0254954Y0207967D01*
X0255255Y0208695D01*
X0255693Y0209350D01*
X0256250Y0209907D01*
X0256905Y0210345D01*
X0257633Y0210646D01*
X0258406Y0210800D01*
X0258800Y0210800D01*
X0258800Y0206800D01*
X0258800Y0202800D01*
X0258406Y0202800D01*
X0257633Y0202954D01*
X0256905Y0203255D01*
X0256250Y0203693D01*
X0255693Y0204250D01*
X0255255Y0204905D01*
X0254954Y0205633D01*
X0254800Y0206406D01*
X0254800Y0206800D01*
X0258800Y0206800D01*
X0258800Y0206409D02*
X0258800Y0206409D01*
X0258800Y0204811D02*
X0258800Y0204811D01*
X0258800Y0203212D02*
X0258800Y0203212D01*
X0260591Y0203212D02*
X0262709Y0203212D01*
X0257009Y0203212D02*
X0214400Y0203212D01*
X0214400Y0204811D02*
X0255318Y0204811D01*
X0254800Y0206409D02*
X0214400Y0206409D01*
X0214400Y0208008D02*
X0254971Y0208008D01*
X0255950Y0209606D02*
X0214400Y0209606D01*
X0214400Y0211205D02*
X0263200Y0211205D01*
X0263200Y0212803D02*
X0214400Y0212803D01*
X0213784Y0214402D02*
X0263200Y0214402D01*
X0263200Y0219198D02*
X0189468Y0219198D01*
X0189339Y0220796D02*
X0187696Y0220796D01*
X0193800Y0226800D02*
X0203800Y0226800D01*
X0199339Y0220796D02*
X0198261Y0220796D01*
X0193800Y0226800D02*
X0173800Y0226800D01*
X0173800Y0211800D01*
X0163800Y0211800D02*
X0163800Y0191800D01*
X0173800Y0191800D01*
X0173800Y0181800D01*
X0177784Y0172841D02*
X0179816Y0172841D01*
X0187784Y0172841D02*
X0287294Y0172841D01*
X0288893Y0171242D02*
X0169400Y0171242D01*
X0169400Y0172841D02*
X0169816Y0172841D01*
X0163800Y0171800D02*
X0163800Y0181800D01*
X0163800Y0171800D02*
X0083800Y0171800D01*
X0083800Y0181800D01*
X0078200Y0176301D02*
X0077765Y0175866D01*
X0075192Y0174800D01*
X0072408Y0174800D01*
X0069835Y0175866D01*
X0069400Y0176301D01*
X0069400Y0137400D01*
X0072686Y0137400D01*
X0150880Y0137400D01*
X0149608Y0137927D01*
X0147527Y0140008D01*
X0146400Y0142728D01*
X0146400Y0150872D01*
X0147239Y0152896D01*
X0146400Y0153735D01*
X0146400Y0159865D01*
X0150735Y0164200D01*
X0156400Y0164200D01*
X0156400Y0164865D01*
X0157735Y0166200D01*
X0082686Y0166200D01*
X0080628Y0167053D01*
X0079053Y0168628D01*
X0078200Y0170686D01*
X0078200Y0176301D01*
X0078200Y0176038D02*
X0077937Y0176038D01*
X0078200Y0174439D02*
X0069400Y0174439D01*
X0069400Y0172841D02*
X0078200Y0172841D01*
X0078200Y0171242D02*
X0069400Y0171242D01*
X0069400Y0169644D02*
X0078632Y0169644D01*
X0079635Y0168045D02*
X0069400Y0168045D01*
X0069400Y0166447D02*
X0082091Y0166447D01*
X0069400Y0164848D02*
X0156400Y0164848D01*
X0149784Y0163250D02*
X0127816Y0163250D01*
X0126865Y0164200D02*
X0120735Y0164200D01*
X0116400Y0159865D01*
X0116400Y0153735D01*
X0120735Y0149400D01*
X0126865Y0149400D01*
X0131200Y0153735D01*
X0131200Y0159865D01*
X0126865Y0164200D01*
X0129414Y0161651D02*
X0148186Y0161651D01*
X0146587Y0160053D02*
X0131013Y0160053D01*
X0131200Y0158454D02*
X0146400Y0158454D01*
X0146400Y0156856D02*
X0131200Y0156856D01*
X0131200Y0155257D02*
X0146400Y0155257D01*
X0146476Y0153659D02*
X0131124Y0153659D01*
X0129525Y0152060D02*
X0146892Y0152060D01*
X0146400Y0150462D02*
X0127927Y0150462D01*
X0119673Y0150462D02*
X0113200Y0150462D01*
X0113200Y0149977D02*
X0113200Y0151800D01*
X0113200Y0153623D01*
X0110623Y0156200D01*
X0108800Y0156200D01*
X0108800Y0151800D01*
X0108800Y0151800D01*
X0113200Y0151800D01*
X0108800Y0151800D01*
X0108800Y0151800D01*
X0108800Y0151800D01*
X0104400Y0151800D01*
X0104400Y0153623D01*
X0106977Y0156200D01*
X0108800Y0156200D01*
X0108800Y0151800D01*
X0108800Y0147400D01*
X0110623Y0147400D01*
X0113200Y0149977D01*
X0112086Y0148863D02*
X0146400Y0148863D01*
X0146400Y0147265D02*
X0069400Y0147265D01*
X0069400Y0148863D02*
X0105514Y0148863D01*
X0104400Y0149977D02*
X0106977Y0147400D01*
X0108800Y0147400D01*
X0108800Y0151800D01*
X0108800Y0151800D01*
X0104400Y0151800D01*
X0104400Y0149977D01*
X0104400Y0150462D02*
X0069400Y0150462D01*
X0069400Y0152060D02*
X0104400Y0152060D01*
X0104436Y0153659D02*
X0069400Y0153659D01*
X0069400Y0155257D02*
X0106035Y0155257D01*
X0108800Y0155257D02*
X0108800Y0155257D01*
X0108800Y0153659D02*
X0108800Y0153659D01*
X0108800Y0152060D02*
X0108800Y0152060D01*
X0108800Y0150462D02*
X0108800Y0150462D01*
X0108800Y0148863D02*
X0108800Y0148863D01*
X0113200Y0152060D02*
X0118075Y0152060D01*
X0116476Y0153659D02*
X0113164Y0153659D01*
X0111565Y0155257D02*
X0116400Y0155257D01*
X0116400Y0156856D02*
X0069400Y0156856D01*
X0069400Y0158454D02*
X0116400Y0158454D01*
X0116587Y0160053D02*
X0069400Y0160053D01*
X0069400Y0161651D02*
X0118186Y0161651D01*
X0119784Y0163250D02*
X0069400Y0163250D01*
X0069400Y0176038D02*
X0069663Y0176038D01*
X0073800Y0181800D02*
X0073800Y0191800D01*
X0073800Y0236800D01*
X0068800Y0241800D01*
X0043800Y0241800D01*
X0043800Y0251800D02*
X0073800Y0251800D01*
X0073800Y0256800D01*
X0153800Y0256800D01*
X0153800Y0246800D01*
X0163800Y0246800D02*
X0163800Y0236800D01*
X0083800Y0236800D01*
X0083800Y0246800D01*
X0093800Y0246800D02*
X0108800Y0246800D01*
X0120735Y0229200D02*
X0116400Y0224865D01*
X0116400Y0218735D01*
X0120735Y0214400D01*
X0126865Y0214400D01*
X0131200Y0218735D01*
X0131200Y0224865D01*
X0126865Y0229200D01*
X0120735Y0229200D01*
X0120323Y0228789D02*
X0079400Y0228789D01*
X0079400Y0230387D02*
X0156922Y0230387D01*
X0156400Y0229865D02*
X0156400Y0229200D01*
X0150735Y0229200D01*
X0146400Y0224865D01*
X0146400Y0218735D01*
X0147239Y0217896D01*
X0146400Y0215872D01*
X0146400Y0207728D01*
X0147527Y0205008D01*
X0149608Y0202927D01*
X0152328Y0201800D01*
X0155272Y0201800D01*
X0157992Y0202927D01*
X0158200Y0203135D01*
X0158200Y0195320D01*
X0156972Y0196547D01*
X0154914Y0197400D01*
X0079400Y0197400D01*
X0079400Y0233280D01*
X0080628Y0232053D01*
X0082686Y0231200D01*
X0157735Y0231200D01*
X0156400Y0229865D01*
X0150323Y0228789D02*
X0127277Y0228789D01*
X0128875Y0227190D02*
X0148725Y0227190D01*
X0147126Y0225592D02*
X0130474Y0225592D01*
X0131200Y0223993D02*
X0146400Y0223993D01*
X0146400Y0222395D02*
X0131200Y0222395D01*
X0131200Y0220796D02*
X0146400Y0220796D01*
X0146400Y0219198D02*
X0131200Y0219198D01*
X0130064Y0217599D02*
X0147115Y0217599D01*
X0146453Y0216001D02*
X0128466Y0216001D01*
X0126867Y0214402D02*
X0146400Y0214402D01*
X0146400Y0212803D02*
X0111026Y0212803D01*
X0110623Y0212400D02*
X0113200Y0214977D01*
X0113200Y0216800D01*
X0113200Y0218623D01*
X0110623Y0221200D01*
X0108800Y0221200D01*
X0108800Y0216800D01*
X0108800Y0216800D01*
X0113200Y0216800D01*
X0108800Y0216800D01*
X0108800Y0216800D01*
X0108800Y0216800D01*
X0104400Y0216800D01*
X0104400Y0218623D01*
X0106977Y0221200D01*
X0108800Y0221200D01*
X0108800Y0216800D01*
X0108800Y0212400D01*
X0110623Y0212400D01*
X0108800Y0212400D02*
X0108800Y0216800D01*
X0108800Y0216800D01*
X0104400Y0216800D01*
X0104400Y0214977D01*
X0106977Y0212400D01*
X0108800Y0212400D01*
X0108800Y0212803D02*
X0108800Y0212803D01*
X0108800Y0214402D02*
X0108800Y0214402D01*
X0108800Y0216001D02*
X0108800Y0216001D01*
X0108800Y0217599D02*
X0108800Y0217599D01*
X0108800Y0219198D02*
X0108800Y0219198D01*
X0108800Y0220796D02*
X0108800Y0220796D01*
X0111026Y0220796D02*
X0116400Y0220796D01*
X0116400Y0219198D02*
X0112625Y0219198D01*
X0113200Y0217599D02*
X0117536Y0217599D01*
X0119134Y0216001D02*
X0113200Y0216001D01*
X0112625Y0214402D02*
X0120733Y0214402D01*
X0116400Y0222395D02*
X0079400Y0222395D01*
X0079400Y0223993D02*
X0116400Y0223993D01*
X0117126Y0225592D02*
X0079400Y0225592D01*
X0079400Y0227190D02*
X0118725Y0227190D01*
X0106574Y0220796D02*
X0079400Y0220796D01*
X0079400Y0219198D02*
X0104975Y0219198D01*
X0104400Y0217599D02*
X0079400Y0217599D01*
X0079400Y0216001D02*
X0104400Y0216001D01*
X0104975Y0214402D02*
X0079400Y0214402D01*
X0079400Y0212803D02*
X0106574Y0212803D01*
X0080789Y0231986D02*
X0079400Y0231986D01*
X0063800Y0231800D02*
X0033800Y0231800D01*
X0028033Y0236781D02*
X0023800Y0236781D01*
X0023800Y0235183D02*
X0026435Y0235183D01*
X0026200Y0233584D02*
X0023800Y0233584D01*
X0023800Y0231986D02*
X0026200Y0231986D01*
X0026200Y0230387D02*
X0023800Y0230387D01*
X0023800Y0228789D02*
X0026200Y0228789D01*
X0027662Y0227190D02*
X0023800Y0227190D01*
X0023800Y0225592D02*
X0026844Y0225592D01*
X0026200Y0223993D02*
X0023800Y0223993D01*
X0023800Y0222395D02*
X0026200Y0222395D01*
X0026200Y0220796D02*
X0023800Y0220796D01*
X0023800Y0219198D02*
X0026200Y0219198D01*
X0027253Y0217599D02*
X0023800Y0217599D01*
X0023800Y0216001D02*
X0027253Y0216001D01*
X0026200Y0214402D02*
X0023800Y0214402D01*
X0023800Y0212803D02*
X0026200Y0212803D01*
X0026200Y0211205D02*
X0023800Y0211205D01*
X0023800Y0209606D02*
X0026200Y0209606D01*
X0026844Y0208008D02*
X0023800Y0208008D01*
X0023800Y0206409D02*
X0027400Y0206409D01*
X0027400Y0204811D02*
X0023800Y0204811D01*
X0023800Y0203212D02*
X0027400Y0203212D01*
X0027400Y0201614D02*
X0023800Y0201614D01*
X0023800Y0200015D02*
X0027400Y0200015D01*
X0027400Y0198417D02*
X0023800Y0198417D01*
X0023800Y0196818D02*
X0027400Y0196818D01*
X0027400Y0195220D02*
X0023800Y0195220D01*
X0023800Y0193621D02*
X0027400Y0193621D01*
X0027400Y0192023D02*
X0023800Y0192023D01*
X0023800Y0190424D02*
X0027400Y0190424D01*
X0027400Y0188826D02*
X0023800Y0188826D01*
X0023800Y0187227D02*
X0027400Y0187227D01*
X0027400Y0185629D02*
X0023800Y0185629D01*
X0023800Y0184030D02*
X0027400Y0184030D01*
X0027400Y0182432D02*
X0023800Y0182432D01*
X0023800Y0180833D02*
X0027400Y0180833D01*
X0027400Y0179235D02*
X0023800Y0179235D01*
X0023800Y0177636D02*
X0027400Y0177636D01*
X0027400Y0176038D02*
X0023800Y0176038D01*
X0023800Y0174439D02*
X0027851Y0174439D01*
X0028708Y0172841D02*
X0023800Y0172841D01*
X0023800Y0171242D02*
X0030494Y0171242D01*
X0023800Y0169644D02*
X0040491Y0169644D01*
X0047109Y0169644D02*
X0048200Y0169644D01*
X0048200Y0168045D02*
X0023800Y0168045D01*
X0023800Y0166447D02*
X0048200Y0166447D01*
X0048200Y0164848D02*
X0023800Y0164848D01*
X0023800Y0163250D02*
X0048200Y0163250D01*
X0048200Y0161651D02*
X0023800Y0161651D01*
X0023800Y0160053D02*
X0048200Y0160053D01*
X0048200Y0158454D02*
X0023800Y0158454D01*
X0023800Y0156856D02*
X0048200Y0156856D01*
X0048200Y0155257D02*
X0023800Y0155257D01*
X0023800Y0153659D02*
X0048200Y0153659D01*
X0048200Y0152060D02*
X0023800Y0152060D01*
X0023800Y0150462D02*
X0041239Y0150462D01*
X0041977Y0151200D02*
X0039400Y0148623D01*
X0039400Y0146800D01*
X0043800Y0146800D01*
X0043800Y0146800D01*
X0043800Y0151200D01*
X0045623Y0151200D01*
X0048200Y0148623D01*
X0048200Y0146800D01*
X0043800Y0146800D01*
X0043800Y0146800D01*
X0043800Y0146800D01*
X0043800Y0151200D01*
X0041977Y0151200D01*
X0043800Y0150462D02*
X0043800Y0150462D01*
X0043800Y0148863D02*
X0043800Y0148863D01*
X0043800Y0147265D02*
X0043800Y0147265D01*
X0043800Y0146800D02*
X0039400Y0146800D01*
X0039400Y0144977D01*
X0041977Y0142400D01*
X0043800Y0142400D01*
X0045623Y0142400D01*
X0048200Y0144977D01*
X0048200Y0146800D01*
X0043800Y0146800D01*
X0043800Y0142400D01*
X0043800Y0146800D01*
X0043800Y0146800D01*
X0043800Y0145666D02*
X0043800Y0145666D01*
X0043800Y0144068D02*
X0043800Y0144068D01*
X0043800Y0142469D02*
X0043800Y0142469D01*
X0045692Y0142469D02*
X0048200Y0142469D01*
X0048200Y0144068D02*
X0047290Y0144068D01*
X0048200Y0145666D02*
X0048200Y0145666D01*
X0048200Y0147265D02*
X0048200Y0147265D01*
X0048200Y0148863D02*
X0047959Y0148863D01*
X0048200Y0150462D02*
X0046361Y0150462D01*
X0039641Y0148863D02*
X0023800Y0148863D01*
X0023800Y0147265D02*
X0039400Y0147265D01*
X0039400Y0145666D02*
X0023800Y0145666D01*
X0023800Y0144068D02*
X0040310Y0144068D01*
X0041908Y0142469D02*
X0023800Y0142469D01*
X0023800Y0140870D02*
X0048200Y0140870D01*
X0048200Y0139272D02*
X0023800Y0139272D01*
X0023800Y0137673D02*
X0048200Y0137673D01*
X0048200Y0136075D02*
X0023800Y0136075D01*
X0023800Y0134476D02*
X0048200Y0134476D01*
X0048200Y0132878D02*
X0023800Y0132878D01*
X0023800Y0131279D02*
X0048200Y0131279D01*
X0048200Y0129681D02*
X0023800Y0129681D01*
X0023800Y0128082D02*
X0048200Y0128082D01*
X0048200Y0126484D02*
X0023800Y0126484D01*
X0023800Y0124885D02*
X0048200Y0124885D01*
X0048200Y0123287D02*
X0023800Y0123287D01*
X0023800Y0121688D02*
X0048200Y0121688D01*
X0048200Y0120090D02*
X0023800Y0120090D01*
X0023800Y0118491D02*
X0048200Y0118491D01*
X0048200Y0116893D02*
X0023800Y0116893D01*
X0023800Y0115294D02*
X0048200Y0115294D01*
X0048200Y0113696D02*
X0023800Y0113696D01*
X0023800Y0112097D02*
X0048200Y0112097D01*
X0048200Y0110499D02*
X0023800Y0110499D01*
X0023800Y0108900D02*
X0048200Y0108900D01*
X0048200Y0107302D02*
X0023800Y0107302D01*
X0023800Y0105703D02*
X0048200Y0105703D01*
X0048200Y0104105D02*
X0023800Y0104105D01*
X0023800Y0102506D02*
X0048200Y0102506D01*
X0048200Y0100908D02*
X0023800Y0100908D01*
X0023800Y0099309D02*
X0048200Y0099309D01*
X0048200Y0097711D02*
X0023800Y0097711D01*
X0023800Y0096112D02*
X0048200Y0096112D01*
X0048200Y0094514D02*
X0023800Y0094514D01*
X0023800Y0092915D02*
X0048200Y0092915D01*
X0048200Y0091317D02*
X0023800Y0091317D01*
X0023800Y0089718D02*
X0048200Y0089718D01*
X0048200Y0088120D02*
X0023800Y0088120D01*
X0023800Y0086521D02*
X0048200Y0086521D01*
X0048200Y0084923D02*
X0023800Y0084923D01*
X0023800Y0083324D02*
X0048200Y0083324D01*
X0048200Y0081726D02*
X0023800Y0081726D01*
X0023800Y0080127D02*
X0048200Y0080127D01*
X0048200Y0078529D02*
X0023800Y0078529D01*
X0023800Y0076930D02*
X0048200Y0076930D01*
X0048200Y0075332D02*
X0023800Y0075332D01*
X0023800Y0073733D02*
X0048200Y0073733D01*
X0048200Y0072134D02*
X0023800Y0072134D01*
X0023800Y0070536D02*
X0048200Y0070536D01*
X0048200Y0068937D02*
X0023800Y0068937D01*
X0023800Y0067339D02*
X0048200Y0067339D01*
X0048200Y0065740D02*
X0023800Y0065740D01*
X0023800Y0064142D02*
X0048200Y0064142D01*
X0048200Y0062543D02*
X0023800Y0062543D01*
X0023800Y0060945D02*
X0048200Y0060945D01*
X0048200Y0059346D02*
X0023800Y0059346D01*
X0023800Y0057748D02*
X0048200Y0057748D01*
X0048200Y0056149D02*
X0023800Y0056149D01*
X0023800Y0054551D02*
X0048670Y0054551D01*
X0049728Y0052952D02*
X0023800Y0052952D01*
X0023800Y0051354D02*
X0052315Y0051354D01*
X0053800Y0056800D02*
X0073800Y0056800D01*
X0073800Y0066800D01*
X0153800Y0066800D01*
X0153800Y0046800D01*
X0163800Y0036800D02*
X0083800Y0036800D01*
X0083800Y0056800D01*
X0078200Y0049755D02*
X0023800Y0049755D01*
X0023800Y0048157D02*
X0078200Y0048157D01*
X0078200Y0046558D02*
X0023800Y0046558D01*
X0023800Y0044960D02*
X0078200Y0044960D01*
X0078200Y0043361D02*
X0023800Y0043361D01*
X0023800Y0041763D02*
X0078200Y0041763D01*
X0078200Y0040164D02*
X0023800Y0040164D01*
X0023800Y0038566D02*
X0078200Y0038566D01*
X0078200Y0036967D02*
X0023800Y0036967D01*
X0023800Y0035369D02*
X0078331Y0035369D01*
X0078994Y0033770D02*
X0023800Y0033770D01*
X0023800Y0032172D02*
X0080509Y0032172D01*
X0104400Y0027376D02*
X0023800Y0027376D01*
X0023800Y0025778D02*
X0104400Y0025778D01*
X0105198Y0024179D02*
X0023800Y0024179D01*
X0023800Y0022581D02*
X0106797Y0022581D01*
X0112402Y0024179D02*
X0286400Y0024179D01*
X0286400Y0025778D02*
X0113200Y0025778D01*
X0113200Y0027376D02*
X0286400Y0027376D01*
X0286400Y0028975D02*
X0112848Y0028975D01*
X0106351Y0030573D02*
X0023800Y0030573D01*
X0023800Y0028975D02*
X0104752Y0028975D01*
X0108800Y0056800D02*
X0093800Y0056800D01*
X0072045Y0072134D02*
X0059400Y0072134D01*
X0059400Y0070536D02*
X0069616Y0070536D01*
X0068624Y0068937D02*
X0059400Y0068937D01*
X0059400Y0067339D02*
X0068200Y0067339D01*
X0068200Y0065740D02*
X0059400Y0065740D01*
X0059400Y0064142D02*
X0068200Y0064142D01*
X0068200Y0062543D02*
X0059400Y0062543D01*
X0053800Y0056800D02*
X0053800Y0221800D01*
X0043800Y0221800D01*
X0063800Y0231800D02*
X0063800Y0131800D01*
X0069400Y0137673D02*
X0150219Y0137673D01*
X0148263Y0139272D02*
X0069400Y0139272D01*
X0069400Y0140870D02*
X0147169Y0140870D01*
X0146507Y0142469D02*
X0069400Y0142469D01*
X0069400Y0144068D02*
X0146400Y0144068D01*
X0146400Y0145666D02*
X0069400Y0145666D01*
X0073800Y0131800D02*
X0073800Y0121800D01*
X0078200Y0112097D02*
X0059400Y0112097D01*
X0059400Y0110499D02*
X0078200Y0110499D01*
X0078200Y0108900D02*
X0059400Y0108900D01*
X0059400Y0107302D02*
X0078200Y0107302D01*
X0078200Y0105703D02*
X0059400Y0105703D01*
X0059400Y0104105D02*
X0078855Y0104105D01*
X0080174Y0102506D02*
X0059400Y0102506D01*
X0059400Y0100908D02*
X0189227Y0100908D01*
X0189246Y0097711D02*
X0168354Y0097711D01*
X0169953Y0096112D02*
X0170193Y0096112D01*
X0173800Y0091800D02*
X0173800Y0076800D01*
X0176573Y0067339D02*
X0181027Y0067339D01*
X0180757Y0056149D02*
X0179400Y0056149D01*
X0153800Y0076800D02*
X0153800Y0086800D01*
X0146400Y0086521D02*
X0131200Y0086521D01*
X0131200Y0084923D02*
X0146400Y0084923D01*
X0146811Y0083324D02*
X0130789Y0083324D01*
X0131200Y0083735D02*
X0126865Y0079400D01*
X0120735Y0079400D01*
X0116400Y0083735D01*
X0116400Y0089865D01*
X0120735Y0094200D01*
X0126865Y0094200D01*
X0131200Y0089865D01*
X0131200Y0083735D01*
X0129191Y0081726D02*
X0146754Y0081726D01*
X0146400Y0080127D02*
X0127592Y0080127D01*
X0120008Y0080127D02*
X0059400Y0080127D01*
X0059400Y0078529D02*
X0146400Y0078529D01*
X0146400Y0076930D02*
X0059400Y0076930D01*
X0059400Y0075332D02*
X0146400Y0075332D01*
X0146400Y0073733D02*
X0059400Y0073733D01*
X0059400Y0081726D02*
X0118409Y0081726D01*
X0116811Y0083324D02*
X0059400Y0083324D01*
X0059400Y0084923D02*
X0116400Y0084923D01*
X0116400Y0086521D02*
X0059400Y0086521D01*
X0059400Y0088120D02*
X0106258Y0088120D01*
X0106977Y0087400D02*
X0104400Y0089977D01*
X0104400Y0091800D01*
X0108800Y0091800D01*
X0108800Y0091800D01*
X0108800Y0096200D01*
X0110623Y0096200D01*
X0113200Y0093623D01*
X0113200Y0091800D01*
X0108800Y0091800D01*
X0108800Y0091800D01*
X0108800Y0091800D01*
X0108800Y0096200D01*
X0106977Y0096200D01*
X0104400Y0093623D01*
X0104400Y0091800D01*
X0108800Y0091800D01*
X0113200Y0091800D01*
X0113200Y0089977D01*
X0110623Y0087400D01*
X0108800Y0087400D01*
X0108800Y0091800D01*
X0108800Y0091800D01*
X0108800Y0087400D01*
X0106977Y0087400D01*
X0108800Y0088120D02*
X0108800Y0088120D01*
X0108800Y0089718D02*
X0108800Y0089718D01*
X0108800Y0091317D02*
X0108800Y0091317D01*
X0108800Y0092915D02*
X0108800Y0092915D01*
X0108800Y0094514D02*
X0108800Y0094514D01*
X0108800Y0096112D02*
X0108800Y0096112D01*
X0110710Y0096112D02*
X0157647Y0096112D01*
X0156400Y0094514D02*
X0112309Y0094514D01*
X0113200Y0092915D02*
X0119450Y0092915D01*
X0117851Y0091317D02*
X0113200Y0091317D01*
X0112941Y0089718D02*
X0116400Y0089718D01*
X0116400Y0088120D02*
X0111342Y0088120D01*
X0104659Y0089718D02*
X0059400Y0089718D01*
X0059400Y0091317D02*
X0104400Y0091317D01*
X0104400Y0092915D02*
X0059400Y0092915D01*
X0059400Y0094514D02*
X0105291Y0094514D01*
X0106890Y0096112D02*
X0059400Y0096112D01*
X0093800Y0121800D02*
X0108800Y0121800D01*
X0128150Y0092915D02*
X0149450Y0092915D01*
X0147851Y0091317D02*
X0129749Y0091317D01*
X0131200Y0089718D02*
X0146400Y0089718D01*
X0146400Y0088120D02*
X0131200Y0088120D01*
X0167426Y0102506D02*
X0180174Y0102506D01*
X0178855Y0104105D02*
X0168745Y0104105D01*
X0169400Y0105703D02*
X0178200Y0105703D01*
X0178200Y0107302D02*
X0176483Y0107302D01*
X0171117Y0107302D02*
X0169400Y0107302D01*
X0183800Y0106800D02*
X0193800Y0106800D01*
X0183800Y0106800D02*
X0183800Y0116800D01*
X0163800Y0126800D02*
X0163800Y0146800D01*
X0163800Y0161800D01*
X0169618Y0166447D02*
X0187981Y0166447D01*
X0186400Y0164848D02*
X0171200Y0164848D01*
X0171200Y0163250D02*
X0186400Y0163250D01*
X0189580Y0168045D02*
X0168020Y0168045D01*
X0168968Y0169644D02*
X0290491Y0169644D01*
X0297109Y0169644D02*
X0320491Y0169644D01*
X0320735Y0169400D02*
X0326865Y0169400D01*
X0327280Y0169815D01*
X0329248Y0169000D01*
X0338352Y0169000D01*
X0341218Y0170187D01*
X0343413Y0172382D01*
X0344600Y0175248D01*
X0344600Y0178352D01*
X0343413Y0181218D01*
X0342831Y0181800D01*
X0343413Y0182382D01*
X0344600Y0185248D01*
X0344600Y0188352D01*
X0343413Y0191218D01*
X0342831Y0191800D01*
X0343413Y0192382D01*
X0344600Y0195248D01*
X0344600Y0198352D01*
X0343413Y0201218D01*
X0341218Y0203413D01*
X0340491Y0203714D01*
X0340905Y0204284D01*
X0341248Y0204957D01*
X0341482Y0205676D01*
X0341600Y0206422D01*
X0341600Y0206600D01*
X0334000Y0206600D01*
X0334000Y0207000D01*
X0333600Y0207000D01*
X0333600Y0211600D01*
X0330422Y0211600D01*
X0329676Y0211482D01*
X0328957Y0211248D01*
X0328284Y0210905D01*
X0327673Y0210461D01*
X0327139Y0209927D01*
X0326695Y0209316D01*
X0326352Y0208643D01*
X0326118Y0207924D01*
X0326000Y0207178D01*
X0326000Y0207000D01*
X0333600Y0207000D01*
X0333600Y0206600D01*
X0326000Y0206600D01*
X0326000Y0206422D01*
X0326118Y0205676D01*
X0326352Y0204957D01*
X0326695Y0204284D01*
X0327109Y0203714D01*
X0326382Y0203413D01*
X0324187Y0201218D01*
X0323000Y0198352D01*
X0323000Y0195248D01*
X0323434Y0194200D01*
X0320735Y0194200D01*
X0316400Y0189865D01*
X0316400Y0183735D01*
X0318335Y0181800D01*
X0316400Y0179865D01*
X0316400Y0173735D01*
X0320735Y0169400D01*
X0318893Y0171242D02*
X0305016Y0171242D01*
X0307760Y0172841D02*
X0317294Y0172841D01*
X0316400Y0174439D02*
X0308884Y0174439D01*
X0309400Y0176038D02*
X0316400Y0176038D01*
X0316400Y0177636D02*
X0309400Y0177636D01*
X0309400Y0179235D02*
X0316400Y0179235D01*
X0317368Y0180833D02*
X0309400Y0180833D01*
X0309400Y0182432D02*
X0317703Y0182432D01*
X0316400Y0184030D02*
X0309400Y0184030D01*
X0309400Y0185629D02*
X0316400Y0185629D01*
X0316400Y0187227D02*
X0309400Y0187227D01*
X0309400Y0188826D02*
X0316400Y0188826D01*
X0316959Y0190424D02*
X0309400Y0190424D01*
X0309400Y0192023D02*
X0318558Y0192023D01*
X0320156Y0193621D02*
X0309400Y0193621D01*
X0309400Y0195220D02*
X0323012Y0195220D01*
X0323000Y0196818D02*
X0309400Y0196818D01*
X0309400Y0198417D02*
X0323027Y0198417D01*
X0323689Y0200015D02*
X0309400Y0200015D01*
X0309400Y0201614D02*
X0324583Y0201614D01*
X0326182Y0203212D02*
X0309400Y0203212D01*
X0309400Y0204811D02*
X0326426Y0204811D01*
X0326002Y0206409D02*
X0309400Y0206409D01*
X0309361Y0208008D02*
X0326145Y0208008D01*
X0326906Y0209606D02*
X0308699Y0209606D01*
X0307315Y0211205D02*
X0328872Y0211205D01*
X0333600Y0211205D02*
X0334000Y0211205D01*
X0334000Y0211600D02*
X0334000Y0207000D01*
X0341600Y0207000D01*
X0341600Y0207178D01*
X0341482Y0207924D01*
X0341248Y0208643D01*
X0340905Y0209316D01*
X0340461Y0209927D01*
X0339927Y0210461D01*
X0339316Y0210905D01*
X0338643Y0211248D01*
X0337924Y0211482D01*
X0337178Y0211600D01*
X0334000Y0211600D01*
X0334000Y0209606D02*
X0333600Y0209606D01*
X0333600Y0208008D02*
X0334000Y0208008D01*
X0338728Y0211205D02*
X0378800Y0211205D01*
X0378800Y0212803D02*
X0282598Y0212803D01*
X0278800Y0206800D02*
X0303800Y0206800D01*
X0303800Y0176800D01*
X0293800Y0176800D01*
X0287368Y0180833D02*
X0273298Y0180833D01*
X0268800Y0186800D02*
X0293800Y0186800D01*
X0268800Y0206800D02*
X0268800Y0226800D01*
X0233800Y0226800D01*
X0238261Y0220796D02*
X0263200Y0220796D01*
X0274400Y0220796D02*
X0378800Y0220796D01*
X0378800Y0219198D02*
X0274400Y0219198D01*
X0274400Y0217599D02*
X0378800Y0217599D01*
X0378800Y0216001D02*
X0274400Y0216001D01*
X0274400Y0214402D02*
X0378800Y0214402D01*
X0378800Y0209606D02*
X0340694Y0209606D01*
X0341455Y0208008D02*
X0378800Y0208008D01*
X0378800Y0206409D02*
X0341598Y0206409D01*
X0341174Y0204811D02*
X0378800Y0204811D01*
X0378800Y0203212D02*
X0341418Y0203212D01*
X0343017Y0201614D02*
X0378800Y0201614D01*
X0378800Y0200015D02*
X0343911Y0200015D01*
X0344573Y0198417D02*
X0378800Y0198417D01*
X0378800Y0196818D02*
X0344600Y0196818D01*
X0344588Y0195220D02*
X0378800Y0195220D01*
X0378800Y0193621D02*
X0343926Y0193621D01*
X0343054Y0192023D02*
X0378800Y0192023D01*
X0378800Y0190424D02*
X0343741Y0190424D01*
X0344404Y0188826D02*
X0378800Y0188826D01*
X0378800Y0187227D02*
X0344600Y0187227D01*
X0344600Y0185629D02*
X0378800Y0185629D01*
X0378800Y0184030D02*
X0344095Y0184030D01*
X0343433Y0182432D02*
X0378800Y0182432D01*
X0378800Y0180833D02*
X0343572Y0180833D01*
X0344234Y0179235D02*
X0378800Y0179235D01*
X0378800Y0177636D02*
X0344600Y0177636D01*
X0344600Y0176038D02*
X0378800Y0176038D01*
X0378800Y0174439D02*
X0344265Y0174439D01*
X0343603Y0172841D02*
X0378800Y0172841D01*
X0378800Y0171242D02*
X0342273Y0171242D01*
X0339906Y0169644D02*
X0378800Y0169644D01*
X0378800Y0161651D02*
X0271722Y0161651D01*
X0273467Y0160053D02*
X0378800Y0160053D01*
X0378800Y0158454D02*
X0274176Y0158454D01*
X0274400Y0156856D02*
X0378800Y0156856D01*
X0378800Y0155257D02*
X0274400Y0155257D01*
X0274400Y0153659D02*
X0277066Y0153659D01*
X0280534Y0153659D02*
X0378800Y0153659D01*
X0378800Y0152060D02*
X0305735Y0152060D01*
X0308058Y0150462D02*
X0378800Y0150462D01*
X0378800Y0148863D02*
X0309007Y0148863D01*
X0309400Y0147265D02*
X0378800Y0147265D01*
X0378800Y0145666D02*
X0309400Y0145666D01*
X0309400Y0144068D02*
X0378800Y0144068D01*
X0378800Y0142469D02*
X0309400Y0142469D01*
X0309400Y0126484D02*
X0323000Y0126484D01*
X0323150Y0124885D02*
X0309400Y0124885D01*
X0309400Y0123287D02*
X0319822Y0123287D01*
X0318223Y0121688D02*
X0309400Y0121688D01*
X0309400Y0120090D02*
X0316625Y0120090D01*
X0316400Y0118491D02*
X0309400Y0118491D01*
X0309400Y0116893D02*
X0316400Y0116893D01*
X0316400Y0115294D02*
X0309400Y0115294D01*
X0309400Y0113696D02*
X0316439Y0113696D01*
X0318038Y0112097D02*
X0309400Y0112097D01*
X0309400Y0110499D02*
X0317034Y0110499D01*
X0316400Y0108900D02*
X0309400Y0108900D01*
X0309400Y0107302D02*
X0316400Y0107302D01*
X0316400Y0105703D02*
X0309400Y0105703D01*
X0308745Y0104105D02*
X0316400Y0104105D01*
X0317629Y0102506D02*
X0307426Y0102506D01*
X0289227Y0100908D02*
X0269400Y0100908D01*
X0269400Y0102506D02*
X0287629Y0102506D01*
X0286400Y0104105D02*
X0269400Y0104105D01*
X0269400Y0105703D02*
X0286400Y0105703D01*
X0286400Y0107302D02*
X0269400Y0107302D01*
X0269400Y0108900D02*
X0286400Y0108900D01*
X0287034Y0110499D02*
X0269400Y0110499D01*
X0258200Y0115294D02*
X0227759Y0115294D01*
X0229358Y0116893D02*
X0258200Y0116893D01*
X0258439Y0118491D02*
X0256714Y0118491D01*
X0255623Y0117400D02*
X0258200Y0119977D01*
X0258200Y0121800D01*
X0253800Y0121800D01*
X0253800Y0117400D01*
X0255623Y0117400D01*
X0253800Y0117400D02*
X0253800Y0121800D01*
X0253800Y0121800D01*
X0253800Y0121800D01*
X0249400Y0121800D01*
X0249400Y0123623D01*
X0251977Y0126200D01*
X0253800Y0126200D01*
X0253800Y0121800D01*
X0249400Y0121800D01*
X0249400Y0119977D01*
X0251977Y0117400D01*
X0253800Y0117400D01*
X0253800Y0118491D02*
X0253800Y0118491D01*
X0253800Y0120090D02*
X0253800Y0120090D01*
X0253800Y0121688D02*
X0253800Y0121688D01*
X0253800Y0123287D02*
X0253800Y0123287D01*
X0253800Y0124885D02*
X0253800Y0124885D01*
X0250663Y0124885D02*
X0231180Y0124885D01*
X0231200Y0123287D02*
X0249400Y0123287D01*
X0249400Y0121688D02*
X0231200Y0121688D01*
X0231200Y0120090D02*
X0249400Y0120090D01*
X0250886Y0118491D02*
X0230956Y0118491D01*
X0258200Y0120090D02*
X0259170Y0120090D01*
X0258200Y0121688D02*
X0260968Y0121688D01*
X0264830Y0140870D02*
X0214400Y0140870D01*
X0208800Y0156800D02*
X0193800Y0156800D01*
X0193800Y0161800D01*
X0193800Y0156800D02*
X0173800Y0156800D01*
X0173800Y0146800D01*
X0170219Y0137673D02*
X0169400Y0137673D01*
X0177381Y0137673D02*
X0180219Y0137673D01*
X0153800Y0146800D02*
X0153800Y0156800D01*
X0153800Y0181800D02*
X0153800Y0191800D01*
X0073800Y0191800D01*
X0079400Y0198417D02*
X0158200Y0198417D01*
X0158200Y0200015D02*
X0079400Y0200015D01*
X0079400Y0201614D02*
X0158200Y0201614D01*
X0158200Y0196818D02*
X0156318Y0196818D01*
X0149322Y0203212D02*
X0079400Y0203212D01*
X0079400Y0204811D02*
X0147724Y0204811D01*
X0146946Y0206409D02*
X0079400Y0206409D01*
X0079400Y0208008D02*
X0146400Y0208008D01*
X0146400Y0209606D02*
X0079400Y0209606D01*
X0079400Y0211205D02*
X0146400Y0211205D01*
X0153800Y0211800D02*
X0153800Y0221800D01*
X0163800Y0226800D02*
X0163800Y0211800D01*
X0169400Y0201614D02*
X0203200Y0201614D01*
X0203200Y0203212D02*
X0188278Y0203212D01*
X0189876Y0204811D02*
X0203200Y0204811D01*
X0203200Y0200015D02*
X0169400Y0200015D01*
X0169400Y0198417D02*
X0203200Y0198417D01*
X0203200Y0196818D02*
X0176318Y0196818D01*
X0178300Y0195220D02*
X0203393Y0195220D01*
X0204059Y0193621D02*
X0179107Y0193621D01*
X0179400Y0192023D02*
X0205700Y0192023D01*
X0201200Y0184030D02*
X0219808Y0184030D01*
X0219400Y0182432D02*
X0201200Y0182432D01*
X0201200Y0180833D02*
X0219400Y0180833D01*
X0220143Y0179235D02*
X0201200Y0179235D01*
X0193800Y0181800D02*
X0183800Y0181800D01*
X0189504Y0174439D02*
X0190696Y0174439D01*
X0179322Y0203212D02*
X0178278Y0203212D01*
X0171686Y0231986D02*
X0169080Y0231986D01*
X0168504Y0233584D02*
X0190119Y0233584D01*
X0188445Y0238380D02*
X0323774Y0238380D01*
X0323112Y0239978D02*
X0197443Y0239978D01*
X0197481Y0233584D02*
X0200119Y0233584D01*
X0190157Y0239978D02*
X0190043Y0239978D01*
X0193800Y0246800D02*
X0183800Y0246800D01*
X0179155Y0238380D02*
X0178445Y0238380D01*
X0169400Y0236781D02*
X0324788Y0236781D01*
X0326393Y0235183D02*
X0169191Y0235183D01*
X0173800Y0246800D02*
X0173800Y0261800D01*
X0163800Y0261800D01*
X0163800Y0276800D01*
X0163800Y0291800D01*
X0168541Y0297525D02*
X0189059Y0297525D01*
X0190658Y0299123D02*
X0166942Y0299123D01*
X0160658Y0299123D02*
X0023800Y0299123D01*
X0023800Y0297525D02*
X0159059Y0297525D01*
X0157461Y0295926D02*
X0023800Y0295926D01*
X0023800Y0294328D02*
X0156400Y0294328D01*
X0149264Y0292729D02*
X0128336Y0292729D01*
X0129935Y0291131D02*
X0147665Y0291131D01*
X0146400Y0289532D02*
X0131200Y0289532D01*
X0131200Y0287934D02*
X0146400Y0287934D01*
X0146400Y0286335D02*
X0131200Y0286335D01*
X0131200Y0284737D02*
X0146400Y0284737D01*
X0146997Y0283138D02*
X0130603Y0283138D01*
X0129005Y0281539D02*
X0146677Y0281539D01*
X0146400Y0279941D02*
X0127406Y0279941D01*
X0120194Y0279941D02*
X0070200Y0279941D01*
X0070200Y0278342D02*
X0146400Y0278342D01*
X0146400Y0276744D02*
X0070200Y0276744D01*
X0070200Y0275145D02*
X0146400Y0275145D01*
X0146400Y0273547D02*
X0070200Y0273547D01*
X0070200Y0271948D02*
X0146723Y0271948D01*
X0147385Y0270350D02*
X0070200Y0270350D01*
X0070200Y0268751D02*
X0148783Y0268751D01*
X0151476Y0267153D02*
X0070200Y0267153D01*
X0070200Y0265554D02*
X0158200Y0265554D01*
X0158200Y0263956D02*
X0070200Y0263956D01*
X0070200Y0262357D02*
X0072583Y0262357D01*
X0073800Y0251800D02*
X0073800Y0246800D01*
X0057400Y0268751D02*
X0051400Y0268751D01*
X0051400Y0270350D02*
X0057400Y0270350D01*
X0057400Y0271948D02*
X0051400Y0271948D01*
X0051400Y0273547D02*
X0057400Y0273547D01*
X0057400Y0275145D02*
X0051203Y0275145D01*
X0049604Y0276744D02*
X0057400Y0276744D01*
X0057400Y0278342D02*
X0048006Y0278342D01*
X0039594Y0278342D02*
X0038006Y0278342D01*
X0029594Y0278342D02*
X0023800Y0278342D01*
X0023800Y0276744D02*
X0027996Y0276744D01*
X0026397Y0275145D02*
X0023800Y0275145D01*
X0023800Y0273547D02*
X0026200Y0273547D01*
X0026200Y0271948D02*
X0023800Y0271948D01*
X0023800Y0270350D02*
X0026200Y0270350D01*
X0026200Y0268751D02*
X0023800Y0268751D01*
X0023800Y0267153D02*
X0027699Y0267153D01*
X0026806Y0265554D02*
X0023800Y0265554D01*
X0023800Y0263956D02*
X0026200Y0263956D01*
X0026200Y0262357D02*
X0023800Y0262357D01*
X0023800Y0260759D02*
X0026200Y0260759D01*
X0026200Y0259160D02*
X0023800Y0259160D01*
X0023800Y0257562D02*
X0027290Y0257562D01*
X0027215Y0255963D02*
X0023800Y0255963D01*
X0023800Y0254365D02*
X0026200Y0254365D01*
X0026200Y0252766D02*
X0023800Y0252766D01*
X0023800Y0251168D02*
X0026200Y0251168D01*
X0026200Y0249569D02*
X0023800Y0249569D01*
X0023800Y0247971D02*
X0026881Y0247971D01*
X0027624Y0246372D02*
X0023800Y0246372D01*
X0023800Y0244774D02*
X0026200Y0244774D01*
X0026200Y0243175D02*
X0023800Y0243175D01*
X0023800Y0241577D02*
X0026200Y0241577D01*
X0026200Y0239978D02*
X0023800Y0239978D01*
X0023800Y0238380D02*
X0026472Y0238380D01*
X0023800Y0279941D02*
X0057400Y0279941D01*
X0057400Y0281539D02*
X0023800Y0281539D01*
X0023800Y0283138D02*
X0057400Y0283138D01*
X0057400Y0284737D02*
X0023800Y0284737D01*
X0023800Y0286335D02*
X0057400Y0286335D01*
X0057400Y0287934D02*
X0023800Y0287934D01*
X0023800Y0289532D02*
X0058004Y0289532D01*
X0059080Y0291131D02*
X0023800Y0291131D01*
X0023800Y0292729D02*
X0061390Y0292729D01*
X0023800Y0300722D02*
X0219802Y0300722D01*
X0218701Y0299123D02*
X0211942Y0299123D01*
X0213541Y0297525D02*
X0218200Y0297525D01*
X0218200Y0295926D02*
X0215139Y0295926D01*
X0216200Y0294328D02*
X0218200Y0294328D01*
X0218200Y0292729D02*
X0216200Y0292729D01*
X0216200Y0291131D02*
X0218200Y0291131D01*
X0218200Y0289532D02*
X0216200Y0289532D01*
X0215399Y0287934D02*
X0218200Y0287934D01*
X0223800Y0281800D02*
X0183800Y0281800D01*
X0183800Y0276800D01*
X0181476Y0267153D02*
X0176124Y0267153D01*
X0173800Y0276800D02*
X0173800Y0291800D01*
X0193800Y0291800D01*
X0208800Y0291800D01*
X0204059Y0297525D02*
X0198541Y0297525D01*
X0196942Y0299123D02*
X0205658Y0299123D01*
X0221401Y0302320D02*
X0023800Y0302320D01*
X0023800Y0303919D02*
X0222999Y0303919D01*
X0224598Y0305517D02*
X0023800Y0305517D01*
X0153800Y0286800D02*
X0153800Y0276800D01*
X0156124Y0267153D02*
X0158200Y0267153D01*
X0158200Y0262357D02*
X0155017Y0262357D01*
X0157761Y0260759D02*
X0158200Y0260759D01*
X0179400Y0255963D02*
X0180308Y0255963D01*
X0187292Y0255963D02*
X0241741Y0255963D01*
X0240142Y0254365D02*
X0189300Y0254365D01*
X0223800Y0281800D02*
X0223800Y0296800D01*
X0228800Y0301800D01*
X0288800Y0301800D01*
X0293800Y0296800D01*
X0293800Y0251800D01*
X0273800Y0251800D01*
X0267164Y0247971D02*
X0246193Y0247971D01*
X0247792Y0249569D02*
X0266400Y0249569D01*
X0266400Y0251168D02*
X0248200Y0251168D01*
X0248200Y0252766D02*
X0266400Y0252766D01*
X0266400Y0254365D02*
X0247458Y0254365D01*
X0243800Y0249569D02*
X0243800Y0249569D01*
X0243800Y0247971D02*
X0243800Y0247971D01*
X0237481Y0233584D02*
X0378800Y0233584D01*
X0378800Y0231986D02*
X0270914Y0231986D01*
X0273132Y0230387D02*
X0378800Y0230387D01*
X0378800Y0228789D02*
X0274038Y0228789D01*
X0274400Y0227190D02*
X0378800Y0227190D01*
X0378800Y0225592D02*
X0274400Y0225592D01*
X0274400Y0223993D02*
X0378800Y0223993D01*
X0378800Y0222395D02*
X0274400Y0222395D01*
X0274400Y0212803D02*
X0275002Y0212803D01*
X0262386Y0209606D02*
X0261650Y0209606D01*
X0258800Y0209606D02*
X0258800Y0209606D01*
X0258800Y0208008D02*
X0258800Y0208008D01*
X0234400Y0185629D02*
X0226194Y0185629D01*
X0227792Y0184030D02*
X0235347Y0184030D01*
X0236946Y0182432D02*
X0228200Y0182432D01*
X0260413Y0150462D02*
X0262740Y0150462D01*
X0258800Y0145666D02*
X0258800Y0145666D01*
X0258800Y0144068D02*
X0258800Y0144068D01*
X0261724Y0144068D02*
X0262355Y0144068D01*
X0269400Y0096112D02*
X0378800Y0096112D01*
X0378800Y0094514D02*
X0268914Y0094514D01*
X0267835Y0092915D02*
X0378800Y0092915D01*
X0378800Y0091317D02*
X0272203Y0091317D01*
X0273653Y0089718D02*
X0378800Y0089718D01*
X0378800Y0088120D02*
X0274315Y0088120D01*
X0274400Y0086521D02*
X0378800Y0086521D01*
X0378800Y0084923D02*
X0274400Y0084923D01*
X0274400Y0083324D02*
X0378800Y0083324D01*
X0378800Y0081726D02*
X0274400Y0081726D01*
X0274400Y0080127D02*
X0378800Y0080127D01*
X0378800Y0078529D02*
X0274400Y0078529D01*
X0274400Y0076930D02*
X0378800Y0076930D01*
X0378800Y0075332D02*
X0274400Y0075332D01*
X0274400Y0073733D02*
X0277246Y0073733D01*
X0280354Y0073733D02*
X0378800Y0073733D01*
X0378800Y0072134D02*
X0313055Y0072134D01*
X0315484Y0070536D02*
X0378800Y0070536D01*
X0378800Y0068937D02*
X0316476Y0068937D01*
X0316900Y0067339D02*
X0378800Y0067339D01*
X0378800Y0065740D02*
X0339543Y0065740D01*
X0339316Y0065905D02*
X0338643Y0066248D01*
X0337924Y0066482D01*
X0337178Y0066600D01*
X0334000Y0066600D01*
X0334000Y0062000D01*
X0341600Y0062000D01*
X0341600Y0062178D01*
X0341482Y0062924D01*
X0341248Y0063643D01*
X0340905Y0064316D01*
X0340461Y0064927D01*
X0339927Y0065461D01*
X0339316Y0065905D01*
X0340994Y0064142D02*
X0378800Y0064142D01*
X0378800Y0062543D02*
X0341542Y0062543D01*
X0341524Y0060945D02*
X0378800Y0060945D01*
X0378800Y0059346D02*
X0340937Y0059346D01*
X0341883Y0057748D02*
X0378800Y0057748D01*
X0378800Y0056149D02*
X0343441Y0056149D01*
X0344103Y0054551D02*
X0378800Y0054551D01*
X0378800Y0052952D02*
X0344600Y0052952D01*
X0344600Y0051354D02*
X0378800Y0051354D01*
X0378800Y0049755D02*
X0344396Y0049755D01*
X0343734Y0048157D02*
X0378800Y0048157D01*
X0378800Y0046558D02*
X0343073Y0046558D01*
X0343934Y0044960D02*
X0378800Y0044960D01*
X0378800Y0043361D02*
X0344596Y0043361D01*
X0344600Y0041763D02*
X0378800Y0041763D01*
X0378800Y0040164D02*
X0344565Y0040164D01*
X0343903Y0038566D02*
X0378800Y0038566D01*
X0378800Y0036967D02*
X0342998Y0036967D01*
X0343764Y0035369D02*
X0378800Y0035369D01*
X0378800Y0033770D02*
X0344427Y0033770D01*
X0344600Y0032172D02*
X0378800Y0032172D01*
X0378800Y0030573D02*
X0344600Y0030573D01*
X0344072Y0028975D02*
X0378800Y0028975D01*
X0378800Y0027376D02*
X0343407Y0027376D01*
X0341809Y0025778D02*
X0378800Y0025778D01*
X0378800Y0024179D02*
X0338784Y0024179D01*
X0330046Y0022581D02*
X0378800Y0022581D01*
X0378800Y0020982D02*
X0328447Y0020982D01*
X0319153Y0020982D02*
X0316900Y0020982D01*
X0316900Y0022581D02*
X0317554Y0022581D01*
X0316360Y0019384D02*
X0378800Y0019384D01*
X0378800Y0017785D02*
X0315205Y0017785D01*
X0311300Y0021800D02*
X0293800Y0021800D01*
X0293800Y0026800D01*
X0300492Y0030573D02*
X0305700Y0030573D01*
X0305700Y0028975D02*
X0301200Y0028975D01*
X0301200Y0029865D02*
X0296865Y0034200D01*
X0290735Y0034200D01*
X0290305Y0033770D02*
X0226993Y0033770D01*
X0223800Y0036967D02*
X0223800Y0036967D01*
X0223800Y0038566D02*
X0223800Y0038566D01*
X0223800Y0040164D02*
X0223800Y0040164D01*
X0214400Y0057748D02*
X0305700Y0057748D01*
X0305700Y0059346D02*
X0214400Y0059346D01*
X0214400Y0060945D02*
X0264756Y0060945D01*
X0264835Y0060866D02*
X0267408Y0059800D01*
X0270192Y0059800D01*
X0272765Y0060866D01*
X0273800Y0061901D01*
X0274835Y0060866D01*
X0277408Y0059800D01*
X0280192Y0059800D01*
X0282765Y0060866D01*
X0283099Y0061200D01*
X0305700Y0061200D01*
X0305700Y0027400D01*
X0301200Y0027400D01*
X0301200Y0029865D01*
X0298893Y0032172D02*
X0305700Y0032172D01*
X0305700Y0033770D02*
X0297295Y0033770D01*
X0287108Y0030573D02*
X0198038Y0030573D01*
X0214400Y0062543D02*
X0263157Y0062543D01*
X0262866Y0062835D02*
X0264835Y0060866D01*
X0262866Y0062835D02*
X0262137Y0064594D01*
X0261907Y0064250D01*
X0261350Y0063693D01*
X0260695Y0063255D01*
X0259967Y0062954D01*
X0259194Y0062800D01*
X0258800Y0062800D01*
X0258800Y0066800D01*
X0258800Y0066800D01*
X0258800Y0066800D01*
X0258800Y0066800D01*
X0254800Y0066800D01*
X0254800Y0067194D01*
X0254954Y0067967D01*
X0255255Y0068695D01*
X0255693Y0069350D01*
X0256250Y0069907D01*
X0256905Y0070345D01*
X0257633Y0070646D01*
X0258406Y0070800D01*
X0258800Y0070800D01*
X0258800Y0066800D01*
X0258800Y0062800D01*
X0258406Y0062800D01*
X0257633Y0062954D01*
X0256905Y0063255D01*
X0256250Y0063693D01*
X0255693Y0064250D01*
X0255255Y0064905D01*
X0254954Y0065633D01*
X0254800Y0066406D01*
X0254800Y0066800D01*
X0258800Y0066800D01*
X0258800Y0067339D02*
X0258800Y0067339D01*
X0258800Y0068937D02*
X0258800Y0068937D01*
X0258800Y0070536D02*
X0258800Y0070536D01*
X0257367Y0070536D02*
X0214400Y0070536D01*
X0214400Y0072134D02*
X0263200Y0072134D01*
X0263200Y0073733D02*
X0214400Y0073733D01*
X0214400Y0075332D02*
X0263200Y0075332D01*
X0263200Y0076930D02*
X0214400Y0076930D01*
X0214145Y0078529D02*
X0263200Y0078529D01*
X0263200Y0080127D02*
X0242592Y0080127D01*
X0235008Y0080127D02*
X0213393Y0080127D01*
X0214191Y0081726D02*
X0233409Y0081726D01*
X0231811Y0083324D02*
X0215789Y0083324D01*
X0216200Y0084923D02*
X0231400Y0084923D01*
X0231400Y0086521D02*
X0216200Y0086521D01*
X0216200Y0088120D02*
X0231400Y0088120D01*
X0231400Y0089718D02*
X0216200Y0089718D01*
X0208800Y0086800D02*
X0193800Y0086800D01*
X0193800Y0091800D01*
X0173800Y0091800D01*
X0199953Y0096112D02*
X0203200Y0096112D01*
X0203686Y0094514D02*
X0201200Y0094514D01*
X0201200Y0092915D02*
X0204450Y0092915D01*
X0214400Y0068937D02*
X0255417Y0068937D01*
X0254829Y0067339D02*
X0214400Y0067339D01*
X0214400Y0065740D02*
X0254932Y0065740D01*
X0255801Y0064142D02*
X0214400Y0064142D01*
X0238800Y0086800D02*
X0268800Y0086800D01*
X0268800Y0066800D01*
X0262771Y0070536D02*
X0260233Y0070536D01*
X0258800Y0065740D02*
X0258800Y0065740D01*
X0258800Y0064142D02*
X0258800Y0064142D01*
X0261799Y0064142D02*
X0262324Y0064142D01*
X0257370Y0056149D02*
X0305700Y0056149D01*
X0305700Y0054551D02*
X0258722Y0054551D01*
X0259384Y0052952D02*
X0289487Y0052952D01*
X0282844Y0060945D02*
X0305700Y0060945D01*
X0311300Y0066800D02*
X0311300Y0021800D01*
X0316900Y0051354D02*
X0317889Y0051354D01*
X0316900Y0052952D02*
X0319487Y0052952D01*
X0316900Y0054551D02*
X0323497Y0054551D01*
X0324159Y0056149D02*
X0316900Y0056149D01*
X0316900Y0057748D02*
X0325717Y0057748D01*
X0326663Y0059346D02*
X0316900Y0059346D01*
X0316900Y0060945D02*
X0326076Y0060945D01*
X0326058Y0062543D02*
X0316900Y0062543D01*
X0316900Y0064142D02*
X0326606Y0064142D01*
X0328057Y0065740D02*
X0316900Y0065740D01*
X0311300Y0066800D02*
X0278800Y0066800D01*
X0274756Y0060945D02*
X0272844Y0060945D01*
X0280434Y0051354D02*
X0259400Y0051354D01*
X0259400Y0049755D02*
X0278836Y0049755D01*
X0277237Y0048157D02*
X0259400Y0048157D01*
X0333600Y0062543D02*
X0334000Y0062543D01*
X0334000Y0064142D02*
X0333600Y0064142D01*
X0333600Y0065740D02*
X0334000Y0065740D01*
X0327694Y0169644D02*
X0327109Y0169644D01*
X0341207Y0235183D02*
X0378800Y0235183D01*
X0378800Y0236781D02*
X0342812Y0236781D01*
X0343826Y0238380D02*
X0378800Y0238380D01*
X0378800Y0239978D02*
X0344488Y0239978D01*
X0344600Y0241577D02*
X0378800Y0241577D01*
X0378800Y0243175D02*
X0344600Y0243175D01*
X0344011Y0244774D02*
X0378800Y0244774D01*
X0378800Y0246372D02*
X0343259Y0246372D01*
X0343657Y0247971D02*
X0378800Y0247971D01*
X0378800Y0249569D02*
X0344319Y0249569D01*
X0344600Y0251168D02*
X0378800Y0251168D01*
X0378800Y0252766D02*
X0344600Y0252766D01*
X0344180Y0254365D02*
X0378800Y0254365D01*
X0378800Y0255963D02*
X0343518Y0255963D01*
X0343487Y0257562D02*
X0378800Y0257562D01*
X0378800Y0259160D02*
X0344149Y0259160D01*
X0344600Y0260759D02*
X0378800Y0260759D01*
X0378800Y0262357D02*
X0344600Y0262357D01*
X0344350Y0263956D02*
X0378800Y0263956D01*
X0378800Y0265554D02*
X0343688Y0265554D01*
X0342478Y0267153D02*
X0378800Y0267153D01*
X0378800Y0268751D02*
X0340518Y0268751D01*
X0341376Y0270350D02*
X0378800Y0270350D01*
X0378800Y0271948D02*
X0334000Y0271948D01*
X0334000Y0272000D02*
X0341600Y0272000D01*
X0341600Y0272178D01*
X0341482Y0272924D01*
X0341248Y0273643D01*
X0340905Y0274316D01*
X0340461Y0274927D01*
X0339927Y0275461D01*
X0339316Y0275905D01*
X0338643Y0276248D01*
X0337924Y0276482D01*
X0337178Y0276600D01*
X0334000Y0276600D01*
X0334000Y0272000D01*
X0333600Y0271948D02*
X0299400Y0271948D01*
X0299400Y0270350D02*
X0326224Y0270350D01*
X0327082Y0268751D02*
X0317314Y0268751D01*
X0318912Y0267153D02*
X0325122Y0267153D01*
X0323912Y0265554D02*
X0320511Y0265554D01*
X0321200Y0263956D02*
X0323250Y0263956D01*
X0323000Y0262357D02*
X0321200Y0262357D01*
X0321200Y0260759D02*
X0323000Y0260759D01*
X0316400Y0254365D02*
X0301200Y0254365D01*
X0301200Y0252766D02*
X0316400Y0252766D01*
X0316400Y0251168D02*
X0301200Y0251168D01*
X0301200Y0249569D02*
X0316400Y0249569D01*
X0317164Y0247971D02*
X0300436Y0247971D01*
X0298837Y0246372D02*
X0318763Y0246372D01*
X0320361Y0244774D02*
X0297239Y0244774D01*
X0290361Y0244774D02*
X0277239Y0244774D01*
X0278800Y0261800D02*
X0278800Y0276800D01*
X0268800Y0276800D02*
X0268800Y0284300D01*
X0238800Y0284300D01*
X0238800Y0291800D01*
X0232461Y0295926D02*
X0230846Y0295926D01*
X0231400Y0294328D02*
X0229400Y0294328D01*
X0229400Y0292729D02*
X0231400Y0292729D01*
X0231400Y0291131D02*
X0229400Y0291131D01*
X0229400Y0289532D02*
X0231400Y0289532D01*
X0232201Y0287934D02*
X0229400Y0287934D01*
X0229400Y0286335D02*
X0233200Y0286335D01*
X0233200Y0284737D02*
X0229400Y0284737D01*
X0229400Y0283138D02*
X0233220Y0283138D01*
X0233882Y0281539D02*
X0229400Y0281539D01*
X0229091Y0279941D02*
X0235239Y0279941D01*
X0228262Y0278342D02*
X0255109Y0278342D01*
X0254800Y0276744D02*
X0226227Y0276744D01*
X0278800Y0261800D02*
X0283800Y0261800D01*
X0299400Y0262357D02*
X0306400Y0262357D01*
X0306400Y0260759D02*
X0299400Y0260759D01*
X0299400Y0259160D02*
X0306400Y0259160D01*
X0307573Y0257562D02*
X0299400Y0257562D01*
X0300102Y0255963D02*
X0309172Y0255963D01*
X0306400Y0263956D02*
X0299400Y0263956D01*
X0299400Y0265554D02*
X0307089Y0265554D01*
X0308688Y0267153D02*
X0299400Y0267153D01*
X0299400Y0268751D02*
X0310286Y0268751D01*
X0299400Y0273547D02*
X0326321Y0273547D01*
X0327357Y0275145D02*
X0299400Y0275145D01*
X0299400Y0276744D02*
X0378800Y0276744D01*
X0378800Y0278342D02*
X0299400Y0278342D01*
X0299400Y0279941D02*
X0378800Y0279941D01*
X0378800Y0281539D02*
X0299400Y0281539D01*
X0299400Y0283138D02*
X0378800Y0283138D01*
X0378800Y0284737D02*
X0299400Y0284737D01*
X0299400Y0286335D02*
X0378800Y0286335D01*
X0378800Y0287934D02*
X0299400Y0287934D01*
X0299400Y0289532D02*
X0378800Y0289532D01*
X0378800Y0291131D02*
X0299400Y0291131D01*
X0299400Y0292729D02*
X0378800Y0292729D01*
X0378800Y0294328D02*
X0299400Y0294328D01*
X0299400Y0295926D02*
X0378800Y0295926D01*
X0378800Y0297525D02*
X0299400Y0297525D01*
X0298899Y0299123D02*
X0378800Y0299123D01*
X0378800Y0300722D02*
X0297798Y0300722D01*
X0296199Y0302320D02*
X0378800Y0302320D01*
X0378800Y0303919D02*
X0294601Y0303919D01*
X0293002Y0305517D02*
X0378800Y0305517D01*
X0378800Y0275145D02*
X0340243Y0275145D01*
X0341279Y0273547D02*
X0378800Y0273547D01*
X0334000Y0273547D02*
X0333600Y0273547D01*
X0333600Y0275145D02*
X0334000Y0275145D01*
X0108800Y0181800D02*
X0093800Y0181800D01*
M02*
