G75*
%MOIN*%
%OFA0B0*%
%FSLAX25Y25*%
%IPPOS*%
%LPD*%
%AMOC8*
5,1,8,0,0,1.08239X$1,22.5*
%
%ADD10C,0.06400*%
%ADD11OC8,0.06400*%
%ADD12C,0.06000*%
%ADD13C,0.05200*%
%ADD14C,0.06800*%
%ADD15OC8,0.06000*%
D10*
X0043800Y0211800D03*
D11*
X0043800Y0221800D03*
X0033800Y0221800D03*
X0033800Y0211800D03*
X0033800Y0231800D03*
X0033800Y0241800D03*
X0033800Y0251800D03*
X0033800Y0261800D03*
X0043800Y0261800D03*
X0043800Y0251800D03*
X0043800Y0241800D03*
X0043800Y0231800D03*
X0043800Y0271800D03*
X0033800Y0271800D03*
D12*
X0153800Y0274200D02*
X0153800Y0279400D01*
X0163800Y0279400D02*
X0163800Y0274200D01*
X0173800Y0274200D02*
X0173800Y0279400D01*
X0183800Y0279400D02*
X0183800Y0274200D01*
X0183800Y0249400D02*
X0183800Y0244200D01*
X0173800Y0244200D02*
X0173800Y0249400D01*
X0163800Y0249400D02*
X0163800Y0244200D01*
X0153800Y0244200D02*
X0153800Y0249400D01*
X0153800Y0214400D02*
X0153800Y0209200D01*
X0163800Y0209200D02*
X0163800Y0214400D01*
X0173800Y0214400D02*
X0173800Y0209200D01*
X0183800Y0209200D02*
X0183800Y0214400D01*
X0183800Y0184400D02*
X0183800Y0179200D01*
X0173800Y0179200D02*
X0173800Y0184400D01*
X0163800Y0184400D02*
X0163800Y0179200D01*
X0153800Y0179200D02*
X0153800Y0184400D01*
X0153800Y0149400D02*
X0153800Y0144200D01*
X0163800Y0144200D02*
X0163800Y0149400D01*
X0173800Y0149400D02*
X0173800Y0144200D01*
X0183800Y0144200D02*
X0183800Y0149400D01*
X0183800Y0119400D02*
X0183800Y0114200D01*
X0173800Y0114200D02*
X0173800Y0119400D01*
X0163800Y0119400D02*
X0163800Y0114200D01*
X0153800Y0114200D02*
X0153800Y0119400D01*
X0153800Y0079400D02*
X0153800Y0074200D01*
X0163800Y0074200D02*
X0163800Y0079400D01*
X0173800Y0079400D02*
X0173800Y0074200D01*
X0183800Y0074200D02*
X0183800Y0079400D01*
X0183800Y0049400D02*
X0183800Y0044200D01*
X0173800Y0044200D02*
X0173800Y0049400D01*
X0163800Y0049400D02*
X0163800Y0044200D01*
X0153800Y0044200D02*
X0153800Y0049400D01*
D13*
X0073800Y0056800D03*
X0083800Y0056800D03*
X0093800Y0056800D03*
X0093800Y0121800D03*
X0083800Y0121800D03*
X0073800Y0121800D03*
X0073800Y0181800D03*
X0083800Y0181800D03*
X0093800Y0181800D03*
X0093800Y0246800D03*
X0083800Y0246800D03*
X0073800Y0246800D03*
X0258800Y0276800D03*
X0268800Y0276800D03*
X0278800Y0276800D03*
X0278800Y0206800D03*
X0268800Y0206800D03*
X0258800Y0206800D03*
X0258800Y0146800D03*
X0268800Y0146800D03*
X0278800Y0146800D03*
X0278800Y0066800D03*
X0268800Y0066800D03*
X0258800Y0066800D03*
D14*
X0330800Y0061800D02*
X0336800Y0061800D01*
X0336800Y0051800D02*
X0330800Y0051800D01*
X0330800Y0041800D02*
X0336800Y0041800D01*
X0336800Y0031800D02*
X0330800Y0031800D01*
X0330800Y0106800D02*
X0336800Y0106800D01*
X0336800Y0116800D02*
X0330800Y0116800D01*
X0330800Y0126800D02*
X0336800Y0126800D01*
X0336800Y0136800D02*
X0330800Y0136800D01*
X0330800Y0176800D02*
X0336800Y0176800D01*
X0336800Y0186800D02*
X0330800Y0186800D01*
X0330800Y0196800D02*
X0336800Y0196800D01*
X0336800Y0206800D02*
X0330800Y0206800D01*
X0330800Y0241800D02*
X0336800Y0241800D01*
X0336800Y0251800D02*
X0330800Y0251800D01*
X0330800Y0261800D02*
X0336800Y0261800D01*
X0336800Y0271800D02*
X0330800Y0271800D01*
D15*
X0313800Y0261800D03*
X0323800Y0251800D03*
X0293800Y0251800D03*
X0283800Y0261800D03*
X0273800Y0251800D03*
X0243800Y0251800D03*
X0223800Y0246800D03*
X0233800Y0226800D03*
X0203800Y0226800D03*
X0193800Y0226800D03*
X0193800Y0246800D03*
X0163800Y0226800D03*
X0153800Y0221800D03*
X0123800Y0221800D03*
X0108800Y0216800D03*
X0108800Y0246800D03*
X0123800Y0286800D03*
X0153800Y0286800D03*
X0163800Y0291800D03*
X0193800Y0291800D03*
X0208800Y0291800D03*
X0238800Y0291800D03*
X0238800Y0186800D03*
X0223800Y0181800D03*
X0208800Y0156800D03*
X0193800Y0161800D03*
X0193800Y0181800D03*
X0163800Y0161800D03*
X0153800Y0156800D03*
X0123800Y0156800D03*
X0108800Y0151800D03*
X0108800Y0181800D03*
X0043800Y0176800D03*
X0043800Y0146800D03*
X0108800Y0121800D03*
X0108800Y0091800D03*
X0123800Y0086800D03*
X0153800Y0086800D03*
X0163800Y0091800D03*
X0193800Y0091800D03*
X0208800Y0086800D03*
X0193800Y0106800D03*
X0223800Y0106800D03*
X0223800Y0121800D03*
X0253800Y0121800D03*
X0238800Y0086800D03*
X0223800Y0041800D03*
X0223800Y0036800D03*
X0193800Y0036800D03*
X0253800Y0041800D03*
X0293800Y0046800D03*
X0293800Y0026800D03*
X0323800Y0026800D03*
X0323800Y0046800D03*
X0323800Y0106800D03*
X0323800Y0116800D03*
X0293800Y0116800D03*
X0293800Y0106800D03*
X0238800Y0156800D03*
X0268800Y0186800D03*
X0293800Y0186800D03*
X0293800Y0176800D03*
X0323800Y0176800D03*
X0323800Y0186800D03*
X0108800Y0056800D03*
X0108800Y0026800D03*
M02*
