G75*
%MOIN*%
%OFA0B0*%
%FSLAX26Y26*%
%IPPOS*%
%LPD*%
%AMOC8*
5,1,8,0,0,1.08239X$1,22.5*
%
%ADD10OC8,0.052000*%
%ADD11C,0.056000*%
%ADD12OC8,0.056000*%
%ADD13C,0.052000*%
%ADD14OC8,0.063000*%
%ADD15C,0.044000*%
%ADD16C,0.060000*%
%ADD17C,0.016000*%
%ADD18C,0.047496*%
D10*
X00900000Y00100000D03*
X01050000Y00100000D03*
X01050000Y00300000D03*
X00900000Y00300000D03*
X00550000Y01200000D03*
X00550000Y01350000D03*
X00250000Y01350000D03*
X00250000Y01200000D03*
X00900000Y01300000D03*
X01050000Y01300000D03*
X01050000Y01600000D03*
X00900000Y01600000D03*
X01550000Y01350000D03*
X01550000Y01200000D03*
X01850000Y01200000D03*
X01850000Y01350000D03*
X02150000Y00400000D03*
X02300000Y00400000D03*
X02300000Y00100000D03*
X02150000Y00100000D03*
D11*
X00350000Y00200000D03*
D12*
X00250000Y00200000D03*
X00250000Y00300000D03*
X00350000Y00300000D03*
X00350000Y00400000D03*
X00250000Y00400000D03*
X00250000Y00500000D03*
X00350000Y00500000D03*
X00350000Y00600000D03*
X00250000Y00600000D03*
X00250000Y00700000D03*
X00350000Y00700000D03*
X00350000Y00800000D03*
X00250000Y00800000D03*
X00250000Y00900000D03*
X00350000Y00900000D03*
D13*
X01574000Y00850000D02*
X01626000Y00850000D01*
X01626000Y00750000D02*
X01574000Y00750000D01*
X01574000Y00650000D02*
X01626000Y00650000D01*
X01626000Y00550000D02*
X01574000Y00550000D01*
X01574000Y00450000D02*
X01626000Y00450000D01*
X01626000Y00350000D02*
X01574000Y00350000D01*
X01574000Y00250000D02*
X01626000Y00250000D01*
X01874000Y00250000D02*
X01926000Y00250000D01*
X01926000Y00350000D02*
X01874000Y00350000D01*
X01874000Y00450000D02*
X01926000Y00450000D01*
X01926000Y00550000D02*
X01874000Y00550000D01*
X01874000Y00650000D02*
X01926000Y00650000D01*
X01926000Y00750000D02*
X01874000Y00750000D01*
X01874000Y00850000D02*
X01926000Y00850000D01*
D14*
X00750000Y00900000D03*
X00600000Y00900000D03*
X00600000Y00500000D03*
X00750000Y00500000D03*
X00750000Y00100000D03*
X00600000Y00100000D03*
D15*
X01325000Y00650000D03*
X01325000Y00750000D03*
X01325000Y00850000D03*
X00700000Y01300000D03*
X00700000Y01400000D03*
X00700000Y01500000D03*
X02100000Y00850000D03*
X02100000Y00750000D03*
X02100000Y00650000D03*
X02150000Y01300000D03*
X02150000Y01400000D03*
X02150000Y01500000D03*
D16*
X02000000Y01520000D02*
X02000000Y01580000D01*
X01900000Y01580000D02*
X01900000Y01520000D01*
X01800000Y01520000D02*
X01800000Y01580000D01*
X01700000Y01580000D02*
X01700000Y01520000D01*
X00550000Y01520000D02*
X00550000Y01580000D01*
X00450000Y01580000D02*
X00450000Y01520000D01*
X00350000Y01520000D02*
X00350000Y01580000D01*
X00250000Y01580000D02*
X00250000Y01520000D01*
D17*
X00000000Y00000000D02*
X02550000Y00000000D01*
X00000000Y00000000D01*
X00000000Y01800000D01*
X02550000Y01800000D01*
X02550000Y00000000D01*
X02550000Y00015999D02*
X00000000Y00015999D01*
X00000000Y00031997D02*
X02550000Y00031997D01*
X02550000Y00047996D02*
X02324363Y00047996D01*
X02322367Y00046000D02*
X02340367Y00064000D01*
X02357161Y00064000D01*
X02370392Y00069481D01*
X02470392Y00169481D01*
X02480519Y00179608D01*
X02486000Y00192839D01*
X02486000Y01407161D01*
X02480519Y01420392D01*
X02470392Y01430519D01*
X02457161Y01436000D01*
X02184711Y01436000D01*
X02178323Y01442388D01*
X02159946Y01450000D01*
X02140054Y01450000D01*
X02121677Y01442388D01*
X02107612Y01428323D01*
X02100000Y01409946D01*
X02100000Y01390054D01*
X02107612Y01371677D01*
X02121677Y01357612D01*
X02140054Y01350000D01*
X02159946Y01350000D01*
X02178323Y01357612D01*
X02184711Y01364000D01*
X02414000Y01364000D01*
X02414000Y00214912D01*
X02337728Y00138639D01*
X02322367Y00154000D01*
X02277633Y00154000D01*
X02246000Y00122367D01*
X02246000Y00077633D01*
X02277633Y00046000D01*
X02322367Y00046000D01*
X02340361Y00063994D02*
X02550000Y00063994D01*
X02550000Y00079993D02*
X02380904Y00079993D01*
X02396903Y00095991D02*
X02550000Y00095991D01*
X02550000Y00111990D02*
X02412901Y00111990D01*
X02428900Y00127988D02*
X02550000Y00127988D01*
X02550000Y00143987D02*
X02444898Y00143987D01*
X02460897Y00159985D02*
X02550000Y00159985D01*
X02550000Y00175984D02*
X02476895Y00175984D01*
X02485645Y00191982D02*
X02550000Y00191982D01*
X02550000Y00207981D02*
X02486000Y00207981D01*
X02486000Y00223979D02*
X02550000Y00223979D01*
X02550000Y00239978D02*
X02486000Y00239978D01*
X02486000Y00255976D02*
X02550000Y00255976D01*
X02550000Y00271975D02*
X02486000Y00271975D01*
X02486000Y00287973D02*
X02550000Y00287973D01*
X02550000Y00303972D02*
X02486000Y00303972D01*
X02486000Y00319970D02*
X02550000Y00319970D01*
X02550000Y00335969D02*
X02486000Y00335969D01*
X02486000Y00351968D02*
X02550000Y00351968D01*
X02550000Y00367966D02*
X02486000Y00367966D01*
X02486000Y00383965D02*
X02550000Y00383965D01*
X02550000Y00399963D02*
X02486000Y00399963D01*
X02486000Y00415962D02*
X02550000Y00415962D01*
X02550000Y00431960D02*
X02486000Y00431960D01*
X02486000Y00447959D02*
X02550000Y00447959D01*
X02550000Y00463957D02*
X02486000Y00463957D01*
X02486000Y00479956D02*
X02550000Y00479956D01*
X02550000Y00495954D02*
X02486000Y00495954D01*
X02486000Y00511953D02*
X02550000Y00511953D01*
X02550000Y00527951D02*
X02486000Y00527951D01*
X02486000Y00543950D02*
X02550000Y00543950D01*
X02550000Y00559948D02*
X02486000Y00559948D01*
X02486000Y00575947D02*
X02550000Y00575947D01*
X02550000Y00591945D02*
X02486000Y00591945D01*
X02486000Y00607944D02*
X02550000Y00607944D01*
X02550000Y00623942D02*
X02486000Y00623942D01*
X02486000Y00639941D02*
X02550000Y00639941D01*
X02550000Y00655939D02*
X02486000Y00655939D01*
X02486000Y00671938D02*
X02550000Y00671938D01*
X02550000Y00687937D02*
X02486000Y00687937D01*
X02486000Y00703935D02*
X02550000Y00703935D01*
X02550000Y00719934D02*
X02486000Y00719934D01*
X02486000Y00735932D02*
X02550000Y00735932D01*
X02550000Y00751931D02*
X02486000Y00751931D01*
X02486000Y00767929D02*
X02550000Y00767929D01*
X02550000Y00783928D02*
X02486000Y00783928D01*
X02486000Y00799926D02*
X02550000Y00799926D01*
X02550000Y00815925D02*
X02486000Y00815925D01*
X02486000Y00831923D02*
X02550000Y00831923D01*
X02550000Y00847922D02*
X02486000Y00847922D01*
X02486000Y00863920D02*
X02550000Y00863920D01*
X02550000Y00879919D02*
X02486000Y00879919D01*
X02486000Y00895917D02*
X02550000Y00895917D01*
X02550000Y00911916D02*
X02486000Y00911916D01*
X02486000Y00927914D02*
X02550000Y00927914D01*
X02550000Y00943913D02*
X02486000Y00943913D01*
X02486000Y00959911D02*
X02550000Y00959911D01*
X02550000Y00975910D02*
X02486000Y00975910D01*
X02486000Y00991908D02*
X02550000Y00991908D01*
X02550000Y01007907D02*
X02486000Y01007907D01*
X02486000Y01023906D02*
X02550000Y01023906D01*
X02550000Y01039904D02*
X02486000Y01039904D01*
X02486000Y01055903D02*
X02550000Y01055903D01*
X02550000Y01071901D02*
X02486000Y01071901D01*
X02486000Y01087900D02*
X02550000Y01087900D01*
X02550000Y01103898D02*
X02486000Y01103898D01*
X02486000Y01119897D02*
X02550000Y01119897D01*
X02550000Y01135895D02*
X02486000Y01135895D01*
X02486000Y01151894D02*
X02550000Y01151894D01*
X02550000Y01167892D02*
X02486000Y01167892D01*
X02486000Y01183891D02*
X02550000Y01183891D01*
X02550000Y01199889D02*
X02486000Y01199889D01*
X02486000Y01215888D02*
X02550000Y01215888D01*
X02550000Y01231886D02*
X02486000Y01231886D01*
X02486000Y01247885D02*
X02550000Y01247885D01*
X02550000Y01263883D02*
X02486000Y01263883D01*
X02486000Y01279882D02*
X02550000Y01279882D01*
X02550000Y01295880D02*
X02486000Y01295880D01*
X02486000Y01311879D02*
X02550000Y01311879D01*
X02550000Y01327877D02*
X02486000Y01327877D01*
X02486000Y01343876D02*
X02550000Y01343876D01*
X02550000Y01359875D02*
X02486000Y01359875D01*
X02486000Y01375873D02*
X02550000Y01375873D01*
X02550000Y01391872D02*
X02486000Y01391872D01*
X02485706Y01407870D02*
X02550000Y01407870D01*
X02550000Y01423869D02*
X02477043Y01423869D01*
X02450000Y01400000D02*
X02150000Y01400000D01*
X02105767Y01423869D02*
X01836000Y01423869D01*
X01836000Y01414912D02*
X01836000Y01473976D01*
X01849170Y01487146D01*
X01850000Y01489149D01*
X01850830Y01487146D01*
X01867146Y01470830D01*
X01888463Y01462000D01*
X01911537Y01462000D01*
X01932854Y01470830D01*
X01949170Y01487146D01*
X01950000Y01489149D01*
X01950830Y01487146D01*
X01967146Y01470830D01*
X01988463Y01462000D01*
X02011537Y01462000D01*
X02032854Y01470830D01*
X02049170Y01487146D01*
X02058000Y01508463D01*
X02058000Y01514000D01*
X02085088Y01514000D01*
X02100000Y01499088D01*
X02100000Y01490054D01*
X02107612Y01471677D01*
X02121677Y01457612D01*
X02140054Y01450000D01*
X02159946Y01450000D01*
X02178323Y01457612D01*
X02192388Y01471677D01*
X02200000Y01490054D01*
X02200000Y01509946D01*
X02192388Y01528323D01*
X02178323Y01542388D01*
X02159946Y01550000D01*
X02150912Y01550000D01*
X02120392Y01580519D01*
X02107161Y01586000D01*
X02058000Y01586000D01*
X02058000Y01591537D01*
X02049170Y01612854D01*
X02036000Y01626024D01*
X02036000Y01757161D01*
X02030519Y01770392D01*
X02020392Y01780519D01*
X02007161Y01786000D01*
X00142839Y01786000D01*
X00129608Y01780519D01*
X00119481Y01770392D01*
X00114000Y01757161D01*
X00114000Y00842839D01*
X00119481Y00829608D01*
X00129608Y00819481D01*
X00179608Y00769481D01*
X00192839Y00764000D01*
X00206804Y00764000D01*
X00220804Y00750000D01*
X00194000Y00723196D01*
X00194000Y00676804D01*
X00220804Y00650000D01*
X00194000Y00623196D01*
X00194000Y00576804D01*
X00220804Y00550000D01*
X00194000Y00523196D01*
X00194000Y00476804D01*
X00220804Y00450000D01*
X00194000Y00423196D01*
X00194000Y00376804D01*
X00220804Y00350000D01*
X00194000Y00323196D01*
X00194000Y00276804D01*
X00226804Y00244000D01*
X00228946Y00244000D01*
X00204000Y00219054D01*
X00204000Y00201000D01*
X00248999Y00201000D01*
X00248999Y00199000D01*
X00204000Y00199000D01*
X00204000Y00180946D01*
X00230946Y00154000D01*
X00249000Y00154000D01*
X00249000Y00198999D01*
X00251000Y00198999D01*
X00251000Y00154000D01*
X00269054Y00154000D01*
X00296000Y00180946D01*
X00296000Y00199000D01*
X00251001Y00199000D01*
X00251001Y00201000D01*
X00296000Y00201000D01*
X00296000Y00219054D01*
X00271054Y00244000D01*
X00273196Y00244000D01*
X00293196Y00264000D01*
X00306804Y00264000D01*
X00326804Y00244000D01*
X00336559Y00244000D01*
X00332342Y00242630D01*
X00325891Y00239343D01*
X00320033Y00235087D01*
X00314913Y00229967D01*
X00310657Y00224109D01*
X00307370Y00217658D01*
X00305133Y00210772D01*
X00304000Y00203620D01*
X00304000Y00201000D01*
X00348999Y00201000D01*
X00348999Y00199000D01*
X00304000Y00199000D01*
X00304000Y00196380D01*
X00305133Y00189228D01*
X00307370Y00182342D01*
X00310657Y00175891D01*
X00314913Y00170033D01*
X00320033Y00164913D01*
X00325891Y00160657D01*
X00332342Y00157370D01*
X00339228Y00155133D01*
X00346380Y00154000D01*
X00349000Y00154000D01*
X00349000Y00198999D01*
X00351000Y00198999D01*
X00351000Y00154000D01*
X00353620Y00154000D01*
X00360772Y00155133D01*
X00367658Y00157370D01*
X00374109Y00160657D01*
X00379967Y00164913D01*
X00385087Y00170033D01*
X00389343Y00175891D01*
X00392630Y00182342D01*
X00394867Y00189228D01*
X00396000Y00196380D01*
X00396000Y00199000D01*
X00351001Y00199000D01*
X00351001Y00201000D01*
X00396000Y00201000D01*
X00396000Y00203620D01*
X00394867Y00210772D01*
X00392630Y00217658D01*
X00389343Y00224109D01*
X00385087Y00229967D01*
X00379967Y00235087D01*
X00374109Y00239343D01*
X00367658Y00242630D01*
X00363440Y00244000D01*
X00373196Y00244000D01*
X00406000Y00276804D01*
X00406000Y00323196D01*
X00379196Y00350000D01*
X00393196Y00364000D01*
X00414000Y00364000D01*
X00414000Y00242839D01*
X00419481Y00229608D01*
X00429608Y00219481D01*
X00442839Y00214000D01*
X00564000Y00214000D01*
X00564000Y00148146D01*
X00540500Y00124646D01*
X00540500Y00075354D01*
X00575354Y00040500D01*
X00624646Y00040500D01*
X00659500Y00075354D01*
X00659500Y00124646D01*
X00636000Y00148146D01*
X00636000Y00163088D01*
X00690500Y00108588D01*
X00690500Y00075354D01*
X00725354Y00040500D01*
X00774646Y00040500D01*
X00809500Y00075354D01*
X00809500Y00124646D01*
X00774646Y00159500D01*
X00741412Y00159500D01*
X00686000Y00214912D01*
X00686000Y00332161D01*
X00680519Y00345392D01*
X00670392Y00355519D01*
X00657161Y00361000D01*
X00561000Y00361000D01*
X00561000Y00454855D01*
X00575354Y00440500D01*
X00624646Y00440500D01*
X00659500Y00475354D01*
X00659500Y00504723D01*
X00839000Y00664278D01*
X00839000Y00639912D01*
X00758588Y00559500D01*
X00725354Y00559500D01*
X00690500Y00524646D01*
X00690500Y00475354D01*
X00725354Y00440500D01*
X00774646Y00440500D01*
X00809500Y00475354D01*
X00809500Y00508588D01*
X00905519Y00604608D01*
X00911000Y00617839D01*
X00911000Y00672889D01*
X00923519Y00660369D01*
X00940701Y00653252D01*
X00945836Y00653252D01*
X01169481Y00429608D01*
X01169481Y00429608D01*
X01179608Y00419481D01*
X01192839Y00414000D01*
X01533633Y00414000D01*
X01543411Y00404221D01*
X01553602Y00400000D01*
X01543411Y00395779D01*
X01533632Y00386000D01*
X01164912Y00386000D01*
X01046748Y00504164D01*
X01046748Y00509299D01*
X01039631Y00526481D01*
X01026481Y00539631D01*
X01009299Y00546748D01*
X00990701Y00546748D01*
X00973519Y00539631D01*
X00960369Y00526481D01*
X00953252Y00509299D01*
X00953252Y00490701D01*
X00960369Y00473519D01*
X00973519Y00460369D01*
X00990701Y00453252D01*
X00995836Y00453252D01*
X01129608Y00319481D01*
X01142839Y00314000D01*
X01533632Y00314000D01*
X01543411Y00304221D01*
X01553602Y00300000D01*
X01543411Y00295779D01*
X01533633Y00286000D01*
X01330112Y00286000D01*
X01326481Y00289631D01*
X01309299Y00296748D01*
X01290701Y00296748D01*
X01273519Y00289631D01*
X01260369Y00276481D01*
X01253252Y00259299D01*
X01253252Y00240701D01*
X01260369Y00223519D01*
X01273519Y00210369D01*
X01290701Y00203252D01*
X01309299Y00203252D01*
X01326481Y00210369D01*
X01330112Y00214000D01*
X01533633Y00214000D01*
X01543411Y00204221D01*
X01563259Y00196000D01*
X01636741Y00196000D01*
X01656588Y00204221D01*
X01666367Y00214000D01*
X01707161Y00214000D01*
X01720392Y00219481D01*
X01730519Y00229608D01*
X01736000Y00242839D01*
X01736000Y00657161D01*
X01730519Y00670392D01*
X01720392Y00680519D01*
X01707161Y00686000D01*
X01666367Y00686000D01*
X01656588Y00695779D01*
X01646398Y00700000D01*
X01656588Y00704221D01*
X01671779Y00719411D01*
X01680000Y00739259D01*
X01680000Y00760741D01*
X01671779Y00780588D01*
X01656588Y00795779D01*
X01646398Y00800000D01*
X01656588Y00804221D01*
X01671779Y00819411D01*
X01680000Y00839259D01*
X01680000Y00860741D01*
X01671779Y00880588D01*
X01656588Y00895779D01*
X01636741Y00904000D01*
X01563259Y00904000D01*
X01543411Y00895779D01*
X01533632Y00886000D01*
X01359711Y00886000D01*
X01353323Y00892388D01*
X01334946Y00900000D01*
X01315054Y00900000D01*
X01296677Y00892388D01*
X01290289Y00886000D01*
X00867839Y00886000D01*
X00861000Y00883167D01*
X00861000Y00914000D01*
X01785088Y00914000D01*
X01825374Y00873715D01*
X01820000Y00860741D01*
X01820000Y00839259D01*
X01828221Y00819411D01*
X01843411Y00804221D01*
X01853602Y00800000D01*
X01843411Y00795779D01*
X01828221Y00780588D01*
X01820000Y00760741D01*
X01820000Y00739259D01*
X01828221Y00719411D01*
X01843411Y00704221D01*
X01853602Y00700000D01*
X01843411Y00695779D01*
X01833633Y00686000D01*
X01792839Y00686000D01*
X01779608Y00680519D01*
X01769481Y00670392D01*
X01764000Y00657161D01*
X01764000Y00242839D01*
X01769481Y00229608D01*
X01779608Y00219481D01*
X01792839Y00214000D01*
X01833633Y00214000D01*
X01843411Y00204221D01*
X01863259Y00196000D01*
X01864000Y00196000D01*
X01864000Y00142839D01*
X01869481Y00129608D01*
X01929608Y00069481D01*
X01942839Y00064000D01*
X02109633Y00064000D01*
X02127633Y00046000D01*
X02172367Y00046000D01*
X02204000Y00077633D01*
X02204000Y00122367D01*
X02172367Y00154000D01*
X02127633Y00154000D01*
X02109633Y00136000D01*
X01964912Y00136000D01*
X01936000Y00164912D01*
X01936000Y00196000D01*
X01936741Y00196000D01*
X01956588Y00204221D01*
X01971779Y00219411D01*
X01980000Y00239259D01*
X01980000Y00260741D01*
X01971779Y00280588D01*
X01956588Y00295779D01*
X01946398Y00300000D01*
X01956588Y00304221D01*
X01966367Y00314000D01*
X02057161Y00314000D01*
X02070392Y00319481D01*
X02112272Y00361360D01*
X02127633Y00346000D01*
X02172367Y00346000D01*
X02190367Y00364000D01*
X02259633Y00364000D01*
X02277633Y00346000D01*
X02322367Y00346000D01*
X02354000Y00377633D01*
X02354000Y00422367D01*
X02322367Y00454000D01*
X02277633Y00454000D01*
X02259633Y00436000D01*
X02190367Y00436000D01*
X02172367Y00454000D01*
X02127633Y00454000D01*
X02109633Y00436000D01*
X02092839Y00436000D01*
X02082720Y00431808D01*
X02114912Y00464000D01*
X02207161Y00464000D01*
X02220392Y00469481D01*
X02370392Y00619481D01*
X02380519Y00629608D01*
X02386000Y00642839D01*
X02386000Y00919888D01*
X02389631Y00923519D01*
X02396748Y00940701D01*
X02396748Y00959299D01*
X02389631Y00976481D01*
X02376481Y00989631D01*
X02359299Y00996748D01*
X02340701Y00996748D01*
X02323519Y00989631D01*
X02310369Y00976481D01*
X02303252Y00959299D01*
X02303252Y00940701D01*
X02310369Y00923519D01*
X02314000Y00919888D01*
X02314000Y00664912D01*
X02185088Y00536000D01*
X02092839Y00536000D01*
X02079608Y00530519D01*
X02069481Y00520392D01*
X02035088Y00486000D01*
X01966367Y00486000D01*
X01956588Y00495779D01*
X01936741Y00504000D01*
X01863259Y00504000D01*
X01843411Y00495779D01*
X01836000Y00488367D01*
X01836000Y00527661D01*
X01836368Y00526939D01*
X01840439Y00521336D01*
X01845336Y00516439D01*
X01850939Y00512368D01*
X01857110Y00509224D01*
X01863697Y00507083D01*
X01870537Y00506000D01*
X01899999Y00506000D01*
X01899999Y00549999D01*
X01900000Y00549999D01*
X01900000Y00506000D01*
X01929463Y00506000D01*
X01936303Y00507083D01*
X01942890Y00509224D01*
X01949061Y00512368D01*
X01954664Y00516439D01*
X01959561Y00521336D01*
X01963632Y00526939D01*
X01966776Y00533110D01*
X01968916Y00539697D01*
X01970000Y00546537D01*
X01970000Y00549999D01*
X01900001Y00549999D01*
X01900001Y00550000D01*
X01970000Y00550000D01*
X01970000Y00553463D01*
X01968916Y00560303D01*
X01966776Y00566890D01*
X01963632Y00573061D01*
X01959561Y00578664D01*
X01954664Y00583561D01*
X01949061Y00587632D01*
X01942890Y00590776D01*
X01936303Y00592916D01*
X01929463Y00594000D01*
X01900000Y00594000D01*
X01900000Y00550001D01*
X01899999Y00550001D01*
X01899999Y00594000D01*
X01870537Y00594000D01*
X01863697Y00592916D01*
X01857110Y00590776D01*
X01850939Y00587632D01*
X01845336Y00583561D01*
X01840439Y00578664D01*
X01836368Y00573061D01*
X01836000Y00572339D01*
X01836000Y00611633D01*
X01843411Y00604221D01*
X01863259Y00596000D01*
X01936741Y00596000D01*
X01956588Y00604221D01*
X01971779Y00619411D01*
X01980000Y00639259D01*
X01980000Y00660741D01*
X01971779Y00680588D01*
X01956588Y00695779D01*
X01946398Y00700000D01*
X01956588Y00704221D01*
X01966367Y00714000D01*
X02065289Y00714000D01*
X02071677Y00707612D01*
X02090054Y00700000D01*
X02109946Y00700000D01*
X02128323Y00707612D01*
X02142388Y00721677D01*
X02150000Y00740054D01*
X02150000Y00759946D01*
X02142388Y00778323D01*
X02128323Y00792388D01*
X02109946Y00800000D01*
X02128323Y00807612D01*
X02142388Y00821677D01*
X02150000Y00840054D01*
X02150000Y00859946D01*
X02142388Y00878323D01*
X02128323Y00892388D01*
X02109946Y00900000D01*
X02090054Y00900000D01*
X02071677Y00892388D01*
X02065289Y00886000D01*
X01966367Y00886000D01*
X01956588Y00895779D01*
X01936741Y00904000D01*
X01896912Y00904000D01*
X01830519Y00970392D01*
X01820392Y00980519D01*
X01807161Y00986000D01*
X00817839Y00986000D01*
X00804608Y00980519D01*
X00794481Y00970392D01*
X00789000Y00957161D01*
X00789000Y00945145D01*
X00786000Y00948146D01*
X00786000Y01007161D01*
X00780519Y01020392D01*
X00770392Y01030519D01*
X00757161Y01036000D01*
X00592839Y01036000D01*
X00579608Y01030519D01*
X00479608Y00930519D01*
X00469481Y00920392D01*
X00464000Y00907161D01*
X00464000Y00764912D01*
X00435088Y00736000D01*
X00393196Y00736000D01*
X00379196Y00750000D01*
X00406000Y00776804D01*
X00406000Y00823196D01*
X00379196Y00850000D01*
X00406000Y00876804D01*
X00406000Y00923196D01*
X00373196Y00956000D01*
X00326804Y00956000D01*
X00306804Y00936000D01*
X00293196Y00936000D01*
X00273196Y00956000D01*
X00226804Y00956000D01*
X00194000Y00923196D01*
X00194000Y00876804D01*
X00220804Y00850000D01*
X00210858Y00840054D01*
X00186000Y00864912D01*
X00186000Y01714000D01*
X00514000Y01714000D01*
X00514000Y01626024D01*
X00500830Y01612854D01*
X00500000Y01610850D01*
X00499170Y01612854D01*
X00482854Y01629170D01*
X00461537Y01638000D01*
X00438463Y01638000D01*
X00417146Y01629170D01*
X00400830Y01612854D01*
X00400000Y01610850D01*
X00399170Y01612854D01*
X00382854Y01629170D01*
X00361537Y01638000D01*
X00338463Y01638000D01*
X00317146Y01629170D01*
X00300830Y01612854D01*
X00294646Y01597925D01*
X00294483Y01598426D01*
X00291053Y01605157D01*
X00286612Y01611270D01*
X00281270Y01616612D01*
X00275157Y01621053D01*
X00268426Y01624483D01*
X00261240Y01626818D01*
X00253778Y01628000D01*
X00252000Y01628000D01*
X00252000Y01552001D01*
X00248000Y01552001D01*
X00248000Y01628000D01*
X00246222Y01628000D01*
X00238760Y01626818D01*
X00231574Y01624483D01*
X00224843Y01621053D01*
X00218730Y01616612D01*
X00213388Y01611270D01*
X00208947Y01605157D01*
X00205517Y01598426D01*
X00203182Y01591240D01*
X00202000Y01583778D01*
X00202000Y01552000D01*
X00247999Y01552000D01*
X00247999Y01548000D01*
X00202000Y01548000D01*
X00202000Y01516222D01*
X00203182Y01508760D01*
X00205517Y01501574D01*
X00208947Y01494843D01*
X00213388Y01488730D01*
X00218730Y01483388D01*
X00224843Y01478947D01*
X00231574Y01475517D01*
X00238760Y01473182D01*
X00246222Y01472000D01*
X00248000Y01472000D01*
X00248000Y01547999D01*
X00252000Y01547999D01*
X00252000Y01472000D01*
X00253778Y01472000D01*
X00261240Y01473182D01*
X00268426Y01475517D01*
X00275157Y01478947D01*
X00281270Y01483388D01*
X00286612Y01488730D01*
X00291053Y01494843D01*
X00294483Y01501574D01*
X00294646Y01502075D01*
X00300830Y01487146D01*
X00317146Y01470830D01*
X00338463Y01462000D01*
X00361537Y01462000D01*
X00382854Y01470830D01*
X00399170Y01487146D01*
X00400000Y01489150D01*
X00400830Y01487146D01*
X00414000Y01473976D01*
X00414000Y01442839D01*
X00419481Y01429608D01*
X00469481Y01379608D01*
X00496000Y01353088D01*
X00496000Y01327633D01*
X00527633Y01296000D01*
X00572367Y01296000D01*
X00604000Y01327633D01*
X00604000Y01372367D01*
X00572367Y01404000D01*
X00546912Y01404000D01*
X00520392Y01430519D01*
X00486000Y01464912D01*
X00486000Y01473976D01*
X00499170Y01487146D01*
X00500000Y01489150D01*
X00500830Y01487146D01*
X00517146Y01470830D01*
X00538463Y01462000D01*
X00561537Y01462000D01*
X00582854Y01470830D01*
X00599170Y01487146D01*
X00608000Y01508463D01*
X00608000Y01514000D01*
X00635088Y01514000D01*
X00650000Y01499088D01*
X00650000Y01490054D01*
X00657612Y01471677D01*
X00671677Y01457612D01*
X00690054Y01450000D01*
X00671677Y01442388D01*
X00657612Y01428323D01*
X00650000Y01409946D01*
X00650000Y01390054D01*
X00657612Y01371677D01*
X00671677Y01357612D01*
X00690054Y01350000D01*
X00709946Y01350000D01*
X00728323Y01357612D01*
X00742388Y01371677D01*
X00750000Y01390054D01*
X00750000Y01399088D01*
X00896912Y01546000D01*
X00922367Y01546000D01*
X00954000Y01577633D01*
X00954000Y01622367D01*
X00922367Y01654000D01*
X00877633Y01654000D01*
X00846000Y01622367D01*
X00846000Y01596912D01*
X00750000Y01500911D01*
X00750000Y01509946D01*
X00742388Y01528323D01*
X00728323Y01542388D01*
X00709946Y01550000D01*
X00700912Y01550000D01*
X00670392Y01580519D01*
X00657161Y01586000D01*
X00608000Y01586000D01*
X00608000Y01591537D01*
X00599170Y01612854D01*
X00586000Y01626024D01*
X00586000Y01714000D01*
X01964000Y01714000D01*
X01964000Y01626024D01*
X01950830Y01612854D01*
X01950000Y01610850D01*
X01949170Y01612854D01*
X01932854Y01629170D01*
X01911537Y01638000D01*
X01888463Y01638000D01*
X01867146Y01629170D01*
X01850830Y01612854D01*
X01850000Y01610850D01*
X01849170Y01612854D01*
X01832854Y01629170D01*
X01811537Y01638000D01*
X01788463Y01638000D01*
X01767146Y01629170D01*
X01750830Y01612854D01*
X01744646Y01597925D01*
X01744483Y01598426D01*
X01741053Y01605157D01*
X01736612Y01611270D01*
X01731270Y01616612D01*
X01725157Y01621053D01*
X01718426Y01624483D01*
X01711240Y01626818D01*
X01703778Y01628000D01*
X01702000Y01628000D01*
X01702000Y01552001D01*
X01698000Y01552001D01*
X01698000Y01628000D01*
X01696222Y01628000D01*
X01688760Y01626818D01*
X01681574Y01624483D01*
X01674843Y01621053D01*
X01668730Y01616612D01*
X01663388Y01611270D01*
X01658947Y01605157D01*
X01655517Y01598426D01*
X01653182Y01591240D01*
X01652000Y01583778D01*
X01652000Y01552000D01*
X01697999Y01552000D01*
X01697999Y01548000D01*
X01652000Y01548000D01*
X01652000Y01516222D01*
X01653182Y01508760D01*
X01655517Y01501574D01*
X01658947Y01494843D01*
X01663388Y01488730D01*
X01668730Y01483388D01*
X01674843Y01478947D01*
X01681574Y01475517D01*
X01688760Y01473182D01*
X01696222Y01472000D01*
X01698000Y01472000D01*
X01698000Y01547999D01*
X01702000Y01547999D01*
X01702000Y01472000D01*
X01703778Y01472000D01*
X01711240Y01473182D01*
X01718426Y01475517D01*
X01725157Y01478947D01*
X01731270Y01483388D01*
X01736612Y01488730D01*
X01741053Y01494843D01*
X01744483Y01501574D01*
X01744646Y01502075D01*
X01750830Y01487146D01*
X01764000Y01473976D01*
X01764000Y01392839D01*
X01769481Y01379608D01*
X01796000Y01353088D01*
X01796000Y01327633D01*
X01827633Y01296000D01*
X01872367Y01296000D01*
X01904000Y01327633D01*
X01904000Y01372367D01*
X01872367Y01404000D01*
X01846912Y01404000D01*
X01836000Y01414912D01*
X01843041Y01407870D02*
X02100000Y01407870D01*
X02100000Y01391872D02*
X01884496Y01391872D01*
X01900494Y01375873D02*
X02105874Y01375873D01*
X02119415Y01359875D02*
X01904000Y01359875D01*
X01904000Y01343876D02*
X02414000Y01343876D01*
X02414000Y01327877D02*
X02178691Y01327877D01*
X02181070Y01325498D02*
X02175498Y01331070D01*
X02168947Y01335447D01*
X02161668Y01338463D01*
X02153940Y01340000D01*
X02150000Y01340000D01*
X02150000Y01300001D01*
X02149999Y01300001D01*
X02149999Y01340000D01*
X02146060Y01340000D01*
X02138332Y01338463D01*
X02131053Y01335447D01*
X02124501Y01331070D01*
X02118930Y01325498D01*
X02114552Y01318947D01*
X02111537Y01311668D01*
X02110000Y01303940D01*
X02110000Y01300000D01*
X02149999Y01300000D01*
X02149999Y01299999D01*
X02150000Y01299999D01*
X02150000Y01260000D01*
X02153940Y01260000D01*
X02161668Y01261537D01*
X02168947Y01264552D01*
X02175498Y01268930D01*
X02181070Y01274501D01*
X02185447Y01281053D01*
X02188463Y01288332D01*
X02190000Y01296060D01*
X02190000Y01299999D01*
X02150001Y01299999D01*
X02150001Y01300000D01*
X02190000Y01300000D01*
X02190000Y01303940D01*
X02188463Y01311668D01*
X02185447Y01318947D01*
X02181070Y01325498D01*
X02188375Y01311879D02*
X02414000Y01311879D01*
X02414000Y01295880D02*
X02189964Y01295880D01*
X02184665Y01279882D02*
X02414000Y01279882D01*
X02414000Y01263883D02*
X02167332Y01263883D01*
X02150000Y01263883D02*
X02149999Y01263883D01*
X02149999Y01260000D02*
X02149999Y01299999D01*
X02110000Y01299999D01*
X02110000Y01296060D01*
X02111537Y01288332D01*
X02114552Y01281053D01*
X02118930Y01274501D01*
X02124501Y01268930D01*
X02131053Y01264552D01*
X02138332Y01261537D01*
X02146060Y01260000D01*
X02149999Y01260000D01*
X02132668Y01263883D02*
X01586000Y01263883D01*
X01586000Y01247885D02*
X02414000Y01247885D01*
X02414000Y01231886D02*
X01880339Y01231886D01*
X01868225Y01244000D02*
X01894000Y01218225D01*
X01894000Y01200000D01*
X01850001Y01200000D01*
X01850001Y01199999D01*
X01894000Y01199999D01*
X01894000Y01181775D01*
X01868225Y01156000D01*
X01850000Y01156000D01*
X01850000Y01199999D01*
X01849999Y01199999D01*
X01849999Y01156000D01*
X01831775Y01156000D01*
X01806000Y01181775D01*
X01806000Y01199999D01*
X01849999Y01199999D01*
X01849999Y01200000D01*
X01806000Y01200000D01*
X01806000Y01218225D01*
X01831775Y01244000D01*
X01849999Y01244000D01*
X01849999Y01200001D01*
X01850000Y01200001D01*
X01850000Y01244000D01*
X01868225Y01244000D01*
X01850000Y01231886D02*
X01849999Y01231886D01*
X01849999Y01215888D02*
X01850000Y01215888D01*
X01850000Y01200000D02*
X02200000Y01200000D01*
X02250000Y01150000D01*
X02250000Y00700000D01*
X02200000Y00650000D01*
X02100000Y00650000D01*
X02100000Y00600000D01*
X02050000Y00550000D01*
X01900000Y00550000D01*
X01899999Y00543950D02*
X01900000Y00543950D01*
X01899999Y00559948D02*
X01900000Y00559948D01*
X01899999Y00575947D02*
X01900000Y00575947D01*
X01899999Y00591945D02*
X01900000Y00591945D01*
X01860708Y00591945D02*
X01836000Y00591945D01*
X01836000Y00575947D02*
X01838465Y00575947D01*
X01839688Y00607944D02*
X01836000Y00607944D01*
X01800000Y00650000D02*
X01900000Y00650000D01*
X01835569Y00687937D02*
X01664431Y00687937D01*
X01655898Y00703935D02*
X01844102Y00703935D01*
X01828005Y00719934D02*
X01671995Y00719934D01*
X01678622Y00735932D02*
X01821378Y00735932D01*
X01820000Y00751931D02*
X01680000Y00751931D01*
X01677023Y00767929D02*
X01822977Y00767929D01*
X01831560Y00783928D02*
X01668440Y00783928D01*
X01646576Y00799926D02*
X01853424Y00799926D01*
X01831708Y00815925D02*
X01668292Y00815925D01*
X01676961Y00831923D02*
X01823038Y00831923D01*
X01820000Y00847922D02*
X01680000Y00847922D01*
X01678683Y00863920D02*
X01821317Y00863920D01*
X01819169Y00879919D02*
X01672056Y00879919D01*
X01656254Y00895917D02*
X01803171Y00895917D01*
X01787172Y00911916D02*
X00861000Y00911916D01*
X00861000Y00895917D02*
X01305198Y00895917D01*
X01344802Y00895917D02*
X01543746Y00895917D01*
X01600000Y00850000D02*
X01325000Y00850000D01*
X00875000Y00850000D01*
X00875000Y00625000D01*
X00750000Y00500000D01*
X00709804Y00543950D02*
X00703630Y00543950D01*
X00693806Y00527951D02*
X00685632Y00527951D01*
X00690500Y00511953D02*
X00667634Y00511953D01*
X00659500Y00495954D02*
X00690500Y00495954D01*
X00690500Y00479956D02*
X00659500Y00479956D01*
X00648103Y00463957D02*
X00701897Y00463957D01*
X00717896Y00447959D02*
X00632104Y00447959D01*
X00600000Y00500000D02*
X00825000Y00700000D01*
X00825000Y00950000D01*
X01800000Y00950000D01*
X01900000Y00850000D01*
X02100000Y00850000D01*
X02140792Y00879919D02*
X02314000Y00879919D01*
X02314000Y00895917D02*
X02119802Y00895917D01*
X02080198Y00895917D02*
X01956254Y00895917D01*
X01888996Y00911916D02*
X02314000Y00911916D01*
X02308548Y00927914D02*
X01872997Y00927914D01*
X01856999Y00943913D02*
X02303252Y00943913D01*
X02303506Y00959911D02*
X01841000Y00959911D01*
X01825002Y00975910D02*
X02310133Y00975910D01*
X02329018Y00991908D02*
X00786000Y00991908D01*
X00786000Y00975910D02*
X00799998Y00975910D01*
X00790139Y00959911D02*
X00786000Y00959911D01*
X00785691Y01007907D02*
X02414000Y01007907D01*
X02414000Y00991908D02*
X02370982Y00991908D01*
X02389867Y00975910D02*
X02414000Y00975910D01*
X02414000Y00959911D02*
X02396494Y00959911D01*
X02396748Y00943913D02*
X02414000Y00943913D01*
X02414000Y00927914D02*
X02391451Y00927914D01*
X02386000Y00911916D02*
X02414000Y00911916D01*
X02414000Y00895917D02*
X02386000Y00895917D01*
X02386000Y00879919D02*
X02414000Y00879919D01*
X02414000Y00863920D02*
X02386000Y00863920D01*
X02386000Y00847922D02*
X02414000Y00847922D01*
X02414000Y00831923D02*
X02386000Y00831923D01*
X02386000Y00815925D02*
X02414000Y00815925D01*
X02414000Y00799926D02*
X02386000Y00799926D01*
X02386000Y00783928D02*
X02414000Y00783928D01*
X02414000Y00767929D02*
X02386000Y00767929D01*
X02386000Y00751931D02*
X02414000Y00751931D01*
X02414000Y00735932D02*
X02386000Y00735932D01*
X02386000Y00719934D02*
X02414000Y00719934D01*
X02414000Y00703935D02*
X02386000Y00703935D01*
X02386000Y00687937D02*
X02414000Y00687937D01*
X02414000Y00671938D02*
X02386000Y00671938D01*
X02386000Y00655939D02*
X02414000Y00655939D01*
X02414000Y00639941D02*
X02384799Y00639941D01*
X02374854Y00623942D02*
X02414000Y00623942D01*
X02414000Y00607944D02*
X02358856Y00607944D01*
X02342857Y00591945D02*
X02414000Y00591945D01*
X02414000Y00575947D02*
X02326859Y00575947D01*
X02310860Y00559948D02*
X02414000Y00559948D01*
X02414000Y00543950D02*
X02294861Y00543950D01*
X02278863Y00527951D02*
X02414000Y00527951D01*
X02414000Y00511953D02*
X02262864Y00511953D01*
X02246866Y00495954D02*
X02414000Y00495954D01*
X02414000Y00479956D02*
X02230867Y00479956D01*
X02200000Y00500000D02*
X02350000Y00650000D01*
X02350000Y00950000D01*
X02314000Y00863920D02*
X02148354Y00863920D01*
X02150000Y00847922D02*
X02314000Y00847922D01*
X02314000Y00831923D02*
X02146632Y00831923D01*
X02136635Y00815925D02*
X02314000Y00815925D01*
X02314000Y00799926D02*
X02110124Y00799926D01*
X02109946Y00800000D02*
X02090054Y00800000D01*
X02071677Y00807612D01*
X02065289Y00814000D01*
X01966367Y00814000D01*
X01956588Y00804221D01*
X01946398Y00800000D01*
X01956588Y00795779D01*
X01966367Y00786000D01*
X02065289Y00786000D01*
X02071677Y00792388D01*
X02090054Y00800000D01*
X02109946Y00800000D01*
X02089876Y00799926D02*
X01946576Y00799926D01*
X01900000Y00750000D02*
X02100000Y00750000D01*
X02136783Y00783928D02*
X02314000Y00783928D01*
X02314000Y00767929D02*
X02146693Y00767929D01*
X02150000Y00751931D02*
X02314000Y00751931D01*
X02314000Y00735932D02*
X02148292Y00735932D01*
X02140644Y00719934D02*
X02314000Y00719934D01*
X02314000Y00703935D02*
X02119445Y00703935D01*
X02112938Y00687937D02*
X02314000Y00687937D01*
X02314000Y00671938D02*
X02133449Y00671938D01*
X02135447Y00668947D02*
X02131070Y00675498D01*
X02125498Y00681070D01*
X02118947Y00685447D01*
X02111668Y00688463D01*
X02103940Y00690000D01*
X02100000Y00690000D01*
X02100000Y00650001D01*
X02099999Y00650001D01*
X02099999Y00690000D01*
X02096060Y00690000D01*
X02088332Y00688463D01*
X02081053Y00685447D01*
X02074501Y00681070D01*
X02068930Y00675498D01*
X02064552Y00668947D01*
X02061537Y00661668D01*
X02060000Y00653940D01*
X02060000Y00650000D01*
X02099999Y00650000D01*
X02099999Y00649999D01*
X02100000Y00649999D01*
X02100000Y00610000D01*
X02103940Y00610000D01*
X02111668Y00611537D01*
X02118947Y00614552D01*
X02125498Y00618930D01*
X02131070Y00624501D01*
X02135447Y00631053D01*
X02138463Y00638332D01*
X02140000Y00646060D01*
X02140000Y00649999D01*
X02100001Y00649999D01*
X02100001Y00650000D01*
X02140000Y00650000D01*
X02140000Y00653940D01*
X02138463Y00661668D01*
X02135447Y00668947D01*
X02139602Y00655939D02*
X02305028Y00655939D01*
X02289029Y00639941D02*
X02138783Y00639941D01*
X02130511Y00623942D02*
X02273031Y00623942D01*
X02257032Y00607944D02*
X01960311Y00607944D01*
X01973656Y00623942D02*
X02069489Y00623942D01*
X02068930Y00624501D02*
X02074501Y00618930D01*
X02081053Y00614552D01*
X02088332Y00611537D01*
X02096060Y00610000D01*
X02099999Y00610000D01*
X02099999Y00649999D01*
X02060000Y00649999D01*
X02060000Y00646060D01*
X02061537Y00638332D01*
X02064552Y00631053D01*
X02068930Y00624501D01*
X02061217Y00639941D02*
X01980000Y00639941D01*
X01980000Y00655939D02*
X02060398Y00655939D01*
X02066551Y00671938D02*
X01975362Y00671938D01*
X01964431Y00687937D02*
X02087062Y00687937D01*
X02099999Y00687937D02*
X02100000Y00687937D01*
X02099999Y00671938D02*
X02100000Y00671938D01*
X02099999Y00655939D02*
X02100000Y00655939D01*
X02099999Y00639941D02*
X02100000Y00639941D01*
X02099999Y00623942D02*
X02100000Y00623942D01*
X02080554Y00703935D02*
X01955898Y00703935D01*
X01939292Y00591945D02*
X02241034Y00591945D01*
X02225035Y00575947D02*
X01961535Y00575947D01*
X01968973Y00559948D02*
X02209037Y00559948D01*
X02193038Y00543950D02*
X01969590Y00543950D01*
X01964148Y00527951D02*
X02077040Y00527951D01*
X02061041Y00511953D02*
X01948246Y00511953D01*
X01956165Y00495954D02*
X02045043Y00495954D01*
X02050000Y00450000D02*
X02100000Y00500000D01*
X02200000Y00500000D01*
X02178409Y00447959D02*
X02271591Y00447959D01*
X02328409Y00447959D02*
X02414000Y00447959D01*
X02414000Y00463957D02*
X02114869Y00463957D01*
X02121591Y00447959D02*
X02098870Y00447959D01*
X02083087Y00431960D02*
X02082872Y00431960D01*
X02050000Y00450000D02*
X01900000Y00450000D01*
X01843835Y00495954D02*
X01836000Y00495954D01*
X01836000Y00511953D02*
X01851754Y00511953D01*
X01899999Y00511953D02*
X01900000Y00511953D01*
X01899999Y00527951D02*
X01900000Y00527951D01*
X01764000Y00527951D02*
X01736000Y00527951D01*
X01736000Y00511953D02*
X01764000Y00511953D01*
X01764000Y00495954D02*
X01736000Y00495954D01*
X01736000Y00479956D02*
X01764000Y00479956D01*
X01764000Y00463957D02*
X01736000Y00463957D01*
X01736000Y00447959D02*
X01764000Y00447959D01*
X01764000Y00431960D02*
X01736000Y00431960D01*
X01736000Y00415962D02*
X01764000Y00415962D01*
X01764000Y00399963D02*
X01736000Y00399963D01*
X01736000Y00383965D02*
X01764000Y00383965D01*
X01764000Y00367966D02*
X01736000Y00367966D01*
X01736000Y00351968D02*
X01764000Y00351968D01*
X01764000Y00335969D02*
X01736000Y00335969D01*
X01736000Y00319970D02*
X01764000Y00319970D01*
X01764000Y00303972D02*
X01736000Y00303972D01*
X01736000Y00287973D02*
X01764000Y00287973D01*
X01764000Y00271975D02*
X01736000Y00271975D01*
X01736000Y00255976D02*
X01764000Y00255976D01*
X01765185Y00239978D02*
X01734815Y00239978D01*
X01724891Y00223979D02*
X01775109Y00223979D01*
X01800000Y00250000D02*
X01800000Y00650000D01*
X01771026Y00671938D02*
X01728974Y00671938D01*
X01736000Y00655939D02*
X01764000Y00655939D01*
X01764000Y00639941D02*
X01736000Y00639941D01*
X01736000Y00623942D02*
X01764000Y00623942D01*
X01764000Y00607944D02*
X01736000Y00607944D01*
X01736000Y00591945D02*
X01764000Y00591945D01*
X01764000Y00575947D02*
X01736000Y00575947D01*
X01736000Y00559948D02*
X01764000Y00559948D01*
X01764000Y00543950D02*
X01736000Y00543950D01*
X01600000Y00550000D02*
X01450000Y00550000D01*
X01408533Y00527951D02*
X01172960Y00527951D01*
X01188959Y00511953D02*
X01421936Y00511953D01*
X01423519Y00510369D02*
X01440701Y00503252D01*
X01459299Y00503252D01*
X01476481Y00510369D01*
X01480112Y00514000D01*
X01533633Y00514000D01*
X01543411Y00504221D01*
X01553602Y00500000D01*
X01543411Y00495779D01*
X01533633Y00486000D01*
X01214912Y00486000D01*
X00996748Y00704164D01*
X00996748Y00709299D01*
X00989631Y00726481D01*
X00976481Y00739631D01*
X00959299Y00746748D01*
X00940701Y00746748D01*
X00923519Y00739631D01*
X00911000Y00727111D01*
X00911000Y00814000D01*
X01290289Y00814000D01*
X01296677Y00807612D01*
X01315054Y00800000D01*
X01296677Y00792388D01*
X01282612Y00778323D01*
X01275000Y00759946D01*
X01275000Y00740054D01*
X01282612Y00721677D01*
X01296677Y00707612D01*
X01315054Y00700000D01*
X01334946Y00700000D01*
X01353323Y00707612D01*
X01359711Y00714000D01*
X01533633Y00714000D01*
X01543411Y00704221D01*
X01553602Y00700000D01*
X01543411Y00695779D01*
X01528221Y00680588D01*
X01520000Y00660741D01*
X01520000Y00639259D01*
X01528221Y00619411D01*
X01543411Y00604221D01*
X01553602Y00600000D01*
X01543411Y00595779D01*
X01533633Y00586000D01*
X01480112Y00586000D01*
X01476481Y00589631D01*
X01459299Y00596748D01*
X01440701Y00596748D01*
X01423519Y00589631D01*
X01410369Y00576481D01*
X01403252Y00559299D01*
X01403252Y00540701D01*
X01410369Y00523519D01*
X01423519Y00510369D01*
X01403252Y00543950D02*
X01156962Y00543950D01*
X01140963Y00559948D02*
X01403521Y00559948D01*
X01410148Y00575947D02*
X01124965Y00575947D01*
X01108966Y00591945D02*
X01429107Y00591945D01*
X01470893Y00591945D02*
X01539578Y00591945D01*
X01539688Y00607944D02*
X01092968Y00607944D01*
X01076969Y00623942D02*
X01294489Y00623942D01*
X01293930Y00624501D02*
X01299501Y00618930D01*
X01306053Y00614552D01*
X01313332Y00611537D01*
X01321060Y00610000D01*
X01324999Y00610000D01*
X01324999Y00649999D01*
X01325000Y00649999D01*
X01325000Y00610000D01*
X01328940Y00610000D01*
X01336668Y00611537D01*
X01343947Y00614552D01*
X01350498Y00618930D01*
X01356070Y00624501D01*
X01360447Y00631053D01*
X01363463Y00638332D01*
X01365000Y00646060D01*
X01365000Y00649999D01*
X01325001Y00649999D01*
X01325001Y00650000D01*
X01365000Y00650000D01*
X01365000Y00653940D01*
X01363463Y00661668D01*
X01360447Y00668947D01*
X01356070Y00675498D01*
X01350498Y00681070D01*
X01343947Y00685447D01*
X01336668Y00688463D01*
X01328940Y00690000D01*
X01325000Y00690000D01*
X01325000Y00650001D01*
X01324999Y00650001D01*
X01324999Y00690000D01*
X01321060Y00690000D01*
X01313332Y00688463D01*
X01306053Y00685447D01*
X01299501Y00681070D01*
X01293930Y00675498D01*
X01289552Y00668947D01*
X01286537Y00661668D01*
X01285000Y00653940D01*
X01285000Y00650000D01*
X01324999Y00650000D01*
X01324999Y00649999D01*
X01285000Y00649999D01*
X01285000Y00646060D01*
X01286537Y00638332D01*
X01289552Y00631053D01*
X01293930Y00624501D01*
X01286217Y00639941D02*
X01060970Y00639941D01*
X01044972Y00655939D02*
X01285398Y00655939D01*
X01291551Y00671938D02*
X01028973Y00671938D01*
X01012975Y00687937D02*
X01312062Y00687937D01*
X01324999Y00687937D02*
X01325000Y00687937D01*
X01337938Y00687937D02*
X01535569Y00687937D01*
X01544102Y00703935D02*
X01344445Y00703935D01*
X01358449Y00671938D02*
X01524638Y00671938D01*
X01520000Y00655939D02*
X01364602Y00655939D01*
X01363783Y00639941D02*
X01520000Y00639941D01*
X01526344Y00623942D02*
X01355511Y00623942D01*
X01325000Y00623942D02*
X01324999Y00623942D01*
X01324999Y00639941D02*
X01325000Y00639941D01*
X01325000Y00650000D02*
X01150000Y00650000D01*
X01039140Y00559948D02*
X00860860Y00559948D01*
X00844861Y00543950D02*
X00983946Y00543950D01*
X00961840Y00527951D02*
X00828863Y00527951D01*
X00812864Y00511953D02*
X00954351Y00511953D01*
X00953252Y00495954D02*
X00809500Y00495954D01*
X00809500Y00479956D02*
X00957703Y00479956D01*
X00969931Y00463957D02*
X00798103Y00463957D01*
X00782104Y00447959D02*
X01001130Y00447959D01*
X01017128Y00431960D02*
X00561000Y00431960D01*
X00561000Y00415962D02*
X01033127Y00415962D01*
X01049125Y00399963D02*
X00561000Y00399963D01*
X00561000Y00383965D02*
X01065124Y00383965D01*
X01081122Y00367966D02*
X00561000Y00367966D01*
X00525000Y00325000D02*
X00650000Y00325000D01*
X00650000Y00200000D01*
X00750000Y00100000D01*
X00809500Y00095991D02*
X00856000Y00095991D01*
X00856000Y00099999D02*
X00856000Y00081775D01*
X00881775Y00056000D01*
X00899999Y00056000D01*
X00899999Y00099999D01*
X00856000Y00099999D01*
X00856000Y00100000D02*
X00899999Y00100000D01*
X00899999Y00099999D01*
X00900000Y00099999D01*
X00900000Y00056000D01*
X00918225Y00056000D01*
X00944000Y00081775D01*
X00944000Y00099999D01*
X00900001Y00099999D01*
X00900001Y00100000D01*
X00944000Y00100000D01*
X00944000Y00118225D01*
X00918225Y00144000D01*
X00900000Y00144000D01*
X00900000Y00100001D01*
X00899999Y00100001D01*
X00899999Y00144000D01*
X00881775Y00144000D01*
X00856000Y00118225D01*
X00856000Y00100000D01*
X00856000Y00111990D02*
X00809500Y00111990D01*
X00806157Y00127988D02*
X00865763Y00127988D01*
X00881761Y00143987D02*
X00790159Y00143987D01*
X00740926Y00159985D02*
X01864000Y00159985D01*
X01864000Y00143987D02*
X01068238Y00143987D01*
X01068225Y00144000D02*
X01050000Y00144000D01*
X01050000Y00100001D01*
X01049999Y00100001D01*
X01049999Y00144000D01*
X01031775Y00144000D01*
X01006000Y00118225D01*
X01006000Y00100000D01*
X01049999Y00100000D01*
X01049999Y00099999D01*
X01006000Y00099999D01*
X01006000Y00081775D01*
X01031775Y00056000D01*
X01049999Y00056000D01*
X01049999Y00099999D01*
X01050000Y00099999D01*
X01050000Y00056000D01*
X01068225Y00056000D01*
X01094000Y00081775D01*
X01094000Y00099999D01*
X01050001Y00099999D01*
X01050001Y00100000D01*
X01094000Y00100000D01*
X01094000Y00118225D01*
X01068225Y00144000D01*
X01050000Y00143987D02*
X01049999Y00143987D01*
X01049999Y00127988D02*
X01050000Y00127988D01*
X01049999Y00111990D02*
X01050000Y00111990D01*
X01050000Y00100000D02*
X00900000Y00100000D01*
X00825000Y00025000D01*
X00575000Y00025000D01*
X00400000Y00200000D01*
X00350000Y00200000D01*
X00250000Y00200000D01*
X00100000Y00350000D01*
X00100000Y01400000D01*
X00114000Y01407870D02*
X00000000Y01407870D01*
X00000000Y01391872D02*
X00114000Y01391872D01*
X00114000Y01375873D02*
X00000000Y01375873D01*
X00000000Y01359875D02*
X00114000Y01359875D01*
X00114000Y01343876D02*
X00000000Y01343876D01*
X00000000Y01327877D02*
X00114000Y01327877D01*
X00114000Y01311879D02*
X00000000Y01311879D01*
X00000000Y01295880D02*
X00114000Y01295880D01*
X00114000Y01279882D02*
X00000000Y01279882D01*
X00000000Y01263883D02*
X00114000Y01263883D01*
X00114000Y01247885D02*
X00000000Y01247885D01*
X00000000Y01231886D02*
X00114000Y01231886D01*
X00114000Y01215888D02*
X00000000Y01215888D01*
X00000000Y01199889D02*
X00114000Y01199889D01*
X00114000Y01183891D02*
X00000000Y01183891D01*
X00000000Y01167892D02*
X00114000Y01167892D01*
X00114000Y01151894D02*
X00000000Y01151894D01*
X00000000Y01135895D02*
X00114000Y01135895D01*
X00114000Y01119897D02*
X00000000Y01119897D01*
X00000000Y01103898D02*
X00114000Y01103898D01*
X00114000Y01087900D02*
X00000000Y01087900D01*
X00000000Y01071901D02*
X00114000Y01071901D01*
X00114000Y01055903D02*
X00000000Y01055903D01*
X00000000Y01039904D02*
X00114000Y01039904D01*
X00114000Y01023906D02*
X00000000Y01023906D01*
X00000000Y01007907D02*
X00114000Y01007907D01*
X00114000Y00991908D02*
X00000000Y00991908D01*
X00000000Y00975910D02*
X00114000Y00975910D01*
X00114000Y00959911D02*
X00000000Y00959911D01*
X00000000Y00943913D02*
X00114000Y00943913D01*
X00114000Y00927914D02*
X00000000Y00927914D01*
X00000000Y00911916D02*
X00114000Y00911916D01*
X00114000Y00895917D02*
X00000000Y00895917D01*
X00000000Y00879919D02*
X00114000Y00879919D01*
X00114000Y00863920D02*
X00000000Y00863920D01*
X00000000Y00847922D02*
X00114000Y00847922D01*
X00118521Y00831923D02*
X00000000Y00831923D01*
X00000000Y00815925D02*
X00133164Y00815925D01*
X00149162Y00799926D02*
X00000000Y00799926D01*
X00000000Y00783928D02*
X00165161Y00783928D01*
X00183353Y00767929D02*
X00000000Y00767929D01*
X00000000Y00751931D02*
X00218873Y00751931D01*
X00206736Y00735932D02*
X00000000Y00735932D01*
X00000000Y00719934D02*
X00194000Y00719934D01*
X00194000Y00703935D02*
X00000000Y00703935D01*
X00000000Y00687937D02*
X00194000Y00687937D01*
X00198866Y00671938D02*
X00000000Y00671938D01*
X00000000Y00655939D02*
X00214865Y00655939D01*
X00210745Y00639941D02*
X00000000Y00639941D01*
X00000000Y00623942D02*
X00194747Y00623942D01*
X00194000Y00607944D02*
X00000000Y00607944D01*
X00000000Y00591945D02*
X00194000Y00591945D01*
X00194857Y00575947D02*
X00000000Y00575947D01*
X00000000Y00559948D02*
X00210856Y00559948D01*
X00214754Y00543950D02*
X00000000Y00543950D01*
X00000000Y00527951D02*
X00198756Y00527951D01*
X00194000Y00511953D02*
X00000000Y00511953D01*
X00000000Y00495954D02*
X00194000Y00495954D01*
X00194000Y00479956D02*
X00000000Y00479956D01*
X00000000Y00463957D02*
X00206847Y00463957D01*
X00218763Y00447959D02*
X00000000Y00447959D01*
X00000000Y00431960D02*
X00202764Y00431960D01*
X00194000Y00415962D02*
X00000000Y00415962D01*
X00000000Y00399963D02*
X00194000Y00399963D01*
X00194000Y00383965D02*
X00000000Y00383965D01*
X00000000Y00367966D02*
X00202838Y00367966D01*
X00218836Y00351968D02*
X00000000Y00351968D01*
X00000000Y00335969D02*
X00206773Y00335969D01*
X00194000Y00319970D02*
X00000000Y00319970D01*
X00000000Y00303972D02*
X00194000Y00303972D01*
X00194000Y00287973D02*
X00000000Y00287973D01*
X00000000Y00271975D02*
X00198829Y00271975D01*
X00214828Y00255976D02*
X00000000Y00255976D01*
X00000000Y00239978D02*
X00224924Y00239978D01*
X00208926Y00223979D02*
X00000000Y00223979D01*
X00000000Y00207981D02*
X00204000Y00207981D01*
X00204000Y00191982D02*
X00000000Y00191982D01*
X00000000Y00175984D02*
X00208962Y00175984D01*
X00224961Y00159985D02*
X00000000Y00159985D01*
X00000000Y00143987D02*
X00559841Y00143987D01*
X00564000Y00159985D02*
X00372790Y00159985D01*
X00351000Y00159985D02*
X00349000Y00159985D01*
X00349000Y00175984D02*
X00351000Y00175984D01*
X00351000Y00191982D02*
X00349000Y00191982D01*
X00310610Y00175984D02*
X00291038Y00175984D01*
X00296000Y00191982D02*
X00304696Y00191982D01*
X00304691Y00207981D02*
X00296000Y00207981D01*
X00291074Y00223979D02*
X00310591Y00223979D01*
X00327137Y00239978D02*
X00275076Y00239978D01*
X00285172Y00255976D02*
X00314828Y00255976D01*
X00350000Y00300000D02*
X00250000Y00300000D01*
X00250000Y00400000D02*
X00350000Y00400000D01*
X00450000Y00400000D01*
X00450000Y00250000D01*
X00600000Y00250000D01*
X00600000Y00100000D01*
X00551860Y00063994D02*
X00000000Y00063994D01*
X00000000Y00047996D02*
X00567859Y00047996D01*
X00540500Y00079993D02*
X00000000Y00079993D01*
X00000000Y00095991D02*
X00540500Y00095991D01*
X00540500Y00111990D02*
X00000000Y00111990D01*
X00000000Y00127988D02*
X00543843Y00127988D01*
X00564000Y00175984D02*
X00389390Y00175984D01*
X00395303Y00191982D02*
X00564000Y00191982D01*
X00564000Y00207981D02*
X00395309Y00207981D01*
X00389409Y00223979D02*
X00425109Y00223979D01*
X00415185Y00239978D02*
X00372863Y00239978D01*
X00385172Y00255976D02*
X00414000Y00255976D01*
X00414000Y00271975D02*
X00401171Y00271975D01*
X00406000Y00287973D02*
X00414000Y00287973D01*
X00414000Y00303972D02*
X00406000Y00303972D01*
X00406000Y00319970D02*
X00414000Y00319970D01*
X00414000Y00335969D02*
X00393227Y00335969D01*
X00381163Y00351968D02*
X00414000Y00351968D01*
X00525000Y00325000D02*
X00525000Y00500000D01*
X00350000Y00500000D01*
X00250000Y00500000D01*
X00250000Y00600000D02*
X00350000Y00600000D01*
X00450000Y00600000D01*
X00600000Y00750000D01*
X00600000Y00900000D01*
X00500000Y00900000D02*
X00500000Y00750000D01*
X00450000Y00700000D01*
X00350000Y00700000D01*
X00250000Y00700000D01*
X00250000Y00800000D02*
X00200000Y00800000D01*
X00150000Y00850000D01*
X00150000Y01750000D01*
X00550000Y01750000D01*
X00550000Y01550000D01*
X00650000Y01550000D01*
X00700000Y01500000D01*
X00734852Y01535858D02*
X00784947Y01535858D01*
X00768948Y01519860D02*
X00745893Y01519860D01*
X00750000Y01503861D02*
X00752950Y01503861D01*
X00800945Y01551857D02*
X00699055Y01551857D01*
X00683056Y01567855D02*
X00816944Y01567855D01*
X00832942Y01583854D02*
X00662342Y01583854D01*
X00604556Y01599852D02*
X00846000Y01599852D01*
X00846000Y01615851D02*
X00596173Y01615851D01*
X00586000Y01631849D02*
X00855482Y01631849D01*
X00871481Y01647848D02*
X00586000Y01647848D01*
X00586000Y01663846D02*
X01964000Y01663846D01*
X01964000Y01647848D02*
X01078519Y01647848D01*
X01072367Y01654000D02*
X01027633Y01654000D01*
X00996000Y01622367D01*
X00996000Y01577633D01*
X01027633Y01546000D01*
X01072367Y01546000D01*
X01104000Y01577633D01*
X01104000Y01622367D01*
X01072367Y01654000D01*
X01094518Y01631849D02*
X01773615Y01631849D01*
X01753827Y01615851D02*
X01732031Y01615851D01*
X01743756Y01599852D02*
X01745444Y01599852D01*
X01702000Y01599852D02*
X01698000Y01599852D01*
X01698000Y01583854D02*
X01702000Y01583854D01*
X01702000Y01567855D02*
X01698000Y01567855D01*
X01697999Y01551857D02*
X01078224Y01551857D01*
X01094223Y01567855D02*
X01652000Y01567855D01*
X01652012Y01583854D02*
X01104000Y01583854D01*
X01104000Y01599852D02*
X01656244Y01599852D01*
X01667969Y01615851D02*
X01104000Y01615851D01*
X01021481Y01647848D02*
X00928519Y01647848D01*
X00944518Y01631849D02*
X01005482Y01631849D01*
X00996000Y01615851D02*
X00954000Y01615851D01*
X00954000Y01599852D02*
X00996000Y01599852D01*
X00996000Y01583854D02*
X00954000Y01583854D01*
X00944223Y01567855D02*
X01005777Y01567855D01*
X01021776Y01551857D02*
X00928224Y01551857D01*
X00886770Y01535858D02*
X01652000Y01535858D01*
X01652000Y01519860D02*
X00870771Y01519860D01*
X00854773Y01503861D02*
X01654773Y01503861D01*
X01664255Y01487863D02*
X00838774Y01487863D01*
X00822776Y01471864D02*
X01764000Y01471864D01*
X01764000Y01455866D02*
X00806777Y01455866D01*
X00790779Y01439867D02*
X01764000Y01439867D01*
X01764000Y01423869D02*
X00774780Y01423869D01*
X00758782Y01407870D02*
X01764000Y01407870D01*
X01764401Y01391872D02*
X01584496Y01391872D01*
X01572367Y01404000D02*
X01527633Y01404000D01*
X01496000Y01372367D01*
X01496000Y01327633D01*
X01514000Y01309633D01*
X01514000Y01240367D01*
X01496000Y01222367D01*
X01496000Y01177633D01*
X01527633Y01146000D01*
X01572367Y01146000D01*
X01604000Y01177633D01*
X01604000Y01222367D01*
X01586000Y01240367D01*
X01586000Y01309633D01*
X01604000Y01327633D01*
X01604000Y01372367D01*
X01572367Y01404000D01*
X01600494Y01375873D02*
X01773215Y01375873D01*
X01789214Y01359875D02*
X01604000Y01359875D01*
X01604000Y01343876D02*
X01796000Y01343876D01*
X01796000Y01327877D02*
X01604000Y01327877D01*
X01588246Y01311879D02*
X01811754Y01311879D01*
X01850000Y01350000D02*
X01800000Y01400000D01*
X01800000Y01550000D01*
X01900000Y01550000D01*
X01949467Y01487863D02*
X01950533Y01487863D01*
X01966111Y01471864D02*
X01933889Y01471864D01*
X01866111Y01471864D02*
X01836000Y01471864D01*
X01836000Y01455866D02*
X02125893Y01455866D01*
X02119156Y01439867D02*
X01836000Y01439867D01*
X01849467Y01487863D02*
X01850533Y01487863D01*
X01750533Y01487863D02*
X01735745Y01487863D01*
X01702000Y01487863D02*
X01698000Y01487863D01*
X01698000Y01503861D02*
X01702000Y01503861D01*
X01702000Y01519860D02*
X01698000Y01519860D01*
X01698000Y01535858D02*
X01702000Y01535858D01*
X01700000Y01550000D02*
X01700000Y01350000D01*
X01850000Y01200000D01*
X01925000Y01300000D01*
X02150000Y01300000D01*
X02149999Y01295880D02*
X02150000Y01295880D01*
X02149999Y01279882D02*
X02150000Y01279882D01*
X02149999Y01311879D02*
X02150000Y01311879D01*
X02149999Y01327877D02*
X02150000Y01327877D01*
X02121309Y01327877D02*
X01904000Y01327877D01*
X01888246Y01311879D02*
X02111625Y01311879D01*
X02110036Y01295880D02*
X01586000Y01295880D01*
X01586000Y01279882D02*
X02115335Y01279882D01*
X02180585Y01359875D02*
X02414000Y01359875D01*
X02450000Y01400000D02*
X02450000Y00200000D01*
X02350000Y00100000D01*
X02300000Y00100000D01*
X02259638Y00063994D02*
X02190361Y00063994D01*
X02204000Y00079993D02*
X02246000Y00079993D01*
X02246000Y00095991D02*
X02204000Y00095991D01*
X02204000Y00111990D02*
X02246000Y00111990D01*
X02251621Y00127988D02*
X02198379Y00127988D01*
X02182381Y00143987D02*
X02267619Y00143987D01*
X02332381Y00143987D02*
X02343075Y00143987D01*
X02359074Y00159985D02*
X01940926Y00159985D01*
X01936000Y00175984D02*
X02375072Y00175984D01*
X02391071Y00191982D02*
X01936000Y00191982D01*
X01960348Y00207981D02*
X02407069Y00207981D01*
X02414000Y00223979D02*
X01973671Y00223979D01*
X01980000Y00239978D02*
X02414000Y00239978D01*
X02414000Y00255976D02*
X01980000Y00255976D01*
X01975347Y00271975D02*
X02414000Y00271975D01*
X02414000Y00287973D02*
X01964394Y00287973D01*
X01955987Y00303972D02*
X02414000Y00303972D01*
X02414000Y00319970D02*
X02070882Y00319970D01*
X02086881Y00335969D02*
X02414000Y00335969D01*
X02414000Y00351968D02*
X02328335Y00351968D01*
X02344333Y00367966D02*
X02414000Y00367966D01*
X02414000Y00383965D02*
X02354000Y00383965D01*
X02354000Y00399963D02*
X02414000Y00399963D01*
X02414000Y00415962D02*
X02354000Y00415962D01*
X02344407Y00431960D02*
X02414000Y00431960D01*
X02300000Y00400000D02*
X02150000Y00400000D01*
X02100000Y00400000D01*
X02050000Y00350000D01*
X01900000Y00350000D01*
X01900000Y00250000D02*
X01800000Y00250000D01*
X01839652Y00207981D02*
X01660348Y00207981D01*
X01700000Y00250000D02*
X01600000Y00250000D01*
X01300000Y00250000D01*
X01320715Y00207981D02*
X01539652Y00207981D01*
X01535606Y00287973D02*
X01328138Y00287973D01*
X01271862Y00287973D02*
X01104000Y00287973D01*
X01104000Y00277633D02*
X01072367Y00246000D01*
X01027633Y00246000D01*
X00996000Y00277633D01*
X00996000Y00322367D01*
X01027633Y00354000D01*
X01072367Y00354000D01*
X01104000Y00322367D01*
X01104000Y00277633D01*
X01098342Y00271975D02*
X01258503Y00271975D01*
X01253252Y00255976D02*
X01082344Y00255976D01*
X01104000Y00303972D02*
X01544013Y00303972D01*
X01600000Y00350000D02*
X01150000Y00350000D01*
X01000000Y00500000D01*
X01016054Y00543950D02*
X01055139Y00543950D01*
X01071137Y00527951D02*
X01038160Y00527951D01*
X01045649Y00511953D02*
X01087136Y00511953D01*
X01103134Y00495954D02*
X01054957Y00495954D01*
X01070956Y00479956D02*
X01119133Y00479956D01*
X01135131Y00463957D02*
X01086954Y00463957D01*
X01102953Y00447959D02*
X01151130Y00447959D01*
X01167128Y00431960D02*
X01118951Y00431960D01*
X01134950Y00415962D02*
X01188103Y00415962D01*
X01200000Y00450000D02*
X00950000Y00700000D01*
X00992343Y00719934D02*
X01284356Y00719934D01*
X01276707Y00735932D02*
X00980179Y00735932D01*
X00996976Y00703935D02*
X01305554Y00703935D01*
X01324999Y00671938D02*
X01325000Y00671938D01*
X01324999Y00655939D02*
X01325000Y00655939D01*
X01325000Y00750000D02*
X01600000Y00750000D01*
X01553602Y00800000D02*
X01543411Y00795779D01*
X01533633Y00786000D01*
X01359711Y00786000D01*
X01353323Y00792388D01*
X01334946Y00800000D01*
X01315054Y00800000D01*
X01334946Y00800000D01*
X01353323Y00807612D01*
X01359711Y00814000D01*
X01533632Y00814000D01*
X01543411Y00804221D01*
X01553602Y00800000D01*
X01553424Y00799926D02*
X01335124Y00799926D01*
X01314876Y00799926D02*
X00911000Y00799926D01*
X00911000Y00783928D02*
X01288217Y00783928D01*
X01278307Y00767929D02*
X00911000Y00767929D01*
X00911000Y00751931D02*
X01275000Y00751931D01*
X01023141Y00575947D02*
X00876859Y00575947D01*
X00892857Y00591945D02*
X01007143Y00591945D01*
X00991144Y00607944D02*
X00906901Y00607944D01*
X00911000Y00623942D02*
X00975146Y00623942D01*
X00959147Y00639941D02*
X00911000Y00639941D01*
X00911000Y00655939D02*
X00934213Y00655939D01*
X00911950Y00671938D02*
X00911000Y00671938D01*
X00911000Y00735932D02*
X00919821Y00735932D01*
X00839000Y00655939D02*
X00829619Y00655939D01*
X00839000Y00639941D02*
X00811620Y00639941D01*
X00823031Y00623942D02*
X00793622Y00623942D01*
X00807032Y00607944D02*
X00775624Y00607944D01*
X00791034Y00591945D02*
X00757625Y00591945D01*
X00775035Y00575947D02*
X00739627Y00575947D01*
X00721629Y00559948D02*
X00759037Y00559948D01*
X00567896Y00447959D02*
X00561000Y00447959D01*
X00673944Y00351968D02*
X00875600Y00351968D01*
X00877633Y00354000D02*
X00846000Y00322367D01*
X00846000Y00277633D01*
X00877633Y00246000D01*
X00922367Y00246000D01*
X00954000Y00277633D01*
X00954000Y00322367D01*
X00922367Y00354000D01*
X00877633Y00354000D01*
X00859602Y00335969D02*
X00684422Y00335969D01*
X00686000Y00319970D02*
X00846000Y00319970D01*
X00846000Y00303972D02*
X00686000Y00303972D01*
X00686000Y00287973D02*
X00846000Y00287973D01*
X00851658Y00271975D02*
X00686000Y00271975D01*
X00686000Y00255976D02*
X00867656Y00255976D01*
X00932344Y00255976D02*
X01017656Y00255976D01*
X01001658Y00271975D02*
X00948342Y00271975D01*
X00954000Y00287973D02*
X00996000Y00287973D01*
X00996000Y00303972D02*
X00954000Y00303972D01*
X00954000Y00319970D02*
X00996000Y00319970D01*
X01009602Y00335969D02*
X00940398Y00335969D01*
X00924400Y00351968D02*
X01025600Y00351968D01*
X01074400Y00351968D02*
X01097121Y00351968D01*
X01090398Y00335969D02*
X01113119Y00335969D01*
X01104000Y00319970D02*
X01129118Y00319970D01*
X01150948Y00399963D02*
X01553513Y00399963D01*
X01600000Y00450000D02*
X01200000Y00450000D01*
X01204957Y00495954D02*
X01543835Y00495954D01*
X01535680Y00511953D02*
X01478064Y00511953D01*
X01600000Y00650000D02*
X01700000Y00650000D01*
X01700000Y00250000D01*
X01864000Y00191982D02*
X00708929Y00191982D01*
X00692931Y00207981D02*
X01279285Y00207981D01*
X01260178Y00223979D02*
X00686000Y00223979D01*
X00686000Y00239978D02*
X01253552Y00239978D01*
X01084237Y00127988D02*
X01871100Y00127988D01*
X01887099Y00111990D02*
X01094000Y00111990D01*
X01094000Y00095991D02*
X01903097Y00095991D01*
X01919096Y00079993D02*
X01092218Y00079993D01*
X01076219Y00063994D02*
X02109638Y00063994D01*
X02125637Y00047996D02*
X00782141Y00047996D01*
X00798140Y00063994D02*
X00873781Y00063994D01*
X00857782Y00079993D02*
X00809500Y00079993D01*
X00717859Y00047996D02*
X00632141Y00047996D01*
X00648140Y00063994D02*
X00701860Y00063994D01*
X00690500Y00079993D02*
X00659500Y00079993D01*
X00659500Y00095991D02*
X00690500Y00095991D01*
X00687099Y00111990D02*
X00659500Y00111990D01*
X00656157Y00127988D02*
X00671100Y00127988D01*
X00655102Y00143987D02*
X00640159Y00143987D01*
X00639103Y00159985D02*
X00636000Y00159985D01*
X00724928Y00175984D02*
X01864000Y00175984D01*
X01900000Y00150000D02*
X01950000Y00100000D01*
X02150000Y00100000D01*
X02174363Y00047996D02*
X02275637Y00047996D01*
X02117619Y00143987D02*
X01956925Y00143987D01*
X01900000Y00150000D02*
X01900000Y00250000D01*
X02102879Y00351968D02*
X02121665Y00351968D01*
X02178335Y00351968D02*
X02271665Y00351968D01*
X02414000Y01023906D02*
X00777006Y01023906D01*
X00750000Y01000000D02*
X00600000Y01000000D01*
X00500000Y00900000D01*
X00477003Y00927914D02*
X00401281Y00927914D01*
X00406000Y00911916D02*
X00465970Y00911916D01*
X00464000Y00895917D02*
X00406000Y00895917D01*
X00406000Y00879919D02*
X00464000Y00879919D01*
X00464000Y00863920D02*
X00393116Y00863920D01*
X00381274Y00847922D02*
X00464000Y00847922D01*
X00464000Y00831923D02*
X00397273Y00831923D01*
X00406000Y00815925D02*
X00464000Y00815925D01*
X00464000Y00799926D02*
X00406000Y00799926D01*
X00406000Y00783928D02*
X00464000Y00783928D01*
X00464000Y00767929D02*
X00397125Y00767929D01*
X00381126Y00751931D02*
X00451019Y00751931D01*
X00350000Y00800000D02*
X00250000Y00800000D01*
X00218726Y00847922D02*
X00202990Y00847922D01*
X00206884Y00863920D02*
X00186991Y00863920D01*
X00186000Y00879919D02*
X00194000Y00879919D01*
X00194000Y00895917D02*
X00186000Y00895917D01*
X00186000Y00911916D02*
X00194000Y00911916D01*
X00198719Y00927914D02*
X00186000Y00927914D01*
X00186000Y00943913D02*
X00214717Y00943913D01*
X00186000Y00959911D02*
X00509000Y00959911D01*
X00493001Y00943913D02*
X00385283Y00943913D01*
X00350000Y00900000D02*
X00250000Y00900000D01*
X00285283Y00943913D02*
X00314717Y00943913D01*
X00186000Y00975910D02*
X00524998Y00975910D01*
X00540997Y00991908D02*
X00186000Y00991908D01*
X00186000Y01007907D02*
X00556995Y01007907D01*
X00572994Y01023906D02*
X00186000Y01023906D01*
X00186000Y01039904D02*
X02414000Y01039904D01*
X02414000Y01055903D02*
X00186000Y01055903D01*
X00186000Y01071901D02*
X02414000Y01071901D01*
X02414000Y01087900D02*
X00186000Y01087900D01*
X00186000Y01103898D02*
X02414000Y01103898D01*
X02414000Y01119897D02*
X00186000Y01119897D01*
X00186000Y01135895D02*
X02414000Y01135895D01*
X02414000Y01151894D02*
X01578261Y01151894D01*
X01594260Y01167892D02*
X01819882Y01167892D01*
X01806000Y01183891D02*
X01604000Y01183891D01*
X01604000Y01199889D02*
X01806000Y01199889D01*
X01806000Y01215888D02*
X01604000Y01215888D01*
X01594481Y01231886D02*
X01819661Y01231886D01*
X01849999Y01199889D02*
X01850000Y01199889D01*
X01849999Y01183891D02*
X01850000Y01183891D01*
X01849999Y01167892D02*
X01850000Y01167892D01*
X01880117Y01167892D02*
X02414000Y01167892D01*
X02414000Y01183891D02*
X01894000Y01183891D01*
X01894000Y01199889D02*
X02414000Y01199889D01*
X02414000Y01215888D02*
X01894000Y01215888D01*
X02180843Y01439867D02*
X02550000Y01439867D01*
X02550000Y01455866D02*
X02174106Y01455866D01*
X02192465Y01471864D02*
X02550000Y01471864D01*
X02550000Y01487863D02*
X02199092Y01487863D01*
X02200000Y01503861D02*
X02550000Y01503861D01*
X02550000Y01519860D02*
X02195893Y01519860D01*
X02184852Y01535858D02*
X02550000Y01535858D01*
X02550000Y01551857D02*
X02149055Y01551857D01*
X02133056Y01567855D02*
X02550000Y01567855D01*
X02550000Y01583854D02*
X02112342Y01583854D01*
X02100000Y01550000D02*
X02150000Y01500000D01*
X02100908Y01487863D02*
X02049467Y01487863D01*
X02056094Y01503861D02*
X02095227Y01503861D01*
X02107535Y01471864D02*
X02033889Y01471864D01*
X02000000Y01550000D02*
X02100000Y01550000D01*
X02054556Y01599852D02*
X02550000Y01599852D01*
X02550000Y01615851D02*
X02046173Y01615851D01*
X02036000Y01631849D02*
X02550000Y01631849D01*
X02550000Y01647848D02*
X02036000Y01647848D01*
X02036000Y01663846D02*
X02550000Y01663846D01*
X02550000Y01679845D02*
X02036000Y01679845D01*
X02036000Y01695844D02*
X02550000Y01695844D01*
X02550000Y01711842D02*
X02036000Y01711842D01*
X02036000Y01727841D02*
X02550000Y01727841D01*
X02550000Y01743839D02*
X02036000Y01743839D01*
X02034891Y01759838D02*
X02550000Y01759838D01*
X02550000Y01775836D02*
X02025075Y01775836D01*
X02000000Y01750000D02*
X02000000Y01550000D01*
X01953827Y01615851D02*
X01946173Y01615851D01*
X01964000Y01631849D02*
X01926385Y01631849D01*
X01873615Y01631849D02*
X01826385Y01631849D01*
X01846173Y01615851D02*
X01853827Y01615851D01*
X01964000Y01679845D02*
X00586000Y01679845D01*
X00586000Y01695844D02*
X01964000Y01695844D01*
X01964000Y01711842D02*
X00586000Y01711842D01*
X00550000Y01750000D02*
X02000000Y01750000D01*
X01702000Y01615851D02*
X01698000Y01615851D01*
X01515504Y01391872D02*
X00750000Y01391872D01*
X00744126Y01375873D02*
X01499506Y01375873D01*
X01496000Y01359875D02*
X00730585Y01359875D01*
X00718947Y01335447D02*
X00711668Y01338463D01*
X00703940Y01340000D01*
X00700000Y01340000D01*
X00700000Y01300001D01*
X00699999Y01300001D01*
X00699999Y01340000D01*
X00696060Y01340000D01*
X00688332Y01338463D01*
X00681053Y01335447D01*
X00674501Y01331070D01*
X00668930Y01325498D01*
X00664552Y01318947D01*
X00661537Y01311668D01*
X00660000Y01303940D01*
X00660000Y01300000D01*
X00699999Y01300000D01*
X00699999Y01299999D01*
X00700000Y01299999D01*
X00700000Y01260000D01*
X00703940Y01260000D01*
X00711668Y01261537D01*
X00718947Y01264552D01*
X00725498Y01268930D01*
X00731070Y01274501D01*
X00735447Y01281053D01*
X00738463Y01288332D01*
X00740000Y01296060D01*
X00740000Y01299999D01*
X00700001Y01299999D01*
X00700001Y01300000D01*
X00740000Y01300000D01*
X00740000Y01303940D01*
X00738463Y01311668D01*
X00735447Y01318947D01*
X00731070Y01325498D01*
X00725498Y01331070D01*
X00718947Y01335447D01*
X00728691Y01327877D02*
X00851510Y01327877D01*
X00846000Y01322367D02*
X00846000Y01277633D01*
X00877633Y01246000D01*
X00922367Y01246000D01*
X00940367Y01264000D01*
X01009633Y01264000D01*
X01027633Y01246000D01*
X01072367Y01246000D01*
X01104000Y01277633D01*
X01104000Y01322367D01*
X01072367Y01354000D01*
X01027633Y01354000D01*
X01009633Y01336000D01*
X00940367Y01336000D01*
X00922367Y01354000D01*
X00877633Y01354000D01*
X00846000Y01322367D01*
X00846000Y01311879D02*
X00738375Y01311879D01*
X00739964Y01295880D02*
X00846000Y01295880D01*
X00846000Y01279882D02*
X00734665Y01279882D01*
X00717332Y01263883D02*
X00859749Y01263883D01*
X00875748Y01247885D02*
X00286000Y01247885D01*
X00286000Y01240367D02*
X00286000Y01309633D01*
X00304000Y01327633D01*
X00304000Y01372367D01*
X00272367Y01404000D01*
X00227633Y01404000D01*
X00196000Y01372367D01*
X00196000Y01327633D01*
X00214000Y01309633D01*
X00214000Y01240367D01*
X00196000Y01222367D01*
X00196000Y01177633D01*
X00227633Y01146000D01*
X00272367Y01146000D01*
X00304000Y01177633D01*
X00304000Y01222367D01*
X00286000Y01240367D01*
X00294481Y01231886D02*
X00519661Y01231886D01*
X00531775Y01244000D02*
X00506000Y01218225D01*
X00506000Y01200000D01*
X00549999Y01200000D01*
X00549999Y01199999D01*
X00550000Y01199999D01*
X00550000Y01156000D01*
X00568225Y01156000D01*
X00594000Y01181775D01*
X00594000Y01199999D01*
X00550001Y01199999D01*
X00550001Y01200000D01*
X00594000Y01200000D01*
X00594000Y01218225D01*
X00568225Y01244000D01*
X00550000Y01244000D01*
X00550000Y01200001D01*
X00549999Y01200001D01*
X00549999Y01244000D01*
X00531775Y01244000D01*
X00549999Y01231886D02*
X00550000Y01231886D01*
X00549999Y01215888D02*
X00550000Y01215888D01*
X00550000Y01200000D02*
X00400000Y01200000D01*
X00400000Y01450000D01*
X00250000Y01450000D01*
X00250000Y01550000D01*
X00247999Y01551857D02*
X00186000Y01551857D01*
X00186000Y01567855D02*
X00202000Y01567855D01*
X00202012Y01583854D02*
X00186000Y01583854D01*
X00186000Y01599852D02*
X00206244Y01599852D01*
X00217969Y01615851D02*
X00186000Y01615851D01*
X00186000Y01631849D02*
X00323615Y01631849D01*
X00303827Y01615851D02*
X00282031Y01615851D01*
X00293756Y01599852D02*
X00295444Y01599852D01*
X00252000Y01599852D02*
X00248000Y01599852D01*
X00248000Y01583854D02*
X00252000Y01583854D01*
X00252000Y01567855D02*
X00248000Y01567855D01*
X00248000Y01535858D02*
X00252000Y01535858D01*
X00252000Y01519860D02*
X00248000Y01519860D01*
X00248000Y01503861D02*
X00252000Y01503861D01*
X00252000Y01487863D02*
X00248000Y01487863D01*
X00214255Y01487863D02*
X00186000Y01487863D01*
X00186000Y01503861D02*
X00204773Y01503861D01*
X00202000Y01519860D02*
X00186000Y01519860D01*
X00186000Y01535858D02*
X00202000Y01535858D01*
X00186000Y01471864D02*
X00316111Y01471864D01*
X00300533Y01487863D02*
X00285745Y01487863D01*
X00350000Y01550000D02*
X00450000Y01550000D01*
X00450000Y01450000D01*
X00500000Y01400000D01*
X00550000Y01350000D01*
X00588246Y01311879D02*
X00661625Y01311879D01*
X00660000Y01299999D02*
X00660000Y01296060D01*
X00661537Y01288332D01*
X00664552Y01281053D01*
X00668930Y01274501D01*
X00674501Y01268930D01*
X00681053Y01264552D01*
X00688332Y01261537D01*
X00696060Y01260000D01*
X00699999Y01260000D01*
X00699999Y01299999D01*
X00660000Y01299999D01*
X00660036Y01295880D02*
X00286000Y01295880D01*
X00286000Y01279882D02*
X00665335Y01279882D01*
X00682668Y01263883D02*
X00286000Y01263883D01*
X00288246Y01311879D02*
X00511754Y01311879D01*
X00496000Y01327877D02*
X00304000Y01327877D01*
X00304000Y01343876D02*
X00496000Y01343876D01*
X00489214Y01359875D02*
X00304000Y01359875D01*
X00300494Y01375873D02*
X00473215Y01375873D01*
X00457217Y01391872D02*
X00284496Y01391872D01*
X00250000Y01350000D02*
X00250000Y01200000D01*
X00205519Y01231886D02*
X00186000Y01231886D01*
X00186000Y01215888D02*
X00196000Y01215888D01*
X00196000Y01199889D02*
X00186000Y01199889D01*
X00186000Y01183891D02*
X00196000Y01183891D01*
X00205740Y01167892D02*
X00186000Y01167892D01*
X00186000Y01151894D02*
X00221739Y01151894D01*
X00278261Y01151894D02*
X01521739Y01151894D01*
X01505740Y01167892D02*
X00580117Y01167892D01*
X00594000Y01183891D02*
X01496000Y01183891D01*
X01496000Y01199889D02*
X00594000Y01199889D01*
X00600000Y01200000D02*
X00550000Y01200000D01*
X00549999Y01199999D02*
X00549999Y01156000D01*
X00531775Y01156000D01*
X00506000Y01181775D01*
X00506000Y01199999D01*
X00549999Y01199999D01*
X00549999Y01199889D02*
X00550000Y01199889D01*
X00549999Y01183891D02*
X00550000Y01183891D01*
X00549999Y01167892D02*
X00550000Y01167892D01*
X00519882Y01167892D02*
X00294260Y01167892D01*
X00304000Y01183891D02*
X00506000Y01183891D01*
X00506000Y01199889D02*
X00304000Y01199889D01*
X00304000Y01215888D02*
X00506000Y01215888D01*
X00580339Y01231886D02*
X01505519Y01231886D01*
X01514000Y01247885D02*
X01074252Y01247885D01*
X01090251Y01263883D02*
X01514000Y01263883D01*
X01514000Y01279882D02*
X01104000Y01279882D01*
X01104000Y01295880D02*
X01514000Y01295880D01*
X01511754Y01311879D02*
X01104000Y01311879D01*
X01098490Y01327877D02*
X01496000Y01327877D01*
X01496000Y01343876D02*
X01082491Y01343876D01*
X01050000Y01300000D02*
X00900000Y01300000D01*
X00940251Y01263883D02*
X01009749Y01263883D01*
X01025748Y01247885D02*
X00924252Y01247885D01*
X00932491Y01343876D02*
X01017509Y01343876D01*
X00867509Y01343876D02*
X00604000Y01343876D01*
X00604000Y01327877D02*
X00671309Y01327877D01*
X00699999Y01327877D02*
X00700000Y01327877D01*
X00699999Y01311879D02*
X00700000Y01311879D01*
X00700000Y01300000D02*
X00600000Y01200000D01*
X00594000Y01215888D02*
X01496000Y01215888D01*
X01550000Y01200000D02*
X01550000Y01350000D01*
X00900000Y01600000D02*
X00700000Y01400000D01*
X00655767Y01423869D02*
X00527043Y01423869D01*
X00511044Y01439867D02*
X00669156Y01439867D01*
X00675893Y01455866D02*
X00495046Y01455866D01*
X00486000Y01471864D02*
X00516111Y01471864D01*
X00500533Y01487863D02*
X00499467Y01487863D01*
X00583889Y01471864D02*
X00657535Y01471864D01*
X00650908Y01487863D02*
X00599467Y01487863D01*
X00606094Y01503861D02*
X00645227Y01503861D01*
X00690054Y01450000D02*
X00699088Y01450000D01*
X00690054Y01450000D01*
X00699088Y01450000D02*
X00699088Y01450000D01*
X00650000Y01407870D02*
X00543041Y01407870D01*
X00584496Y01391872D02*
X00650000Y01391872D01*
X00655874Y01375873D02*
X00600494Y01375873D01*
X00604000Y01359875D02*
X00669415Y01359875D01*
X00699999Y01295880D02*
X00700000Y01295880D01*
X00699999Y01279882D02*
X00700000Y01279882D01*
X00699999Y01263883D02*
X00700000Y01263883D01*
X00441218Y01407870D02*
X00186000Y01407870D01*
X00186000Y01391872D02*
X00215504Y01391872D01*
X00199506Y01375873D02*
X00186000Y01375873D01*
X00186000Y01359875D02*
X00196000Y01359875D01*
X00196000Y01343876D02*
X00186000Y01343876D01*
X00186000Y01327877D02*
X00196000Y01327877D01*
X00186000Y01311879D02*
X00211754Y01311879D01*
X00214000Y01295880D02*
X00186000Y01295880D01*
X00186000Y01279882D02*
X00214000Y01279882D01*
X00214000Y01263883D02*
X00186000Y01263883D01*
X00186000Y01247885D02*
X00214000Y01247885D01*
X00186000Y01423869D02*
X00425220Y01423869D01*
X00415231Y01439867D02*
X00186000Y01439867D01*
X00186000Y01455866D02*
X00414000Y01455866D01*
X00414000Y01471864D02*
X00383889Y01471864D01*
X00399467Y01487863D02*
X00400533Y01487863D01*
X00403827Y01615851D02*
X00396173Y01615851D01*
X00376385Y01631849D02*
X00423615Y01631849D01*
X00476385Y01631849D02*
X00514000Y01631849D01*
X00514000Y01647848D02*
X00186000Y01647848D01*
X00186000Y01663846D02*
X00514000Y01663846D01*
X00514000Y01679845D02*
X00186000Y01679845D01*
X00186000Y01695844D02*
X00514000Y01695844D01*
X00514000Y01711842D02*
X00186000Y01711842D01*
X00114000Y01711842D02*
X00000000Y01711842D01*
X00000000Y01695844D02*
X00114000Y01695844D01*
X00114000Y01679845D02*
X00000000Y01679845D01*
X00000000Y01663846D02*
X00114000Y01663846D01*
X00114000Y01647848D02*
X00000000Y01647848D01*
X00000000Y01631849D02*
X00114000Y01631849D01*
X00114000Y01615851D02*
X00000000Y01615851D01*
X00000000Y01599852D02*
X00114000Y01599852D01*
X00114000Y01583854D02*
X00000000Y01583854D01*
X00000000Y01567855D02*
X00114000Y01567855D01*
X00114000Y01551857D02*
X00000000Y01551857D01*
X00000000Y01535858D02*
X00114000Y01535858D01*
X00114000Y01519860D02*
X00000000Y01519860D01*
X00000000Y01503861D02*
X00114000Y01503861D01*
X00114000Y01487863D02*
X00000000Y01487863D01*
X00000000Y01471864D02*
X00114000Y01471864D01*
X00114000Y01455866D02*
X00000000Y01455866D01*
X00000000Y01439867D02*
X00114000Y01439867D01*
X00114000Y01423869D02*
X00000000Y01423869D01*
X00248000Y01615851D02*
X00252000Y01615851D01*
X00114000Y01727841D02*
X00000000Y01727841D01*
X00000000Y01743839D02*
X00114000Y01743839D01*
X00115109Y01759838D02*
X00000000Y01759838D01*
X00000000Y01775836D02*
X00124924Y01775836D01*
X00000000Y01791835D02*
X02550000Y01791835D01*
X00750000Y01000000D02*
X00750000Y00900000D01*
X00503827Y01615851D02*
X00496173Y01615851D01*
X00251000Y00191982D02*
X00249000Y00191982D01*
X00249000Y00175984D02*
X00251000Y00175984D01*
X00251000Y00159985D02*
X00249000Y00159985D01*
X00275039Y00159985D02*
X00327210Y00159985D01*
X00899999Y00143987D02*
X00900000Y00143987D01*
X00899999Y00127988D02*
X00900000Y00127988D01*
X00899999Y00111990D02*
X00900000Y00111990D01*
X00899999Y00095991D02*
X00900000Y00095991D01*
X00899999Y00079993D02*
X00900000Y00079993D01*
X00899999Y00063994D02*
X00900000Y00063994D01*
X00926219Y00063994D02*
X01023781Y00063994D01*
X01007782Y00079993D02*
X00942218Y00079993D01*
X00944000Y00095991D02*
X01006000Y00095991D01*
X01006000Y00111990D02*
X00944000Y00111990D01*
X00934237Y00127988D02*
X01015763Y00127988D01*
X01031761Y00143987D02*
X00918238Y00143987D01*
X01049999Y00095991D02*
X01050000Y00095991D01*
X01049999Y00079993D02*
X01050000Y00079993D01*
X01049999Y00063994D02*
X01050000Y00063994D01*
D18*
X01300000Y00250000D03*
X01000000Y00500000D03*
X01150000Y00650000D03*
X00950000Y00700000D03*
X01450000Y00550000D03*
X02350000Y00950000D03*
X00100000Y01400000D03*
M02*
