<?xml version="1.0" encoding="UTF-8" standalone="no"?>
<!-- Created with Inkscape (http://www.inkscape.org/) -->

<svg
   xmlns:dc="http://purl.org/dc/elements/1.1/"
   xmlns:cc="http://creativecommons.org/ns#"
   xmlns:rdf="http://www.w3.org/1999/02/22-rdf-syntax-ns#"
   xmlns:svg="http://www.w3.org/2000/svg"
   xmlns="http://www.w3.org/2000/svg"
   xmlns:sodipodi="http://sodipodi.sourceforge.net/DTD/sodipodi-0.dtd"
   xmlns:inkscape="http://www.inkscape.org/namespaces/inkscape"
   width="12in"
   height="12in"
   viewBox="0 0 1080 1080"
   id="svg2"
   version="1.1"
   inkscape:version="0.91 r13725"
   sodipodi:docname="sheet1.svg">
  <defs
     id="defs4">
    <marker
       orient="auto"
       id="DistanceX"
       style="overflow:visible"
       refX="0.0"
       refY="0.0">
      <path
         id="path4157"
         d="M 3,-3 L -3,3 M 0,-5 L  0,5"
         style="stroke:#000000; stroke-width:0.5" />
    </marker>
    <pattern
       id="Hatch"
       x="0"
       y="0"
       patternUnits="userSpaceOnUse"
       width="8"
       height="8">
      <path
         id="path4160"
         d="M8 4 l-4,4"
         stroke-width="0.25"
         stroke="#000000"
         linecap="square" />
      <path
         id="path4162"
         d="M6 2 l-4,4"
         stroke-width="0.25"
         stroke="#000000"
         linecap="square" />
      <path
         id="path4164"
         d="M4 0 l-4,4"
         stroke-width="0.25"
         stroke="#000000"
         linecap="square" />
    </pattern>
    <symbol
       id="*Model_Space" />
    <symbol
       id="*Paper_Space" />
    <symbol
       id="*Paper_Space0" />
    <marker
       orient="auto"
       id="DistanceX-0"
       style="overflow:visible"
       refX="0.0"
       refY="0.0">
      <path
         id="path4676"
         d="M 3,-3 L -3,3 M 0,-5 L  0,5"
         style="stroke:#000000; stroke-width:0.5" />
    </marker>
    <pattern
       id="Hatch-4"
       x="0"
       y="0"
       patternUnits="userSpaceOnUse"
       width="8"
       height="8">
      <path
         id="path4679"
         d="M8 4 l-4,4"
         stroke-width="0.25"
         stroke="#000000"
         linecap="square" />
      <path
         id="path4681"
         d="M6 2 l-4,4"
         stroke-width="0.25"
         stroke="#000000"
         linecap="square" />
      <path
         id="path4683"
         d="M4 0 l-4,4"
         stroke-width="0.25"
         stroke="#000000"
         linecap="square" />
    </pattern>
    <symbol
       id="*Model_Space-6" />
    <symbol
       id="*Paper_Space-7" />
    <symbol
       id="*Paper_Space0-5" />
    <marker
       orient="auto"
       id="DistanceX-9"
       style="overflow:visible"
       refX="0.0"
       refY="0.0">
      <path
         id="path4815"
         d="M 3,-3 L -3,3 M 0,-5 L  0,5"
         style="stroke:#000000; stroke-width:0.5" />
    </marker>
    <pattern
       id="Hatch-2"
       x="0"
       y="0"
       patternUnits="userSpaceOnUse"
       width="8"
       height="8">
      <path
         id="path4818"
         d="M8 4 l-4,4"
         stroke-width="0.25"
         stroke="#000000"
         linecap="square" />
      <path
         id="path4820"
         d="M6 2 l-4,4"
         stroke-width="0.25"
         stroke="#000000"
         linecap="square" />
      <path
         id="path4822"
         d="M4 0 l-4,4"
         stroke-width="0.25"
         stroke="#000000"
         linecap="square" />
    </pattern>
    <symbol
       id="*Model_Space-4" />
    <symbol
       id="*Paper_Space-1" />
    <symbol
       id="*Paper_Space0-2" />
    <marker
       orient="auto"
       id="DistanceX-5"
       style="overflow:visible"
       refX="0.0"
       refY="0.0">
      <path
         id="path4938"
         d="M 3,-3 L -3,3 M 0,-5 L  0,5"
         style="stroke:#000000; stroke-width:0.5" />
    </marker>
    <pattern
       id="Hatch-1"
       x="0"
       y="0"
       patternUnits="userSpaceOnUse"
       width="8"
       height="8">
      <path
         id="path4941"
         d="M8 4 l-4,4"
         stroke-width="0.25"
         stroke="#000000"
         linecap="square" />
      <path
         id="path4943"
         d="M6 2 l-4,4"
         stroke-width="0.25"
         stroke="#000000"
         linecap="square" />
      <path
         id="path4945"
         d="M4 0 l-4,4"
         stroke-width="0.25"
         stroke="#000000"
         linecap="square" />
    </pattern>
    <symbol
       id="*Model_Space-41" />
    <symbol
       id="*Paper_Space-6" />
    <symbol
       id="*Paper_Space0-9" />
    <marker
       orient="auto"
       id="DistanceX-55"
       style="overflow:visible"
       refX="0.0"
       refY="0.0">
      <path
         id="path5230"
         d="M 3,-3 L -3,3 M 0,-5 L  0,5"
         style="stroke:#000000; stroke-width:0.5" />
    </marker>
    <pattern
       id="Hatch-6"
       x="0"
       y="0"
       patternUnits="userSpaceOnUse"
       width="8"
       height="8">
      <path
         id="path5233"
         d="M8 4 l-4,4"
         stroke-width="0.25"
         stroke="#000000"
         linecap="square" />
      <path
         id="path5235"
         d="M6 2 l-4,4"
         stroke-width="0.25"
         stroke="#000000"
         linecap="square" />
      <path
         id="path5237"
         d="M4 0 l-4,4"
         stroke-width="0.25"
         stroke="#000000"
         linecap="square" />
    </pattern>
    <symbol
       id="*Model_Space-0" />
    <symbol
       id="*Paper_Space-64" />
    <symbol
       id="*Paper_Space0-0" />
    <marker
       orient="auto"
       id="DistanceX-8"
       style="overflow:visible"
       refX="0.0"
       refY="0.0">
      <path
         id="path6774"
         d="M 3,-3 L -3,3 M 0,-5 L  0,5"
         style="stroke:#000000; stroke-width:0.5" />
    </marker>
    <pattern
       id="Hatch-5"
       x="0"
       y="0"
       patternUnits="userSpaceOnUse"
       width="8"
       height="8">
      <path
         id="path6777"
         d="M8 4 l-4,4"
         stroke-width="0.25"
         stroke="#000000"
         linecap="square" />
      <path
         id="path6779"
         d="M6 2 l-4,4"
         stroke-width="0.25"
         stroke="#000000"
         linecap="square" />
      <path
         id="path6781"
         d="M4 0 l-4,4"
         stroke-width="0.25"
         stroke="#000000"
         linecap="square" />
    </pattern>
    <symbol
       id="*Model_Space-09" />
    <symbol
       id="*Paper_Space-3" />
    <symbol
       id="*Paper_Space0-4" />
    <marker
       orient="auto"
       id="DistanceX-4"
       style="overflow:visible"
       refX="0.0"
       refY="0.0">
      <path
         id="path3413"
         d="M 3,-3 L -3,3 M 0,-5 L  0,5"
         style="stroke:#000000; stroke-width:0.5" />
    </marker>
    <pattern
       id="Hatch-11"
       x="0"
       y="0"
       patternUnits="userSpaceOnUse"
       width="8"
       height="8">
      <path
         id="path3416"
         d="M8 4 l-4,4"
         stroke-width="0.25"
         stroke="#000000"
         linecap="square" />
      <path
         id="path3418"
         d="M6 2 l-4,4"
         stroke-width="0.25"
         stroke="#000000"
         linecap="square" />
      <path
         id="path3420"
         d="M4 0 l-4,4"
         stroke-width="0.25"
         stroke="#000000"
         linecap="square" />
    </pattern>
    <symbol
       id="*Model_Space-9" />
    <symbol
       id="*Paper_Space-9" />
    <symbol
       id="*Paper_Space0-3" />
  </defs>
  <sodipodi:namedview
     id="base"
     pagecolor="#ffffff"
     bordercolor="#666666"
     borderopacity="1.0"
     inkscape:pageopacity="0.0"
     inkscape:pageshadow="2"
     inkscape:zoom="1.4"
     inkscape:cx="365.93597"
     inkscape:cy="377.69696"
     inkscape:document-units="px"
     inkscape:current-layer="layer1"
     showgrid="false"
     units="in"
     inkscape:window-width="1920"
     inkscape:window-height="1017"
     inkscape:window-x="-8"
     inkscape:window-y="-8"
     inkscape:window-maximized="1" />
  <metadata
     id="metadata7">
    <rdf:RDF>
      <cc:Work
         rdf:about="">
        <dc:format>image/svg+xml</dc:format>
        <dc:type
           rdf:resource="http://purl.org/dc/dcmitype/StillImage" />
        <dc:title />
      </cc:Work>
    </rdf:RDF>
  </metadata>
  <g
     inkscape:label="Layer 1"
     inkscape:groupmode="layer"
     id="layer1"
     transform="translate(0,27.637855)">
    <flowRoot
       xml:space="preserve"
       id="flowRoot4136"
       style="font-style:normal;font-weight:normal;font-size:40px;line-height:125%;font-family:sans-serif;letter-spacing:0px;word-spacing:0px;fill:#ff00ff;fill-opacity:1;stroke:none;stroke-width:1px;stroke-linecap:butt;stroke-linejoin:miter;stroke-opacity:1"
       transform="translate(111.42857,-81.923569)"><flowRegion
         id="flowRegion4138"><rect
           id="rect4140"
           width="251.42857"
           height="194.28572"
           x="-285.71429"
           y="50"
           style="fill:#ff00ff;fill-opacity:1" /></flowRegion><flowPara
         id="flowPara4144">^GRAIN</flowPara><flowPara
         id="flowPara4148">^DIR</flowPara></flowRoot>    <path
       id="path4193"
       style="fill:none;stroke:#000000;stroke-width:0.5;stroke-linecap:round"
       d="m 93.965019,28.398493 a 11.25,11.25 0 1 0 -21.80144,0 M 61.804459,388.42009 a 47.25,47.25 0 0 0 -25.99016,42.19694 m 10.17,0 a 37.080002,37.080002 0 1 0 74.160001,0 m 10.17,0 A 47.25,47.25 0 0 0 104.32414,388.42009 M 81.292649,4.3571929 A 19.488189,19.488189 0 0 0 61.804459,23.845393 m 42.519681,0 A 19.488189,19.488189 0 0 0 84.835949,4.3571929 m -23.03149,384.0628971 0,-364.574697 m -15.82016,406.771637 -10.17,0 m 84.330001,0 10.17,0 m -25.99016,-42.19694 0,-364.574697 M 84.835949,4.3571929 l -3.5433,0 m 12.67237,24.0413001 -21.80144,0"
       inkscape:connector-curvature="0" />
    <path
       id="path4193-4"
       style="fill:none;stroke:#000000;stroke-width:0.5;stroke-linecap:round"
       d="m 156.24214,449.99381 a 11.25,11.25 0 1 0 21.80144,0 M 188.40271,89.97219 a 47.25,47.25 0 0 0 25.99016,-42.19694 m -10.17,0 a 37.080005,37.080005 0 1 0 -74.16001,0 m -10.17,0 a 47.25,47.25 0 0 0 25.99016,42.19694 m 23.03149,384.06292 a 19.488189,19.488189 0 0 0 19.4882,-19.4882 m -42.51969,0 a 19.488189,19.488189 0 0 0 19.48819,19.4882 m 23.0315,-384.06292 0,364.57472 m 15.82016,-406.77166 10.17,0 m -84.33001,0 -10.17,0 m 25.99016,42.19694 0,364.57472 m 19.48819,19.4882 3.5433,0 m -12.67237,-24.0413 21.80144,0"
       inkscape:connector-curvature="0" />
    <path
       id="path4193-2"
       style="fill:none;stroke:#000000;stroke-width:0.5;stroke-linecap:round"
       d="m 261.71707,28.721039 a 11.25,11.25 0 1 0 -21.80144,0 M 229.5565,388.74265 a 47.25,47.25 0 0 0 -25.99016,42.19694 m 10.17,0 a 37.080005,37.080005 0 0 0 74.16001,0 m 10.17,0 A 47.25,47.25 0 0 0 272.07619,388.74265 M 249.0447,4.6797389 A 19.488189,19.488189 0 0 0 229.5565,24.167939 m 42.51969,0 A 19.488189,19.488189 0 0 0 252.588,4.6797389 m -23.0315,384.0629111 0,-364.574711 m -15.82016,406.771651 -10.17,0 m 84.33001,0 10.17,0 m -25.99016,-42.19694 0,-364.574711 M 252.588,4.6797389 l -3.5433,0 m 12.67237,24.0413001 -21.80144,0"
       inkscape:connector-curvature="0" />
    <path
       id="path4718"
       style="fill:none;stroke:#000000;stroke-width:0.5;stroke-linecap:round"
       d="m 61.285614,852.21341 0,-9.135 -5.58,0 0,9.135 z m 90.899996,-27.0675 -22.5,-22.5 -62.999996,0 -22.5,22.5 0,179.99999 107.999996,0 z m -11.52,27.0675 0,-9.135 -5.58,0 0,9.135 z m -25.605,-4.5675 c 0,-9.31981 -7.5552,-16.87499 -16.874996,-16.87499 -9.3198,0 -16.875,7.55518 -16.875,16.87499 0,9.3198 7.5552,16.87498 16.875,16.87498 9.319796,0 16.874996,-7.55518 16.874996,-16.87498 z"
       inkscape:connector-curvature="0"
       sodipodi:nodetypes="cccccccccccccccccsssss" />
    <path
       id="path4718-5"
       style="fill:none;stroke:#000000;stroke-width:0.5;stroke-linecap:round"
       d="m 184.17144,850.67965 0,-9.135 -5.58,0 0,9.135 z m 90.9,-27.0675 -22.5,-22.5 -63,0 -22.5,22.5 0,179.99995 108,0 z m -11.52,27.0675 0,-9.135 -5.58,0 0,9.135 z m -25.605,-4.5675 c 0,-9.31981 -7.5552,-16.87499 -16.875,-16.87499 -9.3198,0 -16.875,7.55518 -16.875,16.87499 0,9.31981 7.5552,16.87499 16.875,16.87499 9.3198,0 16.875,-7.55518 16.875,-16.87499 z"
       inkscape:connector-curvature="0"
       sodipodi:nodetypes="cccccccccccccccccsssss" />
    <path
       id="path4718-0"
       style="fill:none;stroke:#000000;stroke-width:0.5;stroke-linecap:round"
       d="m 61.671424,642.10821 0,-9.135 -5.58,0 0,9.135 z m 90.899996,-27.0675 -22.5,-22.5 -62.999996,0 -22.5,22.5 0,180 107.999996,0 z m -11.52,27.0675 0,-9.135 -5.58,0 0,9.135 z m -25.605,-4.5675 c 0,-9.31981 -7.5552,-16.87499 -16.874996,-16.87499 -9.3198,0 -16.875,7.55518 -16.875,16.87499 0,9.31981 7.5552,16.87499 16.875,16.87499 9.319796,0 16.874996,-7.55518 16.874996,-16.87499 z"
       inkscape:connector-curvature="0"
       sodipodi:nodetypes="cccccccccccccccccsssss" />
    <path
       id="path4718-9"
       style="fill:none;stroke:#000000;stroke-width:0.5;stroke-linecap:round"
       d="m 182.38571,642.10821 0,-9.135 -5.58,0 0,9.135 z m 90.9,-27.0675 -22.5,-22.5 -63,0 -22.5,22.5 0,180 108,0 z m -11.52,27.0675 0,-9.135 -5.58,0 0,9.135 z m -25.605,-4.5675 c 0,-9.31981 -7.5552,-16.87499 -16.875,-16.87499 -9.3198,0 -16.875,7.55518 -16.875,16.87499 0,9.31981 7.5552,16.87499 16.875,16.87499 9.3198,0 16.875,-7.55518 16.875,-16.87499 z"
       inkscape:connector-curvature="0"
       sodipodi:nodetypes="cccccccccccccccccsssss" />
    <path
       id="path5054"
       style="fill:none;stroke:#000000;stroke-width:0.5;stroke-linecap:round"
       d="m 565.55714,960.06812 0,-19.8 19.79999,0 0,19.8 z m 0,-565.19999 19.79999,0 0,-19.8 -19.79999,0 z m -146.7,444.59999 107.99999,0 0,-19.8 -107.99999,0 z m 107.99999,-145.79999 -107.99999,0 0,19.8 107.99999,0 z m -107.99999,-126 0,19.8 107.99999,0 0,-19.8 z m 0,-126 0,19.8 107.99999,0 0,-19.8 z m -13.5,585.89997 0,-22.5 -70.2,0 0,-67.49998 -19.79998,0 0,-539.99999 19.79998,0 0,-67.49999 70.2,0 0,-22.5 134.99999,0 0,22.5 67.49996,0 0,67.49999 22.5,0 0,539.99999 -22.5,0 0,67.49998 -67.49996,0 0,22.5 z m -45,-87.29998 0,19.8 19.8,0 0,-19.8 z m 19.8,-565.19999 0,19.8 -19.8,0 0,-19.8 z"
       inkscape:connector-curvature="0"
       sodipodi:nodetypes="ccccccccccccccccccccccccccccccccccccccccccccccccccccccccccccc" />
    <path
       id="path5294"
       style="fill:none;stroke:#000000;stroke-width:0.5;stroke-linecap:round"
       d="m 315.42889,66.624525 -22.5,0 0,-67.5000005 112.5,0 0,22.5000005 134.99997,0 0,-22.5000005 112.5,0 0,67.5000005 -22.5,0 0,179.999995 22.5,0 0,45 -112.5,0 0,-22.5 -134.99997,0 0,22.5 -112.5,0 0,-45 22.5,0 z m 247.49997,91.237495 -33.75,0 0,42.525 33.75,0 z m -11.25,-26.55 c 0,-3.1066 -2.5184,-5.625 -5.625,-5.625 -3.1066,0 -5.625,2.5184 -5.625,5.625 0,3.1066 2.5184,5.625 5.625,5.625 3.1066,0 5.625,-2.5184 5.625,-5.625 z m 0,95.625 c 0,-3.1066 -2.5184,-5.625 -5.625,-5.625 -3.1066,0 -5.625,2.5184 -5.625,5.625 0,3.1066 2.5184,5.625 5.625,5.625 3.1066,0 5.625,-2.5184 5.625,-5.625 z"
       inkscape:connector-curvature="0"
       sodipodi:nodetypes="ccccccccccccccccccccccccccssssssssss" />
    <path
       id="path6826"
       style="fill:none;stroke:#000000;stroke-width:0.5;stroke-linecap:round"
       d="m 780.8059,-3.8350211 0,22.5000001 135,0 0,-22.5000001 112.5,0 0,67.5000001 -22.5,0 0,179.999991 22.5,0 0,45 -112.5,0 0,-22.5 -135,0 0,22.5 -112.5,0 0,-45 22.5,0 0,-179.999991 -22.5,0 0,-67.5000001 z"
       inkscape:connector-curvature="0"
       sodipodi:nodetypes="ccccccccccccccccccccc" />
    <path
       id="path3481"
       style="fill:none;stroke:#000000;stroke-width:0.5;stroke-linecap:round"
       d="m 965.54719,844.69462 -270,0 0,45 270,0 z m -270,-126 0,45 270,0 0,-45 z m 270,-81 0,-45 -270,0 0,45 z m 0,-126 0,-45 -270,0 0,45 z m -315,486.00002 112.5,0 0,22.49996 135,0 0,-22.49996 112.50001,0 0,-675.00002 -112.50001,0 0,-22.5 -135,0 0,22.5 -112.5,0 z"
       inkscape:connector-curvature="0"
       sodipodi:nodetypes="ccccccccccccccccccccccccccccccccc" />
    <path
       id="path3665"
       style="fill:none;stroke:#000000;stroke-width:0.5;stroke-linecap:round"
       d="m 33.392856,486.64786 0,90 67.500004,0 0,-90 z m 41.85,33.75 c 0,-4.47351 -3.626494,-8.1 -8.1,-8.1 -4.473507,0 -8.1,3.62649 -8.1,8.1 0,4.47351 3.626494,8.09999 8.1,8.09999 4.473506,0 8.1,-3.62648 8.1,-8.09999 z"
       inkscape:connector-curvature="0"
       sodipodi:nodetypes="cccccsssss" />
    <path
       id="path3665-1"
       style="fill:none;stroke:#000000;stroke-width:0.5;stroke-linecap:round"
       d="m 111.96429,487.36214 0,90.00001 67.5,0 0,-90.00001 z m 41.85,33.75 c 0,-4.47351 -3.6265,-8.1 -8.1,-8.1 -4.47351,0 -8.1,3.62649 -8.1,8.1 0,4.47351 3.62649,8.1 8.1,8.1 4.4735,0 8.1,-3.62649 8.1,-8.1 z"
       inkscape:connector-curvature="0"
       sodipodi:nodetypes="cccccsssss" />
    <path
       id="path3665-6"
       style="fill:none;stroke:#000000;stroke-width:0.5;stroke-linecap:round"
       d="m 191.96428,488.79071 0,90.00001 67.50001,0 0,-90.00001 z m 41.85001,33.75 c 0,-4.47351 -3.6265,-8.1 -8.1,-8.1 -4.47351,0 -8.1,3.62649 -8.1,8.1 0,4.47351 3.62649,8.1 8.1,8.1 4.4735,0 8.1,-3.62649 8.1,-8.1 z"
       inkscape:connector-curvature="0"
       sodipodi:nodetypes="cccccsssss" />
  </g>
</svg>
