<?xml version="1.0" encoding="UTF-8" standalone="no"?>
<!-- Created with Inkscape (http://www.inkscape.org/) -->

<svg
   xmlns:dc="http://purl.org/dc/elements/1.1/"
   xmlns:cc="http://creativecommons.org/ns#"
   xmlns:rdf="http://www.w3.org/1999/02/22-rdf-syntax-ns#"
   xmlns:svg="http://www.w3.org/2000/svg"
   xmlns="http://www.w3.org/2000/svg"
   xmlns:sodipodi="http://sodipodi.sourceforge.net/DTD/sodipodi-0.dtd"
   xmlns:inkscape="http://www.inkscape.org/namespaces/inkscape"
   width="12in"
   height="12in"
   viewBox="0 0 1080 1080"
   id="svg2"
   version="1.1"
   inkscape:version="0.91 r13725"
   sodipodi:docname="sheet3.svg">
  <defs
     id="defs4">
    <marker
       orient="auto"
       id="DistanceX"
       style="overflow:visible"
       refX="0"
       refY="0">
      <path
         id="path3343"
         d="M 3,-3 -3,3 M 0,-5 0,5"
         style="stroke:#000000;stroke-width:0.5"
         inkscape:connector-curvature="0" />
    </marker>
    <pattern
       id="Hatch"
       x="0"
       y="0"
       patternUnits="userSpaceOnUse"
       width="8"
       height="8">
      <path
         id="path3346"
         d="M8 4 l-4,4"
         stroke-width="0.25"
         stroke="#000000"
         linecap="square" />
      <path
         id="path3348"
         d="M6 2 l-4,4"
         stroke-width="0.25"
         stroke="#000000"
         linecap="square" />
      <path
         id="path3350"
         d="M4 0 l-4,4"
         stroke-width="0.25"
         stroke="#000000"
         linecap="square" />
    </pattern>
    <symbol
       id="*Model_Space" />
    <symbol
       id="*Paper_Space" />
    <symbol
       id="*Paper_Space0" />
    <marker
       orient="auto"
       id="DistanceX-3"
       style="overflow:visible"
       refX="0.0"
       refY="0.0">
      <path
         id="path3558"
         d="M 3,-3 L -3,3 M 0,-5 L  0,5"
         style="stroke:#000000; stroke-width:0.5" />
    </marker>
    <pattern
       id="Hatch-4"
       x="0"
       y="0"
       patternUnits="userSpaceOnUse"
       width="8"
       height="8">
      <path
         id="path3561"
         d="M8 4 l-4,4"
         stroke-width="0.25"
         stroke="#000000"
         linecap="square" />
      <path
         id="path3563"
         d="M6 2 l-4,4"
         stroke-width="0.25"
         stroke="#000000"
         linecap="square" />
      <path
         id="path3565"
         d="M4 0 l-4,4"
         stroke-width="0.25"
         stroke="#000000"
         linecap="square" />
    </pattern>
    <symbol
       id="*Model_Space-8" />
    <symbol
       id="*Paper_Space-2" />
    <symbol
       id="*Paper_Space0-0" />
    <marker
       orient="auto"
       id="DistanceX-4"
       style="overflow:visible"
       refX="0.0"
       refY="0.0">
      <path
         id="path3363"
         d="M 3,-3 L -3,3 M 0,-5 L  0,5"
         style="stroke:#000000; stroke-width:0.5" />
    </marker>
    <pattern
       id="Hatch-7"
       x="0"
       y="0"
       patternUnits="userSpaceOnUse"
       width="8"
       height="8">
      <path
         id="path3366"
         d="M8 4 l-4,4"
         stroke-width="0.25"
         stroke="#000000"
         linecap="square" />
      <path
         id="path3368"
         d="M6 2 l-4,4"
         stroke-width="0.25"
         stroke="#000000"
         linecap="square" />
      <path
         id="path3370"
         d="M4 0 l-4,4"
         stroke-width="0.25"
         stroke="#000000"
         linecap="square" />
    </pattern>
    <symbol
       id="*Model_Space-0" />
    <symbol
       id="*Paper_Space-9" />
    <symbol
       id="*Paper_Space0-7" />
  </defs>
  <sodipodi:namedview
     id="base"
     pagecolor="#ffffff"
     bordercolor="#666666"
     borderopacity="1.0"
     inkscape:pageopacity="0.0"
     inkscape:pageshadow="2"
     inkscape:zoom="0.98994949"
     inkscape:cx="731.08562"
     inkscape:cy="447.62282"
     inkscape:document-units="px"
     inkscape:current-layer="layer1"
     showgrid="false"
     units="in"
     inkscape:window-width="1920"
     inkscape:window-height="1017"
     inkscape:window-x="-8"
     inkscape:window-y="-8"
     inkscape:window-maximized="1" />
  <metadata
     id="metadata7">
    <rdf:RDF>
      <cc:Work
         rdf:about="">
        <dc:format>image/svg+xml</dc:format>
        <dc:type
           rdf:resource="http://purl.org/dc/dcmitype/StillImage" />
        <dc:title />
      </cc:Work>
    </rdf:RDF>
  </metadata>
  <g
     inkscape:label="Layer 1"
     inkscape:groupmode="layer"
     id="layer1"
     transform="translate(0,27.637855)">
    <path
       id="path3417"
       style="fill:none;stroke:#000000;stroke-width:0.5;stroke-linecap:round"
       d="m 159.56805,182.75881 -3.54331,0 0,10.63 3.54331,0 z m -3.54331,-97.370003 3.54331,0 0,-10.62996 -3.54331,0 z m 133.61811,206.185003 -135,0 0,-22.5 -89.999996,0 0,-45 -22.5,0 0,-179.999993 22.5,0 0,-44.99999986 674.999996,0 0,44.99999986 22.5,0 0,179.999993 -22.5,0 0,45 -90,0 0,22.5 -135,0 0,-22.5 -225,0 z m -185.85,-78.75 c 0,-7.2 -10.799996,-7.2 -10.799996,0 0,7.2 10.799996,7.2 10.799996,0 z m 607.5,0 c 0,-7.2 -10.8,-7.2 -10.8,0 0,7.2 10.8,7.2 10.8,0 z m -512.74842,-24.75 c 0,-6.84921 -5.55237,-12.40157 -12.40157,-12.40157 -6.8492,0 -12.40158,5.55236 -12.40158,12.40157 0,6.84921 5.55238,12.40157 12.40158,12.40157 6.8492,0 12.40157,-5.55236 12.40157,-12.40157 z m 0,-107.999993 c 0,-6.84921 -5.55237,-12.40157 -12.40157,-12.40157 -6.8492,0 -12.40158,5.55236 -12.40158,12.40157 0,6.84921 5.55238,12.40157 12.40158,12.40157 6.8492,0 12.40157,-5.55236 12.40157,-12.40157 z M 304.77277,188.07381 c 0.003,-5.87255 -4.75737,-10.63453 -10.62992,-10.63453 -5.87254,0 -10.63246,4.76198 -10.62992,10.63453 -0.003,5.87255 4.75738,10.63453 10.62992,10.63453 5.87255,0 10.63247,-4.76198 10.62992,-10.63453 z m 324,0 c 0.003,-5.87255 -4.75737,-10.63453 -10.62992,-10.63453 -5.87254,0 -10.63246,4.76198 -10.62992,10.63453 -0.003,5.87255 4.75738,10.63453 10.62992,10.63453 5.87255,0 10.63247,-4.76198 10.62992,-10.63453 z m -108,0 c 0.003,-5.87255 -4.75737,-10.63453 -10.62992,-10.63453 -5.87254,0 -10.63246,4.76198 -10.62992,10.63453 -0.003,5.87255 4.75738,10.63453 10.62992,10.63453 5.87255,0 10.63247,-4.76198 10.62992,-10.63453 z m -108,0 c 0.003,-5.87255 -4.75737,-10.63453 -10.62992,-10.63453 -5.87254,0 -10.63246,4.76198 -10.62992,10.63453 0.003,5.86895 4.76098,10.62531 10.62992,10.62531 5.86895,0 10.62738,-4.75636 10.62992,-10.62531 z m 216,-107.999993 c 0.003,-5.87255 -4.75737,-10.63453 -10.62992,-10.63453 -5.87254,0 -10.63246,4.76198 -10.62992,10.63453 -0.003,5.87255 4.75738,10.63453 10.62992,10.63453 5.87255,0 10.63247,-4.76198 10.62992,-10.63453 z m -108,0 c 0.003,-5.87255 -4.75737,-10.63453 -10.62992,-10.63453 -5.87254,0 -10.63246,4.76198 -10.62992,10.63453 -0.003,5.87255 4.75738,10.63453 10.62992,10.63453 5.87255,0 10.63247,-4.76198 10.62992,-10.63453 z m -108,0 c 0.003,-5.87255 -4.75737,-10.63453 -10.62992,-10.63453 -5.87254,0 -10.63246,4.76198 -10.62992,10.63453 0.003,5.86895 4.76098,10.62531 10.62992,10.62531 5.86895,0 10.62738,-4.75636 10.62992,-10.62531 z m -108,0 c 0.003,-5.87255 -4.75737,-10.63453 -10.62992,-10.63453 -5.87254,0 -10.63246,4.76198 -10.62992,10.63453 -0.003,5.87255 4.75738,10.63453 10.62992,10.63453 5.87255,0 10.63247,-4.76198 10.62992,-10.63453 z"
       inkscape:connector-curvature="0" />
    <path
       id="path3415"
       style="fill:none;stroke:#000000;stroke-width:0.5;stroke-linecap:round"
       d="m 93.951591,759.38107 c -6.8116,0 -12.06053,-6.00555 -11.14876,-12.75586 l 22.297519,0 c 0.91177,6.75031 -4.33716,12.75586 -11.148759,12.75586 z m 21.259839,-64.79893 0,-309.25413 c 15.9366,-8.02924 25.99016,-24.35194 25.99016,-42.19694 l -10.17,0 c 0,-20.47873 -16.60128,-37.07998 -37.079999,-37.07998 -20.47872,0 -37.08,16.60125 -37.08,37.07998 l -10.17,0 c 0,17.845 10.05356,34.1677 25.99016,42.19694 l 0,309.25413 c 0,9.39744 -3.73312,18.40998 -10.37811,25.05497 l -0.50363,0.5036 c -6.645,6.645 -10.37812,15.65755 -10.37811,25.055 l 0,10.022 c 4e-5,19.56912 15.86396,35.433 35.43308,35.433 l 14.173219,0 c 19.56912,0 35.43303,-15.86388 35.43307,-35.433 l 0,-10.022 c 1e-5,-9.39745 -3.7331,-18.41 -10.3781,-25.055 l -0.50363,-0.5036 c -6.64499,-6.64499 -10.37811,-15.65753 -10.37811,-25.05497 z"
       inkscape:connector-curvature="0"
       sodipodi:nodetypes="sccsccccsccccccccccccccc" />
    <path
       id="path3415-9"
       style="fill:none;stroke:#000000;stroke-width:0.5;stroke-linecap:round"
       d="m 208.09142,761.3465 c -6.8116,0 -12.06053,-6.00556 -11.14876,-12.75586 l 22.29753,0 c 0.91177,6.75031 -4.33717,12.75586 -11.14877,12.75586 z m 21.25985,-64.79893 0,-309.25413 c 15.9366,-8.02924 25.99016,-24.35194 25.99016,-42.19694 l -10.17,0 c 0,-20.47873 -16.60128,-37.07998 -37.08001,-37.07998 -20.47872,0 -37.08,16.60125 -37.08,37.07998 l -10.17,0 c 0,17.845 10.05356,34.1677 25.99016,42.19694 l 0,309.25412 c 0,9.39744 -3.73312,18.40998 -10.37811,25.05498 l -0.50363,0.5036 c -6.645,6.64499 -10.37812,15.65755 -10.37811,25.055 l 0,10.022 c 4e-5,19.56912 15.86396,35.433 35.43308,35.433 l 14.17322,0 c 19.56913,0 35.43304,-15.86388 35.43308,-35.433 l 0,-10.022 c 1e-5,-9.39745 -3.7331,-18.41001 -10.3781,-25.055 l -0.50363,-0.5036 c -6.64499,-6.645 -10.37811,-15.65754 -10.37811,-25.05498 z"
       inkscape:connector-curvature="0"
       sodipodi:nodetypes="sccsccccsccccccccccccccc" />
    <path
       id="path3415-2"
       style="fill:none;stroke:#000000;stroke-width:0.5;stroke-linecap:round"
       d="m 326.27927,762.35665 c -6.8116,0 -12.06053,-6.00556 -11.14876,-12.75586 l 22.29752,0 c 0.91177,6.75031 -4.33716,12.75586 -11.14876,12.75586 z m 21.25984,-64.79893 0,-309.25413 c 15.9366,-8.02924 25.99016,-24.35194 25.99016,-42.19694 l -10.17,0 c 0,-20.47873 -16.60128,-37.07998 -37.08,-37.07998 -20.47872,0 -37.08,16.60125 -37.08,37.07998 l -10.17,0 c 0,17.845 10.05356,34.1677 25.99016,42.19694 l 0,309.25412 c 0,9.39744 -3.73312,18.40998 -10.37811,25.05498 l -0.50363,0.5036 c -6.645,6.64499 -10.37812,15.65755 -10.37811,25.055 l 0,10.022 c 4e-5,19.56912 15.86396,35.433 35.43308,35.433 l 14.17322,0 c 19.56912,0 35.43303,-15.86388 35.43307,-35.433 l 0,-10.022 c 1e-5,-9.39745 -3.7331,-18.41001 -10.3781,-25.055 l -0.50363,-0.5036 c -6.64499,-6.645 -10.37811,-15.65754 -10.37811,-25.05498 z"
       inkscape:connector-curvature="0"
       sodipodi:nodetypes="sccsccccsccccccccccccccc" />
    <path
       id="path3415-6"
       style="fill:none;stroke:#000000;stroke-width:0.5;stroke-linecap:round"
       d="m 439.42006,763.89932 c -6.8116,0 -12.06053,-6.00556 -11.14876,-12.75586 l 22.29752,0 c 0.91177,6.75031 -4.33716,12.75586 -11.14876,12.75586 z m 21.25984,-64.79893 0,-309.25414 c 15.9366,-8.02924 25.99016,-24.35194 25.99016,-42.19693 l -10.17,0 c 0,-20.47873 -16.60128,-37.07998 -37.08,-37.07998 -20.47872,0 -37.08,16.60125 -37.08,37.07998 l -10.17,0 c 0,17.84499 10.05356,34.16769 25.99016,42.19693 l 0,309.25413 c 0,9.39744 -3.73312,18.40998 -10.37811,25.05498 l -0.50363,0.5036 c -6.645,6.64499 -10.37812,15.65755 -10.37811,25.055 l 0,10.022 c 4e-5,19.56912 15.86396,35.433 35.43308,35.433 l 14.17322,0 c 19.56912,0 35.43303,-15.86388 35.43307,-35.433 l 0,-10.022 c 1e-5,-9.39745 -3.7331,-18.41001 -10.3781,-25.055 l -0.50363,-0.5036 c -6.64499,-6.645 -10.37811,-15.65754 -10.37811,-25.05498 z"
       inkscape:connector-curvature="0"
       sodipodi:nodetypes="sccsccccsccccccccccccccc" />
    <path
       id="path3415-9-7"
       style="fill:none;stroke:#000000;stroke-width:0.5;stroke-linecap:round"
       d="m 553.55989,765.86475 c -6.8116,0 -12.06053,-6.00556 -11.14876,-12.75586 l 22.29753,0 c 0.91177,6.75031 -4.33717,12.75586 -11.14877,12.75586 z m 21.25985,-64.79893 0,-309.25414 c 15.9366,-8.02924 25.99016,-24.35194 25.99016,-42.19693 l -10.17,0 c 0,-20.47873 -16.60128,-37.07998 -37.08001,-37.07998 -20.47872,0 -37.08,16.60125 -37.08,37.07998 l -10.17,0 c 0,17.84499 10.05356,34.16769 25.99016,42.19693 l 0,309.25413 c 0,9.39744 -3.73312,18.40998 -10.37811,25.05498 l -0.50363,0.5036 c -6.645,6.64499 -10.37812,15.65755 -10.37811,25.055 l 0,10.022 c 4e-5,19.56912 15.86396,35.433 35.43308,35.433 l 14.17322,0 c 19.56913,0 35.43304,-15.86388 35.43308,-35.433 l 0,-10.022 c 1e-5,-9.39745 -3.7331,-18.41001 -10.3781,-25.055 l -0.50363,-0.5036 c -6.64499,-6.645 -10.37811,-15.65754 -10.37811,-25.05498 z"
       inkscape:connector-curvature="0"
       sodipodi:nodetypes="sccsccccsccccccccccccccc" />
    <path
       id="path3415-2-9"
       style="fill:none;stroke:#000000;stroke-width:0.5;stroke-linecap:round"
       d="m 671.74774,766.8749 c -6.8116,0 -12.06053,-6.00556 -11.14876,-12.75586 l 22.29752,0 c 0.91177,6.75031 -4.33716,12.75586 -11.14876,12.75586 z m 21.25984,-64.79893 0,-309.25414 c 15.9366,-8.02924 25.99016,-24.35194 25.99016,-42.19693 l -10.17,0 c 0,-20.47873 -16.60128,-37.07998 -37.08,-37.07998 -20.47872,0 -37.08,16.60125 -37.08,37.07998 l -10.17,0 c 0,17.84499 10.05356,34.16769 25.99016,42.19693 l 0,309.25413 c 0,9.39744 -3.73312,18.40998 -10.37811,25.05498 l -0.50363,0.5036 c -6.645,6.64499 -10.37812,15.65755 -10.37811,25.055 l 0,10.022 c 4e-5,19.56912 15.86396,35.433 35.43308,35.433 l 14.17322,0 c 19.56912,0 35.43303,-15.86388 35.43307,-35.433 l 0,-10.022 c 10e-6,-9.39745 -3.7331,-18.41001 -10.3781,-25.055 l -0.50363,-0.5036 c -6.64499,-6.645 -10.37811,-15.65754 -10.37811,-25.05498 z"
       inkscape:connector-curvature="0"
       sodipodi:nodetypes="sccsccccsccccccccccccccc" />
  </g>
</svg>
