<?xml version="1.0" encoding="UTF-8" standalone="no"?>
<!-- Created with Inkscape (http://www.inkscape.org/) -->

<svg
   xmlns:dc="http://purl.org/dc/elements/1.1/"
   xmlns:cc="http://creativecommons.org/ns#"
   xmlns:rdf="http://www.w3.org/1999/02/22-rdf-syntax-ns#"
   xmlns:svg="http://www.w3.org/2000/svg"
   xmlns="http://www.w3.org/2000/svg"
   xmlns:sodipodi="http://sodipodi.sourceforge.net/DTD/sodipodi-0.dtd"
   xmlns:inkscape="http://www.inkscape.org/namespaces/inkscape"
   width="12in"
   height="12in"
   viewBox="0 0 1080 1080"
   id="svg5439"
   version="1.1"
   inkscape:version="0.91 r13725"
   sodipodi:docname="sheet2.svg">
  <defs
     id="defs5441">
    <marker
       orient="auto"
       id="DistanceX"
       style="overflow:visible"
       refX="0.0"
       refY="0.0">
      <path
         id="path6021"
         d="M 3,-3 L -3,3 M 0,-5 L  0,5"
         style="stroke:#000000; stroke-width:0.5" />
    </marker>
    <pattern
       id="Hatch"
       x="0"
       y="0"
       patternUnits="userSpaceOnUse"
       width="8"
       height="8">
      <path
         id="path6024"
         d="M8 4 l-4,4"
         stroke-width="0.25"
         stroke="#000000"
         linecap="square" />
      <path
         id="path6026"
         d="M6 2 l-4,4"
         stroke-width="0.25"
         stroke="#000000"
         linecap="square" />
      <path
         id="path6028"
         d="M4 0 l-4,4"
         stroke-width="0.25"
         stroke="#000000"
         linecap="square" />
    </pattern>
    <symbol
       id="*Model_Space" />
    <symbol
       id="*Paper_Space" />
    <symbol
       id="*Paper_Space0" />
    <marker
       orient="auto"
       id="DistanceX-1"
       style="overflow:visible"
       refX="0.0"
       refY="0.0">
      <path
         id="path6229"
         d="M 3,-3 L -3,3 M 0,-5 L  0,5"
         style="stroke:#000000; stroke-width:0.5" />
    </marker>
    <pattern
       id="Hatch-9"
       x="0"
       y="0"
       patternUnits="userSpaceOnUse"
       width="8"
       height="8">
      <path
         id="path6232"
         d="M8 4 l-4,4"
         stroke-width="0.25"
         stroke="#000000"
         linecap="square" />
      <path
         id="path6234"
         d="M6 2 l-4,4"
         stroke-width="0.25"
         stroke="#000000"
         linecap="square" />
      <path
         id="path6236"
         d="M4 0 l-4,4"
         stroke-width="0.25"
         stroke="#000000"
         linecap="square" />
    </pattern>
    <symbol
       id="*Model_Space-7" />
    <symbol
       id="*Paper_Space-6" />
    <symbol
       id="*Paper_Space0-6" />
    <marker
       orient="auto"
       id="DistanceX-6"
       style="overflow:visible"
       refX="0.0"
       refY="0.0">
      <path
         id="path6978"
         d="M 3,-3 L -3,3 M 0,-5 L  0,5"
         style="stroke:#000000; stroke-width:0.5" />
    </marker>
    <pattern
       id="Hatch-2"
       x="0"
       y="0"
       patternUnits="userSpaceOnUse"
       width="8"
       height="8">
      <path
         id="path6981"
         d="M8 4 l-4,4"
         stroke-width="0.25"
         stroke="#000000"
         linecap="square" />
      <path
         id="path6983"
         d="M6 2 l-4,4"
         stroke-width="0.25"
         stroke="#000000"
         linecap="square" />
      <path
         id="path6985"
         d="M4 0 l-4,4"
         stroke-width="0.25"
         stroke="#000000"
         linecap="square" />
    </pattern>
    <symbol
       id="*Model_Space-5" />
    <symbol
       id="*Paper_Space-66" />
    <symbol
       id="*Paper_Space0-5" />
    <marker
       orient="auto"
       id="DistanceX-4"
       style="overflow:visible"
       refX="0.0"
       refY="0.0">
      <path
         id="path7186"
         d="M 3,-3 L -3,3 M 0,-5 L  0,5"
         style="stroke:#000000; stroke-width:0.5" />
    </marker>
    <pattern
       id="Hatch-8"
       x="0"
       y="0"
       patternUnits="userSpaceOnUse"
       width="8"
       height="8">
      <path
         id="path7189"
         d="M8 4 l-4,4"
         stroke-width="0.25"
         stroke="#000000"
         linecap="square" />
      <path
         id="path7191"
         d="M6 2 l-4,4"
         stroke-width="0.25"
         stroke="#000000"
         linecap="square" />
      <path
         id="path7193"
         d="M4 0 l-4,4"
         stroke-width="0.25"
         stroke="#000000"
         linecap="square" />
    </pattern>
    <symbol
       id="*Model_Space-8" />
    <symbol
       id="*Paper_Space-1" />
    <symbol
       id="*Paper_Space0-0" />
    <marker
       orient="auto"
       id="DistanceX-14"
       style="overflow:visible"
       refX="0.0"
       refY="0.0">
      <path
         id="path7493"
         d="M 3,-3 L -3,3 M 0,-5 L  0,5"
         style="stroke:#000000; stroke-width:0.5" />
    </marker>
    <pattern
       id="Hatch-95"
       x="0"
       y="0"
       patternUnits="userSpaceOnUse"
       width="8"
       height="8">
      <path
         id="path7496"
         d="M8 4 l-4,4"
         stroke-width="0.25"
         stroke="#000000"
         linecap="square" />
      <path
         id="path7498"
         d="M6 2 l-4,4"
         stroke-width="0.25"
         stroke="#000000"
         linecap="square" />
      <path
         id="path7500"
         d="M4 0 l-4,4"
         stroke-width="0.25"
         stroke="#000000"
         linecap="square" />
    </pattern>
    <symbol
       id="*Model_Space-2" />
    <symbol
       id="*Paper_Space-0" />
    <symbol
       id="*Paper_Space0-56" />
    <marker
       orient="auto"
       id="DistanceX-2"
       style="overflow:visible"
       refX="0.0"
       refY="0.0">
      <path
         id="path3399"
         d="M 3,-3 L -3,3 M 0,-5 L  0,5"
         style="stroke:#000000; stroke-width:0.5" />
    </marker>
    <pattern
       id="Hatch-1"
       x="0"
       y="0"
       patternUnits="userSpaceOnUse"
       width="8"
       height="8">
      <path
         id="path3402"
         d="M8 4 l-4,4"
         stroke-width="0.25"
         stroke="#000000"
         linecap="square" />
      <path
         id="path3404"
         d="M6 2 l-4,4"
         stroke-width="0.25"
         stroke="#000000"
         linecap="square" />
      <path
         id="path3406"
         d="M4 0 l-4,4"
         stroke-width="0.25"
         stroke="#000000"
         linecap="square" />
    </pattern>
    <symbol
       id="*Model_Space-1" />
    <symbol
       id="*Paper_Space-60" />
    <symbol
       id="*Paper_Space0-1" />
    <marker
       orient="auto"
       id="DistanceX-5"
       style="overflow:visible"
       refX="0.0"
       refY="0.0">
      <path
         id="path3571"
         d="M 3,-3 L -3,3 M 0,-5 L  0,5"
         style="stroke:#000000; stroke-width:0.5" />
    </marker>
    <pattern
       id="Hatch-14"
       x="0"
       y="0"
       patternUnits="userSpaceOnUse"
       width="8"
       height="8">
      <path
         id="path3574"
         d="M8 4 l-4,4"
         stroke-width="0.25"
         stroke="#000000"
         linecap="square" />
      <path
         id="path3576"
         d="M6 2 l-4,4"
         stroke-width="0.25"
         stroke="#000000"
         linecap="square" />
      <path
         id="path3578"
         d="M4 0 l-4,4"
         stroke-width="0.25"
         stroke="#000000"
         linecap="square" />
    </pattern>
    <symbol
       id="*Model_Space-9" />
    <symbol
       id="*Paper_Space-2" />
    <symbol
       id="*Paper_Space0-3" />
    <marker
       orient="auto"
       id="DistanceX-0"
       style="overflow:visible"
       refX="0.0"
       refY="0.0">
      <path
         id="path3643"
         d="M 3,-3 L -3,3 M 0,-5 L  0,5"
         style="stroke:#000000; stroke-width:0.5" />
    </marker>
    <pattern
       id="Hatch-93"
       x="0"
       y="0"
       patternUnits="userSpaceOnUse"
       width="8"
       height="8">
      <path
         id="path3646"
         d="M8 4 l-4,4"
         stroke-width="0.25"
         stroke="#000000"
         linecap="square" />
      <path
         id="path3648"
         d="M6 2 l-4,4"
         stroke-width="0.25"
         stroke="#000000"
         linecap="square" />
      <path
         id="path3650"
         d="M4 0 l-4,4"
         stroke-width="0.25"
         stroke="#000000"
         linecap="square" />
    </pattern>
    <symbol
       id="*Model_Space-26" />
    <symbol
       id="*Paper_Space-4" />
    <symbol
       id="*Paper_Space0-9" />
    <marker
       orient="auto"
       id="DistanceX-3"
       style="overflow:visible"
       refX="0.0"
       refY="0.0">
      <path
         id="path3715"
         d="M 3,-3 L -3,3 M 0,-5 L  0,5"
         style="stroke:#000000; stroke-width:0.5" />
    </marker>
    <pattern
       id="Hatch-6"
       x="0"
       y="0"
       patternUnits="userSpaceOnUse"
       width="8"
       height="8">
      <path
         id="path3718"
         d="M8 4 l-4,4"
         stroke-width="0.25"
         stroke="#000000"
         linecap="square" />
      <path
         id="path3720"
         d="M6 2 l-4,4"
         stroke-width="0.25"
         stroke="#000000"
         linecap="square" />
      <path
         id="path3722"
         d="M4 0 l-4,4"
         stroke-width="0.25"
         stroke="#000000"
         linecap="square" />
    </pattern>
    <symbol
       id="*Model_Space-74" />
    <symbol
       id="*Paper_Space-08" />
    <symbol
       id="*Paper_Space0-7" />
  </defs>
  <sodipodi:namedview
     id="base"
     pagecolor="#ffffff"
     bordercolor="#666666"
     borderopacity="1.0"
     inkscape:pageopacity="0.0"
     inkscape:pageshadow="2"
     inkscape:zoom="0.9899495"
     inkscape:cx="413.33402"
     inkscape:cy="263.44457"
     inkscape:document-units="px"
     inkscape:current-layer="layer1"
     showgrid="false"
     units="in"
     inkscape:window-width="1920"
     inkscape:window-height="1017"
     inkscape:window-x="-8"
     inkscape:window-y="-8"
     inkscape:window-maximized="1" />
  <metadata
     id="metadata5444">
    <rdf:RDF>
      <cc:Work
         rdf:about="">
        <dc:format>image/svg+xml</dc:format>
        <dc:type
           rdf:resource="http://purl.org/dc/dcmitype/StillImage" />
        <dc:title />
      </cc:Work>
    </rdf:RDF>
  </metadata>
  <g
     inkscape:label="Layer 1"
     inkscape:groupmode="layer"
     id="layer1"
     transform="translate(0,27.637855)">
    <flowRoot
       xml:space="preserve"
       id="flowRoot4136"
       style="font-style:normal;font-weight:normal;font-size:40px;line-height:125%;font-family:sans-serif;letter-spacing:0px;word-spacing:0px;fill:#ff00ff;fill-opacity:1;stroke:none;stroke-width:1px;stroke-linecap:butt;stroke-linejoin:miter;stroke-opacity:1"
       transform="translate(92.96094,-79.19516)"><flowRegion
         id="flowRegion4138"><rect
           id="rect4140"
           width="251.42857"
           height="194.28572"
           x="-285.71429"
           y="50"
           style="fill:#ff00ff;fill-opacity:1" /></flowRegion><flowPara
         id="flowPara4144">^GRAIN</flowPara><flowPara
         id="flowPara4148">^DIR</flowPara></flowRoot>    <path
       id="path6105"
       style="fill:none;stroke:#000000;stroke-width:0.5;stroke-linecap:round"
       d="m 805.61145,290.26938 0,19.8 19.8,0 0,-19.8 z m -545.4,19.8 0,-19.8 -19.8,0 0,19.8 z m 545.4,-205.2 19.8,0 0,-19.799993 -19.8,0 z m -565.2,0 19.8,0 0,-19.799993 -19.8,0 z m 45,-64.799993 0,-22.5 -112.5,0 0,359.999993 112.5,0 0,-22.5 135,0 0,22.5 225,0 0,-22.5 135,0 0,22.5 112.5,0 0,-359.999993 -112.5,0 0,22.5 -135,0 0,-22.5 -225,0 0,22.5 z"
       inkscape:connector-curvature="0"
       sodipodi:nodetypes="ccccccccccccccccccccccccccccccccccccccccc" />
    <path
       id="path4193-4-6"
       style="fill:none;stroke:#000000;stroke-width:0.5;stroke-linecap:round"
       d="m 84.81357,559.98114 a 11.25,11.25 0 1 0 21.80144,0 m 10.35913,-360.02163 a 47.25,47.25 0 0 0 25.99015,-42.19694 m -10.17,0 a 37.080005,37.080005 0 0 0 -74.16,0 m -10.17,0 a 47.25,47.25 0 0 0 25.99016,42.19694 m 23.03149,384.06293 a 19.488189,19.488189 0 0 0 19.4882,-19.4882 m -42.51969,0 a 19.488189,19.488189 0 0 0 19.48819,19.4882 m 23.0315,-384.06293 0,364.57473 m 15.82015,-406.77167 10.17,0 m -84.33,0 -10.17,0 m 25.99016,42.19694 0,364.57473 m 19.48819,19.4882 3.5433,0 m -12.67237,-24.0413 21.80144,0"
       inkscape:connector-curvature="0" />
    <path
       id="path7513"
       style="fill:none;stroke:#000000;stroke-width:0.5;stroke-linecap:round"
       d="m 157.75945,444.01667 0,-47.7 -25.2,0 0,47.7 z"
       inkscape:connector-curvature="0"
       sodipodi:nodetypes="ccccc" />
    <path
       id="path7513-5"
       style="fill:none;stroke:#000000;stroke-width:0.5;stroke-linecap:round"
       d="m 198.27678,445.34078 0,-47.7 -25.2,0 0,47.7 z"
       inkscape:connector-curvature="0"
       sodipodi:nodetypes="ccccc" />
    <path
       id="path7513-9"
       style="fill:none;stroke:#000000;stroke-width:0.5;stroke-linecap:round"
       d="m 157.30382,501.46444 0,-47.7 -25.2,0 0,47.7 z"
       inkscape:connector-curvature="0"
       sodipodi:nodetypes="ccccc" />
    <path
       id="path7513-5-0"
       style="fill:none;stroke:#000000;stroke-width:0.5;stroke-linecap:round"
       d="m 197.82115,502.78855 0,-47.7 -25.2,0 0,47.7 z"
       inkscape:connector-curvature="0"
       sodipodi:nodetypes="ccccc" />
    <path
       id="path3471"
       style="fill:none;stroke:#000000;stroke-width:0.5;stroke-linecap:round"
       d="m 933.48997,617.79299 22.5,0 0,-179.99999 -22.5,0 0,-45 -675,0 0,45 -22.5,0 0,179.99999 22.5,0 0,45 90,0 0,22.5 135,0 0,-22.5 225,0 0,22.5 135,0 0,-22.5 90,0 z m -28.35,-11.25 c 0,-7.2 -10.8,-7.2 -10.8,0 0,7.19999 10.8,7.2 10.8,0 z m -607.5,0 c 0,-7.2 -10.8,-7.2 -10.8,0 0,7.2 10.8,7.2 10.8,0 z m 551.9799,-24.75 c 0.0117,-5.87899 -4.75091,-10.65105 -10.6299,-10.65105 -5.879,0 -10.64159,4.77206 -10.6299,10.65105 -0.0117,5.87899 4.7509,10.65105 10.6299,10.65105 5.87899,0 10.64158,-4.77206 10.6299,-10.65105 z m -485.99998,0 c 0.003,-5.87255 -4.75738,-10.63453 -10.62992,-10.63453 -5.87255,0 -10.63247,4.76198 -10.62992,10.63453 -0.003,5.87255 4.75737,10.63453 10.62992,10.63453 5.87254,0 10.63246,-4.76198 10.62992,-10.63453 z m 161.99998,0 c 0.0117,-5.87899 -4.75091,-10.65105 -10.6299,-10.65105 -5.879,0 -10.64159,4.77206 -10.6299,10.65105 -0.0117,5.87899 4.7509,10.65105 10.6299,10.65105 5.87899,0 10.64158,-4.77206 10.6299,-10.65105 z m 162,0 c 0.0117,-5.87899 -4.75091,-10.65105 -10.6299,-10.65105 -5.879,0 -10.64159,4.77206 -10.6299,10.65105 -0.0117,5.87899 4.7509,10.65105 10.6299,10.65105 5.87899,0 10.64158,-4.77206 10.6299,-10.65105 z M 363.61989,473.793 c 0.003,-5.87255 -4.75738,-10.63453 -10.62992,-10.63453 -5.87255,0 -10.63247,4.76198 -10.62992,10.63453 -0.003,5.87255 4.75737,10.63453 10.62992,10.63453 5.87254,0 10.63246,-4.76198 10.62992,-10.63453 z m 161.99998,0 c 0.0117,-5.87899 -4.75091,-10.65105 -10.6299,-10.65105 -5.879,0 -10.64159,4.77206 -10.6299,10.65105 -0.0117,5.87899 4.7509,10.65105 10.6299,10.65105 5.87899,0 10.64158,-4.77206 10.6299,-10.65105 z m 162,0 c 0.0117,-5.87899 -4.75091,-10.65105 -10.6299,-10.65105 -5.879,0 -10.64159,4.77206 -10.6299,10.65105 -0.0117,5.87899 4.7509,10.65105 10.6299,10.65105 5.87899,0 10.64158,-4.77206 10.6299,-10.65105 z m 162,0 c 0.0117,-5.87899 -4.75091,-10.65105 -10.6299,-10.65105 -5.879,0 -10.64159,4.77206 -10.6299,10.65105 -0.0117,5.87899 4.7509,10.65105 10.6299,10.65105 5.87899,0 10.64158,-4.77206 10.6299,-10.65105 z"
       inkscape:connector-curvature="0"
       sodipodi:nodetypes="cccccccccccccccccccccsssssscscsccscsccscsccscsccscsccscsccscsccscsc" />
    <path
       id="path3665"
       style="fill:none;stroke:#000000;stroke-width:0.5;stroke-linecap:round"
       d="m 56.368588,11.695086 0,90.000004 67.500002,0 0,-90.000004 z m 41.85,33.75 c 0,-4.47351 -3.626494,-8.099997 -8.1,-8.099997 -4.473507,0 -8.1,3.626487 -8.1,8.099997 0,4.473509 3.626494,8.099996 8.1,8.099996 4.473506,0 8.1,-3.626487 8.1,-8.099996 z"
       inkscape:connector-curvature="0"
       sodipodi:nodetypes="cccccsssss" />
    <path
       id="path3771"
       style="fill:none;stroke:#000000;stroke-width:0.5;stroke-linecap:round"
       d="m 306.71332,706.21689 0,-22.49997 -135,0 0,22.49997 -90.000002,0 0,45 -22.5,0 0,179.99999 22.5,0 0,45.00001 674.999982,0 0,-45.00001 22.5,0 0,-179.99999 -22.5,0 0,-45 -90,0 0,-22.49997 -134.99998,0 0,22.49997 z m 410.84998,56.25 c 0,7.2 10.8,7.2 10.8,0 0,-7.2 -10.8,-7.2 -10.8,0 z m -607.49998,0 c 0,7.2 10.8,7.2 10.8,0 0,-7.2 -10.8,-7.2 -10.8,0 z"
       inkscape:connector-curvature="0"
       sodipodi:nodetypes="cccccccccccccccccccccssssss" />
  </g>
</svg>
